o data/uid/01015058/s/000003.obj
//1
usemtl mat0
v 2.48519 -0.052292 -0.441317
v 2.52354 -0.052292 -0.003067
v 2.40335 -0.052292 -0.003067
vn 0 -1 -0
vn 0 -1 -0
vn 0 -1 -0
vt 0.70789 -11.4139
vt 0.702757 -12.0041
vt 0.643442 -12.0039
f 1/1/1 2/2/2 3/3/3
v 2.36684 -0.052292 -0.420448
v 2.48519 -0.052292 -0.441317
v 2.40335 -0.052292 -0.003067
vn -0 -1 -0
vn -0 -1 -0
vn -0 -1 -0
vt 0.648576 -11.4137
vt 0.70789 -11.4139
vt 0.643442 -12.0039
f 4/4/4 5/5/5 6/6/6
v 2.48519 0.047858 -0.441317
v 2.52354 0.047858 -0.003067
v 2.52354 -0.052292 -0.003067
vn 0.996195 0 -0.087156
vn 0.996195 0 -0.087156
vn 0.996195 0 -0.087156
vt 4.5287 -11.4265
vt 4.52357 -12.0168
vt 0.702757 -12.0041
f 7/7/7 8/8/8 9/9/9
v 2.48519 -0.052292 -0.441317
v 2.48519 0.047858 -0.441317
v 2.52354 -0.052292 -0.003067
vn 0.996195 0 -0.087156
vn 0.996195 0 -0.087156
vn 0.996195 0 -0.087156
vt 0.70789 -11.4139
vt 4.5287 -11.4265
vt 0.702757 -12.0041
f 10/10/10 11/11/11 12/12/12
v 2.36684 0.047858 -0.420448
v 2.40335 0.047858 -0.003067
v 2.52354 0.047858 -0.003067
vn 0 1 0
vn 0 1 0
vn 0 1 0
vt 4.58802 -11.4267
vt 4.58288 -12.017
vt 4.52357 -12.0168
f 13/13/13 14/14/14 15/15/15
v 2.48519 0.047858 -0.441317
v 2.36684 0.047858 -0.420448
v 2.52354 0.047858 -0.003067
vn 0 1 0
vn 0 1 0
vn 0 1 0
vt 4.5287 -11.4265
vt 4.58802 -11.4267
vt 4.52357 -12.0168
f 16/16/16 17/17/17 18/18/18
v 2.36684 -0.052292 -0.420448
v 2.40335 -0.052292 -0.003067
v 2.40335 0.047858 -0.003067
vn -0.996195 0 0.0871554
vn -0.996195 0 0.0871554
vn -0.996195 0 0.0871554
vt 0.648576 -11.4137
vt 0.643442 -12.0039
vt 4.58288 -12.017
f 19/19/19 20/20/20 21/21/21
v 2.36684 0.047858 -0.420448
v 2.36684 -0.052292 -0.420448
v 2.40335 0.047858 -0.003067
vn -0.996195 0 0.0871554
vn -0.996195 0 0.0871554
vn -0.996195 0 0.0871554
vt 4.58802 -11.4267
vt 0.648576 -11.4137
vt 4.58288 -12.017
f 22/22/22 23/23/23 24/24/24
v 2.37133 -0.052292 -0.866251
v 2.48519 -0.052292 -0.441317
v 2.36684 -0.052292 -0.420448
vn 0 -1 -0
vn 0 -1 -0
vn 0 -1 -0
vt 0.713024 -10.8236
vt 0.70789 -11.4139
vt 0.648576 -11.4137
f 25/25/25 26/26/26 27/27/27
v 2.2584 -0.052292 -0.825147
v 2.37133 -0.052292 -0.866251
v 2.36684 -0.052292 -0.420448
vn -0 -1 -0
vn -0 -1 -0
vn -0 -1 -0
vt 0.653708 -10.8234
vt 0.713024 -10.8236
vt 0.648576 -11.4137
f 28/28/28 29/29/29 30/30/30
v 2.37133 0.047858 -0.866251
v 2.48519 0.047858 -0.441317
v 2.48519 -0.052292 -0.441317
vn 0.965926 0 -0.25882
vn 0.965926 0 -0.25882
vn 0.965926 0 -0.25882
vt 4.53383 -10.8362
vt 4.5287 -11.4265
vt 0.70789 -11.4139
f 31/31/31 32/32/32 33/33/33
v 2.37133 -0.052292 -0.866251
v 2.37133 0.047858 -0.866251
v 2.48519 -0.052292 -0.441317
vn 0.965926 0 -0.25882
vn 0.965926 0 -0.25882
vn 0.965926 0 -0.25882
vt 0.713024 -10.8236
vt 4.53383 -10.8362
vt 0.70789 -11.4139
f 34/34/34 35/35/35 36/36/36
v 2.2584 0.047858 -0.825147
v 2.36684 0.047858 -0.420448
v 2.48519 0.047858 -0.441317
vn 0 1 0
vn 0 1 0
vn 0 1 0
vt 4.59315 -10.8364
vt 4.58802 -11.4267
vt 4.5287 -11.4265
f 37/37/37 38/38/38 39/39/39
v 2.37133 0.047858 -0.866251
v 2.2584 0.047858 -0.825147
v 2.48519 0.047858 -0.441317
vn 0 1 0
vn 0 1 0
vn 0 1 0
vt 4.53383 -10.8362
vt 4.59315 -10.8364
vt 4.5287 -11.4265
f 40/40/40 41/41/41 42/42/42
v 2.2584 -0.052292 -0.825147
v 2.36684 -0.052292 -0.420448
v 2.36684 0.047858 -0.420448
vn -0.965926 0 0.258817
vn -0.965926 0 0.258817
vn -0.965926 0 0.258817
vt 0.653708 -10.8234
vt 0.648576 -11.4137
vt 4.58802 -11.4267
f 43/43/43 44/44/44 45/45/45
v 2.2584 0.047858 -0.825147
v 2.2584 -0.052292 -0.825147
v 2.36684 0.047858 -0.420448
vn -0.965926 0 0.258817
vn -0.965926 0 0.258817
vn -0.965926 0 0.258817
vt 4.59315 -10.8364
vt 0.653708 -10.8234
vt 4.58802 -11.4267
f 46/46/46 47/47/47 48/48/48
v 2.18541 -0.052292 -1.26496
v 2.37133 -0.052292 -0.866251
v 2.2584 -0.052292 -0.825147
vn 0 -1 -0
vn 0 -1 -0
vn 0 -1 -0
vt 0.718157 -10.2333
vt 0.713024 -10.8236
vt 0.653708 -10.8234
f 49/49/49 50/50/50 51/51/51
v 2.08133 -0.052292 -1.20487
v 2.18541 -0.052292 -1.26496
v 2.2584 -0.052292 -0.825147
vn -0 -1 0
vn -0 -1 0
vn -0 -1 0
vt 0.658843 -10.2331
vt 0.718157 -10.2333
vt 0.653708 -10.8234
f 52/52/52 53/53/53 54/54/54
v 2.18541 0.047858 -1.26496
v 2.37133 0.047858 -0.866251
v 2.37133 -0.052292 -0.866251
vn 0.906308 0 -0.422619
vn 0.906308 0 -0.422619
vn 0.906308 0 -0.422619
vt 4.53897 -10.246
vt 4.53383 -10.8362
vt 0.713024 -10.8236
f 55/55/55 56/56/56 57/57/57
v 2.18541 -0.052292 -1.26496
v 2.18541 0.047858 -1.26496
v 2.37133 -0.052292 -0.866251
vn 0.906308 0 -0.422619
vn 0.906308 0 -0.422619
vn 0.906308 0 -0.422619
vt 0.718157 -10.2333
vt 4.53897 -10.246
vt 0.713024 -10.8236
f 58/58/58 59/59/59 60/60/60
v 2.08133 0.047858 -1.20487
v 2.2584 0.047858 -0.825147
v 2.37133 0.047858 -0.866251
vn 0 1 0
vn 0 1 0
vn 0 1 0
vt 4.59828 -10.2462
vt 4.59315 -10.8364
vt 4.53383 -10.8362
f 61/61/61 62/62/62 63/63/63
v 2.18541 0.047858 -1.26496
v 2.08133 0.047858 -1.20487
v 2.37133 0.047858 -0.866251
vn 0 1 0
vn 0 1 0
vn 0 1 0
vt 4.53897 -10.246
vt 4.59828 -10.2462
vt 4.53383 -10.8362
f 64/64/64 65/65/65 66/66/66
v 2.08133 -0.052292 -1.20487
v 2.2584 -0.052292 -0.825147
v 2.2584 0.047858 -0.825147
vn -0.906307 0 0.42262
vn -0.906307 0 0.42262
vn -0.906307 0 0.42262
vt 0.658843 -10.2331
vt 0.653708 -10.8234
vt 4.59315 -10.8364
f 67/67/67 68/68/68 69/69/69
v 2.08133 0.047858 -1.20487
v 2.08133 -0.052292 -1.20487
v 2.2584 0.047858 -0.825147
vn -0.906307 0 0.42262
vn -0.906307 0 0.42262
vn -0.906307 0 0.42262
vt 4.59828 -10.2462
vt 0.658843 -10.2331
vt 4.59315 -10.8364
f 70/70/70 71/71/71 72/72/72
v 1.93308 -0.052292 -1.62532
v 2.18541 -0.052292 -1.26496
v 2.08133 -0.052292 -1.20487
vn 0 -1 -0
vn 0 -1 -0
vn 0 -1 -0
vt 0.72329 -9.64302
vt 0.718157 -10.2333
vt 0.658843 -10.2331
f 73/73/73 74/74/74 75/75/75
v 1.84102 -0.052292 -1.54807
v 1.93308 -0.052292 -1.62532
v 2.08133 -0.052292 -1.20487
vn -0 -1 0
vn -0 -1 0
vn -0 -1 0
vt 0.663975 -9.64282
vt 0.72329 -9.64302
vt 0.658843 -10.2331
f 76/76/76 77/77/77 78/78/78
v 1.93308 0.047858 -1.62532
v 2.18541 0.047858 -1.26496
v 2.18541 -0.052292 -1.26496
vn 0.819152 0 -0.573576
vn 0.819152 0 -0.573576
vn 0.819152 0 -0.573576
vt 4.5441 -9.65569
vt 4.53897 -10.246
vt 0.718157 -10.2333
f 79/79/79 80/80/80 81/81/81
v 1.93308 -0.052292 -1.62532
v 1.93308 0.047858 -1.62532
v 2.18541 -0.052292 -1.26496
vn 0.819152 0 -0.573576
vn 0.819152 0 -0.573576
vn 0.819152 0 -0.573576
vt 0.72329 -9.64302
vt 4.5441 -9.65569
vt 0.718157 -10.2333
f 82/82/82 83/83/83 84/84/84
v 1.84102 0.047858 -1.54807
v 2.08133 0.047858 -1.20487
v 2.18541 0.047858 -1.26496
vn 0 1 0
vn 0 1 0
vn 0 1 0
vt 4.60342 -9.65588
vt 4.59828 -10.2462
vt 4.53897 -10.246
f 85/85/85 86/86/86 87/87/87
v 1.93308 0.047858 -1.62532
v 1.84102 0.047858 -1.54807
v 2.18541 0.047858 -1.26496
vn 0 1 0
vn 0 1 0
vn 0 1 0
vt 4.5441 -9.65569
vt 4.60342 -9.65588
vt 4.53897 -10.246
f 88/88/88 89/89/89 90/90/90
v 1.84102 -0.052292 -1.54807
v 2.08133 -0.052292 -1.20487
v 2.08133 0.047858 -1.20487
vn -0.819153 0 0.573575
vn -0.819153 0 0.573575
vn -0.819153 0 0.573575
vt 0.663975 -9.64282
vt 0.658843 -10.2331
vt 4.59828 -10.2462
f 91/91/91 92/92/92 93/93/93
v 1.84102 0.047858 -1.54807
v 1.84102 -0.052292 -1.54807
v 2.08133 0.047858 -1.20487
vn -0.819153 0 0.573575
vn -0.819153 0 0.573575
vn -0.819153 0 0.573575
vt 4.60342 -9.65588
vt 0.663975 -9.64282
vt 4.59828 -10.2462
f 94/94/94 95/95/95 96/96/96
v 1.62201 -0.052292 -1.9364
v 1.93308 -0.052292 -1.62532
v 1.84102 -0.052292 -1.54807
vn 0 -1 -0
vn 0 -1 -0
vn 0 -1 -0
vt 0.728425 -9.05275
vt 0.72329 -9.64302
vt 0.663975 -9.64282
f 97/97/97 98/98/98 99/99/99
v 1.54476 -0.052292 -1.84433
v 1.62201 -0.052292 -1.9364
v 1.84102 -0.052292 -1.54807
vn -0 -1 0
vn -0 -1 0
vn -0 -1 0
vt 0.66911 -9.05255
vt 0.728425 -9.05275
vt 0.663975 -9.64282
f 100/100/100 101/101/101 102/102/102
v 1.62201 0.047858 -1.9364
v 1.93308 0.047858 -1.62532
v 1.93308 -0.052292 -1.62532
vn 0.707107 0 -0.707107
vn 0.707107 0 -0.707107
vn 0.707107 0 -0.707107
vt 4.54923 -9.06541
vt 4.5441 -9.65569
vt 0.72329 -9.64302
f 103/103/103 104/104/104 105/105/105
v 1.62201 -0.052292 -1.9364
v 1.62201 0.047858 -1.9364
v 1.93308 -0.052292 -1.62532
vn 0.707107 0 -0.707107
vn 0.707107 0 -0.707107
vn 0.707107 0 -0.707107
vt 0.728425 -9.05275
vt 4.54923 -9.06541
vt 0.72329 -9.64302
f 106/106/106 107/107/107 108/108/108
v 1.54476 0.047858 -1.84433
v 1.84102 0.047858 -1.54807
v 1.93308 0.047858 -1.62532
vn 0 1 0
vn 0 1 0
vn 0 1 0
vt 4.60855 -9.06561
vt 4.60342 -9.65588
vt 4.5441 -9.65569
f 109/109/109 110/110/110 111/111/111
v 1.62201 0.047858 -1.9364
v 1.54476 0.047858 -1.84433
v 1.93308 0.047858 -1.62532
vn 0 1 0
vn 0 1 0
vn 0 1 0
vt 4.54923 -9.06541
vt 4.60855 -9.06561
vt 4.5441 -9.65569
f 112/112/112 113/113/113 114/114/114
v 1.54476 -0.052292 -1.84433
v 1.84102 -0.052292 -1.54807
v 1.84102 0.047858 -1.54807
vn -0.707107 0 0.707107
vn -0.707107 0 0.707107
vn -0.707107 0 0.707107
vt 0.66911 -9.05255
vt 0.663975 -9.64282
vt 4.60342 -9.65588
f 115/115/115 116/116/116 117/117/117
v 1.54476 0.047858 -1.84433
v 1.54476 -0.052292 -1.84433
v 1.84102 0.047858 -1.54807
vn -0.707107 0 0.707107
vn -0.707107 0 0.707107
vn -0.707107 0 0.707107
vt 4.60855 -9.06561
vt 0.66911 -9.05255
vt 4.60342 -9.65588
f 118/118/118 119/119/119 120/120/120
v 1.26164 -0.052292 -2.18872
v 1.62201 -0.052292 -1.9364
v 1.54476 -0.052292 -1.84433
vn 0 -1 -0
vn 0 -1 -0
vn 0 -1 -0
vt 0.733557 -8.46247
vt 0.728425 -9.05275
vt 0.66911 -9.05255
f 121/121/121 122/122/122 123/123/123
v 1.20155 -0.052292 -2.08465
v 1.26164 -0.052292 -2.18872
v 1.54476 -0.052292 -1.84433
vn -0 -1 0
vn -0 -1 0
vn -0 -1 0
vt 0.674243 -8.46227
vt 0.733557 -8.46247
vt 0.66911 -9.05255
f 124/124/124 125/125/125 126/126/126
v 1.26164 0.047858 -2.18872
v 1.62201 0.047858 -1.9364
v 1.62201 -0.052292 -1.9364
vn 0.573576 0 -0.819152
vn 0.573576 0 -0.819152
vn 0.573576 0 -0.819152
vt 4.55437 -8.47513
vt 4.54923 -9.06541
vt 0.728425 -9.05275
f 127/127/127 128/128/128 129/129/129
v 1.26164 -0.052292 -2.18872
v 1.26164 0.047858 -2.18872
v 1.62201 -0.052292 -1.9364
vn 0.573576 0 -0.819152
vn 0.573576 0 -0.819152
vn 0.573576 0 -0.819152
vt 0.733557 -8.46247
vt 4.55437 -8.47513
vt 0.728425 -9.05275
f 130/130/130 131/131/131 132/132/132
v 1.20155 0.047858 -2.08465
v 1.54476 0.047858 -1.84433
v 1.62201 0.047858 -1.9364
vn 0 1 0
vn 0 1 0
vn 0 1 0
vt 4.61368 -8.47533
vt 4.60855 -9.06561
vt 4.54923 -9.06541
f 133/133/133 134/134/134 135/135/135
v 1.26164 0.047858 -2.18872
v 1.20155 0.047858 -2.08465
v 1.62201 0.047858 -1.9364
vn 0 1 0
vn 0 1 0
vn 0 1 0
vt 4.55437 -8.47513
vt 4.61368 -8.47533
vt 4.54923 -9.06541
f 136/136/136 137/137/137 138/138/138
v 1.20155 -0.052292 -2.08465
v 1.54476 -0.052292 -1.84433
v 1.54476 0.047858 -1.84433
vn -0.573575 0 0.819153
vn -0.573575 0 0.819153
vn -0.573575 0 0.819153
vt 0.674243 -8.46227
vt 0.66911 -9.05255
vt 4.60855 -9.06561
f 139/139/139 140/140/140 141/141/141
v 1.20155 0.047858 -2.08465
v 1.20155 -0.052292 -2.08465
v 1.54476 0.047858 -1.84433
vn -0.573575 0 0.819153
vn -0.573575 0 0.819153
vn -0.573575 0 0.819153
vt 4.61368 -8.47533
vt 0.674243 -8.46227
vt 4.60855 -9.06561
f 142/142/142 143/143/143 144/144/144
v 0.862938 -0.052292 -2.37464
v 1.26164 -0.052292 -2.18872
v 1.20155 -0.052292 -2.08465
vn 0 -1 -0
vn 0 -1 -0
vn 0 -1 -0
vt 0.738692 -7.87219
vt 0.733557 -8.46247
vt 0.674243 -8.46227
f 145/145/145 146/146/146 147/147/147
v 0.821834 -0.052292 -2.26171
v 0.862938 -0.052292 -2.37464
v 1.20155 -0.052292 -2.08465
vn -0 -1 0
vn -0 -1 0
vn -0 -1 0
vt 0.679376 -7.87199
vt 0.738692 -7.87219
vt 0.674243 -8.46227
f 148/148/148 149/149/149 150/150/150
v 0.862938 0.047858 -2.37464
v 1.26164 0.047858 -2.18872
v 1.26164 -0.052292 -2.18872
vn 0.422619 0 -0.906307
vn 0.422619 0 -0.906307
vn 0.422619 0 -0.906307
vt 4.5595 -7.88486
vt 4.55437 -8.47513
vt 0.733557 -8.46247
f 151/151/151 152/152/152 153/153/153
v 0.862938 -0.052292 -2.37464
v 0.862938 0.047858 -2.37464
v 1.26164 -0.052292 -2.18872
vn 0.422619 0 -0.906307
vn 0.422619 0 -0.906307
vn 0.422619 0 -0.906307
vt 0.738692 -7.87219
vt 4.5595 -7.88486
vt 0.733557 -8.46247
f 154/154/154 155/155/155 156/156/156
v 0.821834 0.047858 -2.26171
v 1.20155 0.047858 -2.08465
v 1.26164 0.047858 -2.18872
vn 0 1 0
vn 0 1 0
vn 0 1 0
vt 4.61882 -7.88506
vt 4.61368 -8.47533
vt 4.55437 -8.47513
f 157/157/157 158/158/158 159/159/159
v 0.862938 0.047858 -2.37464
v 0.821834 0.047858 -2.26171
v 1.26164 0.047858 -2.18872
vn 0 1 0
vn 0 1 0
vn 0 1 0
vt 4.5595 -7.88486
vt 4.61882 -7.88506
vt 4.55437 -8.47513
f 160/160/160 161/161/161 162/162/162
v 0.821834 -0.052292 -2.26171
v 1.20155 -0.052292 -2.08465
v 1.20155 0.047858 -2.08465
vn -0.42262 0 0.906307
vn -0.42262 0 0.906307
vn -0.42262 0 0.906307
vt 0.679376 -7.87199
vt 0.674243 -8.46227
vt 4.61368 -8.47533
f 163/163/163 164/164/164 165/165/165
v 0.821834 0.047858 -2.26171
v 0.821834 -0.052292 -2.26171
v 1.20155 0.047858 -2.08465
vn -0.42262 0 0.906307
vn -0.42262 0 0.906307
vn -0.42262 0 0.906307
vt 4.61882 -7.88506
vt 0.679376 -7.87199
vt 4.61368 -8.47533
f 166/166/166 167/167/167 168/168/168
v 0.438004 -0.052292 -2.4885
v 0.862938 -0.052292 -2.37464
v 0.821834 -0.052292 -2.26171
vn 0 -1 -0
vn 0 -1 -0
vn 0 -1 -0
vt 0.743825 -7.28192
vt 0.738692 -7.87219
vt 0.679376 -7.87199
f 169/169/169 170/170/170 171/171/171
v 0.417135 -0.052292 -2.37015
v 0.438004 -0.052292 -2.4885
v 0.821834 -0.052292 -2.26171
vn -0 -1 0
vn -0 -1 0
vn -0 -1 0
vt 0.68451 -7.28172
vt 0.743825 -7.28192
vt 0.679376 -7.87199
f 172/172/172 173/173/173 174/174/174
v 0.438004 0.047858 -2.4885
v 0.862938 0.047858 -2.37464
v 0.862938 -0.052292 -2.37464
vn 0.258817 0 -0.965926
vn 0.258817 0 -0.965926
vn 0.258817 0 -0.965926
vt 4.56463 -7.29458
vt 4.5595 -7.88486
vt 0.738692 -7.87219
f 175/175/175 176/176/176 177/177/177
v 0.438004 -0.052292 -2.4885
v 0.438004 0.047858 -2.4885
v 0.862938 -0.052292 -2.37464
vn 0.258817 0 -0.965926
vn 0.258817 0 -0.965926
vn 0.258817 0 -0.965926
vt 0.743825 -7.28192
vt 4.56463 -7.29458
vt 0.738692 -7.87219
f 178/178/178 179/179/179 180/180/180
v 0.417135 0.047858 -2.37015
v 0.821834 0.047858 -2.26171
v 0.862938 0.047858 -2.37464
vn 0 1 0
vn 0 1 0
vn 0 1 0
vt 4.62395 -7.29478
vt 4.61882 -7.88506
vt 4.5595 -7.88486
f 181/181/181 182/182/182 183/183/183
v 0.438004 0.047858 -2.4885
v 0.417135 0.047858 -2.37015
v 0.862938 0.047858 -2.37464
vn 0 1 0
vn 0 1 0
vn 0 1 0
vt 4.56463 -7.29458
vt 4.62395 -7.29478
vt 4.5595 -7.88486
f 184/184/184 185/185/185 186/186/186
v 0.417135 -0.052292 -2.37015
v 0.821834 -0.052292 -2.26171
v 0.821834 0.047858 -2.26171
vn -0.258817 0 0.965926
vn -0.258817 0 0.965926
vn -0.258817 0 0.965926
vt 0.68451 -7.28172
vt 0.679376 -7.87199
vt 4.61882 -7.88506
f 187/187/187 188/188/188 189/189/189
v 0.417135 0.047858 -2.37015
v 0.417135 -0.052292 -2.37015
v 0.821834 0.047858 -2.26171
vn -0.258817 0 0.965926
vn -0.258817 0 0.965926
vn -0.258817 0 0.965926
vt 4.62395 -7.29478
vt 0.68451 -7.28172
vt 4.61882 -7.88506
f 190/190/190 191/191/191 192/192/192
v -0.000246 -0.052292 -2.52685
v 0.438004 -0.052292 -2.4885
v 0.417135 -0.052292 -2.37015
vn 0 -1 -0
vn 0 -1 -0
vn 0 -1 -0
vt 0.748959 -6.69164
vt 0.743825 -7.28192
vt 0.68451 -7.28172
f 193/193/193 194/194/194 195/195/195
v -0.000246 -0.052292 -2.40667
v -0.000246 -0.052292 -2.52685
v 0.417135 -0.052292 -2.37015
vn -0 -1 0
vn -0 -1 0
vn -0 -1 0
vt 0.689643 -6.69144
vt 0.748959 -6.69164
vt 0.68451 -7.28172
f 196/196/196 197/197/197 198/198/198
v -0.000246 0.047858 -2.52685
v 0.438004 0.047858 -2.4885
v 0.438004 -0.052292 -2.4885
vn 0.087156 0 -0.996195
vn 0.087156 0 -0.996195
vn 0.087156 0 -0.996195
vt 4.56977 -6.70431
vt 4.56463 -7.29458
vt 0.743825 -7.28192
f 199/199/199 200/200/200 201/201/201
v -0.000246 -0.052292 -2.52685
v -0.000246 0.047858 -2.52685
v 0.438004 -0.052292 -2.4885
vn 0.087156 0 -0.996195
vn 0.087156 0 -0.996195
vn 0.087156 0 -0.996195
vt 0.748959 -6.69164
vt 4.56977 -6.70431
vt 0.743825 -7.28192
f 202/202/202 203/203/203 204/204/204
v -0.000246 0.047858 -2.40667
v 0.417135 0.047858 -2.37015
v 0.438004 0.047858 -2.4885
vn 0 1 0
vn 0 1 0
vn 0 1 0
vt 4.62908 -6.7045
vt 4.62395 -7.29478
vt 4.56463 -7.29458
f 205/205/205 206/206/206 207/207/207
v -0.000246 0.047858 -2.52685
v -0.000246 0.047858 -2.40667
v 0.438004 0.047858 -2.4885
vn 0 1 0
vn 0 1 0
vn 0 1 0
vt 4.56977 -6.70431
vt 4.62908 -6.7045
vt 4.56463 -7.29458
f 208/208/208 209/209/209 210/210/210
v -0.000246 -0.052292 -2.40667
v 0.417135 -0.052292 -2.37015
v 0.417135 0.047858 -2.37015
vn -0.0871554 0 0.996195
vn -0.0871554 0 0.996195
vn -0.0871554 0 0.996195
vt 0.689643 -6.69144
vt 0.68451 -7.28172
vt 4.62395 -7.29478
f 211/211/211 212/212/212 213/213/213
v -0.000246 0.047858 -2.40667
v -0.000246 -0.052292 -2.40667
v 0.417135 0.047858 -2.37015
vn -0.0871554 0 0.996195
vn -0.0871554 0 0.996195
vn -0.0871554 0 0.996195
vt 4.62908 -6.7045
vt 0.689643 -6.69144
vt 4.62395 -7.29478
f 214/214/214 215/215/215 216/216/216
v -0.438495 -0.052292 -2.4885
v -0.000246 -0.052292 -2.52685
v -0.000246 -0.052292 -2.40667
vn -0 -1 -0
vn -0 -1 -0
vn -0 -1 -0
vt 0.754091 -6.10136
vt 0.748959 -6.69164
vt 0.689643 -6.69144
f 217/217/217 218/218/218 219/219/219
v -0.417626 -0.052292 -2.37015
v -0.438495 -0.052292 -2.4885
v -0.000246 -0.052292 -2.40667
vn -0 -1 0
vn -0 -1 0
vn -0 -1 0
vt 0.694777 -6.10116
vt 0.754091 -6.10136
vt 0.689643 -6.69144
f 220/220/220 221/221/221 222/222/222
v -0.438495 0.047858 -2.4885
v -0.000246 0.047858 -2.52685
v -0.000246 -0.052292 -2.52685
vn -0.0871561 0 -0.996195
vn -0.0871561 0 -0.996195
vn -0.0871561 0 -0.996195
vt 4.5749 -6.11403
vt 4.56977 -6.70431
vt 0.748959 -6.69164
f 223/223/223 224/224/224 225/225/225
v -0.438495 -0.052292 -2.4885
v -0.438495 0.047858 -2.4885
v -0.000246 -0.052292 -2.52685
vn -0.0871561 -0 -0.996195
vn -0.0871561 -0 -0.996195
vn -0.0871561 -0 -0.996195
vt 0.754091 -6.10136
vt 4.5749 -6.11403
vt 0.748959 -6.69164
f 226/226/226 227/227/227 228/228/228
v -0.417626 0.047858 -2.37015
v -0.000246 0.047858 -2.40667
v -0.000246 0.047858 -2.52685
vn 0 1 -0
vn 0 1 -0
vn 0 1 -0
vt 4.63422 -6.11423
vt 4.62908 -6.7045
vt 4.56977 -6.70431
f 229/229/229 230/230/230 231/231/231
v -0.438495 0.047858 -2.4885
v -0.417626 0.047858 -2.37015
v -0.000246 0.047858 -2.52685
vn 0 1 0
vn 0 1 0
vn 0 1 0
vt 4.5749 -6.11403
vt 4.63422 -6.11423
vt 4.56977 -6.70431
f 232/232/232 233/233/233 234/234/234
v -0.417626 -0.052292 -2.37015
v -0.000246 -0.052292 -2.40667
v -0.000246 0.047858 -2.40667
vn 0.0871556 0 0.996195
vn 0.0871556 0 0.996195
vn 0.0871556 0 0.996195
vt 0.694777 -6.10116
vt 0.689643 -6.69144
vt 4.62908 -6.7045
f 235/235/235 236/236/236 237/237/237
v -0.417626 0.047858 -2.37015
v -0.417626 -0.052292 -2.37015
v -0.000246 0.047858 -2.40667
vn 0.0871556 -0 0.996195
vn 0.0871556 -0 0.996195
vn 0.0871556 -0 0.996195
vt 4.63422 -6.11423
vt 0.694777 -6.10116
vt 4.62908 -6.7045
f 238/238/238 239/239/239 240/240/240
v -0.863429 -0.052292 -2.37464
v -0.438495 -0.052292 -2.4885
v -0.417626 -0.052292 -2.37015
vn -0 -1 0
vn -0 -1 0
vn -0 -1 0
vt 0.759226 -5.51108
vt 0.754091 -6.10136
vt 0.694777 -6.10116
f 241/241/241 242/242/242 243/243/243
v -0.822325 -0.052292 -2.26171
v -0.863429 -0.052292 -2.37464
v -0.417626 -0.052292 -2.37015
vn -0 -1 0
vn -0 -1 0
vn -0 -1 0
vt 0.699911 -5.51088
vt 0.759226 -5.51108
vt 0.694777 -6.10116
f 244/244/244 245/245/245 246/246/246
v -0.863429 0.047858 -2.37464
v -0.438495 0.047858 -2.4885
v -0.438495 -0.052292 -2.4885
vn -0.258817 0 -0.965926
vn -0.258817 0 -0.965926
vn -0.258817 0 -0.965926
vt 4.58004 -5.52375
vt 4.5749 -6.11403
vt 0.754091 -6.10136
f 247/247/247 248/248/248 249/249/249
v -0.863429 -0.052292 -2.37464
v -0.863429 0.047858 -2.37464
v -0.438495 -0.052292 -2.4885
vn -0.258817 -0 -0.965926
vn -0.258817 -0 -0.965926
vn -0.258817 -0 -0.965926
vt 0.759226 -5.51108
vt 4.58004 -5.52375
vt 0.754091 -6.10136
f 250/250/250 251/251/251 252/252/252
v -0.822325 0.047858 -2.26171
v -0.417626 0.047858 -2.37015
v -0.438495 0.047858 -2.4885
vn 0 1 -0
vn 0 1 -0
vn 0 1 -0
vt 4.63935 -5.52395
vt 4.63422 -6.11423
vt 4.5749 -6.11403
f 253/253/253 254/254/254 255/255/255
v -0.863429 0.047858 -2.37464
v -0.822325 0.047858 -2.26171
v -0.438495 0.047858 -2.4885
vn 0 1 0
vn 0 1 0
vn 0 1 0
vt 4.58004 -5.52375
vt 4.63935 -5.52395
vt 4.5749 -6.11403
f 256/256/256 257/257/257 258/258/258
v -0.822325 -0.052292 -2.26171
v -0.417626 -0.052292 -2.37015
v -0.417626 0.047858 -2.37015
vn 0.258817 0 0.965926
vn 0.258817 0 0.965926
vn 0.258817 0 0.965926
vt 0.699911 -5.51088
vt 0.694777 -6.10116
vt 4.63422 -6.11423
f 259/259/259 260/260/260 261/261/261
v -0.822325 0.047858 -2.26171
v -0.822325 -0.052292 -2.26171
v -0.417626 0.047858 -2.37015
vn 0.258817 -0 0.965926
vn 0.258817 -0 0.965926
vn 0.258817 -0 0.965926
vt 4.63935 -5.52395
vt 0.699911 -5.51088
vt 4.63422 -6.11423
f 262/262/262 263/263/263 264/264/264
v -1.26214 -0.052292 -2.18872
v -0.863429 -0.052292 -2.37464
v -0.822325 -0.052292 -2.26171
vn -0 -1 0
vn -0 -1 0
vn -0 -1 0
vt 0.764358 -4.92081
vt 0.759226 -5.51108
vt 0.699911 -5.51088
f 265/265/265 266/266/266 267/267/267
v -1.20205 -0.052292 -2.08465
v -1.26214 -0.052292 -2.18872
v -0.822325 -0.052292 -2.26171
vn 0 -1 0
vn 0 -1 0
vn 0 -1 0
vt 0.705044 -4.92061
vt 0.764358 -4.92081
vt 0.699911 -5.51088
f 268/268/268 269/269/269 270/270/270
v -1.26214 0.047858 -2.18872
v -0.863429 0.047858 -2.37464
v -0.863429 -0.052292 -2.37464
vn -0.422618 0 -0.906308
vn -0.422618 0 -0.906308
vn -0.422618 0 -0.906308
vt 4.58517 -4.93348
vt 4.58004 -5.52375
vt 0.759226 -5.51108
f 271/271/271 272/272/272 273/273/273
v -1.26214 -0.052292 -2.18872
v -1.26214 0.047858 -2.18872
v -0.863429 -0.052292 -2.37464
vn -0.422618 -0 -0.906308
vn -0.422618 -0 -0.906308
vn -0.422618 -0 -0.906308
vt 0.764358 -4.92081
vt 4.58517 -4.93348
vt 0.759226 -5.51108
f 274/274/274 275/275/275 276/276/276
v -1.20205 0.047858 -2.08465
v -0.822325 0.047858 -2.26171
v -0.863429 0.047858 -2.37464
vn 0 1 -0
vn 0 1 -0
vn 0 1 -0
vt 4.64448 -4.93367
vt 4.63935 -5.52395
vt 4.58004 -5.52375
f 277/277/277 278/278/278 279/279/279
v -1.26214 0.047858 -2.18872
v -1.20205 0.047858 -2.08465
v -0.863429 0.047858 -2.37464
vn 0 1 0
vn 0 1 0
vn 0 1 0
vt 4.58517 -4.93348
vt 4.64448 -4.93367
vt 4.58004 -5.52375
f 280/280/280 281/281/281 282/282/282
v -1.20205 -0.052292 -2.08465
v -0.822325 -0.052292 -2.26171
v -0.822325 0.047858 -2.26171
vn 0.422619 0 0.906308
vn 0.422619 0 0.906308
vn 0.422619 0 0.906308
vt 0.705044 -4.92061
vt 0.699911 -5.51088
vt 4.63935 -5.52395
f 283/283/283 284/284/284 285/285/285
v -1.20205 0.047858 -2.08465
v -1.20205 -0.052292 -2.08465
v -0.822325 0.047858 -2.26171
vn 0.422619 -0 0.906308
vn 0.422619 -0 0.906308
vn 0.422619 -0 0.906308
vt 4.64448 -4.93367
vt 0.705044 -4.92061
vt 4.63935 -5.52395
f 286/286/286 287/287/287 288/288/288
v -1.6225 -0.052292 -1.9364
v -1.26214 -0.052292 -2.18872
v -1.20205 -0.052292 -2.08465
vn -0 -1 0
vn -0 -1 0
vn -0 -1 0
vt 0.769493 -4.33053
vt 0.764358 -4.92081
vt 0.705044 -4.92061
f 289/289/289 290/290/290 291/291/291
v -1.54525 -0.052292 -1.84433
v -1.6225 -0.052292 -1.9364
v -1.20205 -0.052292 -2.08465
vn 0 -1 0
vn 0 -1 0
vn 0 -1 0
vt 0.710177 -4.33033
vt 0.769493 -4.33053
vt 0.705044 -4.92061
f 292/292/292 293/293/293 294/294/294
v -1.6225 0.047858 -1.9364
v -1.26214 0.047858 -2.18872
v -1.26214 -0.052292 -2.18872
vn -0.573577 0 -0.819152
vn -0.573577 0 -0.819152
vn -0.573577 0 -0.819152
vt 4.5903 -4.3432
vt 4.58517 -4.93348
vt 0.764358 -4.92081
f 295/295/295 296/296/296 297/297/297
v -1.6225 -0.052292 -1.9364
v -1.6225 0.047858 -1.9364
v -1.26214 -0.052292 -2.18872
vn -0.573577 -0 -0.819152
vn -0.573577 -0 -0.819152
vn -0.573577 -0 -0.819152
vt 0.769493 -4.33053
vt 4.5903 -4.3432
vt 0.764358 -4.92081
f 298/298/298 299/299/299 300/300/300
v -1.54525 0.047858 -1.84433
v -1.20205 0.047858 -2.08465
v -1.26214 0.047858 -2.18872
vn 0 1 -0
vn 0 1 -0
vn 0 1 -0
vt 4.64962 -4.3434
vt 4.64448 -4.93367
vt 4.58517 -4.93348
f 301/301/301 302/302/302 303/303/303
v -1.6225 0.047858 -1.9364
v -1.54525 0.047858 -1.84433
v -1.26214 0.047858 -2.18872
vn 0 1 0
vn 0 1 0
vn 0 1 0
vt 4.5903 -4.3432
vt 4.64962 -4.3434
vt 4.58517 -4.93348
f 304/304/304 305/305/305 306/306/306
v -1.54525 -0.052292 -1.84433
v -1.20205 -0.052292 -2.08465
v -1.20205 0.047858 -2.08465
vn 0.573576 0 0.819152
vn 0.573576 0 0.819152
vn 0.573576 0 0.819152
vt 0.710177 -4.33033
vt 0.705044 -4.92061
vt 4.64448 -4.93367
f 307/307/307 308/308/308 309/309/309
v -1.54525 0.047858 -1.84433
v -1.54525 -0.052292 -1.84433
v -1.20205 0.047858 -2.08465
vn 0.573576 -0 0.819152
vn 0.573576 -0 0.819152
vn 0.573576 -0 0.819152
vt 4.64962 -4.3434
vt 0.710177 -4.33033
vt 4.64448 -4.93367
f 310/310/310 311/311/311 312/312/312
v -1.93357 -0.052292 -1.62532
v -1.6225 -0.052292 -1.9364
v -1.54525 -0.052292 -1.84433
vn -0 -1 0
vn -0 -1 0
vn -0 -1 0
vt 0.774626 -3.74025
vt 0.769493 -4.33053
vt 0.710177 -4.33033
f 313/313/313 314/314/314 315/315/315
v -1.84151 -0.052292 -1.54807
v -1.93357 -0.052292 -1.62532
v -1.54525 -0.052292 -1.84433
vn 0 -1 0
vn 0 -1 0
vn 0 -1 0
vt 0.715312 -3.74006
vt 0.774626 -3.74025
vt 0.710177 -4.33033
f 316/316/316 317/317/317 318/318/318
v -1.93357 0.047858 -1.62532
v -1.6225 0.047858 -1.9364
v -1.6225 -0.052292 -1.9364
vn -0.707107 0 -0.707107
vn -0.707107 0 -0.707107
vn -0.707107 0 -0.707107
vt 4.59544 -3.75292
vt 4.5903 -4.3432
vt 0.769493 -4.33053
f 319/319/319 320/320/320 321/321/321
v -1.93357 -0.052292 -1.62532
v -1.93357 0.047858 -1.62532
v -1.6225 -0.052292 -1.9364
vn -0.707107 -0 -0.707107
vn -0.707107 -0 -0.707107
vn -0.707107 -0 -0.707107
vt 0.774626 -3.74025
vt 4.59544 -3.75292
vt 0.769493 -4.33053
f 322/322/322 323/323/323 324/324/324
v -1.84151 0.047858 -1.54807
v -1.54525 0.047858 -1.84433
v -1.6225 0.047858 -1.9364
vn 0 1 -0
vn 0 1 -0
vn 0 1 -0
vt 4.65475 -3.75312
vt 4.64962 -4.3434
vt 4.5903 -4.3432
f 325/325/325 326/326/326 327/327/327
v -1.93357 0.047858 -1.62532
v -1.84151 0.047858 -1.54807
v -1.6225 0.047858 -1.9364
vn 0 1 0
vn 0 1 0
vn 0 1 0
vt 4.59544 -3.75292
vt 4.65475 -3.75312
vt 4.5903 -4.3432
f 328/328/328 329/329/329 330/330/330
v -1.84151 -0.052292 -1.54807
v -1.54525 -0.052292 -1.84433
v -1.54525 0.047858 -1.84433
vn 0.707107 0 0.707107
vn 0.707107 0 0.707107
vn 0.707107 0 0.707107
vt 0.715312 -3.74006
vt 0.710177 -4.33033
vt 4.64962 -4.3434
f 331/331/331 332/332/332 333/333/333
v -1.84151 0.047858 -1.54807
v -1.84151 -0.052292 -1.54807
v -1.54525 0.047858 -1.84433
vn 0.707107 -0 0.707107
vn 0.707107 -0 0.707107
vn 0.707107 -0 0.707107
vt 4.65475 -3.75312
vt 0.715312 -3.74006
vt 4.64962 -4.3434
f 334/334/334 335/335/335 336/336/336
v -2.1859 -0.052292 -1.26496
v -1.93357 -0.052292 -1.62532
v -1.84151 -0.052292 -1.54807
vn -0 -1 0
vn -0 -1 0
vn -0 -1 0
vt 0.77976 -3.14998
vt 0.774626 -3.74025
vt 0.715312 -3.74006
f 337/337/337 338/338/338 339/339/339
v -2.08182 -0.052292 -1.20487
v -2.1859 -0.052292 -1.26496
v -1.84151 -0.052292 -1.54807
vn 0 -1 0
vn 0 -1 0
vn 0 -1 0
vt 0.720445 -3.14978
vt 0.77976 -3.14998
vt 0.715312 -3.74006
f 340/340/340 341/341/341 342/342/342
v -2.1859 0.047858 -1.26496
v -1.93357 0.047858 -1.62532
v -1.93357 -0.052292 -1.62532
vn -0.819152 0 -0.573576
vn -0.819152 0 -0.573576
vn -0.819152 0 -0.573576
vt 4.60057 -3.16265
vt 4.59544 -3.75292
vt 0.774626 -3.74025
f 343/343/343 344/344/344 345/345/345
v -2.1859 -0.052292 -1.26496
v -2.1859 0.047858 -1.26496
v -1.93357 -0.052292 -1.62532
vn -0.819152 -0 -0.573576
vn -0.819152 -0 -0.573576
vn -0.819152 -0 -0.573576
vt 0.77976 -3.14998
vt 4.60057 -3.16265
vt 0.774626 -3.74025
f 346/346/346 347/347/347 348/348/348
v -2.08182 0.047858 -1.20487
v -1.84151 0.047858 -1.54807
v -1.93357 0.047858 -1.62532
vn 0 1 -0
vn 0 1 -0
vn 0 1 -0
vt 4.65988 -3.16284
vt 4.65475 -3.75312
vt 4.59544 -3.75292
f 349/349/349 350/350/350 351/351/351
v -2.1859 0.047858 -1.26496
v -2.08182 0.047858 -1.20487
v -1.93357 0.047858 -1.62532
vn 0 1 0
vn 0 1 0
vn 0 1 0
vt 4.60057 -3.16265
vt 4.65988 -3.16284
vt 4.59544 -3.75292
f 352/352/352 353/353/353 354/354/354
v -2.08182 -0.052292 -1.20487
v -1.84151 -0.052292 -1.54807
v -1.84151 0.047858 -1.54807
vn 0.819153 0 0.573575
vn 0.819153 0 0.573575
vn 0.819153 0 0.573575
vt 0.720445 -3.14978
vt 0.715312 -3.74006
vt 4.65475 -3.75312
f 355/355/355 356/356/356 357/357/357
v -2.08182 0.047858 -1.20487
v -2.08182 -0.052292 -1.20487
v -1.84151 0.047858 -1.54807
vn 0.819153 -0 0.573575
vn 0.819153 -0 0.573575
vn 0.819153 -0 0.573575
vt 4.65988 -3.16284
vt 0.720445 -3.14978
vt 4.65475 -3.75312
f 358/358/358 359/359/359 360/360/360
v -2.37182 -0.052292 -0.866251
v -2.1859 -0.052292 -1.26496
v -2.08182 -0.052292 -1.20487
vn -0 -1 0
vn -0 -1 0
vn -0 -1 0
vt 0.784891 -2.5597
vt 0.77976 -3.14998
vt 0.720445 -3.14978
f 361/361/361 362/362/362 363/363/363
v -2.25889 -0.052292 -0.825147
v -2.37182 -0.052292 -0.866251
v -2.08182 -0.052292 -1.20487
vn 0 -1 0
vn 0 -1 0
vn 0 -1 0
vt 0.725578 -2.5595
vt 0.784891 -2.5597
vt 0.720445 -3.14978
f 364/364/364 365/365/365 366/366/366
v -2.37182 0.047858 -0.866251
v -2.1859 0.047858 -1.26496
v -2.1859 -0.052292 -1.26496
vn -0.906308 0 -0.422619
vn -0.906308 0 -0.422619
vn -0.906308 0 -0.422619
vt 4.6057 -2.57237
vt 4.60057 -3.16265
vt 0.77976 -3.14998
f 367/367/367 368/368/368 369/369/369
v -2.37182 -0.052292 -0.866251
v -2.37182 0.047858 -0.866251
v -2.1859 -0.052292 -1.26496
vn -0.906308 -0 -0.422619
vn -0.906308 -0 -0.422619
vn -0.906308 -0 -0.422619
vt 0.784891 -2.5597
vt 4.6057 -2.57237
vt 0.77976 -3.14998
f 370/370/370 371/371/371 372/372/372
v -2.25889 0.047858 -0.825147
v -2.08182 0.047858 -1.20487
v -2.1859 0.047858 -1.26496
vn 0 1 -0
vn 0 1 -0
vn 0 1 -0
vt 4.66502 -2.57257
vt 4.65988 -3.16284
vt 4.60057 -3.16265
f 373/373/373 374/374/374 375/375/375
v -2.37182 0.047858 -0.866251
v -2.25889 0.047858 -0.825147
v -2.1859 0.047858 -1.26496
vn 0 1 0
vn 0 1 0
vn 0 1 0
vt 4.6057 -2.57237
vt 4.66502 -2.57257
vt 4.60057 -3.16265
f 376/376/376 377/377/377 378/378/378
v -2.25889 -0.052292 -0.825147
v -2.08182 -0.052292 -1.20487
v -2.08182 0.047858 -1.20487
vn 0.906307 0 0.42262
vn 0.906307 0 0.42262
vn 0.906307 0 0.42262
vt 0.725578 -2.5595
vt 0.720445 -3.14978
vt 4.65988 -3.16284
f 379/379/379 380/380/380 381/381/381
v -2.25889 0.047858 -0.825147
v -2.25889 -0.052292 -0.825147
v -2.08182 0.047858 -1.20487
vn 0.906307 -0 0.42262
vn 0.906307 -0 0.42262
vn 0.906307 -0 0.42262
vt 4.66502 -2.57257
vt 0.725578 -2.5595
vt 4.65988 -3.16284
f 382/382/382 383/383/383 384/384/384
v -2.48568 -0.052292 -0.441317
v -2.37182 -0.052292 -0.866251
v -2.25889 -0.052292 -0.825147
vn -0 -1 0
vn -0 -1 0
vn -0 -1 0
vt 0.790026 -1.96942
vt 0.784891 -2.5597
vt 0.725578 -2.5595
f 385/385/385 386/386/386 387/387/387
v -2.36733 -0.052292 -0.420448
v -2.48568 -0.052292 -0.441317
v -2.25889 -0.052292 -0.825147
vn 0 -1 0
vn 0 -1 0
vn 0 -1 0
vt 0.730712 -1.96923
vt 0.790026 -1.96942
vt 0.725578 -2.5595
f 388/388/388 389/389/389 390/390/390
v -2.48568 0.047858 -0.441317
v -2.37182 0.047858 -0.866251
v -2.37182 -0.052292 -0.866251
vn -0.965926 0 -0.258819
vn -0.965926 0 -0.258819
vn -0.965926 0 -0.258819
vt 4.61084 -1.98209
vt 4.6057 -2.57237
vt 0.784891 -2.5597
f 391/391/391 392/392/392 393/393/393
v -2.48568 -0.052292 -0.441317
v -2.48568 0.047858 -0.441317
v -2.37182 -0.052292 -0.866251
vn -0.965926 -0 -0.258819
vn -0.965926 -0 -0.258819
vn -0.965926 -0 -0.258819
vt 0.790026 -1.96942
vt 4.61084 -1.98209
vt 0.784891 -2.5597
f 394/394/394 395/395/395 396/396/396
v -2.36733 0.047858 -0.420448
v -2.25889 0.047858 -0.825147
v -2.37182 0.047858 -0.866251
vn 0 1 -0
vn 0 1 -0
vn 0 1 -0
vt 4.67015 -1.98229
vt 4.66502 -2.57257
vt 4.6057 -2.57237
f 397/397/397 398/398/398 399/399/399
v -2.48568 0.047858 -0.441317
v -2.36733 0.047858 -0.420448
v -2.37182 0.047858 -0.866251
vn 0 1 -0
vn 0 1 -0
vn 0 1 -0
vt 4.61084 -1.98209
vt 4.67015 -1.98229
vt 4.6057 -2.57237
f 400/400/400 401/401/401 402/402/402
v -2.36733 -0.052292 -0.420448
v -2.25889 -0.052292 -0.825147
v -2.25889 0.047858 -0.825147
vn 0.965926 0 0.258817
vn 0.965926 0 0.258817
vn 0.965926 0 0.258817
vt 0.730712 -1.96923
vt 0.725578 -2.5595
vt 4.66502 -2.57257
f 403/403/403 404/404/404 405/405/405
v -2.36733 0.047858 -0.420448
v -2.36733 -0.052292 -0.420448
v -2.25889 0.047858 -0.825147
vn 0.965926 -0 0.258817
vn 0.965926 -0 0.258817
vn 0.965926 -0 0.258817
vt 4.67015 -1.98229
vt 0.730712 -1.96923
vt 4.66502 -2.57257
f 406/406/406 407/407/407 408/408/408
v -2.52402 -0.052292 -0.003067
v -2.48568 -0.052292 -0.441317
v -2.36733 -0.052292 -0.420448
vn -0 -1 0
vn -0 -1 0
vn -0 -1 0
vt 0.795159 -1.37915
vt 0.790026 -1.96942
vt 0.730712 -1.96923
f 409/409/409 410/410/410 411/411/411
v -2.40385 -0.052292 -0.003067
v -2.52402 -0.052292 -0.003067
v -2.36733 -0.052292 -0.420448
vn 0 -1 0
vn 0 -1 0
vn 0 -1 0
vt 0.735845 -1.37895
vt 0.795159 -1.37915
vt 0.730712 -1.96923
f 412/412/412 413/413/413 414/414/414
v -2.52402 0.047858 -0.003067
v -2.48568 0.047858 -0.441317
v -2.48568 -0.052292 -0.441317
vn -0.996195 0 -0.0871538
vn -0.996195 0 -0.0871538
vn -0.996195 0 -0.0871538
vt 4.61597 -1.39182
vt 4.61084 -1.98209
vt 0.790026 -1.96942
f 415/415/415 416/416/416 417/417/417
v -2.52402 -0.052292 -0.003067
v -2.52402 0.047858 -0.003067
v -2.48568 -0.052292 -0.441317
vn -0.996195 -0 -0.0871538
vn -0.996195 -0 -0.0871538
vn -0.996195 -0 -0.0871538
vt 0.795159 -1.37915
vt 4.61597 -1.39182
vt 0.790026 -1.96942
f 418/418/418 419/419/419 420/420/420
v -2.40385 0.047858 -0.003067
v -2.36733 0.047858 -0.420448
v -2.48568 0.047858 -0.441317
vn 0 1 -0
vn 0 1 -0
vn 0 1 -0
vt 4.67528 -1.39201
vt 4.67015 -1.98229
vt 4.61084 -1.98209
f 421/421/421 422/422/422 423/423/423
v -2.52402 0.047858 -0.003067
v -2.40385 0.047858 -0.003067
v -2.48568 0.047858 -0.441317
vn 0 1 -0
vn 0 1 -0
vn 0 1 -0
vt 4.61597 -1.39182
vt 4.67528 -1.39201
vt 4.61084 -1.98209
f 424/424/424 425/425/425 426/426/426
v -2.40385 -0.052292 -0.003067
v -2.36733 -0.052292 -0.420448
v -2.36733 0.047858 -0.420448
vn 0.996194 0 0.0871582
vn 0.996194 0 0.0871582
vn 0.996194 0 0.0871582
vt 0.735845 -1.37895
vt 0.730712 -1.96923
vt 4.67015 -1.98229
f 427/427/427 428/428/428 429/429/429
v -2.40385 0.047858 -0.003067
v -2.40385 -0.052292 -0.003067
v -2.36733 0.047858 -0.420448
vn 0.996194 -0 0.0871582
vn 0.996194 -0 0.0871582
vn 0.996194 -0 0.0871582
vt 4.67528 -1.39201
vt 0.735845 -1.37895
vt 4.67015 -1.98229
f 430/430/430 431/431/431 432/432/432
v -2.48568 -0.052292 0.435182
v -2.52402 -0.052292 -0.003067
v -2.40385 -0.052292 -0.003067
vn 0 -1 0
vn 0 -1 0
vn 0 -1 0
vt 0.800294 -0.78887
vt 0.795159 -1.37915
vt 0.735845 -1.37895
f 433/433/433 434/434/434 435/435/435
v -2.36733 -0.052292 0.414313
v -2.48568 -0.052292 0.435182
v -2.40385 -0.052292 -0.003067
vn 0 -1 0
vn 0 -1 0
vn 0 -1 0
vt 0.740979 -0.788672
vt 0.800294 -0.78887
vt 0.735845 -1.37895
f 436/436/436 437/437/437 438/438/438
v -2.48568 0.047858 0.435182
v -2.52402 0.047858 -0.003067
v -2.52402 -0.052292 -0.003067
vn -0.996195 0 0.087154
vn -0.996195 0 0.087154
vn -0.996195 0 0.087154
vt 4.6211 -0.801538
vt 4.61597 -1.39182
vt 0.795159 -1.37915
f 439/439/439 440/440/440 441/441/441
v -2.48568 -0.052292 0.435182
v -2.48568 0.047858 0.435182
v -2.52402 -0.052292 -0.003067
vn -0.996195 0 0.087154
vn -0.996195 0 0.087154
vn -0.996195 0 0.087154
vt 0.800294 -0.78887
vt 4.6211 -0.801538
vt 0.795159 -1.37915
f 442/442/442 443/443/443 444/444/444
v -2.36733 0.047858 0.414313
v -2.40385 0.047858 -0.003067
v -2.52402 0.047858 -0.003067
vn 0 1 0
vn 0 1 0
vn 0 1 0
vt 4.68042 -0.801734
vt 4.67528 -1.39201
vt 4.61597 -1.39182
f 445/445/445 446/446/446 447/447/447
v -2.48568 0.047858 0.435182
v -2.36733 0.047858 0.414313
v -2.52402 0.047858 -0.003067
vn 0 1 -0
vn 0 1 -0
vn 0 1 -0
vt 4.6211 -0.801538
vt 4.68042 -0.801734
vt 4.61597 -1.39182
f 448/448/448 449/449/449 450/450/450
v -2.36733 -0.052292 0.414313
v -2.40385 -0.052292 -0.003067
v -2.40385 0.047858 -0.003067
vn 0.996194 0 -0.0871584
vn 0.996194 0 -0.0871584
vn 0.996194 0 -0.0871584
vt 0.740979 -0.788672
vt 0.735845 -1.37895
vt 4.67528 -1.39201
f 451/451/451 452/452/452 453/453/453
v -2.36733 0.047858 0.414313
v -2.36733 -0.052292 0.414313
v -2.40385 0.047858 -0.003067
vn 0.996194 0 -0.0871584
vn 0.996194 0 -0.0871584
vn 0.996194 0 -0.0871584
vt 4.68042 -0.801734
vt 0.740979 -0.788672
vt 4.67528 -1.39201
f 454/454/454 455/455/455 456/456/456
v -2.37182 -0.052292 0.860116
v -2.48568 -0.052292 0.435182
v -2.36733 -0.052292 0.414313
vn 0 -1 0
vn 0 -1 0
vn 0 -1 0
vt 0.805426 -0.198593
vt 0.800294 -0.78887
vt 0.740979 -0.788672
f 457/457/457 458/458/458 459/459/459
v -2.25889 -0.052292 0.819012
v -2.37182 -0.052292 0.860116
v -2.36733 -0.052292 0.414313
vn 0 -1 0
vn 0 -1 0
vn 0 -1 0
vt 0.746112 -0.198396
vt 0.805426 -0.198593
vt 0.740979 -0.788672
f 460/460/460 461/461/461 462/462/462
v -2.37182 0.047858 0.860116
v -2.48568 0.047858 0.435182
v -2.48568 -0.052292 0.435182
vn -0.965926 0 0.258819
vn -0.965926 0 0.258819
vn -0.965926 0 0.258819
vt 4.62624 -0.211261
vt 4.6211 -0.801538
vt 0.800294 -0.78887
f 463/463/463 464/464/464 465/465/465
v -2.37182 -0.052292 0.860116
v -2.37182 0.047858 0.860116
v -2.48568 -0.052292 0.435182
vn -0.965926 0 0.258819
vn -0.965926 0 0.258819
vn -0.965926 0 0.258819
vt 0.805426 -0.198593
vt 4.62624 -0.211261
vt 0.800294 -0.78887
f 466/466/466 467/467/467 468/468/468
v -2.25889 0.047858 0.819012
v -2.36733 0.047858 0.414313
v -2.48568 0.047858 0.435182
vn -0 1 0
vn -0 1 0
vn -0 1 0
vt 4.68555 -0.211457
vt 4.68042 -0.801734
vt 4.6211 -0.801538
f 469/469/469 470/470/470 471/471/471
v -2.37182 0.047858 0.860116
v -2.25889 0.047858 0.819012
v -2.48568 0.047858 0.435182
vn 0 1 -0
vn 0 1 -0
vn 0 1 -0
vt 4.62624 -0.211261
vt 4.68555 -0.211457
vt 4.6211 -0.801538
f 472/472/472 473/473/473 474/474/474
v -2.25889 -0.052292 0.819012
v -2.36733 -0.052292 0.414313
v -2.36733 0.047858 0.414313
vn 0.965926 0 -0.258817
vn 0.965926 0 -0.258817
vn 0.965926 0 -0.258817
vt 0.746112 -0.198396
vt 0.740979 -0.788672
vt 4.68042 -0.801734
f 475/475/475 476/476/476 477/477/477
v -2.25889 0.047858 0.819012
v -2.25889 -0.052292 0.819012
v -2.36733 0.047858 0.414313
vn 0.965926 0 -0.258817
vn 0.965926 0 -0.258817
vn 0.965926 0 -0.258817
vt 4.68555 -0.211457
vt 0.746112 -0.198396
vt 4.68042 -0.801734
f 478/478/478 479/479/479 480/480/480
v -2.1859 -0.052292 1.25882
v -2.37182 -0.052292 0.860116
v -2.25889 -0.052292 0.819012
vn 0 -1 0
vn 0 -1 0
vn 0 -1 0
vt 0.810561 0.391684
vt 0.805426 -0.198593
vt 0.746112 -0.198396
f 481/481/481 482/482/482 483/483/483
v -2.08182 -0.052292 1.19873
v -2.1859 -0.052292 1.25882
v -2.25889 -0.052292 0.819012
vn 0 -1 0
vn 0 -1 0
vn 0 -1 0
vt 0.751245 0.39188
vt 0.810561 0.391684
vt 0.746112 -0.198396
f 484/484/484 485/485/485 486/486/486
v -2.1859 0.047858 1.25882
v -2.37182 0.047858 0.860116
v -2.37182 -0.052292 0.860116
vn -0.906308 0 0.422618
vn -0.906308 0 0.422618
vn -0.906308 0 0.422618
vt 4.63137 0.379015
vt 4.62624 -0.211261
vt 0.805426 -0.198593
f 487/487/487 488/488/488 489/489/489
v -2.1859 -0.052292 1.25882
v -2.1859 0.047858 1.25882
v -2.37182 -0.052292 0.860116
vn -0.906308 0 0.422618
vn -0.906308 0 0.422618
vn -0.906308 0 0.422618
vt 0.810561 0.391684
vt 4.63137 0.379015
vt 0.805426 -0.198593
f 490/490/490 491/491/491 492/492/492
v -2.08182 0.047858 1.19873
v -2.25889 0.047858 0.819012
v -2.37182 0.047858 0.860116
vn -0 1 0
vn -0 1 0
vn -0 1 0
vt 4.69068 0.378818
vt 4.68555 -0.211457
vt 4.62624 -0.211261
f 493/493/493 494/494/494 495/495/495
v -2.1859 0.047858 1.25882
v -2.08182 0.047858 1.19873
v -2.37182 0.047858 0.860116
vn 0 1 -0
vn 0 1 -0
vn 0 1 -0
vt 4.63137 0.379015
vt 4.69068 0.378818
vt 4.62624 -0.211261
f 496/496/496 497/497/497 498/498/498
v -2.08182 -0.052292 1.19873
v -2.25889 -0.052292 0.819012
v -2.25889 0.047858 0.819012
vn 0.906308 0 -0.422619
vn 0.906308 0 -0.422619
vn 0.906308 0 -0.422619
vt 0.751245 0.39188
vt 0.746112 -0.198396
vt 4.68555 -0.211457
f 499/499/499 500/500/500 501/501/501
v -2.08182 0.047858 1.19873
v -2.08182 -0.052292 1.19873
v -2.25889 0.047858 0.819012
vn 0.906308 0 -0.422619
vn 0.906308 0 -0.422619
vn 0.906308 0 -0.422619
vt 4.69068 0.378818
vt 0.751245 0.39188
vt 4.68555 -0.211457
f 502/502/502 503/503/503 504/504/504
v -1.93357 -0.052292 1.61919
v -2.1859 -0.052292 1.25882
v -2.08182 -0.052292 1.19873
vn 0 -1 0
vn 0 -1 0
vn 0 -1 0
vt 0.815694 0.98196
vt 0.810561 0.391684
vt 0.751245 0.39188
f 505/505/505 506/506/506 507/507/507
v -1.84151 -0.052292 1.54194
v -1.93357 -0.052292 1.61919
v -2.08182 -0.052292 1.19873
vn 0 -1 0
vn 0 -1 0
vn 0 -1 0
vt 0.756379 0.982157
vt 0.815694 0.98196
vt 0.751245 0.39188
f 508/508/508 509/509/509 510/510/510
v -1.93357 0.047858 1.61919
v -2.1859 0.047858 1.25882
v -2.1859 -0.052292 1.25882
vn -0.819152 0 0.573577
vn -0.819152 0 0.573577
vn -0.819152 0 0.573577
vt 4.6365 0.969292
vt 4.63137 0.379015
vt 0.810561 0.391684
f 511/511/511 512/512/512 513/513/513
v -1.93357 -0.052292 1.61919
v -1.93357 0.047858 1.61919
v -2.1859 -0.052292 1.25882
vn -0.819152 0 0.573577
vn -0.819152 0 0.573577
vn -0.819152 0 0.573577
vt 0.815694 0.98196
vt 4.6365 0.969292
vt 0.810561 0.391684
f 514/514/514 515/515/515 516/516/516
v -1.84151 0.047858 1.54194
v -2.08182 0.047858 1.19873
v -2.1859 0.047858 1.25882
vn -0 1 0
vn -0 1 0
vn -0 1 0
vt 4.69582 0.969095
vt 4.69068 0.378818
vt 4.63137 0.379015
f 517/517/517 518/518/518 519/519/519
v -1.93357 0.047858 1.61919
v -1.84151 0.047858 1.54194
v -2.1859 0.047858 1.25882
vn 0 1 -0
vn 0 1 -0
vn 0 1 -0
vt 4.6365 0.969292
vt 4.69582 0.969095
vt 4.63137 0.379015
f 520/520/520 521/521/521 522/522/522
v -1.84151 -0.052292 1.54194
v -2.08182 -0.052292 1.19873
v -2.08182 0.047858 1.19873
vn 0.819152 0 -0.573576
vn 0.819152 0 -0.573576
vn 0.819152 0 -0.573576
vt 0.756379 0.982157
vt 0.751245 0.39188
vt 4.69068 0.378818
f 523/523/523 524/524/524 525/525/525
v -1.84151 0.047858 1.54194
v -1.84151 -0.052292 1.54194
v -2.08182 0.047858 1.19873
vn 0.819152 0 -0.573576
vn 0.819152 0 -0.573576
vn 0.819152 0 -0.573576
vt 4.69582 0.969095
vt 0.756379 0.982157
vt 4.69068 0.378818
f 526/526/526 527/527/527 528/528/528
v -1.6225 -0.052292 1.93026
v -1.93357 -0.052292 1.61919
v -1.84151 -0.052292 1.54194
vn 0 -1 0
vn 0 -1 0
vn 0 -1 0
vt 0.820827 1.57224
vt 0.815694 0.98196
vt 0.756379 0.982157
f 529/529/529 530/530/530 531/531/531
v -1.54525 -0.052292 1.8382
v -1.6225 -0.052292 1.93026
v -1.84151 -0.052292 1.54194
vn 0 -1 0
vn 0 -1 0
vn 0 -1 0
vt 0.761512 1.57243
vt 0.820827 1.57224
vt 0.756379 0.982157
f 532/532/532 533/533/533 534/534/534
v -1.6225 0.047858 1.93026
v -1.93357 0.047858 1.61919
v -1.93357 -0.052292 1.61919
vn -0.707107 0 0.707107
vn -0.707107 0 0.707107
vn -0.707107 0 0.707107
vt 4.64164 1.55957
vt 4.6365 0.969292
vt 0.815694 0.98196
f 535/535/535 536/536/536 537/537/537
v -1.6225 -0.052292 1.93026
v -1.6225 0.047858 1.93026
v -1.93357 -0.052292 1.61919
vn -0.707107 0 0.707107
vn -0.707107 0 0.707107
vn -0.707107 0 0.707107
vt 0.820827 1.57224
vt 4.64164 1.55957
vt 0.815694 0.98196
f 538/538/538 539/539/539 540/540/540
v -1.54525 0.047858 1.8382
v -1.84151 0.047858 1.54194
v -1.93357 0.047858 1.61919
vn -0 1 0
vn -0 1 0
vn -0 1 0
vt 4.70095 1.55937
vt 4.69582 0.969095
vt 4.6365 0.969292
f 541/541/541 542/542/542 543/543/543
v -1.6225 0.047858 1.93026
v -1.54525 0.047858 1.8382
v -1.93357 0.047858 1.61919
vn 0 1 -0
vn 0 1 -0
vn 0 1 -0
vt 4.64164 1.55957
vt 4.70095 1.55937
vt 4.6365 0.969292
f 544/544/544 545/545/545 546/546/546
v -1.54525 -0.052292 1.8382
v -1.84151 -0.052292 1.54194
v -1.84151 0.047858 1.54194
vn 0.707107 0 -0.707107
vn 0.707107 0 -0.707107
vn 0.707107 0 -0.707107
vt 0.761512 1.57243
vt 0.756379 0.982157
vt 4.69582 0.969095
f 547/547/547 548/548/548 549/549/549
v -1.54525 0.047858 1.8382
v -1.54525 -0.052292 1.8382
v -1.84151 0.047858 1.54194
vn 0.707107 0 -0.707107
vn 0.707107 0 -0.707107
vn 0.707107 0 -0.707107
vt 4.70095 1.55937
vt 0.761512 1.57243
vt 4.69582 0.969095
f 550/550/550 551/551/551 552/552/552
v -1.26214 -0.052292 2.18259
v -1.6225 -0.052292 1.93026
v -1.54525 -0.052292 1.8382
vn 0 -1 0
vn 0 -1 0
vn 0 -1 0
vt 0.825961 2.16251
vt 0.820827 1.57224
vt 0.761512 1.57243
f 553/553/553 554/554/554 555/555/555
v -1.20205 -0.052292 2.07851
v -1.26214 -0.052292 2.18259
v -1.54525 -0.052292 1.8382
vn 0 -1 0
vn 0 -1 0
vn 0 -1 0
vt 0.766646 2.16271
vt 0.825961 2.16251
vt 0.761512 1.57243
f 556/556/556 557/557/557 558/558/558
v -1.26214 0.047858 2.18259
v -1.6225 0.047858 1.93026
v -1.6225 -0.052292 1.93026
vn -0.573577 0 0.819152
vn -0.573577 0 0.819152
vn -0.573577 0 0.819152
vt 4.64677 2.14984
vt 4.64164 1.55957
vt 0.820827 1.57224
f 559/559/559 560/560/560 561/561/561
v -1.26214 -0.052292 2.18259
v -1.26214 0.047858 2.18259
v -1.6225 -0.052292 1.93026
vn -0.573577 0 0.819152
vn -0.573577 0 0.819152
vn -0.573577 0 0.819152
vt 0.825961 2.16251
vt 4.64677 2.14984
vt 0.820827 1.57224
f 562/562/562 563/563/563 564/564/564
v -1.20205 0.047858 2.07851
v -1.54525 0.047858 1.8382
v -1.6225 0.047858 1.93026
vn -0 1 0
vn -0 1 0
vn -0 1 0
vt 4.70609 2.14965
vt 4.70095 1.55937
vt 4.64164 1.55957
f 565/565/565 566/566/566 567/567/567
v -1.26214 0.047858 2.18259
v -1.20205 0.047858 2.07851
v -1.6225 0.047858 1.93026
vn 0 1 -0
vn 0 1 -0
vn 0 1 -0
vt 4.64677 2.14984
vt 4.70609 2.14965
vt 4.64164 1.55957
f 568/568/568 569/569/569 570/570/570
v -1.20205 -0.052292 2.07851
v -1.54525 -0.052292 1.8382
v -1.54525 0.047858 1.8382
vn 0.573576 0 -0.819152
vn 0.573576 0 -0.819152
vn 0.573576 0 -0.819152
vt 0.766646 2.16271
vt 0.761512 1.57243
vt 4.70095 1.55937
f 571/571/571 572/572/572 573/573/573
v -1.20205 0.047858 2.07851
v -1.20205 -0.052292 2.07851
v -1.54525 0.047858 1.8382
vn 0.573576 0 -0.819152
vn 0.573576 0 -0.819152
vn 0.573576 0 -0.819152
vt 4.70609 2.14965
vt 0.766646 2.16271
vt 4.70095 1.55937
f 574/574/574 575/575/575 576/576/576
v -0.863429 -0.052292 2.36851
v -1.26214 -0.052292 2.18259
v -1.20205 -0.052292 2.07851
vn 0 -1 0
vn 0 -1 0
vn 0 -1 0
vt 0.831094 2.75279
vt 0.825961 2.16251
vt 0.766646 2.16271
f 577/577/577 578/578/578 579/579/579
v -0.822325 -0.052292 2.25558
v -0.863429 -0.052292 2.36851
v -1.20205 -0.052292 2.07851
vn 0 -1 0
vn 0 -1 0
vn 0 -1 0
vt 0.771779 2.75299
vt 0.831094 2.75279
vt 0.766646 2.16271
f 580/580/580 581/581/581 582/582/582
v -0.863429 0.047858 2.36851
v -1.26214 0.047858 2.18259
v -1.26214 -0.052292 2.18259
vn -0.422618 0 0.906308
vn -0.422618 0 0.906308
vn -0.422618 0 0.906308
vt 4.65191 2.74012
vt 4.64677 2.14984
vt 0.825961 2.16251
f 583/583/583 584/584/584 585/585/585
v -0.863429 -0.052292 2.36851
v -0.863429 0.047858 2.36851
v -1.26214 -0.052292 2.18259
vn -0.422618 0 0.906308
vn -0.422618 0 0.906308
vn -0.422618 0 0.906308
vt 0.831094 2.75279
vt 4.65191 2.74012
vt 0.825961 2.16251
f 586/586/586 587/587/587 588/588/588
v -0.822325 0.047858 2.25558
v -1.20205 0.047858 2.07851
v -1.26214 0.047858 2.18259
vn -0 1 0
vn -0 1 0
vn -0 1 0
vt 4.71122 2.73992
vt 4.70609 2.14965
vt 4.64677 2.14984
f 589/589/589 590/590/590 591/591/591
v -0.863429 0.047858 2.36851
v -0.822325 0.047858 2.25558
v -1.26214 0.047858 2.18259
vn 0 1 -0
vn 0 1 -0
vn 0 1 -0
vt 4.65191 2.74012
vt 4.71122 2.73992
vt 4.64677 2.14984
f 592/592/592 593/593/593 594/594/594
v -0.822325 -0.052292 2.25558
v -1.20205 -0.052292 2.07851
v -1.20205 0.047858 2.07851
vn 0.422619 0 -0.906308
vn 0.422619 0 -0.906308
vn 0.422619 0 -0.906308
vt 0.771779 2.75299
vt 0.766646 2.16271
vt 4.70609 2.14965
f 595/595/595 596/596/596 597/597/597
v -0.822325 0.047858 2.25558
v -0.822325 -0.052292 2.25558
v -1.20205 0.047858 2.07851
vn 0.422619 0 -0.906308
vn 0.422619 0 -0.906308
vn 0.422619 0 -0.906308
vt 4.71122 2.73992
vt 0.771779 2.75299
vt 4.70609 2.14965
f 598/598/598 599/599/599 600/600/600
v -0.438495 -0.052292 2.48237
v -0.863429 -0.052292 2.36851
v -0.822325 -0.052292 2.25558
vn 0 -1 0
vn 0 -1 0
vn 0 -1 0
vt 0.836228 3.34307
vt 0.831094 2.75279
vt 0.771779 2.75299
f 601/601/601 602/602/602 603/603/603
v -0.417626 -0.052292 2.36402
v -0.438495 -0.052292 2.48237
v -0.822325 -0.052292 2.25558
vn 0 -1 0
vn 0 -1 0
vn 0 -1 0
vt 0.776913 3.34326
vt 0.836228 3.34307
vt 0.771779 2.75299
f 604/604/604 605/605/605 606/606/606
v -0.438495 0.047858 2.48237
v -0.863429 0.047858 2.36851
v -0.863429 -0.052292 2.36851
vn -0.25882 0 0.965926
vn -0.25882 0 0.965926
vn -0.25882 0 0.965926
vt 4.65704 3.3304
vt 4.65191 2.74012
vt 0.831094 2.75279
f 607/607/607 608/608/608 609/609/609
v -0.438495 -0.052292 2.48237
v -0.438495 0.047858 2.48237
v -0.863429 -0.052292 2.36851
vn -0.25882 0 0.965926
vn -0.25882 0 0.965926
vn -0.25882 0 0.965926
vt 0.836228 3.34307
vt 4.65704 3.3304
vt 0.831094 2.75279
f 610/610/610 611/611/611 612/612/612
v -0.417626 0.047858 2.36402
v -0.822325 0.047858 2.25558
v -0.863429 0.047858 2.36851
vn -0 1 0
vn -0 1 0
vn -0 1 0
vt 4.71635 3.3302
vt 4.71122 2.73992
vt 4.65191 2.74012
f 613/613/613 614/614/614 615/615/615
v -0.438495 0.047858 2.48237
v -0.417626 0.047858 2.36402
v -0.863429 0.047858 2.36851
vn -0 1 -0
vn -0 1 -0
vn -0 1 -0
vt 4.65704 3.3304
vt 4.71635 3.3302
vt 4.65191 2.74012
f 616/616/616 617/617/617 618/618/618
v -0.417626 -0.052292 2.36402
v -0.822325 -0.052292 2.25558
v -0.822325 0.047858 2.25558
vn 0.258819 0 -0.965926
vn 0.258819 0 -0.965926
vn 0.258819 0 -0.965926
vt 0.776913 3.34326
vt 0.771779 2.75299
vt 4.71122 2.73992
f 619/619/619 620/620/620 621/621/621
v -0.417626 0.047858 2.36402
v -0.417626 -0.052292 2.36402
v -0.822325 0.047858 2.25558
vn 0.258819 0 -0.965926
vn 0.258819 0 -0.965926
vn 0.258819 0 -0.965926
vt 4.71635 3.3302
vt 0.776913 3.34326
vt 4.71122 2.73992
f 622/622/622 623/623/623 624/624/624
v -0.000246 -0.052292 2.52071
v -0.438495 -0.052292 2.48237
v -0.417626 -0.052292 2.36402
vn 0 -1 0
vn 0 -1 0
vn 0 -1 0
vt 0.841361 3.93334
vt 0.836228 3.34307
vt 0.776913 3.34326
f 625/625/625 626/626/626 627/627/627
v -0.000246 -0.052292 2.40053
v -0.000246 -0.052292 2.52071
v -0.417626 -0.052292 2.36402
vn 0 -1 0
vn 0 -1 0
vn 0 -1 0
vt 0.782046 3.93354
vt 0.841361 3.93334
vt 0.776913 3.34326
f 628/628/628 629/629/629 630/630/630
v -0.000246 0.047858 2.52071
v -0.438495 0.047858 2.48237
v -0.438495 -0.052292 2.48237
vn -0.0871561 0 0.996195
vn -0.0871561 0 0.996195
vn -0.0871561 0 0.996195
vt 4.66217 3.92068
vt 4.65704 3.3304
vt 0.836228 3.34307
f 631/631/631 632/632/632 633/633/633
v -0.000246 -0.052292 2.52071
v -0.000246 0.047858 2.52071
v -0.438495 -0.052292 2.48237
vn -0.0871561 0 0.996195
vn -0.0871561 0 0.996195
vn -0.0871561 0 0.996195
vt 0.841361 3.93334
vt 4.66217 3.92068
vt 0.836228 3.34307
f 634/634/634 635/635/635 636/636/636
v -0.000246 0.047858 2.40053
v -0.417626 0.047858 2.36402
v -0.438495 0.047858 2.48237
vn -0 1 0
vn -0 1 0
vn -0 1 0
vt 4.72149 3.92048
vt 4.71635 3.3302
vt 4.65704 3.3304
f 637/637/637 638/638/638 639/639/639
v -0.000246 0.047858 2.52071
v -0.000246 0.047858 2.40053
v -0.438495 0.047858 2.48237
vn -0 1 0
vn -0 1 0
vn -0 1 0
vt 4.66217 3.92068
vt 4.72149 3.92048
vt 4.65704 3.3304
f 640/640/640 641/641/641 642/642/642
v -0.000246 -0.052292 2.40053
v -0.417626 -0.052292 2.36402
v -0.417626 0.047858 2.36402
vn 0.0871556 0 -0.996195
vn 0.0871556 0 -0.996195
vn 0.0871556 0 -0.996195
vt 0.782046 3.93354
vt 0.776913 3.34326
vt 4.71635 3.3302
f 643/643/643 644/644/644 645/645/645
v -0.000246 0.047858 2.40053
v -0.000246 -0.052292 2.40053
v -0.417626 0.047858 2.36402
vn 0.0871556 0 -0.996195
vn 0.0871556 0 -0.996195
vn 0.0871556 0 -0.996195
vt 4.72149 3.92048
vt 0.782046 3.93354
vt 4.71635 3.3302
f 646/646/646 647/647/647 648/648/648
v 0.438004 -0.052292 2.48237
v -0.000246 -0.052292 2.52071
v -0.000246 -0.052292 2.40053
vn 0 -1 0
vn 0 -1 0
vn 0 -1 0
vt 0.846495 4.52362
vt 0.841361 3.93334
vt 0.782046 3.93354
f 649/649/649 650/650/650 651/651/651
v 0.417135 -0.052292 2.36402
v 0.438004 -0.052292 2.48237
v -0.000246 -0.052292 2.40053
vn 0 -1 -0
vn 0 -1 -0
vn 0 -1 -0
vt 0.787179 4.52382
vt 0.846495 4.52362
vt 0.782046 3.93354
f 652/652/652 653/653/653 654/654/654
v 0.438004 0.047858 2.48237
v -0.000246 0.047858 2.52071
v -0.000246 -0.052292 2.52071
vn 0.087156 -0 0.996195
vn 0.087156 -0 0.996195
vn 0.087156 -0 0.996195
vt 4.6673 4.51095
vt 4.66217 3.92068
vt 0.841361 3.93334
f 655/655/655 656/656/656 657/657/657
v 0.438004 -0.052292 2.48237
v 0.438004 0.047858 2.48237
v -0.000246 -0.052292 2.52071
vn 0.087156 0 0.996195
vn 0.087156 0 0.996195
vn 0.087156 0 0.996195
vt 0.846495 4.52362
vt 4.6673 4.51095
vt 0.841361 3.93334
f 658/658/658 659/659/659 660/660/660
v 0.417135 0.047858 2.36402
v -0.000246 0.047858 2.40053
v -0.000246 0.047858 2.52071
vn 0 1 0
vn 0 1 0
vn 0 1 0
vt 4.72662 4.51076
vt 4.72149 3.92048
vt 4.66217 3.92068
f 661/661/661 662/662/662 663/663/663
v 0.438004 0.047858 2.48237
v 0.417135 0.047858 2.36402
v -0.000246 0.047858 2.52071
vn -0 1 0
vn -0 1 0
vn -0 1 0
vt 4.6673 4.51095
vt 4.72662 4.51076
vt 4.66217 3.92068
f 664/664/664 665/665/665 666/666/666
v 0.417135 -0.052292 2.36402
v -0.000246 -0.052292 2.40053
v -0.000246 0.047858 2.40053
vn -0.0871554 -0 -0.996195
vn -0.0871554 -0 -0.996195
vn -0.0871554 -0 -0.996195
vt 0.787179 4.52382
vt 0.782046 3.93354
vt 4.72149 3.92048
f 667/667/667 668/668/668 669/669/669
v 0.417135 0.047858 2.36402
v 0.417135 -0.052292 2.36402
v -0.000246 0.047858 2.40053
vn -0.0871554 0 -0.996195
vn -0.0871554 0 -0.996195
vn -0.0871554 0 -0.996195
vt 4.72662 4.51076
vt 0.787179 4.52382
vt 4.72149 3.92048
f 670/670/670 671/671/671 672/672/672
v 0.862938 -0.052292 2.36851
v 0.438004 -0.052292 2.48237
v 0.417135 -0.052292 2.36402
vn 0 -1 0
vn 0 -1 0
vn 0 -1 0
vt 0.851628 5.1139
vt 0.846495 4.52362
vt 0.787179 4.52382
f 673/673/673 674/674/674 675/675/675
v 0.821834 -0.052292 2.25558
v 0.862938 -0.052292 2.36851
v 0.417135 -0.052292 2.36402
vn 0 -1 -0
vn 0 -1 -0
vn 0 -1 -0
vt 0.792314 5.1141
vt 0.851628 5.1139
vt 0.787179 4.52382
f 676/676/676 677/677/677 678/678/678
v 0.862938 0.047858 2.36851
v 0.438004 0.047858 2.48237
v 0.438004 -0.052292 2.48237
vn 0.25882 -0 0.965926
vn 0.25882 -0 0.965926
vn 0.25882 -0 0.965926
vt 4.67244 5.10123
vt 4.6673 4.51095
vt 0.846495 4.52362
f 679/679/679 680/680/680 681/681/681
v 0.862938 -0.052292 2.36851
v 0.862938 0.047858 2.36851
v 0.438004 -0.052292 2.48237
vn 0.25882 0 0.965926
vn 0.25882 0 0.965926
vn 0.25882 0 0.965926
vt 0.851628 5.1139
vt 4.67244 5.10123
vt 0.846495 4.52362
f 682/682/682 683/683/683 684/684/684
v 0.821834 0.047858 2.25558
v 0.417135 0.047858 2.36402
v 0.438004 0.047858 2.48237
vn 0 1 0
vn 0 1 0
vn 0 1 0
vt 4.73175 5.10103
vt 4.72662 4.51076
vt 4.6673 4.51095
f 685/685/685 686/686/686 687/687/687
v 0.862938 0.047858 2.36851
v 0.821834 0.047858 2.25558
v 0.438004 0.047858 2.48237
vn -0 1 0
vn -0 1 0
vn -0 1 0
vt 4.67244 5.10123
vt 4.73175 5.10103
vt 4.6673 4.51095
f 688/688/688 689/689/689 690/690/690
v 0.821834 -0.052292 2.25558
v 0.417135 -0.052292 2.36402
v 0.417135 0.047858 2.36402
vn -0.258819 -0 -0.965926
vn -0.258819 -0 -0.965926
vn -0.258819 -0 -0.965926
vt 0.792314 5.1141
vt 0.787179 4.52382
vt 4.72662 4.51076
f 691/691/691 692/692/692 693/693/693
v 0.821834 0.047858 2.25558
v 0.821834 -0.052292 2.25558
v 0.417135 0.047858 2.36402
vn -0.258819 0 -0.965926
vn -0.258819 0 -0.965926
vn -0.258819 0 -0.965926
vt 4.73175 5.10103
vt 0.792314 5.1141
vt 4.72662 4.51076
f 694/694/694 695/695/695 696/696/696
v 1.26164 -0.052292 2.18259
v 0.862938 -0.052292 2.36851
v 0.821834 -0.052292 2.25558
vn 0 -1 0
vn 0 -1 0
vn 0 -1 0
vt 0.856762 5.70417
vt 0.851628 5.1139
vt 0.792314 5.1141
f 697/697/697 698/698/698 699/699/699
v 1.20155 -0.052292 2.07851
v 1.26164 -0.052292 2.18259
v 0.821834 -0.052292 2.25558
vn 0 -1 -0
vn 0 -1 -0
vn 0 -1 -0
vt 0.797446 5.70437
vt 0.856762 5.70417
vt 0.792314 5.1141
f 700/700/700 701/701/701 702/702/702
v 1.26164 0.047858 2.18259
v 0.862938 0.047858 2.36851
v 0.862938 -0.052292 2.36851
vn 0.422619 -0 0.906307
vn 0.422619 -0 0.906307
vn 0.422619 -0 0.906307
vt 4.67757 5.6915
vt 4.67244 5.10123
vt 0.851628 5.1139
f 703/703/703 704/704/704 705/705/705
v 1.26164 -0.052292 2.18259
v 1.26164 0.047858 2.18259
v 0.862938 -0.052292 2.36851
vn 0.422619 0 0.906307
vn 0.422619 0 0.906307
vn 0.422619 0 0.906307
vt 0.856762 5.70417
vt 4.67757 5.6915
vt 0.851628 5.1139
f 706/706/706 707/707/707 708/708/708
v 1.20155 0.047858 2.07851
v 0.821834 0.047858 2.25558
v 0.862938 0.047858 2.36851
vn 0 1 0
vn 0 1 0
vn 0 1 0
vt 4.73689 5.69131
vt 4.73175 5.10103
vt 4.67244 5.10123
f 709/709/709 710/710/710 711/711/711
v 1.26164 0.047858 2.18259
v 1.20155 0.047858 2.07851
v 0.862938 0.047858 2.36851
vn -0 1 0
vn -0 1 0
vn -0 1 0
vt 4.67757 5.6915
vt 4.73689 5.69131
vt 4.67244 5.10123
f 712/712/712 713/713/713 714/714/714
v 1.20155 -0.052292 2.07851
v 0.821834 -0.052292 2.25558
v 0.821834 0.047858 2.25558
vn -0.42262 -0 -0.906307
vn -0.42262 -0 -0.906307
vn -0.42262 -0 -0.906307
vt 0.797446 5.70437
vt 0.792314 5.1141
vt 4.73175 5.10103
f 715/715/715 716/716/716 717/717/717
v 1.20155 0.047858 2.07851
v 1.20155 -0.052292 2.07851
v 0.821834 0.047858 2.25558
vn -0.42262 0 -0.906307
vn -0.42262 0 -0.906307
vn -0.42262 0 -0.906307
vt 4.73689 5.69131
vt 0.797446 5.70437
vt 4.73175 5.10103
f 718/718/718 719/719/719 720/720/720
v 1.62201 -0.052292 1.93026
v 1.26164 -0.052292 2.18259
v 1.20155 -0.052292 2.07851
vn 0 -1 0
vn 0 -1 0
vn 0 -1 0
vt 0.861895 6.29445
vt 0.856762 5.70417
vt 0.797446 5.70437
f 721/721/721 722/722/722 723/723/723
v 1.54476 -0.052292 1.8382
v 1.62201 -0.052292 1.93026
v 1.20155 -0.052292 2.07851
vn 0 -1 -0
vn 0 -1 -0
vn 0 -1 -0
vt 0.802581 6.29465
vt 0.861895 6.29445
vt 0.797446 5.70437
f 724/724/724 725/725/725 726/726/726
v 1.62201 0.047858 1.93026
v 1.26164 0.047858 2.18259
v 1.26164 -0.052292 2.18259
vn 0.573576 -0 0.819152
vn 0.573576 -0 0.819152
vn 0.573576 -0 0.819152
vt 4.6827 6.28178
vt 4.67757 5.6915
vt 0.856762 5.70417
f 727/727/727 728/728/728 729/729/729
v 1.62201 -0.052292 1.93026
v 1.62201 0.047858 1.93026
v 1.26164 -0.052292 2.18259
vn 0.573576 0 0.819152
vn 0.573576 0 0.819152
vn 0.573576 0 0.819152
vt 0.861895 6.29445
vt 4.6827 6.28178
vt 0.856762 5.70417
f 730/730/730 731/731/731 732/732/732
v 1.54476 0.047858 1.8382
v 1.20155 0.047858 2.07851
v 1.26164 0.047858 2.18259
vn 0 1 0
vn 0 1 0
vn 0 1 0
vt 4.74202 6.28159
vt 4.73689 5.69131
vt 4.67757 5.6915
f 733/733/733 734/734/734 735/735/735
v 1.62201 0.047858 1.93026
v 1.54476 0.047858 1.8382
v 1.26164 0.047858 2.18259
vn -0 1 0
vn -0 1 0
vn -0 1 0
vt 4.6827 6.28178
vt 4.74202 6.28159
vt 4.67757 5.6915
f 736/736/736 737/737/737 738/738/738
v 1.54476 -0.052292 1.8382
v 1.20155 -0.052292 2.07851
v 1.20155 0.047858 2.07851
vn -0.573575 -0 -0.819153
vn -0.573575 -0 -0.819153
vn -0.573575 -0 -0.819153
vt 0.802581 6.29465
vt 0.797446 5.70437
vt 4.73689 5.69131
f 739/739/739 740/740/740 741/741/741
v 1.54476 0.047858 1.8382
v 1.54476 -0.052292 1.8382
v 1.20155 0.047858 2.07851
vn -0.573575 0 -0.819153
vn -0.573575 0 -0.819153
vn -0.573575 0 -0.819153
vt 4.74202 6.28159
vt 0.802581 6.29465
vt 4.73689 5.69131
f 742/742/742 743/743/743 744/744/744
v 1.93308 -0.052292 1.61919
v 1.62201 -0.052292 1.93026
v 1.54476 -0.052292 1.8382
vn 0 -1 0
vn 0 -1 0
vn 0 -1 0
vt 0.867028 6.88473
vt 0.861895 6.29445
vt 0.802581 6.29465
f 745/745/745 746/746/746 747/747/747
v 1.84102 -0.052292 1.54194
v 1.93308 -0.052292 1.61919
v 1.54476 -0.052292 1.8382
vn 0 -1 -0
vn 0 -1 -0
vn 0 -1 -0
vt 0.807713 6.88492
vt 0.867028 6.88473
vt 0.802581 6.29465
f 748/748/748 749/749/749 750/750/750
v 1.93308 0.047858 1.61919
v 1.62201 0.047858 1.93026
v 1.62201 -0.052292 1.93026
vn 0.707107 -0 0.707107
vn 0.707107 -0 0.707107
vn 0.707107 -0 0.707107
vt 4.68784 6.87206
vt 4.6827 6.28178
vt 0.861895 6.29445
f 751/751/751 752/752/752 753/753/753
v 1.93308 -0.052292 1.61919
v 1.93308 0.047858 1.61919
v 1.62201 -0.052292 1.93026
vn 0.707107 0 0.707107
vn 0.707107 0 0.707107
vn 0.707107 0 0.707107
vt 0.867028 6.88473
vt 4.68784 6.87206
vt 0.861895 6.29445
f 754/754/754 755/755/755 756/756/756
v 1.84102 0.047858 1.54194
v 1.54476 0.047858 1.8382
v 1.62201 0.047858 1.93026
vn 0 1 0
vn 0 1 0
vn 0 1 0
vt 4.74715 6.87186
vt 4.74202 6.28159
vt 4.6827 6.28178
f 757/757/757 758/758/758 759/759/759
v 1.93308 0.047858 1.61919
v 1.84102 0.047858 1.54194
v 1.62201 0.047858 1.93026
vn -0 1 0
vn -0 1 0
vn -0 1 0
vt 4.68784 6.87206
vt 4.74715 6.87186
vt 4.6827 6.28178
f 760/760/760 761/761/761 762/762/762
v 1.84102 -0.052292 1.54194
v 1.54476 -0.052292 1.8382
v 1.54476 0.047858 1.8382
vn -0.707107 -0 -0.707107
vn -0.707107 -0 -0.707107
vn -0.707107 -0 -0.707107
vt 0.807713 6.88492
vt 0.802581 6.29465
vt 4.74202 6.28159
f 763/763/763 764/764/764 765/765/765
v 1.84102 0.047858 1.54194
v 1.84102 -0.052292 1.54194
v 1.54476 0.047858 1.8382
vn -0.707107 0 -0.707107
vn -0.707107 0 -0.707107
vn -0.707107 0 -0.707107
vt 4.74715 6.87186
vt 0.807713 6.88492
vt 4.74202 6.28159
f 766/766/766 767/767/767 768/768/768
v 2.18541 -0.052292 1.25882
v 1.93308 -0.052292 1.61919
v 1.84102 -0.052292 1.54194
vn 0 -1 0
vn 0 -1 0
vn 0 -1 0
vt 0.872162 7.47501
vt 0.867028 6.88473
vt 0.807713 6.88492
f 769/769/769 770/770/770 771/771/771
v 2.08133 -0.052292 1.19873
v 2.18541 -0.052292 1.25882
v 1.84102 -0.052292 1.54194
vn 0 -1 -0
vn 0 -1 -0
vn 0 -1 -0
vt 0.812848 7.4752
vt 0.872162 7.47501
vt 0.807713 6.88492
f 772/772/772 773/773/773 774/774/774
v 2.18541 0.047858 1.25882
v 1.93308 0.047858 1.61919
v 1.93308 -0.052292 1.61919
vn 0.819152 -0 0.573577
vn 0.819152 -0 0.573577
vn 0.819152 -0 0.573577
vt 4.69297 7.46234
vt 4.68784 6.87206
vt 0.867028 6.88473
f 775/775/775 776/776/776 777/777/777
v 2.18541 -0.052292 1.25882
v 2.18541 0.047858 1.25882
v 1.93308 -0.052292 1.61919
vn 0.819152 0 0.573577
vn 0.819152 0 0.573577
vn 0.819152 0 0.573577
vt 0.872162 7.47501
vt 4.69297 7.46234
vt 0.867028 6.88473
f 778/778/778 779/779/779 780/780/780
v 2.08133 0.047858 1.19873
v 1.84102 0.047858 1.54194
v 1.93308 0.047858 1.61919
vn 0 1 0
vn 0 1 0
vn 0 1 0
vt 4.75229 7.46214
vt 4.74715 6.87186
vt 4.68784 6.87206
f 781/781/781 782/782/782 783/783/783
v 2.18541 0.047858 1.25882
v 2.08133 0.047858 1.19873
v 1.93308 0.047858 1.61919
vn -0 1 0
vn -0 1 0
vn -0 1 0
vt 4.69297 7.46234
vt 4.75229 7.46214
vt 4.68784 6.87206
f 784/784/784 785/785/785 786/786/786
v 2.08133 -0.052292 1.19873
v 1.84102 -0.052292 1.54194
v 1.84102 0.047858 1.54194
vn -0.819152 -0 -0.573576
vn -0.819152 -0 -0.573576
vn -0.819152 -0 -0.573576
vt 0.812848 7.4752
vt 0.807713 6.88492
vt 4.74715 6.87186
f 787/787/787 788/788/788 789/789/789
v 2.08133 0.047858 1.19873
v 2.08133 -0.052292 1.19873
v 1.84102 0.047858 1.54194
vn -0.819152 0 -0.573576
vn -0.819152 0 -0.573576
vn -0.819152 0 -0.573576
vt 4.75229 7.46214
vt 0.812848 7.4752
vt 4.74715 6.87186
f 790/790/790 791/791/791 792/792/792
v 2.37133 -0.052292 0.860116
v 2.18541 -0.052292 1.25882
v 2.08133 -0.052292 1.19873
vn 0 -1 0
vn 0 -1 0
vn 0 -1 0
vt 0.877295 8.06528
vt 0.872162 7.47501
vt 0.812848 7.4752
f 793/793/793 794/794/794 795/795/795
v 2.2584 -0.052292 0.819012
v 2.37133 -0.052292 0.860116
v 2.08133 -0.052292 1.19873
vn 0 -1 -0
vn 0 -1 -0
vn 0 -1 -0
vt 0.817981 8.06548
vt 0.877295 8.06528
vt 0.812848 7.4752
f 796/796/796 797/797/797 798/798/798
v 2.37133 0.047858 0.860116
v 2.18541 0.047858 1.25882
v 2.18541 -0.052292 1.25882
vn 0.906308 -0 0.422618
vn 0.906308 -0 0.422618
vn 0.906308 -0 0.422618
vt 4.6981 8.05261
vt 4.69297 7.46234
vt 0.872162 7.47501
f 799/799/799 800/800/800 801/801/801
v 2.37133 -0.052292 0.860116
v 2.37133 0.047858 0.860116
v 2.18541 -0.052292 1.25882
vn 0.906308 0 0.422618
vn 0.906308 0 0.422618
vn 0.906308 0 0.422618
vt 0.877295 8.06528
vt 4.6981 8.05261
vt 0.872162 7.47501
f 802/802/802 803/803/803 804/804/804
v 2.2584 0.047858 0.819012
v 2.08133 0.047858 1.19873
v 2.18541 0.047858 1.25882
vn 0 1 0
vn 0 1 0
vn 0 1 0
vt 4.75742 8.05242
vt 4.75229 7.46214
vt 4.69297 7.46234
f 805/805/805 806/806/806 807/807/807
v 2.37133 0.047858 0.860116
v 2.2584 0.047858 0.819012
v 2.18541 0.047858 1.25882
vn -0 1 0
vn -0 1 0
vn -0 1 0
vt 4.6981 8.05261
vt 4.75742 8.05242
vt 4.69297 7.46234
f 808/808/808 809/809/809 810/810/810
v 2.2584 -0.052292 0.819012
v 2.08133 -0.052292 1.19873
v 2.08133 0.047858 1.19873
vn -0.906308 -0 -0.422619
vn -0.906308 -0 -0.422619
vn -0.906308 -0 -0.422619
vt 0.817981 8.06548
vt 0.812848 7.4752
vt 4.75229 7.46214
f 811/811/811 812/812/812 813/813/813
v 2.2584 0.047858 0.819012
v 2.2584 -0.052292 0.819012
v 2.08133 0.047858 1.19873
vn -0.906308 0 -0.422619
vn -0.906308 0 -0.422619
vn -0.906308 0 -0.422619
vt 4.75742 8.05242
vt 0.817981 8.06548
vt 4.75229 7.46214
f 814/814/814 815/815/815 816/816/816
v 2.48519 -0.052292 0.435182
v 2.37133 -0.052292 0.860116
v 2.2584 -0.052292 0.819012
vn 0 -1 0
vn 0 -1 0
vn 0 -1 0
vt 0.882429 8.65556
vt 0.877295 8.06528
vt 0.817981 8.06548
f 817/817/817 818/818/818 819/819/819
v 2.36684 -0.052292 0.414313
v 2.48519 -0.052292 0.435182
v 2.2584 -0.052292 0.819012
vn 0 -1 -0
vn 0 -1 -0
vn 0 -1 -0
vt 0.823116 8.65575
vt 0.882429 8.65556
vt 0.817981 8.06548
f 820/820/820 821/821/821 822/822/822
v 2.48519 0.047858 0.435182
v 2.37133 0.047858 0.860116
v 2.37133 -0.052292 0.860116
vn 0.965926 -0 0.25882
vn 0.965926 -0 0.25882
vn 0.965926 -0 0.25882
vt 4.70324 8.64289
vt 4.6981 8.05261
vt 0.877295 8.06528
f 823/823/823 824/824/824 825/825/825
v 2.48519 -0.052292 0.435182
v 2.48519 0.047858 0.435182
v 2.37133 -0.052292 0.860116
vn 0.965926 0 0.25882
vn 0.965926 0 0.25882
vn 0.965926 0 0.25882
vt 0.882429 8.65556
vt 4.70324 8.64289
vt 0.877295 8.06528
f 826/826/826 827/827/827 828/828/828
v 2.36684 0.047858 0.414313
v 2.2584 0.047858 0.819012
v 2.37133 0.047858 0.860116
vn 0 1 0
vn 0 1 0
vn 0 1 0
vt 4.76255 8.64269
vt 4.75742 8.05242
vt 4.6981 8.05261
f 829/829/829 830/830/830 831/831/831
v 2.48519 0.047858 0.435182
v 2.36684 0.047858 0.414313
v 2.37133 0.047858 0.860116
vn -0 1 0
vn -0 1 0
vn -0 1 0
vt 4.70324 8.64289
vt 4.76255 8.64269
vt 4.6981 8.05261
f 832/832/832 833/833/833 834/834/834
v 2.36684 -0.052292 0.414313
v 2.2584 -0.052292 0.819012
v 2.2584 0.047858 0.819012
vn -0.965926 -0 -0.258817
vn -0.965926 -0 -0.258817
vn -0.965926 -0 -0.258817
vt 0.823116 8.65575
vt 0.817981 8.06548
vt 4.75742 8.05242
f 835/835/835 836/836/836 837/837/837
v 2.36684 0.047858 0.414313
v 2.36684 -0.052292 0.414313
v 2.2584 0.047858 0.819012
vn -0.965926 0 -0.258817
vn -0.965926 0 -0.258817
vn -0.965926 0 -0.258817
vt 4.76255 8.64269
vt 0.823116 8.65575
vt 4.75742 8.05242
f 838/838/838 839/839/839 840/840/840
v 2.52354 -0.052292 -0.003067
v 2.48519 -0.052292 0.435182
v 2.36684 -0.052292 0.414313
vn 0 -1 0
vn 0 -1 0
vn 0 -1 0
vt 0.887563 9.24584
vt 0.882429 8.65556
vt 0.823116 8.65575
f 841/841/841 842/842/842 843/843/843
v 2.40335 -0.052292 -0.003067
v 2.52354 -0.052292 -0.003067
v 2.36684 -0.052292 0.414313
vn -0 -1 -0
vn -0 -1 -0
vn -0 -1 -0
vt 0.828248 9.24603
vt 0.887563 9.24584
vt 0.823116 8.65575
f 844/844/844 845/845/845 846/846/846
v 2.52354 0.047858 -0.003067
v 2.48519 0.047858 0.435182
v 2.48519 -0.052292 0.435182
vn 0.996195 -0 0.0871561
vn 0.996195 -0 0.0871561
vn 0.996195 -0 0.0871561
vt 4.70837 9.23317
vt 4.70324 8.64289
vt 0.882429 8.65556
f 847/847/847 848/848/848 849/849/849
v 2.52354 -0.052292 -0.003067
v 2.52354 0.047858 -0.003067
v 2.48519 -0.052292 0.435182
vn 0.996195 0 0.0871561
vn 0.996195 0 0.0871561
vn 0.996195 0 0.0871561
vt 0.887563 9.24584
vt 4.70837 9.23317
vt 0.882429 8.65556
f 850/850/850 851/851/851 852/852/852
v 2.40335 0.047858 -0.003067
v 2.36684 0.047858 0.414313
v 2.48519 0.047858 0.435182
vn 0 1 0
vn 0 1 0
vn 0 1 0
vt 4.76769 9.23297
vt 4.76255 8.64269
vt 4.70324 8.64289
f 853/853/853 854/854/854 855/855/855
v 2.52354 0.047858 -0.003067
v 2.40335 0.047858 -0.003067
v 2.48519 0.047858 0.435182
vn -0 1 0
vn -0 1 0
vn -0 1 0
vt 4.70837 9.23317
vt 4.76769 9.23297
vt 4.70324 8.64289
f 856/856/856 857/857/857 858/858/858
v 2.40335 -0.052292 -0.003067
v 2.36684 -0.052292 0.414313
v 2.36684 0.047858 0.414313
vn -0.996195 -0 -0.0871556
vn -0.996195 -0 -0.0871556
vn -0.996195 -0 -0.0871556
vt 0.828248 9.24603
vt 0.823116 8.65575
vt 4.76255 8.64269
f 859/859/859 860/860/860 861/861/861
v 2.40335 0.047858 -0.003067
v 2.40335 -0.052292 -0.003067
v 2.36684 0.047858 0.414313
vn -0.996195 0 -0.0871556
vn -0.996195 0 -0.0871556
vn -0.996195 0 -0.0871556
vt 4.76769 9.23297
vt 0.828248 9.24603
vt 4.76255 8.64269
f 862/862/862 863/863/863 864/864/864
