o data/uid/01015058/s/000002.obj
//1
usemtl mat0
v 2.3673 -0.0579 -0.4143
v 2.4038 -0.0579 0.0031
v 0.0002 -0.0579 0.0031
vn 0 -1 -0
vn 0 -1 -0
vn 0 -1 -0
vt 1.1174 0.3778
vt 1.1279 0.4971
vt 0.4406 0.4971
f 1/1/1 2/2/2 3/3/3
v 2.3673 0.0623 -0.4143
v 2.4038 0.0623 0.0031
v 2.4038 -0.0579 0.0031
vn 0.9848 0 -0.1736
vn 1 0 -0
vn 1 0 -0
vt 1.9345 2.3072
vt 1.8151 2.3072
vt 1.8151 1.1843
f 4/4/4 5/5/5 6/6/6
v 2.3673 -0.0579 -0.4143
v 2.3673 0.0623 -0.4143
v 2.4038 -0.0579 0.0031
vn 0.9848 0 -0.1736
vn 0.9848 0 -0.1736
vn 1 0 -0
vt 1.9345 1.1843
vt 1.9345 2.3072
vt 1.8151 1.1843
f 7/7/7 8/8/8 9/9/9
v 2.3673 0.0623 -0.4143
v 0.0002 0.0892 -0.0473
v 2.4038 0.0623 0.0031
vn 0.0111 0.9999 -0.0019
vn -0 1 -0.0002
vn 0.0112 0.9999 0
vt 1.1174 3.3654
vt 0.4406 3.2605
vt 1.1279 3.2461
f 10/10/10 11/11/11 12/12/12
v 2.2589 -0.0579 -0.819
v 2.3673 -0.0579 -0.4143
v 0.0002 -0.0579 0.0031
vn 0 -1 -0
vn 0 -1 -0
vn 0 -1 -0
vt 1.0864 0.262
vt 1.1174 0.3778
vt 0.4406 0.4971
f 13/13/13 14/14/14 15/15/15
v 2.2589 0.0623 -0.819
v 2.3673 0.0623 -0.4143
v 2.3673 -0.0579 -0.4143
vn 0.9397 0 -0.342
vn 0.9848 0 -0.1736
vn 0.9848 0 -0.1736
vt 2.0502 2.3072
vt 1.9345 2.3072
vt 1.9345 1.1843
f 16/16/16 17/17/17 18/18/18
v 2.2589 -0.0579 -0.819
v 2.2589 0.0623 -0.819
v 2.3673 -0.0579 -0.4143
vn 0.9397 0 -0.342
vn 0.9397 0 -0.342
vn 0.9848 0 -0.1736
vt 2.0502 1.1843
vt 2.0502 2.3072
vt 1.9345 1.1843
f 19/19/19 20/20/20 21/21/21
v 2.2589 0.0623 -0.819
v 0.0002 0.0892 -0.0473
v 2.3673 0.0623 -0.4143
vn 0.0106 0.9999 -0.0038
vn -0 1 -0.0002
vn 0.0111 0.9999 -0.0019
vt 1.0864 3.4811
vt 0.4406 3.2605
vt 1.1174 3.3654
f 22/22/22 23/23/23 24/24/24
v 2.0818 -0.0579 -1.1987
v 2.2589 -0.0579 -0.819
v 0.0002 -0.0579 0.0031
vn 0 -1 -0
vn 0 -1 -0
vn 0 -1 -0
vt 1.0358 0.1535
vt 1.0864 0.262
vt 0.4406 0.4971
f 25/25/25 26/26/26 27/27/27
v 2.0818 0.0623 -1.1987
v 2.2589 0.0623 -0.819
v 2.2589 -0.0579 -0.819
vn 0.866 0 -0.5
vn 0.9397 0 -0.342
vn 0.9397 0 -0.342
vt 2.1587 2.3072
vt 2.0502 2.3072
vt 2.0502 1.1843
f 28/28/28 29/29/29 30/30/30
v 2.0818 -0.0579 -1.1987
v 2.0818 0.0623 -1.1987
v 2.2589 -0.0579 -0.819
vn 0.866 0 -0.5
vn 0.866 0 -0.5
vn 0.9397 0 -0.342
vt 2.1587 1.1843
vt 2.1587 2.3072
vt 2.0502 1.1843
f 31/31/31 32/32/32 33/33/33
v 2.0818 0.0623 -1.1987
v 0.0002 0.0892 -0.0473
v 2.2589 0.0623 -0.819
vn 0.0098 0.9999 -0.0057
vn -0 1 -0.0002
vn 0.0106 0.9999 -0.0038
vt 1.0358 3.5897
vt 0.4406 3.2605
vt 1.0864 3.4811
f 34/34/34 35/35/35 36/36/36
v 1.8415 -0.0579 -1.5419
v 2.0818 -0.0579 -1.1987
v 0.0002 -0.0579 0.0031
vn 0 -1 -0
vn 0 -1 -0
vn 0 -1 -0
vt 0.9671 0.0553
vt 1.0358 0.1535
vt 0.4406 0.4971
f 37/37/37 38/38/38 39/39/39
v 1.8415 0.0623 -1.5419
v 2.0818 0.0623 -1.1987
v 2.0818 -0.0579 -1.1987
vn 0.766 0 -0.6428
vn 0.866 0 -0.5
vn 0.866 0 -0.5
vt 2.2569 2.3072
vt 2.1587 2.3072
vt 2.1587 1.1843
f 40/40/40 41/41/41 42/42/42
v 1.8415 -0.0579 -1.5419
v 1.8415 0.0623 -1.5419
v 2.0818 -0.0579 -1.1987
vn 0.766 0 -0.6428
vn 0.766 0 -0.6428
vn 0.866 0 -0.5
vt 2.2569 1.1843
vt 2.2569 2.3072
vt 2.1587 1.1843
f 43/43/43 44/44/44 45/45/45
v 1.8415 0.0623 -1.5419
v 0.0002 0.0892 -0.0473
v 2.0818 0.0623 -1.1987
vn 0.0087 0.9999 -0.0073
vn -0 1 -0.0002
vn 0.0098 0.9999 -0.0057
vt 0.9671 3.6878
vt 0.4406 3.2605
vt 1.0358 3.5897
f 46/46/46 47/47/47 48/48/48
v 1.5452 -0.0579 -1.8382
v 1.8415 -0.0579 -1.5419
v 0.0002 -0.0579 0.0031
vn 0 -1 -0
vn 0 -1 -0
vn 0 -1 -0
vt 0.8824 -0.0294
vt 0.9671 0.0553
vt 0.4406 0.4971
f 49/49/49 50/50/50 51/51/51
v 1.5452 0.0623 -1.8382
v 1.8415 0.0623 -1.5419
v 1.8415 -0.0579 -1.5419
vn 0.7071 0 -0.7071
vn 0.766 0 -0.6428
vn 0.766 0 -0.6428
vt 2.3416 2.3072
vt 2.2569 2.3072
vt 2.2569 1.1843
f 52/52/52 53/53/53 54/54/54
v 1.5452 -0.0579 -1.8382
v 1.5452 0.0623 -1.8382
v 1.8415 -0.0579 -1.5419
vn 0.7071 0 -0.7071
vn 0.7071 0 -0.7071
vn 0.766 0 -0.6428
vt 2.3416 1.1843
vt 2.3416 2.3072
vt 2.2569 1.1843
f 55/55/55 56/56/56 57/57/57
v 1.5452 0.0623 -1.8382
v 0.0002 0.0892 -0.0473
v 1.8415 0.0623 -1.5419
vn 0.0073 0.9999 -0.0087
vn -0 1 -0.0002
vn 0.0087 0.9999 -0.0073
vt 0.8824 3.7726
vt 0.4406 3.2605
vt 0.9671 3.6878
f 58/58/58 59/59/59 60/60/60
v 1.202 -0.0579 -2.0785
v 1.5452 -0.0579 -1.8382
v 0.0002 -0.0579 0.0031
vn 0 -1 -0
vn 0 -1 -0
vn 0 -1 -0
vt 0.7842 -0.0981
vt 0.8824 -0.0294
vt 0.4406 0.4971
f 61/61/61 62/62/62 63/63/63
v 1.202 0.0623 -2.0785
v 1.5452 0.0623 -1.8382
v 1.5452 -0.0579 -1.8382
vn 0.5 0 -0.866
vn 0.5736 0 -0.8192
vn 0.5736 0 -0.8192
vt 2.846 2.3072
vt 2.7479 2.3072
vt 2.7479 1.1843
f 64/64/64 65/65/65 66/66/66
v 1.202 -0.0579 -2.0785
v 1.202 0.0623 -2.0785
v 1.5452 -0.0579 -1.8382
vn 0.5 0 -0.866
vn 0.5 0 -0.866
vn 0.5736 0 -0.8192
vt 2.846 1.1843
vt 2.846 2.3072
vt 2.7479 1.1843
f 67/67/67 68/68/68 69/69/69
v 1.202 0.0623 -2.0785
v 0.0002 0.0892 -0.0473
v 1.5452 0.0623 -1.8382
vn 0.0057 0.9999 -0.0099
vn -0 1 -0.0002
vn 0.0073 0.9999 -0.0087
vt 0.7842 3.8413
vt 0.4406 3.2605
vt 0.8824 3.7726
f 70/70/70 71/71/71 72/72/72
v 0.8223 -0.0579 -2.2556
v 1.202 -0.0579 -2.0785
v 0.0002 -0.0579 0.0031
vn 0 -1 -0
vn 0 -1 -0
vn 0 -1 -0
vt 0.6757 -0.1487
vt 0.7842 -0.0981
vt 0.4406 0.4971
f 73/73/73 74/74/74 75/75/75
v 0.8223 0.0623 -2.2556
v 1.202 0.0623 -2.0785
v 1.202 -0.0579 -2.0785
vn 0.342 0 -0.9397
vn 0.5 0 -0.866
vn 0.5 0 -0.866
vt 2.9546 2.3072
vt 2.846 2.3072
vt 2.846 1.1843
f 76/76/76 77/77/77 78/78/78
v 0.8223 -0.0579 -2.2556
v 0.8223 0.0623 -2.2556
v 1.202 -0.0579 -2.0785
vn 0.342 0 -0.9397
vn 0.342 0 -0.9397
vn 0.5 0 -0.866
vt 2.9546 1.1843
vt 2.9546 2.3072
vt 2.846 1.1843
f 79/79/79 80/80/80 81/81/81
v 0.8223 0.0623 -2.2556
v 0.0002 0.0892 -0.0473
v 1.202 0.0623 -2.0785
vn 0.0039 0.9999 -0.0107
vn -0 1 -0.0002
vn 0.0057 0.9999 -0.0099
vt 0.6757 3.8919
vt 0.4406 3.2605
vt 0.7842 3.8413
f 82/82/82 83/83/83 84/84/84
v 0.4176 -0.0579 -2.364
v 0.8223 -0.0579 -2.2556
v 0.0002 -0.0579 0.0031
vn 0 -1 -0
vn 0 -1 -0
vn 0 -1 -0
vt 0.56 -0.1797
vt 0.6757 -0.1487
vt 0.4406 0.4971
f 85/85/85 86/86/86 87/87/87
v 0.4176 0.0623 -2.364
v 0.8223 0.0623 -2.2556
v 0.8223 -0.0579 -2.2556
vn 0.1736 0 -0.9848
vn 0.342 0 -0.9397
vn 0.342 0 -0.9397
vt 3.0703 2.3072
vt 2.9546 2.3072
vt 2.9546 1.1843
f 88/88/88 89/89/89 90/90/90
v 0.4176 -0.0579 -2.364
v 0.4176 0.0623 -2.364
v 0.8223 -0.0579 -2.2556
vn 0.1736 0 -0.9848
vn 0.1736 0 -0.9848
vn 0.342 0 -0.9397
vt 3.0703 1.1843
vt 3.0703 2.3072
vt 2.9546 1.1843
f 91/91/91 92/92/92 93/93/93
v 0.4176 0.0623 -2.364
v 0.0002 0.0892 -0.0473
v 0.8223 0.0623 -2.2556
vn 0.002 0.9999 -0.0113
vn -0 1 -0.0002
vn 0.0039 0.9999 -0.0107
vt 0.56 3.9229
vt 0.4406 3.2605
vt 0.6757 3.8919
f 94/94/94 95/95/95 96/96/96
v 0.0002 -0.0579 -2.4005
v 0.4176 -0.0579 -2.364
v 0.0002 -0.0579 0.0031
vn 0 -1 -0
vn 0 -1 -0
vn 0 -1 -0
vt 0.4406 -0.1902
vt 0.56 -0.1797
vt 0.4406 0.4971
f 97/97/97 98/98/98 99/99/99
v 0.0002 0.0623 -2.4005
v 0.4176 0.0623 -2.364
v 0.4176 -0.0579 -2.364
vn 0 0 -1
vn 0.1736 0 -0.9848
vn 0.1736 0 -0.9848
vt 3.1896 2.3072
vt 3.0703 2.3072
vt 3.0703 1.1843
f 100/100/100 101/101/101 102/102/102
v 0.0002 -0.0579 -2.4005
v 0.0002 0.0623 -2.4005
v 0.4176 -0.0579 -2.364
vn -0 0 -1
vn 0 0 -1
vn 0.1736 0 -0.9848
vt 3.1896 1.1843
vt 3.1896 2.3072
vt 3.0703 1.1843
f 103/103/103 104/104/104 105/105/105
v 0.0002 0.0623 -2.4005
v 0.0002 0.0892 -0.0473
v 0.4176 0.0623 -2.364
vn 0 0.9999 -0.0114
vn -0 1 -0.0002
vn 0.002 0.9999 -0.0113
vt 0.4406 3.9333
vt 0.4406 3.2605
vt 0.56 3.9229
f 106/106/106 107/107/107 108/108/108
v -0.4171 -0.0579 -2.364
v 0.0002 -0.0579 -2.4005
v 0.0002 -0.0579 0.0031
vn 0 -1 -0
vn 0 -1 -0
vn 0 -1 -0
vt 0.3213 -0.1797
vt 0.4406 -0.1902
vt 0.4406 0.4971
f 109/109/109 110/110/110 111/111/111
v -0.4171 0.0623 -2.364
v 0.0002 0.0623 -2.4005
v 0.0002 -0.0579 -2.4005
vn -0.1736 0 -0.9848
vn 0 0 -1
vn -0 0 -1
vt 3.3089 2.3072
vt 3.1896 2.3072
vt 3.1896 1.1843
f 112/112/112 113/113/113 114/114/114
v -0.4171 -0.0579 -2.364
v -0.4171 0.0623 -2.364
v 0.0002 -0.0579 -2.4005
vn -0.1736 0 -0.9848
vn -0.1736 0 -0.9848
vn -0 0 -1
vt 3.3089 1.1843
vt 3.3089 2.3072
vt 3.1896 1.1843
f 115/115/115 116/116/116 117/117/117
v -0.4171 0.0623 -2.364
v 0.0002 0.0892 -0.0473
v 0.0002 0.0623 -2.4005
vn -0.002 0.9999 -0.0113
vn -0 1 -0.0002
vn 0 0.9999 -0.0114
vt 0.3213 3.9229
vt 0.4406 3.2605
vt 0.4406 3.9333
f 118/118/118 119/119/119 120/120/120
v -0.8218 -0.0579 -2.2556
v -0.4171 -0.0579 -2.364
v 0.0002 -0.0579 0.0031
vn 0 -1 -0
vn 0 -1 -0
vn 0 -1 -0
vt 0.2056 -0.1487
vt 0.3213 -0.1797
vt 0.4406 0.4971
f 121/121/121 122/122/122 123/123/123
v -0.8218 0.0623 -2.2556
v -0.4171 0.0623 -2.364
v -0.4171 -0.0579 -2.364
vn -0.342 0 -0.9397
vn -0.1736 0 -0.9848
vn -0.1736 0 -0.9848
vt 3.4247 2.3072
vt 3.3089 2.3072
vt 3.3089 1.1843
f 124/124/124 125/125/125 126/126/126
v -0.8218 -0.0579 -2.2556
v -0.8218 0.0623 -2.2556
v -0.4171 -0.0579 -2.364
vn -0.342 0 -0.9397
vn -0.342 0 -0.9397
vn -0.1736 0 -0.9848
vt 3.4247 1.1843
vt 3.4247 2.3072
vt 3.3089 1.1843
f 127/127/127 128/128/128 129/129/129
v -0.8218 0.0623 -2.2556
v 0.0002 0.0892 -0.0473
v -0.4171 0.0623 -2.364
vn -0.0039 0.9999 -0.0107
vn -0 1 -0.0002
vn -0.002 0.9999 -0.0113
vt 0.2056 3.8919
vt 0.4406 3.2605
vt 0.3213 3.9229
f 130/130/130 131/131/131 132/132/132
v -1.2016 -0.0579 -2.0785
v -0.8218 -0.0579 -2.2556
v 0.0002 -0.0579 0.0031
vn 0 -1 -0
vn 0 -1 -0
vn 0 -1 -0
vt 0.097 -0.0981
vt 0.2056 -0.1487
vt 0.4406 0.4971
f 133/133/133 134/134/134 135/135/135
v -1.2016 0.0623 -2.0785
v -0.8218 0.0623 -2.2556
v -0.8218 -0.0579 -2.2556
vn -0.5 0 -0.866
vn -0.342 0 -0.9397
vn -0.342 0 -0.9397
vt 3.5332 2.3072
vt 3.4247 2.3072
vt 3.4247 1.1843
f 136/136/136 137/137/137 138/138/138
v -1.2016 -0.0579 -2.0785
v -1.2016 0.0623 -2.0785
v -0.8218 -0.0579 -2.2556
vn -0.5 0 -0.866
vn -0.5 0 -0.866
vn -0.342 0 -0.9397
vt 3.5332 1.1843
vt 3.5332 2.3072
vt 3.4247 1.1843
f 139/139/139 140/140/140 141/141/141
v -1.2016 0.0623 -2.0785
v 0.0002 0.0892 -0.0473
v -0.8218 0.0623 -2.2556
vn -0.0057 0.9999 -0.0099
vn -0 1 -0.0002
vn -0.0039 0.9999 -0.0107
vt 0.097 3.8413
vt 0.4406 3.2605
vt 0.2056 3.8919
f 142/142/142 143/143/143 144/144/144
v -1.5448 -0.0579 -1.8382
v -1.2016 -0.0579 -2.0785
v 0.0002 -0.0579 0.0031
vn 0 -1 -0
vn 0 -1 -0
vn 0 -1 -0
vt -0.0011 -0.0294
vt 0.097 -0.0981
vt 0.4406 0.4971
f 145/145/145 146/146/146 147/147/147
v -1.5448 0.0623 -1.8382
v -1.2016 0.0623 -2.0785
v -1.2016 -0.0579 -2.0785
vn -0.5736 0 -0.8192
vn -0.5 0 -0.866
vn -0.5 0 -0.866
vt 3.6314 2.3072
vt 3.5332 2.3072
vt 3.5332 1.1843
f 148/148/148 149/149/149 150/150/150
v -1.5448 -0.0579 -1.8382
v -1.5448 0.0623 -1.8382
v -1.2016 -0.0579 -2.0785
vn -0.5736 0 -0.8192
vn -0.5736 0 -0.8192
vn -0.5 0 -0.866
vt 3.6314 1.1843
vt 3.6314 2.3072
vt 3.5332 1.1843
f 151/151/151 152/152/152 153/153/153
v -1.5448 0.0623 -1.8382
v 0.0002 0.0892 -0.0473
v -1.2016 0.0623 -2.0785
vn -0.0073 0.9999 -0.0087
vn -0 1 -0.0002
vn -0.0057 0.9999 -0.0099
vt -0.0011 3.7726
vt 0.4406 3.2605
vt 0.097 3.8413
f 154/154/154 155/155/155 156/156/156
v -1.841 -0.0579 -1.5419
v -1.5448 -0.0579 -1.8382
v 0.0002 -0.0579 0.0031
vn 0 -1 -0
vn 0 -1 -0
vn 0 -1 -0
vt -0.0858 0.0553
vt -0.0011 -0.0294
vt 0.4406 0.4971
f 157/157/157 158/158/158 159/159/159
v -1.841 0.0623 -1.5419
v -1.5448 0.0623 -1.8382
v -1.5448 -0.0579 -1.8382
vn -0.766 0 -0.6428
vn -0.7071 0 -0.7071
vn -0.7071 0 -0.7071
vt -1.3756 2.3072
vt -1.4603 2.3072
vt -1.4603 1.1843
f 160/160/160 161/161/161 162/162/162
v -1.841 -0.0579 -1.5419
v -1.841 0.0623 -1.5419
v -1.5448 -0.0579 -1.8382
vn -0.766 0 -0.6428
vn -0.766 0 -0.6428
vn -0.7071 0 -0.7071
vt -1.3756 1.1843
vt -1.3756 2.3072
vt -1.4603 1.1843
f 163/163/163 164/164/164 165/165/165
v -1.841 0.0623 -1.5419
v 0.0002 0.0892 -0.0473
v -1.5448 0.0623 -1.8382
vn -0.0087 0.9999 -0.0073
vn -0 1 -0.0002
vn -0.0073 0.9999 -0.0087
vt -0.0858 3.6878
vt 0.4406 3.2605
vt -0.0011 3.7726
f 166/166/166 167/167/167 168/168/168
v -2.0813 -0.0579 -1.1987
v -1.841 -0.0579 -1.5419
v 0.0002 -0.0579 0.0031
vn 0 -1 -0
vn 0 -1 -0
vn 0 -1 -0
vt -0.1546 0.1535
vt -0.0858 0.0553
vt 0.4406 0.4971
f 169/169/169 170/170/170 171/171/171
v -2.0813 0.0623 -1.1987
v -1.841 0.0623 -1.5419
v -1.841 -0.0579 -1.5419
vn -0.866 0 -0.5
vn -0.766 0 -0.6428
vn -0.766 0 -0.6428
vt -1.2775 2.3072
vt -1.3756 2.3072
vt -1.3756 1.1843
f 172/172/172 173/173/173 174/174/174
v -2.0813 -0.0579 -1.1987
v -2.0813 0.0623 -1.1987
v -1.841 -0.0579 -1.5419
vn -0.866 0 -0.5
vn -0.866 0 -0.5
vn -0.766 0 -0.6428
vt -1.2775 1.1843
vt -1.2775 2.3072
vt -1.3756 1.1843
f 175/175/175 176/176/176 177/177/177
v -2.0813 0.0623 -1.1987
v 0.0002 0.0892 -0.0473
v -1.841 0.0623 -1.5419
vn -0.0098 0.9999 -0.0057
vn -0 1 -0.0002
vn -0.0087 0.9999 -0.0073
vt -0.1546 3.5897
vt 0.4406 3.2605
vt -0.0858 3.6878
f 178/178/178 179/179/179 180/180/180
v -2.2584 -0.0579 -0.819
v -2.0813 -0.0579 -1.1987
v 0.0002 -0.0579 0.0031
vn 0 -1 -0
vn 0 -1 -0
vn 0 -1 -0
vt -0.2052 0.262
vt -0.1546 0.1535
vt 0.4406 0.4971
f 181/181/181 182/182/182 183/183/183
v -2.2584 0.0623 -0.819
v -2.0813 0.0623 -1.1987
v -2.0813 -0.0579 -1.1987
vn -0.9397 0 -0.342
vn -0.866 0 -0.5
vn -0.866 0 -0.5
vt -1.1689 2.3072
vt -1.2775 2.3072
vt -1.2775 1.1843
f 184/184/184 185/185/185 186/186/186
v -2.2584 -0.0579 -0.819
v -2.2584 0.0623 -0.819
v -2.0813 -0.0579 -1.1987
vn -0.9397 0 -0.342
vn -0.9397 0 -0.342
vn -0.866 0 -0.5
vt -1.1689 1.1843
vt -1.1689 2.3072
vt -1.2775 1.1843
f 187/187/187 188/188/188 189/189/189
v -2.2584 0.0623 -0.819
v 0.0002 0.0892 -0.0473
v -2.0813 0.0623 -1.1987
vn -0.0106 0.9999 -0.0038
vn -0 1 -0.0002
vn -0.0098 0.9999 -0.0057
vt -0.2052 3.4811
vt 0.4406 3.2605
vt -0.1546 3.5897
f 190/190/190 191/191/191 192/192/192
v -2.3668 -0.0579 -0.4143
v -2.2584 -0.0579 -0.819
v 0.0002 -0.0579 0.0031
vn 0 -1 -0
vn 0 -1 -0
vn 0 -1 -0
vt -0.2362 0.3778
vt -0.2052 0.262
vt 0.4406 0.4971
f 193/193/193 194/194/194 195/195/195
v -2.3668 0.0623 -0.4143
v -2.2584 0.0623 -0.819
v -2.2584 -0.0579 -0.819
vn -0.9848 0 -0.1736
vn -0.9397 0 -0.342
vn -0.9397 0 -0.342
vt -1.0532 2.3072
vt -1.1689 2.3072
vt -1.1689 1.1843
f 196/196/196 197/197/197 198/198/198
v -2.3668 -0.0579 -0.4143
v -2.3668 0.0623 -0.4143
v -2.2584 -0.0579 -0.819
vn -0.9848 0 -0.1736
vn -0.9848 0 -0.1736
vn -0.9397 0 -0.342
vt -1.0532 1.1843
vt -1.0532 2.3072
vt -1.1689 1.1843
f 199/199/199 200/200/200 201/201/201
v -2.3668 0.0623 -0.4143
v 0.0002 0.0892 -0.0473
v -2.2584 0.0623 -0.819
vn -0.0111 0.9999 -0.0019
vn -0 1 -0.0002
vn -0.0106 0.9999 -0.0038
vt -0.2362 3.3654
vt 0.4406 3.2605
vt -0.2052 3.4811
f 202/202/202 203/203/203 204/204/204
v -2.4034 -0.0579 0.0031
v -2.3668 -0.0579 -0.4143
v 0.0002 -0.0579 0.0031
vn 0 -1 -0
vn 0 -1 -0
vn 0 -1 -0
vt -0.2466 0.4971
vt -0.2362 0.3778
vt 0.4406 0.4971
f 205/205/205 206/206/206 207/207/207
v -2.4034 0.0623 0.0031
v -2.3668 0.0623 -0.4143
v -2.3668 -0.0579 -0.4143
vn -1 0 0
vn -0.9848 0 -0.1736
vn -0.9848 0 -0.1736
vt -0.9339 2.3072
vt -1.0532 2.3072
vt -1.0532 1.1843
f 208/208/208 209/209/209 210/210/210
v -2.4034 -0.0579 0.0031
v -2.4034 0.0623 0.0031
v -2.3668 -0.0579 -0.4143
vn -1 0 -0
vn -1 0 0
vn -0.9848 0 -0.1736
vt -0.9339 1.1843
vt -0.9339 2.3072
vt -1.0532 1.1843
f 211/211/211 212/212/212 213/213/213
v -2.4034 0.0623 0.0031
v 0.0002 0.0892 -0.0473
v -2.3668 0.0623 -0.4143
vn -0.0112 0.9999 0
vn -0 1 -0.0002
vn -0.0111 0.9999 -0.0019
vt -0.2466 3.2461
vt 0.4406 3.2605
vt -0.2362 3.3654
f 214/214/214 215/215/215 216/216/216
v -2.3668 -0.0579 0.4204
v -2.4034 -0.0579 0.0031
v 0.0002 -0.0579 0.0031
vn 0 -1 -0
vn 0 -1 -0
vn 0 -1 -0
vt -0.2362 0.6164
vt -0.2466 0.4971
vt 0.4406 0.4971
f 217/217/217 218/218/218 219/219/219
v -2.3668 0.0623 0.4204
v -2.4034 0.0623 0.0031
v -2.4034 -0.0579 0.0031
vn -0.9848 0 0.1736
vn -1 0 0
vn -1 0 -0
vt -0.8145 2.3072
vt -0.9339 2.3072
vt -0.9339 1.1843
f 220/220/220 221/221/221 222/222/222
v -2.3668 -0.0579 0.4204
v -2.3668 0.0623 0.4204
v -2.4034 -0.0579 0.0031
vn -0.9848 0 0.1736
vn -0.9848 0 0.1736
vn -1 0 -0
vt -0.8145 1.1843
vt -0.8145 2.3072
vt -0.9339 1.1843
f 223/223/223 224/224/224 225/225/225
v -2.3668 0.0623 0.4204
v 0.0002 0.0892 -0.0473
v -2.4034 0.0623 0.0031
vn -0.011 0.9999 0.002
vn -0 1 -0.0002
vn -0.0112 0.9999 0
vt -0.2362 3.1267
vt 0.4406 3.2605
vt -0.2466 3.2461
f 226/226/226 227/227/227 228/228/228
v -2.2584 -0.0579 0.8251
v -2.3668 -0.0579 0.4204
v 0.0002 -0.0579 0.0031
vn 0 -1 -0
vn 0 -1 -0
vn 0 -1 -0
vt -0.2052 0.7322
vt -0.2362 0.6164
vt 0.4406 0.4971
f 229/229/229 230/230/230 231/231/231
v -2.2584 0.0623 0.8251
v -2.3668 0.0623 0.4204
v -2.3668 -0.0579 0.4204
vn -0.9397 0 0.342
vn -0.9848 0 0.1736
vn -0.9848 0 0.1736
vt -0.6988 2.3072
vt -0.8145 2.3072
vt -0.8145 1.1843
f 232/232/232 233/233/233 234/234/234
v -2.2584 -0.0579 0.8251
v -2.2584 0.0623 0.8251
v -2.3668 -0.0579 0.4204
vn -0.9397 0 0.342
vn -0.9397 0 0.342
vn -0.9848 0 0.1736
vt -0.6988 1.1843
vt -0.6988 2.3072
vt -0.8145 1.1843
f 235/235/235 236/236/236 237/237/237
v -2.2584 0.0623 0.8251
v 0.0002 0.0892 -0.0473
v -2.3668 0.0623 0.4204
vn -0.0105 0.9999 0.0038
vn -0 1 -0.0002
vn -0.011 0.9999 0.002
vt -0.2052 3.011
vt 0.4406 3.2605
vt -0.2362 3.1267
f 238/238/238 239/239/239 240/240/240
v -2.0813 -0.0579 1.2049
v -2.2584 -0.0579 0.8251
v 0.0002 -0.0579 0.0031
vn 0 -1 -0
vn 0 -1 -0
vn 0 -1 -0
vt -0.1546 0.8407
vt -0.2052 0.7322
vt 0.4406 0.4971
f 241/241/241 242/242/242 243/243/243
v -2.0813 0.0623 1.2049
v -2.2584 0.0623 0.8251
v -2.2584 -0.0579 0.8251
vn -0.866 0 0.5
vn -0.9397 0 0.342
vn -0.9397 0 0.342
vt -0.5903 2.3072
vt -0.6988 2.3072
vt -0.6988 1.1843
f 244/244/244 245/245/245 246/246/246
v -2.0813 -0.0579 1.2049
v -2.0813 0.0623 1.2049
v -2.2584 -0.0579 0.8251
vn -0.866 0 0.5
vn -0.866 0 0.5
vn -0.9397 0 0.342
vt -0.5903 1.1843
vt -0.5903 2.3072
vt -0.6988 1.1843
f 247/247/247 248/248/248 249/249/249
v -2.0813 0.0623 1.2049
v 0.0002 0.0892 -0.0473
v -2.2584 0.0623 0.8251
vn -0.0096 0.9999 0.0056
vn -0 1 -0.0002
vn -0.0105 0.9999 0.0038
vt -0.1546 2.9025
vt 0.4406 3.2605
vt -0.2052 3.011
f 250/250/250 251/251/251 252/252/252
v -1.841 -0.0579 1.5481
v -2.0813 -0.0579 1.2049
v 0.0002 -0.0579 0.0031
vn 0 -1 -0
vn 0 -1 -0
vn 0 -1 -0
vt -0.0858 0.9389
vt -0.1546 0.8407
vt 0.4406 0.4971
f 253/253/253 254/254/254 255/255/255
v -1.841 0.0623 1.5481
v -2.0813 0.0623 1.2049
v -2.0813 -0.0579 1.2049
vn -0.8192 0 0.5736
vn -0.866 0 0.5
vn -0.866 0 0.5
vt -0.4921 2.3072
vt -0.5903 2.3072
vt -0.5903 1.1843
f 256/256/256 257/257/257 258/258/258
v -1.841 -0.0579 1.5481
v -1.841 0.0623 1.5481
v -2.0813 -0.0579 1.2049
vn -0.8192 0 0.5736
vn -0.8192 0 0.5736
vn -0.866 0 0.5
vt -0.4921 1.1843
vt -0.4921 2.3072
vt -0.5903 1.1843
f 259/259/259 260/260/260 261/261/261
v -1.841 0.0623 1.5481
v 0.0002 0.0892 -0.0473
v -2.0813 0.0623 1.2049
vn -0.0085 0.9999 0.0071
vn -0 1 -0.0002
vn -0.0096 0.9999 0.0056
vt -0.0858 2.8043
vt 0.4406 3.2605
vt -0.1546 2.9025
f 262/262/262 263/263/263 264/264/264
v -1.5448 -0.0579 1.8443
v -1.841 -0.0579 1.5481
v 0.0002 -0.0579 0.0031
vn 0 -1 -0
vn 0 -1 -0
vn 0 -1 -0
vt -0.0011 1.0236
vt -0.0858 0.9389
vt 0.4406 0.4971
f 265/265/265 266/266/266 267/267/267
v -1.5448 0.0623 1.8443
v -1.841 0.0623 1.5481
v -1.841 -0.0579 1.5481
vn -0.6428 0 0.766
vn -0.7071 0 0.7071
vn -0.7071 0 0.7071
vt -0.0011 2.3072
vt -0.0858 2.3072
vt -0.0858 1.1843
f 268/268/268 269/269/269 270/270/270
v -1.5448 -0.0579 1.8443
v -1.5448 0.0623 1.8443
v -1.841 -0.0579 1.5481
vn -0.6428 0 0.766
vn -0.6428 0 0.766
vn -0.7071 0 0.7071
vt -0.0011 1.1843
vt -0.0011 2.3072
vt -0.0858 1.1843
f 271/271/271 272/272/272 273/273/273
v -1.5448 0.0623 1.8443
v 0.0002 0.0892 -0.0473
v -1.841 0.0623 1.5481
vn -0.0071 0.9999 0.0085
vn -0 1 -0.0002
vn -0.0085 0.9999 0.0071
vt -0.0011 2.7196
vt 0.4406 3.2605
vt -0.0858 2.8043
f 274/274/274 275/275/275 276/276/276
v -1.2016 -0.0579 2.0846
v -1.5448 -0.0579 1.8443
v 0.0002 -0.0579 0.0031
vn 0 -1 -0
vn 0 -1 -0
vn 0 -1 -0
vt 0.097 1.0923
vt -0.0011 1.0236
vt 0.4406 0.4971
f 277/277/277 278/278/278 279/279/279
v -1.2016 0.0623 2.0846
v -1.5448 0.0623 1.8443
v -1.5448 -0.0579 1.8443
vn -0.5 0 0.866
vn -0.6428 0 0.766
vn -0.6428 0 0.766
vt 0.097 2.3072
vt -0.0011 2.3072
vt -0.0011 1.1843
f 280/280/280 281/281/281 282/282/282
v -1.2016 -0.0579 2.0846
v -1.2016 0.0623 2.0846
v -1.5448 -0.0579 1.8443
vn -0.5 0 0.866
vn -0.5 0 0.866
vn -0.6428 0 0.766
vt 0.097 1.1843
vt 0.097 2.3072
vt -0.0011 1.1843
f 283/283/283 284/284/284 285/285/285
v -1.2016 0.0623 2.0846
v 0.0002 0.0892 -0.0473
v -1.5448 0.0623 1.8443
vn -0.0055 0.9999 0.0095
vn -0 1 -0.0002
vn -0.0071 0.9999 0.0085
vt 0.097 2.6509
vt 0.4406 3.2605
vt -0.0011 2.7196
f 286/286/286 287/287/287 288/288/288
v -0.8218 -0.0579 2.2617
v -1.2016 -0.0579 2.0846
v 0.0002 -0.0579 0.0031
vn 0 -1 -0
vn 0 -1 -0
vn 0 -1 -0
vt 0.2056 1.1429
vt 0.097 1.0923
vt 0.4406 0.4971
f 289/289/289 290/290/290 291/291/291
v -0.8218 0.0623 2.2617
v -1.2016 0.0623 2.0846
v -1.2016 -0.0579 2.0846
vn -0.342 0 0.9397
vn -0.5 0 0.866
vn -0.5 0 0.866
vt 0.2056 2.3072
vt 0.097 2.3072
vt 0.097 1.1843
f 292/292/292 293/293/293 294/294/294
v -0.8218 -0.0579 2.2617
v -0.8218 0.0623 2.2617
v -1.2016 -0.0579 2.0846
vn -0.342 0 0.9397
vn -0.342 0 0.9397
vn -0.5 0 0.866
vt 0.2056 1.1843
vt 0.2056 2.3072
vt 0.097 1.1843
f 295/295/295 296/296/296 297/297/297
v -0.8218 0.0623 2.2617
v 0.0002 0.0892 -0.0473
v -1.2016 0.0623 2.0846
vn -0.0038 0.9999 0.0103
vn -0 1 -0.0002
vn -0.0055 0.9999 0.0095
vt 0.2056 2.6003
vt 0.4406 3.2605
vt 0.097 2.6509
f 298/298/298 299/299/299 300/300/300
v -0.4171 -0.0579 2.3702
v -0.8218 -0.0579 2.2617
v 0.0002 -0.0579 0.0031
vn 0 -1 -0
vn 0 -1 -0
vn 0 -1 -0
vt 0.3213 1.1739
vt 0.2056 1.1429
vt 0.4406 0.4971
f 301/301/301 302/302/302 303/303/303
v -0.4171 0.0623 2.3702
v -0.8218 0.0623 2.2617
v -0.8218 -0.0579 2.2617
vn -0.1736 0 0.9848
vn -0.342 0 0.9397
vn -0.342 0 0.9397
vt 0.3213 2.3072
vt 0.2056 2.3072
vt 0.2056 1.1843
f 304/304/304 305/305/305 306/306/306
v -0.4171 -0.0579 2.3702
v -0.4171 0.0623 2.3702
v -0.8218 -0.0579 2.2617
vn -0.1736 0 0.9848
vn -0.1736 0 0.9848
vn -0.342 0 0.9397
vt 0.3213 1.1843
vt 0.3213 2.3072
vt 0.2056 1.1843
f 307/307/307 308/308/308 309/309/309
v -0.4171 0.0623 2.3702
v 0.0002 0.0892 -0.0473
v -0.8218 0.0623 2.2617
vn -0.0019 0.9999 0.0108
vn -0 1 -0.0002
vn -0.0038 0.9999 0.0103
vt 0.3213 2.5693
vt 0.4406 3.2605
vt 0.2056 2.6003
f 310/310/310 311/311/311 312/312/312
v 0.0002 -0.0579 2.4067
v -0.4171 -0.0579 2.3702
v 0.0002 -0.0579 0.0031
vn 0 -1 -0
vn 0 -1 -0
vn 0 -1 -0
vt 0.4406 1.1843
vt 0.3213 1.1739
vt 0.4406 0.4971
f 313/313/313 314/314/314 315/315/315
v 0.0002 0.0623 2.4067
v -0.4171 0.0623 2.3702
v -0.4171 -0.0579 2.3702
vn 0 0 1
vn -0.1736 0 0.9848
vn -0.1736 0 0.9848
vt 0.4406 2.3072
vt 0.3213 2.3072
vt 0.3213 1.1843
f 316/316/316 317/317/317 318/318/318
v 0.0002 -0.0579 2.4067
v 0.0002 0.0623 2.4067
v -0.4171 -0.0579 2.3702
vn -0 0 1
vn 0 0 1
vn -0.1736 0 0.9848
vt 0.4406 1.1843
vt 0.4406 2.3072
vt 0.3213 1.1843
f 319/319/319 320/320/320 321/321/321
v 0.0002 0.0623 2.4067
v 0.0002 0.0892 -0.0473
v -0.4171 0.0623 2.3702
vn 0 0.9999 0.011
vn -0 1 -0.0002
vn -0.0019 0.9999 0.0108
vt 0.4406 2.5588
vt 0.4406 3.2605
vt 0.3213 2.5693
f 322/322/322 323/323/323 324/324/324
v 0.4176 -0.0579 2.3702
v 0.0002 -0.0579 2.4067
v 0.0002 -0.0579 0.0031
vn 0 -1 -0
vn 0 -1 -0
vn 0 -1 -0
vt 0.56 1.1739
vt 0.4406 1.1843
vt 0.4406 0.4971
f 325/325/325 326/326/326 327/327/327
v 0.4176 0.0623 2.3702
v 0.0002 0.0623 2.4067
v 0.0002 -0.0579 2.4067
vn 0.1736 0 0.9848
vn 0 0 1
vn -0 0 1
vt 0.56 2.3072
vt 0.4406 2.3072
vt 0.4406 1.1843
f 328/328/328 329/329/329 330/330/330
v 0.4176 -0.0579 2.3702
v 0.4176 0.0623 2.3702
v 0.0002 -0.0579 2.4067
vn 0.1736 0 0.9848
vn 0.1736 0 0.9848
vn -0 0 1
vt 0.56 1.1843
vt 0.56 2.3072
vt 0.4406 1.1843
f 331/331/331 332/332/332 333/333/333
v 0.4176 0.0623 2.3702
v 0.0002 0.0892 -0.0473
v 0.0002 0.0623 2.4067
vn 0.0019 0.9999 0.0108
vn -0 1 -0.0002
vn 0 0.9999 0.011
vt 0.56 2.5693
vt 0.4406 3.2605
vt 0.4406 2.5588
f 334/334/334 335/335/335 336/336/336
v 0.8223 -0.0579 2.2617
v 0.4176 -0.0579 2.3702
v 0.0002 -0.0579 0.0031
vn 0 -1 -0
vn 0 -1 -0
vn 0 -1 -0
vt 0.6757 1.1429
vt 0.56 1.1739
vt 0.4406 0.4971
f 337/337/337 338/338/338 339/339/339
v 0.8223 0.0623 2.2617
v 0.4176 0.0623 2.3702
v 0.4176 -0.0579 2.3702
vn 0.342 0 0.9397
vn 0.1736 0 0.9848
vn 0.1736 0 0.9848
vt 0.6757 2.3072
vt 0.56 2.3072
vt 0.56 1.1843
f 340/340/340 341/341/341 342/342/342
v 0.8223 -0.0579 2.2617
v 0.8223 0.0623 2.2617
v 0.4176 -0.0579 2.3702
vn 0.342 0 0.9397
vn 0.342 0 0.9397
vn 0.1736 0 0.9848
vt 0.6757 1.1843
vt 0.6757 2.3072
vt 0.56 1.1843
f 343/343/343 344/344/344 345/345/345
v 0.8223 0.0623 2.2617
v 0.0002 0.0892 -0.0473
v 0.4176 0.0623 2.3702
vn 0.0038 0.9999 0.0103
vn -0 1 -0.0002
vn 0.0019 0.9999 0.0108
vt 0.6757 2.6003
vt 0.4406 3.2605
vt 0.56 2.5693
f 346/346/346 347/347/347 348/348/348
v 1.202 -0.0579 2.0846
v 0.8223 -0.0579 2.2617
v 0.0002 -0.0579 0.0031
vn 0 -1 -0
vn 0 -1 -0
vn 0 -1 -0
vt 0.7842 1.0923
vt 0.6757 1.1429
vt 0.4406 0.4971
f 349/349/349 350/350/350 351/351/351
v 1.202 0.0623 2.0846
v 0.8223 0.0623 2.2617
v 0.8223 -0.0579 2.2617
vn 0.5 0 0.866
vn 0.342 0 0.9397
vn 0.342 0 0.9397
vt 0.7842 2.3072
vt 0.6757 2.3072
vt 0.6757 1.1843
f 352/352/352 353/353/353 354/354/354
v 1.202 -0.0579 2.0846
v 1.202 0.0623 2.0846
v 0.8223 -0.0579 2.2617
vn 0.5 0 0.866
vn 0.5 0 0.866
vn 0.342 0 0.9397
vt 0.7842 1.1843
vt 0.7842 2.3072
vt 0.6757 1.1843
f 355/355/355 356/356/356 357/357/357
v 1.202 0.0623 2.0846
v 0.0002 0.0892 -0.0473
v 0.8223 0.0623 2.2617
vn 0.0055 0.9999 0.0095
vn -0 1 -0.0002
vn 0.0038 0.9999 0.0103
vt 0.7842 2.6509
vt 0.4406 3.2605
vt 0.6757 2.6003
f 358/358/358 359/359/359 360/360/360
v 1.5452 -0.0579 1.8443
v 1.202 -0.0579 2.0846
v 0.0002 -0.0579 0.0031
vn 0 -1 -0
vn 0 -1 -0
vn 0 -1 -0
vt 0.8824 1.0236
vt 0.7842 1.0923
vt 0.4406 0.4971
f 361/361/361 362/362/362 363/363/363
v 1.5452 0.0623 1.8443
v 1.202 0.0623 2.0846
v 1.202 -0.0579 2.0846
vn 0.6428 0 0.766
vn 0.5 0 0.866
vn 0.5 0 0.866
vt 0.8824 2.3072
vt 0.7842 2.3072
vt 0.7842 1.1843
f 364/364/364 365/365/365 366/366/366
v 1.5452 -0.0579 1.8443
v 1.5452 0.0623 1.8443
v 1.202 -0.0579 2.0846
vn 0.6428 0 0.766
vn 0.6428 0 0.766
vn 0.5 0 0.866
vt 0.8824 1.1843
vt 0.8824 2.3072
vt 0.7842 1.1843
f 367/367/367 368/368/368 369/369/369
v 1.5452 0.0623 1.8443
v 0.0002 0.0892 -0.0473
v 1.202 0.0623 2.0846
vn 0.0071 0.9999 0.0085
vn -0 1 -0.0002
vn 0.0055 0.9999 0.0095
vt 0.8824 2.7196
vt 0.4406 3.2605
vt 0.7842 2.6509
f 370/370/370 371/371/371 372/372/372
v 1.8415 -0.0579 1.5481
v 1.5452 -0.0579 1.8443
v 0.0002 -0.0579 0.0031
vn 0 -1 -0
vn 0 -1 -0
vn 0 -1 -0
vt 0.9671 0.9389
vt 0.8824 1.0236
vt 0.4406 0.4971
f 373/373/373 374/374/374 375/375/375
v 1.8415 0.0623 1.5481
v 1.5452 0.0623 1.8443
v 1.5452 -0.0579 1.8443
vn 0.7071 0 0.7071
vn 0.6428 0 0.766
vn 0.6428 0 0.766
vt 0.9671 2.3072
vt 0.8824 2.3072
vt 0.8824 1.1843
f 376/376/376 377/377/377 378/378/378
v 1.8415 -0.0579 1.5481
v 1.8415 0.0623 1.5481
v 1.5452 -0.0579 1.8443
vn 0.7071 0 0.7071
vn 0.7071 0 0.7071
vn 0.6428 0 0.766
vt 0.9671 1.1843
vt 0.9671 2.3072
vt 0.8824 1.1843
f 379/379/379 380/380/380 381/381/381
v 1.8415 0.0623 1.5481
v 0.0002 0.0892 -0.0473
v 1.5452 0.0623 1.8443
vn 0.0085 0.9999 0.0071
vn -0 1 -0.0002
vn 0.0071 0.9999 0.0085
vt 0.9671 2.8043
vt 0.4406 3.2605
vt 0.8824 2.7196
f 382/382/382 383/383/383 384/384/384
v 2.0818 -0.0579 1.2049
v 1.8415 -0.0579 1.5481
v 0.0002 -0.0579 0.0031
vn 0 -1 -0
vn 0 -1 -0
vn 0 -1 -0
vt 1.0358 0.8407
vt 0.9671 0.9389
vt 0.4406 0.4971
f 385/385/385 386/386/386 387/387/387
v 2.0818 0.0623 1.2049
v 1.8415 0.0623 1.5481
v 1.8415 -0.0579 1.5481
vn 0.866 0 0.5
vn 0.8192 0 0.5736
vn 0.8192 0 0.5736
vt 1.4715 2.3072
vt 1.3734 2.3072
vt 1.3734 1.1843
f 388/388/388 389/389/389 390/390/390
v 2.0818 -0.0579 1.2049
v 2.0818 0.0623 1.2049
v 1.8415 -0.0579 1.5481
vn 0.866 0 0.5
vn 0.866 0 0.5
vn 0.8192 0 0.5736
vt 1.4715 1.1843
vt 1.4715 2.3072
vt 1.3734 1.1843
f 391/391/391 392/392/392 393/393/393
v 2.0818 0.0623 1.2049
v 0.0002 0.0892 -0.0473
v 1.8415 0.0623 1.5481
vn 0.0096 0.9999 0.0056
vn -0 1 -0.0002
vn 0.0085 0.9999 0.0071
vt 1.0358 2.9025
vt 0.4406 3.2605
vt 0.9671 2.8043
f 394/394/394 395/395/395 396/396/396
v 2.2589 -0.0579 0.8251
v 2.0818 -0.0579 1.2049
v 0.0002 -0.0579 0.0031
vn 0 -1 -0
vn 0 -1 -0
vn 0 -1 -0
vt 1.0864 0.7322
vt 1.0358 0.8407
vt 0.4406 0.4971
f 397/397/397 398/398/398 399/399/399
v 2.2589 0.0623 0.8251
v 2.0818 0.0623 1.2049
v 2.0818 -0.0579 1.2049
vn 0.9397 0 0.342
vn 0.866 0 0.5
vn 0.866 0 0.5
vt 1.5801 2.3072
vt 1.4715 2.3072
vt 1.4715 1.1843
f 400/400/400 401/401/401 402/402/402
v 2.2589 -0.0579 0.8251
v 2.2589 0.0623 0.8251
v 2.0818 -0.0579 1.2049
vn 0.9397 0 0.342
vn 0.9397 0 0.342
vn 0.866 0 0.5
vt 1.5801 1.1843
vt 1.5801 2.3072
vt 1.4715 1.1843
f 403/403/403 404/404/404 405/405/405
v 2.2589 0.0623 0.8251
v 0.0002 0.0892 -0.0473
v 2.0818 0.0623 1.2049
vn 0.0105 0.9999 0.0038
vn -0 1 -0.0002
vn 0.0096 0.9999 0.0056
vt 1.0864 3.011
vt 0.4406 3.2605
vt 1.0358 2.9025
f 406/406/406 407/407/407 408/408/408
v 2.3673 -0.0579 0.4204
v 2.2589 -0.0579 0.8251
v 0.0002 -0.0579 0.0031
vn 0 -1 -0
vn 0 -1 -0
vn 0 -1 -0
vt 1.1174 0.6164
vt 1.0864 0.7322
vt 0.4406 0.4971
f 409/409/409 410/410/410 411/411/411
v 2.3673 0.0623 0.4204
v 2.2589 0.0623 0.8251
v 2.2589 -0.0579 0.8251
vn 0.9848 0 0.1736
vn 0.9397 0 0.342
vn 0.9397 0 0.342
vt 1.6958 2.3072
vt 1.5801 2.3072
vt 1.5801 1.1843
f 412/412/412 413/413/413 414/414/414
v 2.3673 -0.0579 0.4204
v 2.3673 0.0623 0.4204
v 2.2589 -0.0579 0.8251
vn 0.9848 0 0.1736
vn 0.9848 0 0.1736
vn 0.9397 0 0.342
vt 1.6958 1.1843
vt 1.6958 2.3072
vt 1.5801 1.1843
f 415/415/415 416/416/416 417/417/417
v 2.3673 0.0623 0.4204
v 0.0002 0.0892 -0.0473
v 2.2589 0.0623 0.8251
vn 0.011 0.9999 0.002
vn -0 1 -0.0002
vn 0.0105 0.9999 0.0038
vt 1.1174 3.1267
vt 0.4406 3.2605
vt 1.0864 3.011
f 418/418/418 419/419/419 420/420/420
v 2.4038 -0.0579 0.0031
v 2.3673 -0.0579 0.4204
v 0.0002 -0.0579 0.0031
vn 0 -1 -0
vn 0 -1 -0
vn 0 -1 -0
vt 1.1279 0.4971
vt 1.1174 0.6164
vt 0.4406 0.4971
f 421/421/421 422/422/422 423/423/423
v 2.4038 0.0623 0.0031
v 2.3673 0.0623 0.4204
v 2.3673 -0.0579 0.4204
vn 1 0 -0
vn 0.9848 0 0.1736
vn 0.9848 0 0.1736
vt 1.8151 2.3072
vt 1.6958 2.3072
vt 1.6958 1.1843
f 424/424/424 425/425/425 426/426/426
v 2.4038 -0.0579 0.0031
v 2.4038 0.0623 0.0031
v 2.3673 -0.0579 0.4204
vn 1 0 -0
vn 1 0 -0
vn 0.9848 0 0.1736
vt 1.8151 1.1843
vt 1.8151 2.3072
vt 1.6958 1.1843
f 427/427/427 428/428/428 429/429/429
v 2.4038 0.0623 0.0031
v 0.0002 0.0892 -0.0473
v 2.3673 0.0623 0.4204
vn 0.0112 0.9999 0
vn -0 1 -0.0002
vn 0.011 0.9999 0.002
vt 1.1279 3.2461
vt 0.4406 3.2605
vt 1.1174 3.1267
f 430/430/430 431/431/431 432/432/432
