o data/uid/01014044/s/400001.obj
//1
usemtl mat0
v -0.21 -0.04 0
v -0.21 0.04 -0
v 0.21 -0.04 0
vn 0 0 -1
vn 0 0 -1
vn 0 0 -1
vt 0.088184 0.249118
vt 0.199596 0.080442
vt 0.863774 0.272376
f 1/1/1 2/2/2 3/3/3
v 0.21 -0.04 0
v 0.21 0.04 -0
v 0.21 -0.04 0.04
vn 1 0 0
vn 1 0 0
vn 1 0 0
vt 0.682815 0.124751
vt 0.688804 0.068706
vt 0.732646 0.153702
f 4/4/4 5/5/5 6/6/6
v -0.21 0.04 -0
v -0.21 -0.04 0
v -0.21 0.04 0.04
vn -1 0 -0
vn -1 0 -0
vn -1 0 -0
vt 0.439471 0.05443
vt 0.398651 0.11623
vt 0.419892 0.025038
f 7/7/7 8/8/8 9/9/9
v 0.21 0.04 -0
v -0.21 0.04 -0
v 0.21 0.04 0.04
vn -0 1 0
vn -0 1 0
vn -0 1 0
vt 0.688804 0.068706
vt 0.439471 0.05443
vt 0.727017 0.035398
f 10/10/10 11/11/11 12/12/12
v -0.21 -0.04 0
v 0.21 -0.04 0
v -0.21 -0.04 0.04
vn -0 -1 -0
vn -0 -1 -0
vn -0 -1 -0
vt 0.398651 0.11623
vt 0.682815 0.124751
vt 0.397696 0.153702
f 13/13/13 14/14/14 15/15/15
v 0.21 -0.04 0.04
v 0.21 -0.03866 0.045
v -0.21 -0.04 0.04
vn 0 -0.965914 0.258864
vn 0 -0.965914 0.258864
vn 0 -0.965914 0.258864
vt 0.670405 0.195288
vt 0.664104 0.1999
vt 0.366422 0.153862
f 16/16/16 17/17/17 18/18/18
v 0.21 -0.035 0.04866
v -0.21 -0.035 0.04866
v 0.21 -0.03866 0.045
vn 0 -0.707106 0.707107
vn 0 -0.707106 0.707107
vn 0 -0.707106 0.707107
vt 0.661715 0.205253
vt 0.377229 0.166991
vt 0.664104 0.1999
f 19/19/19 20/20/20 21/21/21
v 0.21 -0.03 0.05
v -0.21 -0.03 0.05
v 0.21 -0.035 0.04866
vn 0 -0.258865 0.965913
vn 0 -0.258865 0.965913
vn 0 -0.258865 0.965913
vt 0.661718 0.210684
vt 0.376743 0.172681
vt 0.661715 0.205253
f 22/22/22 23/23/23 24/24/24
v 0.21 0.03866 0.045
v 0.21 0.04 0.04
v -0.21 0.03866 0.045
vn 0 0.965914 0.258864
vn 0 0.965914 0.258864
vn 0 0.965914 0.258864
vt 0.660556 0.245292
vt 0.663426 0.25032
vt 0.371803 0.248746
f 25/25/25 26/26/26 27/27/27
v 0.21 0.035 0.04866
v 0.21 0.03866 0.045
v -0.21 0.035 0.04866
vn 0 0.707106 0.707107
vn 0 0.707106 0.707107
vn 0 0.707106 0.707107
vt 0.658835 0.240514
vt 0.660556 0.245292
vt 0.375603 0.243098
f 28/28/28 29/29/29 30/30/30
v -0.21 0.035 0.04866
v -0.21 0.03 0.05
v 0.21 0.035 0.04866
vn 0 0.258865 0.965913
vn 0 0.258865 0.965913
vn 0 0.258865 0.965913
vt 0.375603 0.243098
vt 0.377175 0.23765
vt 0.658835 0.240514
f 31/31/31 32/32/32 33/33/33
v 0.21 -0.03866 0.045
v 0.21 -0.04 0.04
v 0.21 -0.035 0.04866
vn 1 0 -0
vn 1 0 -0
vn 1 0 -0
vt 0.664104 0.1999
vt 0.670405 0.195288
vt 0.661715 0.205253
f 34/34/34 35/35/35 36/36/36
v -0.21 -0.03 0.05
v -0.21 -0.03866 0.045
v -0.21 -0.035 0.04866
vn -1 0 -0
vn -1 0 -0
vn -1 0 -0
vt 0.376743 0.172681
vt 0.374437 0.161048
vt 0.377229 0.166991
f 37/37/37 38/38/38 39/39/39
v 0.06 0.017321 0.05
v 0.05 0.02 0.05
v 0.06 0.017321 0.04
vn -0.258775 -0.965938 0
vn -0.258775 -0.965938 0
vn -0.258775 -0.965938 0
vt 0.386445 0.631924
vt 0.393152 0.657422
vt 0.368463 0.643284
f 40/40/40 41/41/41 42/42/42
v 0.067321 0.01 0.05
v 0.06 0.017321 0.05
v 0.067321 0.01 0.04
vn -0.707107 -0.707107 0
vn -0.707107 -0.707107 0
vn -0.707107 -0.707107 0
vt 0.367503 0.613174
vt 0.386445 0.631924
vt 0.356972 0.632028
f 43/43/43 44/44/44 45/45/45
v 0.07 -0 0.05
v 0.067321 0.01 0.05
v 0.07 -0 0.04
vn -0.965938 -0.258775 0
vn -0.965938 -0.258775 0
vn -0.965938 -0.258775 0
vt 0.341935 0.606473
vt 0.367503 0.613174
vt 0.34209 0.626991
f 46/46/46 47/47/47 48/48/48
v 0.067321 -0.01 0.05
v 0.07 -0 0.05
v 0.067321 -0.01 0.04
vn -0.965938 0.258775 0
vn -0.965938 0.258775 0
vn -0.965938 0.258775 0
vt 0.316603 0.612665
vt 0.341935 0.606473
vt 0.327318 0.63023
f 49/49/49 50/50/50 51/51/51
v 0.06 -0.017321 0.05
v 0.067321 -0.01 0.05
v 0.06 -0.017321 0.04
vn -0.707107 0.707107 0
vn -0.707107 0.707107 0
vn -0.707107 0.707107 0
vt 0.298324 0.631063
vt 0.316603 0.612665
vt 0.316621 0.640795
f 52/52/52 53/53/53 54/54/54
v 0.05 -0.02 0.05
v 0.06 -0.017321 0.05
v 0.05 -0.02 0.04
vn -0.258775 0.965938 0
vn -0.258775 0.965938 0
vn -0.258775 0.965938 0
vt 0.292074 0.656463
vt 0.298324 0.631063
vt 0.31266 0.655682
f 55/55/55 56/56/56 57/57/57
v 0.04 -0.017321 0.05
v 0.05 -0.02 0.05
v 0.04 -0.017321 0.04
vn 0.258775 0.965938 0
vn 0.258775 0.965938 0
vn 0.258775 0.965938 0
vt 0.298682 0.682055
vt 0.292074 0.656463
vt 0.316663 0.670852
f 58/58/58 59/59/59 60/60/60
v 0.032679 -0.01 0.05
v 0.04 -0.017321 0.05
v 0.032679 -0.01 0.04
vn 0.707107 0.707107 0
vn 0.707107 0.707107 0
vn 0.707107 0.707107 0
vt 0.317563 0.700767
vt 0.298682 0.682055
vt 0.327729 0.682087
f 61/61/61 62/62/62 63/63/63
v 0.03 0 0.05
v 0.032679 -0.01 0.05
v 0.03 0 0.04
vn 0.965938 0.258775 0
vn 0.965938 0.258775 0
vn 0.965938 0.258775 0
vt 0.343253 0.707284
vt 0.317563 0.700767
vt 0.343002 0.686422
f 64/64/64 65/65/65 66/66/66
v 0.032679 0.01 0.05
v 0.03 0 0.05
v 0.032679 0.01 0.04
vn 0.965938 -0.258775 0
vn 0.965938 -0.258775 0
vn 0.965938 -0.258775 0
vt 0.368725 0.70099
vt 0.343253 0.707284
vt 0.358075 0.683239
f 67/67/67 68/68/68 69/69/69
v 0.04 0.017321 0.05
v 0.032679 0.01 0.05
v 0.04 0.017321 0.04
vn 0.707107 -0.707107 0
vn 0.707107 -0.707107 0
vn 0.707107 -0.707107 0
vt 0.387037 0.682662
vt 0.368725 0.70099
vt 0.36895 0.672974
f 70/70/70 71/71/71 72/72/72
v 0.05 0.02 0.05
v 0.04 0.017321 0.05
v 0.05 0.02 0.04
vn 0.258775 -0.965938 0
vn 0.258775 -0.965938 0
vn 0.258775 -0.965938 0
vt 0.393152 0.657422
vt 0.387037 0.682662
vt 0.372695 0.658361
f 73/73/73 74/74/74 75/75/75
v 0.067321 0.01 0.05
v 0.075 0.025 0.05
v 0.06 0.017321 0.05
vn -0 0 1
vn -0 0 1
vn -0 0 1
vt 0.367503 0.613174
vt 0.405141 0.594326
vt 0.386445 0.631924
f 76/76/76 77/77/77 78/78/78
v 0.07 -0 0.05
v 0.075 0.025 0.05
v 0.067321 0.01 0.05
vn -0 0 1
vn -0 0 1
vn -0 0 1
vt 0.341935 0.606473
vt 0.405141 0.594326
vt 0.367503 0.613174
f 79/79/79 80/80/80 81/81/81
v 0.032679 0.01 0.05
v 0.025 0.025 0.05
v 0.03 0 0.05
vn -0 -0 1
vn -0 -0 1
vn -0 -0 1
vt 0.368725 0.70099
vt 0.405976 0.719763
vt 0.343253 0.707284
f 82/82/82 83/83/83 84/84/84
v 0.04 0.017321 0.05
v 0.025 0.025 0.05
v 0.032679 0.01 0.05
vn -0 -0 1
vn -0 -0 1
vn -0 -0 1
vt 0.387037 0.682662
vt 0.405976 0.719763
vt 0.368725 0.70099
f 85/85/85 86/86/86 87/87/87
v 0.05 0.02 0.05
v 0.025 0.025 0.05
v 0.04 0.017321 0.05
vn -0 -0 1
vn -0 -0 1
vn -0 -0 1
vt 0.393152 0.657422
vt 0.405976 0.719763
vt 0.387037 0.682662
f 88/88/88 89/89/89 90/90/90
v 0.05 -0.02 0.05
v 0.04 -0.017321 0.05
v 0.025 -0.025 0.05
vn -0 0 1
vn -0 0 1
vn -0 0 1
vt 0.292074 0.656463
vt 0.298682 0.682055
vt 0.279862 0.719763
f 91/91/91 92/92/92 93/93/93
v 0.04 -0.017321 0.05
v 0.032679 -0.01 0.05
v 0.025 -0.025 0.05
vn -0 0 1
vn -0 0 1
vn -0 0 1
vt 0.298682 0.682055
vt 0.317563 0.700767
vt 0.279862 0.719763
f 94/94/94 95/95/95 96/96/96
v 0.032679 -0.01 0.05
v 0.03 0 0.05
v 0.025 -0.025 0.05
vn -0 0 1
vn -0 0 1
vn -0 0 1
vt 0.317563 0.700767
vt 0.343253 0.707284
vt 0.279862 0.719763
f 97/97/97 98/98/98 99/99/99
v 0.025 0.025 0.05
v 0.025 -0.025 0.05
v 0.03 0 0.05
vn 0 -0 1
vn 0 -0 1
vn 0 -0 1
vt 0.405976 0.719763
vt 0.279862 0.719763
vt 0.343253 0.707284
f 100/100/100 101/101/101 102/102/102
v 0.075 0.025 0.05
v 0.025 0.025 0.05
v 0.05 0.02 0.05
vn 0 -0 1
vn 0 -0 1
vn 0 -0 1
vt 0.405141 0.594326
vt 0.405976 0.719763
vt 0.393152 0.657422
f 103/103/103 104/104/104 105/105/105
v 0.06 0.017321 0.04
v 0.05 0.02 0.04
v 0.05 0 0.04
vn -0 0 1
vn -0 0 1
vn -0 0 1
vt 0.56894 0.979532
vt 0.468594 1.00736
vt 0.466836 0.806198
f 106/106/106 107/107/107 108/108/108
v 0.067321 0.01 0.04
v 0.06 0.017321 0.04
v 0.05 0 0.04
vn -0 0 1
vn -0 0 1
vn -0 0 1
vt 0.641927 0.905257
vt 0.56894 0.979532
vt 0.466836 0.806198
f 109/109/109 110/110/110 111/111/111
v 0.07 -0 0.04
v 0.067321 0.01 0.04
v 0.05 0 0.04
vn -0 0 1
vn -0 0 1
vn -0 0 1
vt 0.668 0.804441
vt 0.641927 0.905257
vt 0.466836 0.806198
f 112/112/112 113/113/113 114/114/114
v 0.067321 -0.01 0.04
v 0.07 -0 0.04
v 0.05 0 0.04
vn 0 0 1
vn 0 0 1
vn 0 0 1
vt 0.640169 0.704094
vt 0.668 0.804441
vt 0.466836 0.806198
f 115/115/115 116/116/116 117/117/117
v 0.06 -0.017321 0.04
v 0.067321 -0.01 0.04
v 0.05 0 0.04
vn 0 0 1
vn 0 0 1
vn 0 0 1
vt 0.565895 0.631107
vt 0.640169 0.704094
vt 0.466836 0.806198
f 118/118/118 119/119/119 120/120/120
v 0.05 -0.02 0.04
v 0.06 -0.017321 0.04
v 0.05 0 0.04
vn 0 0 1
vn 0 0 1
vn 0 0 1
vt 0.465079 0.605036
vt 0.565895 0.631107
vt 0.466836 0.806198
f 121/121/121 122/122/122 123/123/123
v 0.04 -0.017321 0.04
v 0.05 -0.02 0.04
v 0.05 0 0.04
vn 0 0 1
vn 0 0 1
vn 0 0 1
vt 0.364732 0.632865
vt 0.465079 0.605036
vt 0.466836 0.806198
f 124/124/124 125/125/125 126/126/126
v 0.032679 -0.01 0.04
v 0.04 -0.017321 0.04
v 0.05 0 0.04
vn 0 0 1
vn 0 0 1
vn 0 0 1
vt 0.291746 0.70714
vt 0.364732 0.632865
vt 0.466836 0.806198
f 127/127/127 128/128/128 129/129/129
v 0.03 0 0.04
v 0.032679 -0.01 0.04
v 0.05 0 0.04
vn 0 0 1
vn 0 0 1
vn 0 0 1
vt 0.265674 0.807957
vt 0.291746 0.70714
vt 0.466836 0.806198
f 130/130/130 131/131/131 132/132/132
v 0.032679 0.01 0.04
v 0.03 0 0.04
v 0.05 0 0.04
vn 0 -0 1
vn 0 -0 1
vn 0 -0 1
vt 0.293504 0.908302
vt 0.265674 0.807957
vt 0.466836 0.806198
f 133/133/133 134/134/134 135/135/135
v 0.04 0.017321 0.04
v 0.032679 0.01 0.04
v 0.05 0 0.04
vn 0 -0 1
vn 0 -0 1
vn 0 -0 1
vt 0.367777 0.98129
vt 0.293504 0.908302
vt 0.466836 0.806198
f 136/136/136 137/137/137 138/138/138
v 0.05 0.02 0.04
v 0.04 0.017321 0.04
v 0.05 0 0.04
vn 0 -0 1
vn 0 -0 1
vn 0 -0 1
vt 0.468594 1.00736
vt 0.367777 0.98129
vt 0.466836 0.806198
f 139/139/139 140/140/140 141/141/141
v 0.06 0.017321 0.05
v 0.075 0.025 0.05
v 0.05 0.02 0.05
vn -0 0 1
vn -0 0 1
vn -0 0 1
vt 0.386445 0.631924
vt 0.405141 0.594326
vt 0.393152 0.657422
f 142/142/142 143/143/143 144/144/144
v 0.11 0.017321 0.05
v 0.1 0.02 0.05
v 0.11 0.017321 0.04
vn -0.258775 -0.965938 0
vn -0.258775 -0.965938 0
vn -0.258775 -0.965938 0
vt 0.570217 0.613055
vt 0.59596 0.606482
vt 0.581307 0.631206
f 145/145/145 146/146/146 147/147/147
v 0.117321 0.01 0.05
v 0.11 0.017321 0.05
v 0.117321 0.01 0.04
vn -0.707107 -0.707107 0
vn -0.707107 -0.707107 0
vn -0.707107 -0.707107 0
vt 0.551405 0.631764
vt 0.570217 0.613055
vt 0.569908 0.642184
f 148/148/148 149/149/149 150/150/150
v 0.12 -0 0.05
v 0.117321 0.01 0.05
v 0.12 -0 0.04
vn -0.965938 -0.258775 0
vn -0.965938 -0.258775 0
vn -0.965938 -0.258775 0
vt 0.544865 0.657132
vt 0.551405 0.631764
vt 0.565174 0.656809
f 151/151/151 152/152/152 153/153/153
v 0.117321 -0.01 0.05
v 0.12 -0 0.05
v 0.117321 -0.01 0.04
vn -0.965938 0.258775 0
vn -0.965938 0.258775 0
vn -0.965938 0.258775 0
vt 0.551189 0.682287
vt 0.544865 0.657132
vt 0.568627 0.671418
f 154/154/154 155/155/155 156/156/156
v 0.11 -0.017321 0.05
v 0.117321 -0.01 0.05
v 0.11 -0.017321 0.04
vn -0.707107 0.707107 0
vn -0.707107 0.707107 0
vn -0.707107 0.707107 0
vt 0.569773 0.70042
vt 0.551189 0.682287
vt 0.579385 0.681957
f 157/157/157 158/158/158 159/159/159
v 0.1 -0.02 0.05
v 0.11 -0.017321 0.05
v 0.1 -0.02 0.04
vn -0.258775 0.965938 0
vn -0.258775 0.965938 0
vn -0.258775 0.965938 0
vt 0.595367 0.70664
vt 0.569773 0.70042
vt 0.594549 0.685757
f 160/160/160 161/161/161 162/162/162
v 0.09 -0.017321 0.05
v 0.1 -0.02 0.05
v 0.09 -0.017321 0.04
vn 0.258775 0.965938 0
vn 0.258775 0.965938 0
vn 0.258775 0.965938 0
vt 0.621118 0.700045
vt 0.595367 0.70664
vt 0.61017 0.68148
f 163/163/163 164/164/164 165/165/165
v 0.082679 -0.01 0.05
v 0.09 -0.017321 0.05
v 0.082679 -0.01 0.04
vn 0.707107 0.707107 0
vn 0.707107 0.707107 0
vn 0.707107 0.707107 0
vt 0.640109 0.681639
vt 0.621118 0.700045
vt 0.621933 0.671358
f 166/166/166 167/167/167 168/168/168
v 0.08 0 0.05
v 0.082679 -0.01 0.05
v 0.08 0 0.04
vn 0.965938 0.258775 0
vn 0.965938 0.258775 0
vn 0.965938 0.258775 0
vt 0.646605 0.656411
vt 0.640109 0.681639
vt 0.626369 0.656896
f 169/169/169 170/170/170 171/171/171
v 0.082679 0.01 0.05
v 0.08 0 0.05
v 0.082679 0.01 0.04
vn 0.965938 -0.258775 0
vn 0.965938 -0.258775 0
vn 0.965938 -0.258775 0
vt 0.64024 0.631163
vt 0.646605 0.656411
vt 0.622629 0.64215
f 172/172/172 173/173/173 174/174/174
v 0.09 0.017321 0.05
v 0.082679 0.01 0.05
v 0.09 0.017321 0.04
vn 0.707107 -0.707107 0
vn 0.707107 -0.707107 0
vn 0.707107 -0.707107 0
vt 0.62159 0.612795
vt 0.64024 0.631163
vt 0.611775 0.631297
f 175/175/175 176/176/176 177/177/177
v 0.1 0.02 0.05
v 0.09 0.017321 0.05
v 0.1 0.02 0.04
vn 0.258775 -0.965938 0
vn 0.258775 -0.965938 0
vn 0.258775 -0.965938 0
vt 0.59596 0.606482
vt 0.62159 0.612795
vt 0.596658 0.627281
f 178/178/178 179/179/179 180/180/180
v 0.1 -0.02 0.05
v 0.09 -0.017321 0.05
v 0.075 -0.025 0.05
vn -0 0 1
vn -0 0 1
vn -0 0 1
vt 0.595367 0.70664
vt 0.621118 0.700045
vt 0.658814 0.71895
f 181/181/181 182/182/182 183/183/183
v 0.09 -0.017321 0.05
v 0.082679 -0.01 0.05
v 0.075 -0.025 0.05
vn -0 0 1
vn -0 0 1
vn -0 0 1
vt 0.621118 0.700045
vt 0.640109 0.681639
vt 0.658814 0.71895
f 184/184/184 185/185/185 186/186/186
v 0.082679 -0.01 0.05
v 0.08 0 0.05
v 0.075 -0.025 0.05
vn -0 0 1
vn -0 0 1
vn -0 0 1
vt 0.640109 0.681639
vt 0.646605 0.656411
vt 0.658814 0.71895
f 187/187/187 188/188/188 189/189/189
v 0.125 -0.025 0.05
v 0.1 -0.02 0.05
v 0.075 -0.025 0.05
vn -0 0 1
vn -0 0 1
vn -0 0 1
vt 0.532514 0.719406
vt 0.595367 0.70664
vt 0.658814 0.71895
f 190/190/190 191/191/191 192/192/192
v 0.11 0.017321 0.04
v 0.1 0.02 0.04
v 0.1 0 0.04
vn -0 0 1
vn -0 0 1
vn -0 0 1
vt 0.568588 0.970957
vt 0.467974 0.997457
vt 0.46883 0.79646
f 193/193/193 194/194/194 195/195/195
v 0.117321 0.01 0.04
v 0.11 0.017321 0.04
v 0.1 0 0.04
vn -0 0 1
vn -0 0 1
vn -0 0 1
vt 0.642471 0.8977
vt 0.568588 0.970957
vt 0.46883 0.79646
f 196/196/196 197/197/197 198/198/198
v 0.12 -0 0.04
v 0.117321 0.01 0.04
v 0.1 0 0.04
vn -0 0 1
vn -0 0 1
vn -0 0 1
vt 0.669828 0.797316
vt 0.642471 0.8977
vt 0.46883 0.79646
f 199/199/199 200/200/200 201/201/201
v 0.117321 -0.01 0.04
v 0.12 -0 0.04
v 0.1 0 0.04
vn 0 0 1
vn 0 0 1
vn 0 0 1
vt 0.643328 0.696703
vt 0.669828 0.797316
vt 0.46883 0.79646
f 202/202/202 203/203/203 204/204/204
v 0.11 -0.017321 0.04
v 0.117321 -0.01 0.04
v 0.1 0 0.04
vn 0 0 1
vn 0 0 1
vn 0 0 1
vt 0.570072 0.62282
vt 0.643328 0.696703
vt 0.46883 0.79646
f 205/205/205 206/206/206 207/207/207
v 0.1 -0.02 0.04
v 0.11 -0.017321 0.04
v 0.1 0 0.04
vn 0 0 1
vn 0 0 1
vn 0 0 1
vt 0.469687 0.595463
vt 0.570072 0.62282
vt 0.46883 0.79646
f 208/208/208 209/209/209 210/210/210
v 0.09 -0.017321 0.04
v 0.1 -0.02 0.04
v 0.1 0 0.04
vn 0 0 1
vn 0 0 1
vn 0 0 1
vt 0.369074 0.621963
vt 0.469687 0.595463
vt 0.46883 0.79646
f 211/211/211 212/212/212 213/213/213
v 0.082679 -0.01 0.04
v 0.09 -0.017321 0.04
v 0.1 0 0.04
vn 0 0 1
vn 0 0 1
vn 0 0 1
vt 0.295191 0.695219
vt 0.369074 0.621963
vt 0.46883 0.79646
f 214/214/214 215/215/215 216/216/216
v 0.08 0 0.04
v 0.082679 -0.01 0.04
v 0.1 0 0.04
vn 0 0 1
vn 0 0 1
vn 0 0 1
vt 0.267834 0.795603
vt 0.295191 0.695219
vt 0.46883 0.79646
f 217/217/217 218/218/218 219/219/219
v 0.082679 0.01 0.04
v 0.08 0 0.04
v 0.1 0 0.04
vn 0 -0 1
vn 0 -0 1
vn 0 -0 1
vt 0.294334 0.896217
vt 0.267834 0.795603
vt 0.46883 0.79646
f 220/220/220 221/221/221 222/222/222
v 0.09 0.017321 0.04
v 0.082679 0.01 0.04
v 0.1 0 0.04
vn 0 -0 1
vn 0 -0 1
vn 0 -0 1
vt 0.36759 0.9701
vt 0.294334 0.896217
vt 0.46883 0.79646
f 223/223/223 224/224/224 225/225/225
v 0.1 0.02 0.04
v 0.09 0.017321 0.04
v 0.1 0 0.04
vn 0 -0 1
vn 0 -0 1
vn 0 -0 1
vt 0.467974 0.997457
vt 0.36759 0.9701
vt 0.46883 0.79646
f 226/226/226 227/227/227 228/228/228
v 0.125 -0.025 0.05
v 0.12 -0 0.05
v 0.117321 -0.01 0.05
vn -0 0 1
vn -0 0 1
vn -0 0 1
vt 0.532514 0.719406
vt 0.544865 0.657132
vt 0.551189 0.682287
f 229/229/229 230/230/230 231/231/231
v 0.125 -0.025 0.05
v 0.117321 -0.01 0.05
v 0.11 -0.017321 0.05
vn -0 0 1
vn -0 0 1
vn -0 0 1
vt 0.532514 0.719406
vt 0.551189 0.682287
vt 0.569773 0.70042
f 232/232/232 233/233/233 234/234/234
v 0.125 -0.025 0.05
v 0.11 -0.017321 0.05
v 0.1 -0.02 0.05
vn -0 0 1
vn -0 0 1
vn -0 0 1
vt 0.532514 0.719406
vt 0.569773 0.70042
vt 0.595367 0.70664
f 235/235/235 236/236/236 237/237/237
v 0.16 0.017321 0.05
v 0.15 0.02 0.05
v 0.16 0.017321 0.04
vn -0.258775 -0.965938 0
vn -0.258775 -0.965938 0
vn -0.258775 -0.965938 0
vt 0.513188 0.631297
vt 0.519579 0.656895
vt 0.495247 0.642114
f 238/238/238 239/239/239 240/240/240
v 0.167321 0.01 0.05
v 0.16 0.017321 0.05
v 0.167321 0.01 0.04
vn -0.707107 -0.707107 0
vn -0.707107 -0.707107 0
vn -0.707107 -0.707107 0
vt 0.494723 0.61276
vt 0.513188 0.631297
vt 0.484749 0.630962
f 241/241/241 242/242/242 243/243/243
v 0.17 -0 0.05
v 0.167321 0.01 0.05
v 0.17 -0 0.04
vn -0.965938 -0.258775 0
vn -0.965938 -0.258775 0
vn -0.965938 -0.258775 0
vt 0.469435 0.606516
vt 0.494723 0.61276
vt 0.470161 0.626772
f 244/244/244 245/245/245 246/246/246
v 0.16732 -0.01 0.05
v 0.17 -0 0.05
v 0.16732 -0.01 0.04
vn -0.965913 0.258865 0
vn -0.965913 0.258865 0
vn -0.965913 0.258865 0
vt 0.444152 0.613141
vt 0.469435 0.606516
vt 0.455456 0.630788
f 247/247/247 248/248/248 249/249/249
v 0.16 -0.017321 0.05
v 0.16732 -0.01 0.05
v 0.16 -0.017321 0.04
vn -0.707155 0.707059 0
vn -0.707155 0.707059 0
vn -0.707155 0.707059 0
vt 0.425766 0.632122
vt 0.444152 0.613141
vt 0.444824 0.642398
f 250/250/250 251/251/251 252/252/252
v 0.15 -0.02 0.05
v 0.16 -0.017321 0.05
v 0.15 -0.02 0.04
vn -0.258775 0.965938 0
vn -0.258775 0.965938 0
vn -0.258775 0.965938 0
vt 0.419112 0.657828
vt 0.425766 0.632122
vt 0.439871 0.657664
f 253/253/253 254/254/254 255/255/255
v 0.14 -0.017321 0.05
v 0.15 -0.02 0.05
v 0.14 -0.017321 0.04
vn 0.258775 0.965938 0
vn 0.258775 0.965938 0
vn 0.258775 0.965938 0
vt 0.425306 0.68331
vt 0.419112 0.657828
vt 0.44305 0.672703
f 256/256/256 257/257/257 258/258/258
v 0.132679 -0.01 0.05
v 0.14 -0.017321 0.05
v 0.132679 -0.01 0.04
vn 0.707107 0.707107 0
vn 0.707107 0.707107 0
vn 0.707107 0.707107 0
vt 0.443583 0.701698
vt 0.425306 0.68331
vt 0.453335 0.683591
f 259/259/259 260/260/260 261/261/261
v 0.13 0 0.05
v 0.132679 -0.01 0.05
v 0.13 0 0.04
vn 0.965938 0.258775 0
vn 0.965938 0.258775 0
vn 0.965938 0.258775 0
vt 0.468821 0.707938
vt 0.443583 0.701698
vt 0.468024 0.687351
f 262/262/262 263/263/263 264/264/264
v 0.132679 0.01 0.05
v 0.13 0 0.05
v 0.132679 0.01 0.04
vn 0.965938 -0.258775 0
vn 0.965938 -0.258775 0
vn 0.965938 -0.258775 0
vt 0.494377 0.701381
vt 0.468821 0.707938
vt 0.483216 0.683418
f 265/265/265 266/266/266 267/267/267
v 0.14 0.017321 0.05
v 0.132679 0.01 0.05
v 0.14 0.017321 0.04
vn 0.707107 -0.707107 0
vn 0.707107 -0.707107 0
vn 0.707107 -0.707107 0
vt 0.513086 0.682579
vt 0.494377 0.701381
vt 0.494459 0.672446
f 268/268/268 269/269/269 270/270/270
v 0.15 0.02 0.05
v 0.14 0.017321 0.05
v 0.15 0.02 0.04
vn 0.258775 -0.965938 0
vn 0.258775 -0.965938 0
vn 0.258775 -0.965938 0
vt 0.519579 0.656895
vt 0.513086 0.682579
vt 0.498809 0.657318
f 271/271/271 272/272/272 273/273/273
v 0.167321 0.01 0.05
v 0.175 0.025 0.05
v 0.16 0.017321 0.05
vn -0 0 1
vn -0 0 1
vn -0 0 1
vt 0.494723 0.61276
vt 0.532075 0.593772
vt 0.513188 0.631297
f 274/274/274 275/275/275 276/276/276
v 0.17 -0 0.05
v 0.175 0.025 0.05
v 0.167321 0.01 0.05
vn -0 0 1
vn -0 0 1
vn -0 0 1
vt 0.469435 0.606516
vt 0.532075 0.593772
vt 0.494723 0.61276
f 277/277/277 278/278/278 279/279/279
v 0.132679 0.01 0.05
v 0.125 0.025 0.05
v 0.13 0 0.05
vn -0 -0 1
vn -0 -0 1
vn -0 -0 1
vt 0.494377 0.701381
vt 0.532075 0.720235
vt 0.468821 0.707938
f 280/280/280 281/281/281 282/282/282
v 0.14 0.017321 0.05
v 0.125 0.025 0.05
v 0.132679 0.01 0.05
vn -0 -0 1
vn -0 -0 1
vn -0 -0 1
vt 0.513086 0.682579
vt 0.532075 0.720235
vt 0.494377 0.701381
f 283/283/283 284/284/284 285/285/285
v 0.15 0.02 0.05
v 0.125 0.025 0.05
v 0.14 0.017321 0.05
vn -0 -0 1
vn -0 -0 1
vn -0 -0 1
vt 0.519579 0.656895
vt 0.532075 0.720235
vt 0.513086 0.682579
f 286/286/286 287/287/287 288/288/288
v 0.175 -0.025 0.05
v 0.175 0.025 0.05
v 0.17 -0 0.05
vn -0 0 1
vn -0 0 1
vn -0 0 1
vt 0.518576 0.616872
vt 0.564456 0.616587
vt 0.541506 0.621256
f 289/289/289 290/290/290 291/291/291
v 0.175 0.025 0.05
v 0.125 0.025 0.05
v 0.15 0.02 0.05
vn 0 -0 1
vn 0 -0 1
vn 0 -0 1
vt 0.532075 0.593772
vt 0.532075 0.720235
vt 0.519579 0.656895
f 292/292/292 293/293/293 294/294/294
v 0.16 0.017321 0.04
v 0.15 0.02 0.04
v 0.15 0 0.04
vn -0 0 1
vn -0 0 1
vn -0 0 1
vt 0.354182 0.60286
vt 0.459407 0.574634
vt 0.459464 0.785098
f 295/295/295 296/296/296 297/297/297
v 0.167321 0.01 0.04
v 0.16 0.017321 0.04
v 0.15 0 0.04
vn -0 0 1
vn -0 0 1
vn -0 0 1
vt 0.277168 0.679915
vt 0.354182 0.60286
vt 0.459464 0.785098
f 298/298/298 299/299/299 300/300/300
v 0.17 -0 0.04
v 0.167321 0.01 0.04
v 0.15 0 0.04
vn -0 0 1
vn -0 0 1
vn -0 0 1
vt 0.249 0.785155
vt 0.277168 0.679915
vt 0.459464 0.785098
f 301/301/301 302/302/302 303/303/303
v 0.16732 -0.01 0.04
v 0.17 -0 0.04
v 0.15 0 0.04
vn 0 0 1
vn 0 0 1
vn 0 0 1
vt 0.277225 0.890379
vt 0.249 0.785155
vt 0.459464 0.785098
f 304/304/304 305/305/305 306/306/306
v 0.16 -0.017321 0.04
v 0.16732 -0.01 0.04
v 0.15 0 0.04
vn 0 0 1
vn 0 0 1
vn 0 0 1
vt 0.354281 0.967393
vt 0.277225 0.890379
vt 0.459464 0.785098
f 307/307/307 308/308/308 309/309/309
v 0.15 -0.02 0.04
v 0.16 -0.017321 0.04
v 0.15 0 0.04
vn 0 0 1
vn 0 0 1
vn 0 0 1
vt 0.45952 0.995561
vt 0.354281 0.967393
vt 0.459464 0.785098
f 310/310/310 311/311/311 312/312/312
v 0.14 -0.017321 0.04
v 0.15 -0.02 0.04
v 0.15 0 0.04
vn 0 0 1
vn 0 0 1
vn 0 0 1
vt 0.564745 0.967336
vt 0.45952 0.995561
vt 0.459464 0.785098
f 313/313/313 314/314/314 315/315/315
v 0.132679 -0.01 0.04
v 0.14 -0.017321 0.04
v 0.15 0 0.04
vn 0 0 1
vn 0 0 1
vn 0 0 1
vt 0.641758 0.89028
vt 0.564745 0.967336
vt 0.459464 0.785098
f 316/316/316 317/317/317 318/318/318
v 0.13 0 0.04
v 0.132679 -0.01 0.04
v 0.15 0 0.04
vn 0 0 1
vn 0 0 1
vn 0 0 1
vt 0.669927 0.785041
vt 0.641758 0.89028
vt 0.459464 0.785098
f 319/319/319 320/320/320 321/321/321
v 0.132679 0.01 0.04
v 0.13 0 0.04
v 0.15 0 0.04
vn 0 -0 1
vn 0 -0 1
vn 0 -0 1
vt 0.641701 0.679817
vt 0.669927 0.785041
vt 0.459464 0.785098
f 322/322/322 323/323/323 324/324/324
v 0.14 0.017321 0.04
v 0.132679 0.01 0.04
v 0.15 0 0.04
vn 0 -0 1
vn 0 -0 1
vn 0 -0 1
vt 0.564646 0.602803
vt 0.641701 0.679817
vt 0.459464 0.785098
f 325/325/325 326/326/326 327/327/327
v 0.15 0.02 0.04
v 0.14 0.017321 0.04
v 0.15 0 0.04
vn 0 -0 1
vn 0 -0 1
vn 0 -0 1
vt 0.459407 0.574634
vt 0.564646 0.602803
vt 0.459464 0.785098
f 328/328/328 329/329/329 330/330/330
v 0.16 0.017321 0.05
v 0.175 0.025 0.05
v 0.15 0.02 0.05
vn -0 0 1
vn -0 0 1
vn -0 0 1
vt 0.513188 0.631297
vt 0.532075 0.593772
vt 0.519579 0.656895
f 331/331/331 332/332/332 333/333/333
v 0.175 -0.025 0.05
v 0.17 -0 0.05
v 0.16732 -0.01 0.05
vn -0 0 1
vn -0 0 1
vn -0 0 1
vt 0.406851 0.594548
vt 0.469435 0.606516
vt 0.444152 0.613141
f 334/334/334 335/335/335 336/336/336
v 0.175 -0.025 0.05
v 0.16732 -0.01 0.05
v 0.16 -0.017321 0.05
vn -0 0 1
vn -0 0 1
vn -0 0 1
vt 0.406851 0.594548
vt 0.444152 0.613141
vt 0.425766 0.632122
f 337/337/337 338/338/338 339/339/339
v 0.175 -0.025 0.05
v 0.16 -0.017321 0.05
v 0.15 -0.02 0.05
vn -0 0 1
vn -0 0 1
vn -0 0 1
vt 0.406851 0.594548
vt 0.425766 0.632122
vt 0.419112 0.657828
f 340/340/340 341/341/341 342/342/342
v 0.075 -0.025 0.05
v 0.075 0.025 0.05
v 0.07 -0 0.05
vn -0 0 1
vn -0 0 1
vn -0 0 1
vt 0.279398 0.593772
vt 0.405141 0.594326
vt 0.341935 0.606473
f 343/343/343 344/344/344 345/345/345
v 0.075 -0.025 0.05
v 0.05 -0.02 0.05
v 0.025 -0.025 0.05
vn -0 0 1
vn -0 0 1
vn -0 0 1
vt 0.279398 0.593772
vt 0.292074 0.656463
vt 0.279862 0.719763
f 346/346/346 347/347/347 348/348/348
v 0.075 -0.025 0.05
v 0.07 -0 0.05
v 0.067321 -0.01 0.05
vn -0 0 1
vn -0 0 1
vn -0 0 1
vt 0.279398 0.593772
vt 0.341935 0.606473
vt 0.316603 0.612665
f 349/349/349 350/350/350 351/351/351
v 0.075 -0.025 0.05
v 0.067321 -0.01 0.05
v 0.06 -0.017321 0.05
vn -0 0 1
vn -0 0 1
vn -0 0 1
vt 0.279398 0.593772
vt 0.316603 0.612665
vt 0.298324 0.631063
f 352/352/352 353/353/353 354/354/354
v 0.075 -0.025 0.05
v 0.06 -0.017321 0.05
v 0.05 -0.02 0.05
vn -0 0 1
vn -0 0 1
vn -0 0 1
vt 0.279398 0.593772
vt 0.298324 0.631063
vt 0.292074 0.656463
f 355/355/355 356/356/356 357/357/357
v 0.117321 0.01 0.05
v 0.125 0.025 0.05
v 0.11 0.017321 0.05
vn -0 0 1
vn -0 0 1
vn -0 0 1
vt 0.551405 0.631764
vt 0.532514 0.594153
vt 0.570217 0.613055
f 358/358/358 359/359/359 360/360/360
v 0.12 -0 0.05
v 0.125 0.025 0.05
v 0.117321 0.01 0.05
vn -0 0 1
vn -0 0 1
vn -0 0 1
vt 0.544865 0.657132
vt 0.532514 0.594153
vt 0.551405 0.631764
f 361/361/361 362/362/362 363/363/363
v 0.082679 0.01 0.05
v 0.075 0.025 0.05
v 0.08 0 0.05
vn -0 -0 1
vn -0 -0 1
vn -0 -0 1
vt 0.64024 0.631163
vt 0.65907 0.593772
vt 0.646605 0.656411
f 364/364/364 365/365/365 366/366/366
v 0.09 0.017321 0.05
v 0.075 0.025 0.05
v 0.082679 0.01 0.05
vn -0 -0 1
vn -0 -0 1
vn -0 -0 1
vt 0.62159 0.612795
vt 0.65907 0.593772
vt 0.64024 0.631163
f 367/367/367 368/368/368 369/369/369
v 0.1 0.02 0.05
v 0.075 0.025 0.05
v 0.09 0.017321 0.05
vn -0 -0 1
vn -0 -0 1
vn -0 -0 1
vt 0.59596 0.606482
vt 0.65907 0.593772
vt 0.62159 0.612795
f 370/370/370 371/371/371 372/372/372
v 0.075 0.025 0.05
v 0.075 -0.025 0.05
v 0.08 0 0.05
vn 0 -0 1
vn 0 -0 1
vn 0 -0 1
vt 0.65907 0.593772
vt 0.658814 0.71895
vt 0.646605 0.656411
f 373/373/373 374/374/374 375/375/375
v 0.125 -0.025 0.05
v 0.125 0.025 0.05
v 0.12 -0 0.05
vn -0 0 1
vn -0 0 1
vn -0 0 1
vt 0.532514 0.719406
vt 0.532514 0.594153
vt 0.544865 0.657132
f 376/376/376 377/377/377 378/378/378
v 0.125 0.025 0.05
v 0.075 0.025 0.05
v 0.1 0.02 0.05
vn 0 -0 1
vn 0 -0 1
vn 0 -0 1
vt 0.532514 0.594153
vt 0.65907 0.593772
vt 0.59596 0.606482
f 379/379/379 380/380/380 381/381/381
v 0.11 0.017321 0.05
v 0.125 0.025 0.05
v 0.1 0.02 0.05
vn -0 0 1
vn -0 0 1
vn -0 0 1
vt 0.570217 0.613055
vt 0.532514 0.594153
vt 0.59596 0.606482
f 382/382/382 383/383/383 384/384/384
v 0.15 -0.02 0.05
v 0.14 -0.017321 0.05
v 0.125 -0.025 0.05
vn -0 0 1
vn -0 0 1
vn -0 0 1
vt 0.419112 0.657828
vt 0.425306 0.68331
vt 0.406415 0.720485
f 385/385/385 386/386/386 387/387/387
v 0.14 -0.017321 0.05
v 0.132679 -0.01 0.05
v 0.125 -0.025 0.05
vn -0 0 1
vn -0 0 1
vn -0 0 1
vt 0.425306 0.68331
vt 0.443583 0.701698
vt 0.406415 0.720485
f 388/388/388 389/389/389 390/390/390
v 0.132679 -0.01 0.05
v 0.13 0 0.05
v 0.125 -0.025 0.05
vn -0 0 1
vn -0 0 1
vn -0 0 1
vt 0.443583 0.701698
vt 0.468821 0.707938
vt 0.406415 0.720485
f 391/391/391 392/392/392 393/393/393
v 0.125 0.025 0.05
v 0.125 -0.025 0.05
v 0.13 0 0.05
vn 0 -0 1
vn 0 -0 1
vn 0 -0 1
vt 0.532075 0.720235
vt 0.406415 0.720485
vt 0.468821 0.707938
f 394/394/394 395/395/395 396/396/396
v 0.175 -0.025 0.05
v 0.15 -0.02 0.05
v 0.125 -0.025 0.05
vn -0 0 1
vn -0 0 1
vn -0 0 1
vt 0.406851 0.594548
vt 0.419112 0.657828
vt 0.406415 0.720485
f 397/397/397 398/398/398 399/399/399
v -0.04 0.017321 0.05
v -0.05 0.02 0.05
v -0.04 0.017321 0.04
vn -0.258775 -0.965938 0
vn -0.258775 -0.965938 0
vn -0.258775 -0.965938 0
vt 0.531863 0.640768
vt 0.53832 0.666494
vt 0.5138 0.65181
f 400/400/400 401/401/401 402/402/402
v -0.032679 0.01 0.05
v -0.04 0.017321 0.05
v -0.032679 0.01 0.04
vn -0.707107 -0.707107 0
vn -0.707107 -0.707107 0
vn -0.707107 -0.707107 0
vt 0.513117 0.622002
vt 0.531863 0.640768
vt 0.502976 0.640587
f 403/403/403 404/404/404 405/405/405
v -0.03 -0 0.05
v -0.032679 0.01 0.05
v -0.03 -0 0.04
vn -0.965938 -0.258775 0
vn -0.965938 -0.258775 0
vn -0.965938 -0.258775 0
vt 0.487416 0.615503
vt 0.513117 0.622002
vt 0.487941 0.636311
f 406/406/406 407/407/407 408/408/408
v -0.032679 -0.01 0.05
v -0.03 -0 0.05
v -0.032679 -0.01 0.04
vn -0.965938 0.258775 0
vn -0.965938 0.258775 0
vn -0.965938 0.258775 0
vt 0.461673 0.621975
vt 0.487416 0.615503
vt 0.47273 0.640046
f 409/409/409 410/410/410 411/411/411
v -0.04 -0.017321 0.05
v -0.032679 -0.01 0.05
v -0.04 -0.017321 0.04
vn -0.707107 0.707107 0
vn -0.707107 0.707107 0
vn -0.707107 0.707107 0
vt 0.442905 0.64074
vt 0.461673 0.621975
vt 0.461506 0.650878
f 412/412/412 413/413/413 414/414/414
v -0.05 -0.02 0.05
v -0.04 -0.017321 0.05
v -0.05 -0.02 0.04
vn -0.258775 0.965938 0
vn -0.258775 0.965938 0
vn -0.258775 0.965938 0
vt 0.436419 0.666457
vt 0.442905 0.64074
vt 0.457237 0.665919
f 415/415/415 416/416/416 417/417/417
v -0.06 -0.017321 0.05
v -0.05 -0.02 0.05
v -0.06 -0.017321 0.04
vn 0.258775 0.965938 0
vn 0.258775 0.965938 0
vn 0.258775 0.965938 0
vt 0.442915 0.692204
vt 0.436419 0.666457
vt 0.460983 0.681129
f 418/418/418 419/419/419 420/420/420
v -0.06732 -0.01 0.05
v -0.06 -0.017321 0.05
v -0.06732 -0.01 0.04
vn 0.707155 0.707058 0
vn 0.707155 0.707058 0
vn 0.707155 0.707058 0
vt 0.461708 0.710943
vt 0.442915 0.692204
vt 0.471823 0.692343
f 421/421/421 422/422/422 423/423/423
v -0.07 0 0.05
v -0.06732 -0.01 0.05
v -0.07 0 0.04
vn 0.965913 0.258865 0
vn 0.965913 0.258865 0
vn 0.965913 0.258865 0
vt 0.48742 0.717369
vt 0.461708 0.710943
vt 0.486861 0.696599
f 424/424/424 425/425/425 426/426/426
v -0.06732 0.01 0.05
v -0.07 0 0.05
v -0.06732 0.01 0.04
vn 0.965913 -0.258865 0
vn 0.965913 -0.258865 0
vn 0.965913 -0.258865 0
vt 0.513092 0.710902
vt 0.48742 0.717369
vt 0.50205 0.692859
f 427/427/427 428/428/428 429/429/429
v -0.06 0.017321 0.05
v -0.06732 0.01 0.05
v -0.06 0.017321 0.04
vn 0.707155 -0.707058 0
vn 0.707155 -0.707058 0
vn 0.707155 -0.707058 0
vt 0.531824 0.692168
vt 0.513092 0.710902
vt 0.513259 0.682039
f 430/430/430 431/431/431 432/432/432
v -0.05 0.02 0.05
v -0.06 0.017321 0.05
v -0.05 0.02 0.04
vn 0.258775 -0.965938 0
vn 0.258775 -0.965938 0
vn 0.258775 -0.965938 0
vt 0.53832 0.666494
vt 0.531824 0.692168
vt 0.51753 0.667014
f 433/433/433 434/434/434 435/435/435
v -0.032679 0.01 0.05
v -0.025 0.025 0.05
v -0.04 0.017321 0.05
vn -0 0 1
vn -0 0 1
vn -0 0 1
vt 0.513117 0.622002
vt 0.550941 0.602983
vt 0.531863 0.640768
f 436/436/436 437/437/437 438/438/438
v -0.03 -0 0.05
v -0.025 0.025 0.05
v -0.032679 0.01 0.05
vn -0 0 1
vn -0 0 1
vn -0 0 1
vt 0.487416 0.615503
vt 0.550941 0.602983
vt 0.513117 0.622002
f 439/439/439 440/440/440 441/441/441
v -0.06732 0.01 0.05
v -0.075 0.025 0.05
v -0.07 0 0.05
vn -0 -0 1
vn -0 -0 1
vn -0 -0 1
vt 0.513092 0.710902
vt 0.550796 0.729925
vt 0.48742 0.717369
f 442/442/442 443/443/443 444/444/444
v -0.06 0.017321 0.05
v -0.075 0.025 0.05
v -0.06732 0.01 0.05
vn -0 -0 1
vn -0 -0 1
vn -0 -0 1
vt 0.531824 0.692168
vt 0.550796 0.729925
vt 0.513092 0.710902
f 445/445/445 446/446/446 447/447/447
v -0.05 0.02 0.05
v -0.075 0.025 0.05
v -0.06 0.017321 0.05
vn -0 -0 1
vn -0 -0 1
vn -0 -0 1
vt 0.53832 0.666494
vt 0.550796 0.729925
vt 0.531824 0.692168
f 448/448/448 449/449/449 450/450/450
v -0.025 -0.025 0.05
v -0.025 0.025 0.05
v -0.03 -0 0.05
vn -0 0 1
vn -0 0 1
vn -0 0 1
vt 0.423846 0.602896
vt 0.550941 0.602983
vt 0.487416 0.615503
f 451/451/451 452/452/452 453/453/453
v -0.025 0.025 0.05
v -0.075 0.025 0.05
v -0.05 0.02 0.05
vn 0 -0 1
vn 0 -0 1
vn 0 -0 1
vt 0.550941 0.602983
vt 0.550796 0.729925
vt 0.53832 0.666494
f 454/454/454 455/455/455 456/456/456
v -0.04 0.017321 0.04
v -0.05 0.02 0.04
v -0.05 0 0.04
vn -0 0 1
vn -0 0 1
vn -0 0 1
vt 0.371984 0.624528
vt 0.472963 0.598741
vt 0.471175 0.799417
f 457/457/457 458/458/458 459/459/459
v -0.032679 0.01 0.04
v -0.04 0.017321 0.04
v -0.05 0 0.04
vn -0 0 1
vn -0 0 1
vn -0 0 1
vt 0.297947 0.697288
vt 0.371984 0.624528
vt 0.471175 0.799417
f 460/460/460 461/461/461 462/462/462
v -0.03 -0 0.04
v -0.032679 0.01 0.04
v -0.05 0 0.04
vn -0 0 1
vn -0 0 1
vn -0 0 1
vt 0.270428 0.797648
vt 0.297947 0.697288
vt 0.471175 0.799417
f 463/463/463 464/464/464 465/465/465
v -0.032679 -0.01 0.04
v -0.03 -0 0.04
v -0.05 0 0.04
vn 0 0 1
vn 0 0 1
vn 0 0 1
vt 0.296247 0.898676
vt 0.270428 0.797648
vt 0.471175 0.799417
f 466/466/466 467/467/467 468/468/468
v -0.04 -0.017321 0.04
v -0.032679 -0.01 0.04
v -0.05 0 0.04
vn 0 0 1
vn 0 0 1
vn 0 0 1
vt 0.369059 0.972718
vt 0.296247 0.898676
vt 0.471175 0.799417
f 469/469/469 470/470/470 471/471/471
v -0.05 -0.02 0.04
v -0.04 -0.017321 0.04
v -0.05 0 0.04
vn 0 0 1
vn 0 0 1
vn 0 0 1
vt 0.46946 1.00019
vt 0.369059 0.972718
vt 0.471175 0.799417
f 472/472/472 473/473/473 474/474/474
v -0.06 -0.017321 0.04
v -0.05 -0.02 0.04
v -0.05 0 0.04
vn 0 0 1
vn 0 0 1
vn 0 0 1
vt 0.570479 0.974304
vt 0.46946 1.00019
vt 0.471175 0.799417
f 475/475/475 476/476/476 477/477/477
v -0.06732 -0.01 0.04
v -0.06 -0.017321 0.04
v -0.05 0 0.04
vn 0 0 1
vn 0 0 1
vn 0 0 1
vt 0.64445 0.901437
vt 0.570479 0.974304
vt 0.471175 0.799417
f 478/478/478 479/479/479 480/480/480
v -0.07 0 0.04
v -0.06732 -0.01 0.04
v -0.05 0 0.04
vn 0 0 1
vn 0 0 1
vn 0 0 1
vt 0.671839 0.801059
vt 0.64445 0.901437
vt 0.471175 0.799417
f 481/481/481 482/482/482 483/483/483
v -0.06732 0.01 0.04
v -0.07 0 0.04
v -0.05 0 0.04
vn 0 -0 1
vn 0 -0 1
vn 0 -0 1
vt 0.64599 0.700176
vt 0.671839 0.801059
vt 0.471175 0.799417
f 484/484/484 485/485/485 486/486/486
v -0.06 0.017321 0.04
v -0.06732 0.01 0.04
v -0.05 0 0.04
vn 0 -0 1
vn 0 -0 1
vn 0 -0 1
vt 0.573261 0.626233
vt 0.64599 0.700176
vt 0.471175 0.799417
f 487/487/487 488/488/488 489/489/489
v -0.05 0.02 0.04
v -0.06 0.017321 0.04
v -0.05 0 0.04
vn 0 -0 1
vn 0 -0 1
vn 0 -0 1
vt 0.472963 0.598741
vt 0.573261 0.626233
vt 0.471175 0.799417
f 490/490/490 491/491/491 492/492/492
v -0.04 0.017321 0.05
v -0.025 0.025 0.05
v -0.05 0.02 0.05
vn -0 0 1
vn -0 0 1
vn -0 0 1
vt 0.531863 0.640768
vt 0.550941 0.602983
vt 0.53832 0.666494
f 493/493/493 494/494/494 495/495/495
v -0.025 -0.025 0.05
v -0.03 -0 0.05
v -0.032679 -0.01 0.05
vn -0 0 1
vn -0 0 1
vn -0 0 1
vt 0.423846 0.602896
vt 0.487416 0.615503
vt 0.461673 0.621975
f 496/496/496 497/497/497 498/498/498
v -0.025 -0.025 0.05
v -0.032679 -0.01 0.05
v -0.04 -0.017321 0.05
vn -0 0 1
vn -0 0 1
vn -0 0 1
vt 0.423846 0.602896
vt 0.461673 0.621975
vt 0.442905 0.64074
f 499/499/499 500/500/500 501/501/501
v -0.025 -0.025 0.05
v -0.04 -0.017321 0.05
v -0.05 -0.02 0.05
vn -0 0 1
vn -0 0 1
vn -0 0 1
vt 0.423846 0.602896
vt 0.442905 0.64074
vt 0.436419 0.666457
f 502/502/502 503/503/503 504/504/504
v -0.05 -0.02 0.05
v -0.06 -0.017321 0.05
v -0.075 -0.025 0.05
vn -0 0 1
vn -0 0 1
vn -0 0 1
vt 0.436419 0.666457
vt 0.442915 0.692204
vt 0.423844 0.730105
f 505/505/505 506/506/506 507/507/507
v -0.06 -0.017321 0.05
v -0.06732 -0.01 0.05
v -0.075 -0.025 0.05
vn -0 0 1
vn -0 0 1
vn -0 0 1
vt 0.442915 0.692204
vt 0.461708 0.710943
vt 0.423844 0.730105
f 508/508/508 509/509/509 510/510/510
v -0.06732 -0.01 0.05
v -0.07 0 0.05
v -0.075 -0.025 0.05
vn -0 0 1
vn -0 0 1
vn -0 0 1
vt 0.461708 0.710943
vt 0.48742 0.717369
vt 0.423844 0.730105
f 511/511/511 512/512/512 513/513/513
v -0.075 0.025 0.05
v -0.075 0.01 0.05
v -0.07 0 0.05
vn 0 -0 1
vn 0 -0 1
vn 0 -0 1
vt 0.550796 0.729925
vt 0.513621 0.729974
vt 0.48742 0.717369
f 514/514/514 515/515/515 516/516/516
v -0.025 -0.025 0.05
v -0.05 -0.02 0.05
v -0.075 -0.025 0.05
vn -0 0 1
vn -0 0 1
vn -0 0 1
vt 0.423846 0.602896
vt 0.436419 0.666457
vt 0.423844 0.730105
f 517/517/517 518/518/518 519/519/519
v -0.175 0.01 0.06
v -0.075 0.01 0.06
v -0.175 0.01 0.05
vn 0 1 -0
vn 0 1 -0
vn 0 1 -0
vt 0.419442 0.208606
vt 0.48791 0.216
vt 0.411426 0.218316
f 520/520/520 521/521/521 522/522/522
v -0.175 0.025 0.05
v -0.175 0.01 0.05
v -0.075 0.025 0.05
vn 0 -0 1
vn 0 -0 1
vn 0 -0 1
vt 0.410373 0.232892
vt 0.411426 0.218316
vt 0.495352 0.232304
f 523/523/523 524/524/524 525/525/525
v -0.075 0.01 0.06
v -0.175 0.01 0.06
v -0.075 -0.025 0.05
vn 0 -0.274721 0.961524
vn 0 -0.274721 0.961524
vn 0 -0.274721 0.961524
vt 0.118102 0.22197
vt 0.994328 0.221971
vt 0.118101 0.411476
f 526/526/526 527/527/527 528/528/528
v -0.175 0.01 0.05
v -0.175 -0.025 0.05
v -0.175 0.01 0.06
vn -1 0 -0
vn -1 0 -0
vn -1 0 -0
vt 0.411426 0.218316
vt 0.407698 0.181313
vt 0.419442 0.208606
f 529/529/529 530/530/530 531/531/531
v -0.075 -0.025 0.05
v -0.075 0.01 0.05
v -0.075 0.01 0.06
vn 1 0 0
vn 1 0 0
vn 1 0 0
vt 0.352732 0.464582
vt 0.352091 0.538443
vt 0.331806 0.521427
f 532/532/532 533/533/533 534/534/534
v -0.21 -0.03 0.05
v -0.175 -0.025 0.05
v -0.175 0.01 0.05
vn 0 0 1
vn 0 0 1
vn 0 0 1
vt 0.376743 0.172681
vt 0.407698 0.181313
vt 0.411426 0.218316
f 535/535/535 536/536/536 537/537/537
v 0.025 0.025 0.05
v -0.025 0.025 0.05
v 0.025 -0.025 0.05
vn 0 -0 1
vn 0 -0 1
vn 0 -0 1
vt 0.579112 0.232722
vt 0.541516 0.232449
vt 0.581322 0.203822
f 538/538/538 539/539/539 540/540/540
v 0.21 0.03 0.05
v 0.175 0.025 0.05
v 0.21 -0.03 0.05
vn 0 -0 1
vn 0 -0 1
vn 0 -0 1
vt 0.658563 0.236298
vt 0.645619 0.23407
vt 0.661718 0.210684
f 541/541/541 542/542/542 543/543/543
v -0.21 -0.03 0.05
v 0.21 -0.03 0.05
v -0.175 -0.025 0.05
vn 0 0 1
vn 0 0 1
vn 0 0 1
vt 0.376743 0.172681
vt 0.661718 0.210684
vt 0.407698 0.181313
f 544/544/544 545/545/545 546/546/546
v -0.21 0.03 0.05
v -0.175 0.025 0.05
v 0.21 0.03 0.05
vn 0 0 1
vn 0 0 1
vn 0 0 1
vt 0.064241 0.476497
vt 0.154852 0.46351
vt 0.832255 0.472807
f 547/547/547 548/548/548 549/549/549
v -0.048 0.013464 0.04
v -0.05 0.014 0.04
v -0.048 0.013464 0.05
vn 0.258865 0.965913 0
vn 0.258865 0.965913 0
vn 0.258865 0.965913 0
vt 0.054797 0.123343
vt 0.059055 0.123343
vt 0.054797 0.143911
f 550/550/550 551/551/551 552/552/552
v -0.046536 0.012 0.04
v -0.048 0.013464 0.04
v -0.046536 0.012 0.05
vn 0.707106 0.707107 0
vn 0.707106 0.707107 0
vn 0.707106 0.707107 0
vt 0.050538 0.123343
vt 0.054797 0.123343
vt 0.050538 0.143911
f 553/553/553 554/554/554 555/555/555
v -0.046 0.01 0.04
v -0.046536 0.012 0.04
v -0.046 0.01 0.05
vn 0.965914 0.258864 0
vn 0.965914 0.258864 0
vn 0.965914 0.258864 0
vt 0.04628 0.123343
vt 0.050538 0.123343
vt 0.04628 0.143911
f 556/556/556 557/557/557 558/558/558
v -0.046536 0.008 0.04
v -0.046 0.01 0.04
v -0.046536 0.008 0.05
vn 0.965914 -0.258864 0
vn 0.965914 -0.258864 0
vn 0.965914 -0.258864 0
vt 0.042021 0.123343
vt 0.04628 0.123343
vt 0.042021 0.143911
f 559/559/559 560/560/560 561/561/561
v -0.048 0.006536 0.04
v -0.046536 0.008 0.04
v -0.048 0.006536 0.05
vn 0.707106 -0.707107 0
vn 0.707106 -0.707107 0
vn 0.707106 -0.707107 0
vt 0.037763 0.123343
vt 0.042021 0.123343
vt 0.037763 0.143911
f 562/562/562 563/563/563 564/564/564
v -0.05 0.006 0.04
v -0.048 0.006536 0.04
v -0.05 0.006 0.05
vn 0.258865 -0.965914 0
vn 0.258865 -0.965914 0
vn 0.258865 -0.965914 0
vt 0.084607 0.123343
vt 0.088866 0.123343
vt 0.084607 0.143911
f 565/565/565 566/566/566 567/567/567
v -0.052 0.006536 0.04
v -0.05 0.006 0.04
v -0.052 0.006536 0.05
vn -0.258865 -0.965914 0
vn -0.258865 -0.965914 0
vn -0.258865 -0.965914 0
vt 0.080348 0.123343
vt 0.084607 0.123343
vt 0.080348 0.143911
f 568/568/568 569/569/569 570/570/570
v -0.053464 0.008 0.04
v -0.052 0.006536 0.04
v -0.053464 0.008 0.05
vn -0.707107 -0.707106 0
vn -0.707107 -0.707106 0
vn -0.707107 -0.707106 0
vt 0.07609 0.123343
vt 0.080348 0.123343
vt 0.07609 0.143911
f 571/571/571 572/572/572 573/573/573
v -0.054 0.01 0.04
v -0.053464 0.008 0.04
v -0.054 0.01 0.05
vn -0.965913 -0.258866 0
vn -0.965913 -0.258866 0
vn -0.965913 -0.258866 0
vt 0.071831 0.123343
vt 0.07609 0.123343
vt 0.071831 0.143911
f 574/574/574 575/575/575 576/576/576
v -0.053464 0.012 0.04
v -0.054 0.01 0.04
v -0.053464 0.012 0.05
vn -0.965913 0.258866 0
vn -0.965913 0.258866 0
vn -0.965913 0.258866 0
vt 0.067573 0.123343
vt 0.071831 0.123343
vt 0.067573 0.143911
f 577/577/577 578/578/578 579/579/579
v -0.052 0.013464 0.04
v -0.053464 0.012 0.04
v -0.052 0.013464 0.05
vn -0.707107 0.707106 0
vn -0.707107 0.707106 0
vn -0.707107 0.707106 0
vt 0.063314 0.123343
vt 0.067573 0.123343
vt 0.063314 0.143911
f 580/580/580 581/581/581 582/582/582
v -0.05 0.014 0.04
v -0.052 0.013464 0.04
v -0.05 0.014 0.05
vn -0.258865 0.965913 0
vn -0.258865 0.965913 0
vn -0.258865 0.965913 0
vt 0.059055 0.123343
vt 0.063314 0.123343
vt 0.059055 0.143911
f 583/583/583 584/584/584 585/585/585
v -0.048 0.013464 0.05
v -0.05 0.014 0.05
v -0.05 0.01 0.05
vn -0 0 1
vn -0 0 1
vn -0 0 1
vt 0.16219 0.137107
vt 0.158501 0.139237
vt 0.156372 0.13129
f 586/586/586 587/587/587 588/588/588
v -0.046536 0.012 0.05
v -0.048 0.013464 0.05
v -0.05 0.01 0.05
vn -0 0 1
vn -0 0 1
vn -0 0 1
vt 0.164319 0.133419
vt 0.16219 0.137107
vt 0.156372 0.13129
f 589/589/589 590/590/590 591/591/591
v -0.046 0.01 0.05
v -0.046536 0.012 0.05
v -0.05 0.01 0.05
vn -0 0 1
vn -0 0 1
vn -0 0 1
vt 0.164319 0.129161
vt 0.164319 0.133419
vt 0.156372 0.13129
f 592/592/592 593/593/593 594/594/594
v -0.046536 0.008 0.05
v -0.046 0.01 0.05
v -0.05 0.01 0.05
vn -0 0 1
vn -0 0 1
vn -0 0 1
vt 0.16219 0.125473
vt 0.164319 0.129161
vt 0.156372 0.13129
f 595/595/595 596/596/596 597/597/597
v -0.048 0.006536 0.05
v -0.046536 0.008 0.05
v -0.05 0.01 0.05
vn 0 0 1
vn 0 0 1
vn 0 0 1
vt 0.158502 0.123343
vt 0.16219 0.125473
vt 0.156372 0.13129
f 598/598/598 599/599/599 600/600/600
v -0.05 0.006 0.05
v -0.048 0.006536 0.05
v -0.05 0.01 0.05
vn 0 0 1
vn 0 0 1
vn 0 0 1
vt 0.154243 0.123343
vt 0.158502 0.123343
vt 0.156372 0.13129
f 601/601/601 602/602/602 603/603/603
v -0.052 0.006536 0.05
v -0.05 0.006 0.05
v -0.05 0.01 0.05
vn 0 0 1
vn 0 0 1
vn 0 0 1
vt 0.150555 0.125473
vt 0.154243 0.123343
vt 0.156372 0.13129
f 604/604/604 605/605/605 606/606/606
v -0.053464 0.008 0.05
v -0.052 0.006536 0.05
v -0.05 0.01 0.05
vn 0 0 1
vn 0 0 1
vn 0 0 1
vt 0.148426 0.129161
vt 0.150555 0.125473
vt 0.156372 0.13129
f 607/607/607 608/608/608 609/609/609
v -0.054 0.01 0.05
v -0.053464 0.008 0.05
v -0.05 0.01 0.05
vn 0 0 1
vn 0 0 1
vn 0 0 1
vt 0.148426 0.133419
vt 0.148426 0.129161
vt 0.156372 0.13129
f 610/610/610 611/611/611 612/612/612
v -0.053464 0.012 0.05
v -0.054 0.01 0.05
v -0.05 0.01 0.05
vn 0 -0 1
vn 0 -0 1
vn 0 -0 1
vt 0.150555 0.137107
vt 0.148426 0.133419
vt 0.156372 0.13129
f 613/613/613 614/614/614 615/615/615
v -0.052 0.013464 0.05
v -0.053464 0.012 0.05
v -0.05 0.01 0.05
vn 0 -0 1
vn 0 -0 1
vn 0 -0 1
vt 0.154243 0.139237
vt 0.150555 0.137107
vt 0.156372 0.13129
f 616/616/616 617/617/617 618/618/618
v -0.05 0.014 0.05
v -0.052 0.013464 0.05
v -0.05 0.01 0.05
vn 0 -0 1
vn 0 -0 1
vn 0 -0 1
vt 0.158501 0.139237
vt 0.154243 0.139237
vt 0.156372 0.13129
f 619/619/619 620/620/620 621/621/621
v -0.052 0.013464 0.04
v -0.05 0.014 0.04
v -0.05 0.01 0.04
vn -0 0 -1
vn -0 0 -1
vn -0 0 -1
vt 0.134223 0.125473
vt 0.137911 0.123343
vt 0.14004 0.13129
f 622/622/622 623/623/623 624/624/624
v -0.053464 0.012 0.04
v -0.052 0.013464 0.04
v -0.05 0.01 0.04
vn -0 0 -1
vn -0 0 -1
vn -0 0 -1
vt 0.132094 0.129161
vt 0.134223 0.125473
vt 0.14004 0.13129
f 625/625/625 626/626/626 627/627/627
v -0.054 0.01 0.04
v -0.053464 0.012 0.04
v -0.05 0.01 0.04
vn -0 0 -1
vn -0 0 -1
vn -0 0 -1
vt 0.132094 0.133419
vt 0.132094 0.129161
vt 0.14004 0.13129
f 628/628/628 629/629/629 630/630/630
v -0.053464 0.008 0.04
v -0.054 0.01 0.04
v -0.05 0.01 0.04
vn -0 -0 -1
vn -0 -0 -1
vn -0 -0 -1
vt 0.134223 0.137107
vt 0.132094 0.133419
vt 0.14004 0.13129
f 631/631/631 632/632/632 633/633/633
v -0.052 0.006536 0.04
v -0.053464 0.008 0.04
v -0.05 0.01 0.04
vn 0 -0 -1
vn 0 -0 -1
vn 0 -0 -1
vt 0.137911 0.139237
vt 0.134223 0.137107
vt 0.14004 0.13129
f 634/634/634 635/635/635 636/636/636
v -0.05 0.006 0.04
v -0.052 0.006536 0.04
v -0.05 0.01 0.04
vn 0 -0 -1
vn 0 -0 -1
vn 0 -0 -1
vt 0.14217 0.139237
vt 0.137911 0.139237
vt 0.14004 0.13129
f 637/637/637 638/638/638 639/639/639
v -0.048 0.006536 0.04
v -0.05 0.006 0.04
v -0.05 0.01 0.04
vn 0 0 -1
vn 0 0 -1
vn 0 0 -1
vt 0.145858 0.137107
vt 0.14217 0.139237
vt 0.14004 0.13129
f 640/640/640 641/641/641 642/642/642
v -0.046536 0.008 0.04
v -0.048 0.006536 0.04
v -0.05 0.01 0.04
vn 0 0 -1
vn 0 0 -1
vn 0 0 -1
vt 0.147987 0.133419
vt 0.145858 0.137107
vt 0.14004 0.13129
f 643/643/643 644/644/644 645/645/645
v -0.046 0.01 0.04
v -0.046536 0.008 0.04
v -0.05 0.01 0.04
vn 0 0 -1
vn 0 0 -1
vn 0 0 -1
vt 0.147987 0.129161
vt 0.147987 0.133419
vt 0.14004 0.13129
f 646/646/646 647/647/647 648/648/648
v -0.046536 0.012 0.04
v -0.046 0.01 0.04
v -0.05 0.01 0.04
vn 0 0 -1
vn 0 0 -1
vn 0 0 -1
vt 0.145858 0.125473
vt 0.147987 0.129161
vt 0.14004 0.13129
f 649/649/649 650/650/650 651/651/651
v -0.048 0.013464 0.04
v -0.046536 0.012 0.04
v -0.05 0.01 0.04
vn 0 0 -1
vn 0 0 -1
vn 0 0 -1
vt 0.14217 0.123343
vt 0.145858 0.125473
vt 0.14004 0.13129
f 652/652/652 653/653/653 654/654/654
v -0.05 0.014 0.04
v -0.048 0.013464 0.04
v -0.05 0.01 0.04
vn 0 0 -1
vn 0 0 -1
vn 0 0 -1
vt 0.137911 0.123343
vt 0.14217 0.123343
vt 0.14004 0.13129
f 655/655/655 656/656/656 657/657/657
v 0.052 0.013464 0.04
v 0.05 0.014 0.04
v 0.052 0.013464 0.05
vn 0.258865 0.965913 0
vn 0.258865 0.965913 0
vn 0.258865 0.965913 0
vt 0.052638 0.060668
vt 0.052638 0.05641
vt 0.073205 0.060668
f 658/658/658 659/659/659 660/660/660
v 0.053464 0.012 0.04
v 0.052 0.013464 0.04
v 0.053464 0.012 0.05
vn 0.707107 0.707106 0
vn 0.707107 0.707106 0
vn 0.707107 0.707106 0
vt 0.052638 0.064927
vt 0.052638 0.060668
vt 0.073205 0.064927
f 661/661/661 662/662/662 663/663/663
v 0.054 0.01 0.04
v 0.053464 0.012 0.04
v 0.054 0.01 0.05
vn 0.965913 0.258866 0
vn 0.965913 0.258866 0
vn 0.965913 0.258866 0
vt 0.052638 0.069185
vt 0.052638 0.064927
vt 0.073205 0.069185
f 664/664/664 665/665/665 666/666/666
v 0.053464 0.008 0.04
v 0.054 0.01 0.04
v 0.053464 0.008 0.05
vn 0.965913 -0.258866 0
vn 0.965913 -0.258866 0
vn 0.965913 -0.258866 0
vt 0.052638 0.073444
vt 0.052638 0.069185
vt 0.073205 0.073444
f 667/667/667 668/668/668 669/669/669
v 0.052 0.006536 0.04
v 0.053464 0.008 0.04
v 0.052 0.006536 0.05
vn 0.707107 -0.707106 0
vn 0.707107 -0.707106 0
vn 0.707107 -0.707106 0
vt 0.052638 0.077703
vt 0.052638 0.073444
vt 0.073205 0.077703
f 670/670/670 671/671/671 672/672/672
v 0.05 0.006 0.04
v 0.052 0.006536 0.04
v 0.05 0.006 0.05
vn 0.258865 -0.965914 0
vn 0.258865 -0.965914 0
vn 0.258865 -0.965914 0
vt 0.052637 0.030858
vt 0.052637 0.0266
vt 0.073205 0.030858
f 673/673/673 674/674/674 675/675/675
v 0.048 0.006536 0.04
v 0.05 0.006 0.04
v 0.048 0.006536 0.05
vn -0.258865 -0.965914 0
vn -0.258865 -0.965914 0
vn -0.258865 -0.965914 0
vt 0.052637 0.035117
vt 0.052637 0.030858
vt 0.073205 0.035117
f 676/676/676 677/677/677 678/678/678
v 0.046536 0.008 0.04
v 0.048 0.006536 0.04
v 0.046536 0.008 0.05
vn -0.707106 -0.707107 0
vn -0.707106 -0.707107 0
vn -0.707106 -0.707107 0
vt 0.052637 0.039375
vt 0.052637 0.035117
vt 0.073205 0.039375
f 679/679/679 680/680/680 681/681/681
v 0.046 0.01 0.04
v 0.046536 0.008 0.04
v 0.046 0.01 0.05
vn -0.965914 -0.258864 0
vn -0.965914 -0.258864 0
vn -0.965914 -0.258864 0
vt 0.052638 0.043634
vt 0.052637 0.039375
vt 0.073205 0.043634
f 682/682/682 683/683/683 684/684/684
v 0.046536 0.012 0.04
v 0.046 0.01 0.04
v 0.046536 0.012 0.05
vn -0.965914 0.258864 0
vn -0.965914 0.258864 0
vn -0.965914 0.258864 0
vt 0.052638 0.047893
vt 0.052638 0.043634
vt 0.073205 0.047893
f 685/685/685 686/686/686 687/687/687
v 0.048 0.013464 0.04
v 0.046536 0.012 0.04
v 0.048 0.013464 0.05
vn -0.707106 0.707107 0
vn -0.707106 0.707107 0
vn -0.707106 0.707107 0
vt 0.052638 0.052151
vt 0.052638 0.047893
vt 0.073205 0.052151
f 688/688/688 689/689/689 690/690/690
v 0.05 0.014 0.04
v 0.048 0.013464 0.04
v 0.05 0.014 0.05
vn -0.258865 0.965913 0
vn -0.258865 0.965913 0
vn -0.258865 0.965913 0
vt 0.052638 0.05641
vt 0.052638 0.052151
vt 0.073205 0.05641
f 691/691/691 692/692/692 693/693/693
v 0.052 0.013464 0.05
v 0.05 0.014 0.05
v 0.05 0.01 0.05
vn -0 0 1
vn -0 0 1
vn -0 0 1
vt 0.117013 0.028207
vt 0.120701 0.030337
vt 0.114883 0.036154
f 694/694/694 695/695/695 696/696/696
v 0.053464 0.012 0.05
v 0.052 0.013464 0.05
v 0.05 0.01 0.05
vn -0 0 1
vn -0 0 1
vn -0 0 1
vt 0.112754 0.028207
vt 0.117013 0.028207
vt 0.114883 0.036154
f 697/697/697 698/698/698 699/699/699
v 0.054 0.01 0.05
v 0.053464 0.012 0.05
v 0.05 0.01 0.05
vn -0 0 1
vn -0 0 1
vn -0 0 1
vt 0.109066 0.030337
vt 0.112754 0.028207
vt 0.114883 0.036154
f 700/700/700 701/701/701 702/702/702
v 0.053464 0.008 0.05
v 0.054 0.01 0.05
v 0.05 0.01 0.05
vn -0 0 1
vn -0 0 1
vn -0 0 1
vt 0.106937 0.034025
vt 0.109066 0.030337
vt 0.114883 0.036154
f 703/703/703 704/704/704 705/705/705
v 0.052 0.006536 0.05
v 0.053464 0.008 0.05
v 0.05 0.01 0.05
vn 0 0 1
vn 0 0 1
vn 0 0 1
vt 0.106937 0.038283
vt 0.106937 0.034025
vt 0.114883 0.036154
f 706/706/706 707/707/707 708/708/708
v 0.05 0.006 0.05
v 0.052 0.006536 0.05
v 0.05 0.01 0.05
vn 0 0 1
vn 0 0 1
vn 0 0 1
vt 0.109066 0.041971
vt 0.106937 0.038283
vt 0.114883 0.036154
f 709/709/709 710/710/710 711/711/711
v 0.048 0.006536 0.05
v 0.05 0.006 0.05
v 0.05 0.01 0.05
vn 0 0 1
vn 0 0 1
vn 0 0 1
vt 0.112754 0.044101
vt 0.109066 0.041971
vt 0.114883 0.036154
f 712/712/712 713/713/713 714/714/714
v 0.046536 0.008 0.05
v 0.048 0.006536 0.05
v 0.05 0.01 0.05
vn 0 0 1
vn 0 0 1
vn 0 0 1
vt 0.117013 0.044101
vt 0.112754 0.044101
vt 0.114883 0.036154
f 715/715/715 716/716/716 717/717/717
v 0.046 0.01 0.05
v 0.046536 0.008 0.05
v 0.05 0.01 0.05
vn 0 0 1
vn 0 0 1
vn 0 0 1
vt 0.120701 0.041971
vt 0.117013 0.044101
vt 0.114883 0.036154
f 718/718/718 719/719/719 720/720/720
v 0.046536 0.012 0.05
v 0.046 0.01 0.05
v 0.05 0.01 0.05
vn 0 -0 1
vn 0 -0 1
vn 0 -0 1
vt 0.12283 0.038283
vt 0.120701 0.041971
vt 0.114883 0.036154
f 721/721/721 722/722/722 723/723/723
v 0.048 0.013464 0.05
v 0.046536 0.012 0.05
v 0.05 0.01 0.05
vn 0 -0 1
vn 0 -0 1
vn 0 -0 1
vt 0.12283 0.034025
vt 0.12283 0.038283
vt 0.114883 0.036154
f 724/724/724 725/725/725 726/726/726
v 0.05 0.014 0.05
v 0.048 0.013464 0.05
v 0.05 0.01 0.05
vn 0 -0 1
vn 0 -0 1
vn 0 -0 1
vt 0.120701 0.030337
vt 0.12283 0.034025
vt 0.114883 0.036154
f 727/727/727 728/728/728 729/729/729
v 0.048 0.013464 0.04
v 0.05 0.014 0.04
v 0.05 0.01 0.04
vn -0 0 -1
vn -0 0 -1
vn -0 0 -1
vt 0.089304 0.129161
vt 0.091433 0.125473
vt 0.097251 0.13129
f 730/730/730 731/731/731 732/732/732
v 0.046536 0.012 0.04
v 0.048 0.013464 0.04
v 0.05 0.01 0.04
vn -0 0 -1
vn -0 0 -1
vn -0 0 -1
vt 0.089304 0.133419
vt 0.089304 0.129161
vt 0.097251 0.13129
f 733/733/733 734/734/734 735/735/735
v 0.046 0.01 0.04
v 0.046536 0.012 0.04
v 0.05 0.01 0.04
vn -0 0 -1
vn -0 0 -1
vn -0 0 -1
vt 0.091433 0.137107
vt 0.089304 0.133419
vt 0.097251 0.13129
f 736/736/736 737/737/737 738/738/738
v 0.046536 0.008 0.04
v 0.046 0.01 0.04
v 0.05 0.01 0.04
vn -0 -0 -1
vn -0 -0 -1
vn -0 -0 -1
vt 0.095122 0.139237
vt 0.091433 0.137107
vt 0.097251 0.13129
f 739/739/739 740/740/740 741/741/741
v 0.048 0.006536 0.04
v 0.046536 0.008 0.04
v 0.05 0.01 0.04
vn 0 -0 -1
vn 0 -0 -1
vn 0 -0 -1
vt 0.09938 0.139237
vt 0.095122 0.139237
vt 0.097251 0.13129
f 742/742/742 743/743/743 744/744/744
v 0.05 0.006 0.04
v 0.048 0.006536 0.04
v 0.05 0.01 0.04
vn 0 -0 -1
vn 0 -0 -1
vn 0 -0 -1
vt 0.103068 0.137107
vt 0.09938 0.139237
vt 0.097251 0.13129
f 745/745/745 746/746/746 747/747/747
v 0.052 0.006536 0.04
v 0.05 0.006 0.04
v 0.05 0.01 0.04
vn 0 0 -1
vn 0 0 -1
vn 0 0 -1
vt 0.105197 0.133419
vt 0.103068 0.137107
vt 0.097251 0.13129
f 748/748/748 749/749/749 750/750/750
v 0.053464 0.008 0.04
v 0.052 0.006536 0.04
v 0.05 0.01 0.04
vn 0 0 -1
vn 0 0 -1
vn 0 0 -1
vt 0.105197 0.129161
vt 0.105197 0.133419
vt 0.097251 0.13129
f 751/751/751 752/752/752 753/753/753
v 0.054 0.01 0.04
v 0.053464 0.008 0.04
v 0.05 0.01 0.04
vn 0 0 -1
vn 0 0 -1
vn 0 0 -1
vt 0.103068 0.125473
vt 0.105197 0.129161
vt 0.097251 0.13129
f 754/754/754 755/755/755 756/756/756
v 0.053464 0.012 0.04
v 0.054 0.01 0.04
v 0.05 0.01 0.04
vn 0 0 -1
vn 0 0 -1
vn 0 0 -1
vt 0.09938 0.123343
vt 0.103068 0.125473
vt 0.097251 0.13129
f 757/757/757 758/758/758 759/759/759
v 0.052 0.013464 0.04
v 0.053464 0.012 0.04
v 0.05 0.01 0.04
vn 0 0 -1
vn 0 0 -1
vn 0 0 -1
vt 0.095122 0.123343
vt 0.09938 0.123343
vt 0.097251 0.13129
f 760/760/760 761/761/761 762/762/762
v 0.05 0.014 0.04
v 0.052 0.013464 0.04
v 0.05 0.01 0.04
vn 0 0 -1
vn 0 0 -1
vn 0 0 -1
vt 0.091433 0.125473
vt 0.095122 0.123343
vt 0.097251 0.13129
f 763/763/763 764/764/764 765/765/765
v 0.102 0.013464 0.04
v 0.1 0.014 0.04
v 0.102 0.013464 0.05
vn 0.258865 0.965913 0
vn 0.258865 0.965913 0
vn 0.258865 0.965913 0
vt 0.085931 0.052151
vt 0.085931 0.047893
vt 0.106498 0.052151
f 766/766/766 767/767/767 768/768/768
v 0.103464 0.012 0.04
v 0.102 0.013464 0.04
v 0.103464 0.012 0.05
vn 0.707106 0.707107 0
vn 0.707106 0.707107 0
vn 0.707106 0.707107 0
vt 0.085931 0.05641
vt 0.085931 0.052151
vt 0.106498 0.05641
f 769/769/769 770/770/770 771/771/771
v 0.104 0.01 0.04
v 0.103464 0.012 0.04
v 0.104 0.01 0.05
vn 0.965913 0.258866 0
vn 0.965913 0.258866 0
vn 0.965913 0.258866 0
vt 0.085931 0.060668
vt 0.085931 0.05641
vt 0.106498 0.060668
f 772/772/772 773/773/773 774/774/774
v 0.103464 0.008 0.04
v 0.104 0.01 0.04
v 0.103464 0.008 0.05
vn 0.965913 -0.258866 0
vn 0.965913 -0.258866 0
vn 0.965913 -0.258866 0
vt 0.085931 0.064927
vt 0.085931 0.060668
vt 0.106498 0.064927
f 775/775/775 776/776/776 777/777/777
v 0.102 0.006536 0.04
v 0.103464 0.008 0.04
v 0.102 0.006536 0.05
vn 0.707106 -0.707107 0
vn 0.707106 -0.707107 0
vn 0.707106 -0.707107 0
vt 0.085931 0.069185
vt 0.085931 0.064927
vt 0.106498 0.069185
f 778/778/778 779/779/779 780/780/780
v 0.1 0.006 0.04
v 0.102 0.006536 0.04
v 0.1 0.006 0.05
vn 0.258865 -0.965913 0
vn 0.258865 -0.965913 0
vn 0.258865 -0.965913 0
vt 0.085931 0.073444
vt 0.085931 0.069185
vt 0.106498 0.073444
f 781/781/781 782/782/782 783/783/783
v 0.098 0.006536 0.04
v 0.1 0.006 0.04
v 0.098 0.006536 0.05
vn -0.258864 -0.965914 0
vn -0.258864 -0.965914 0
vn -0.258864 -0.965914 0
vt 0.085931 0.077703
vt 0.085931 0.073444
vt 0.106498 0.077703
f 784/784/784 785/785/785 786/786/786
v 0.096536 0.008 0.04
v 0.098 0.006536 0.04
v 0.096536 0.008 0.05
vn -0.707108 -0.707105 0
vn -0.707108 -0.707105 0
vn -0.707108 -0.707105 0
vt 0.085931 0.030858
vt 0.085931 0.0266
vt 0.106498 0.030858
f 787/787/787 788/788/788 789/789/789
v 0.096 0.01 0.04
v 0.096536 0.008 0.04
v 0.096 0.01 0.05
vn -0.965913 -0.258866 0
vn -0.965913 -0.258866 0
vn -0.965913 -0.258866 0
vt 0.085931 0.035117
vt 0.085931 0.030858
vt 0.106498 0.035117
f 790/790/790 791/791/791 792/792/792
v 0.096536 0.012 0.04
v 0.096 0.01 0.04
v 0.096536 0.012 0.05
vn -0.965913 0.258866 0
vn -0.965913 0.258866 0
vn -0.965913 0.258866 0
vt 0.085931 0.039375
vt 0.085931 0.035117
vt 0.106498 0.039375
f 793/793/793 794/794/794 795/795/795
v 0.098 0.013464 0.04
v 0.096536 0.012 0.04
v 0.098 0.013464 0.05
vn -0.707108 0.707105 0
vn -0.707108 0.707105 0
vn -0.707108 0.707105 0
vt 0.085931 0.043634
vt 0.085931 0.039375
vt 0.106498 0.043634
f 796/796/796 797/797/797 798/798/798
v 0.1 0.014 0.04
v 0.098 0.013464 0.04
v 0.1 0.014 0.05
vn -0.258865 0.965914 0
vn -0.258865 0.965914 0
vn -0.258865 0.965914 0
vt 0.085931 0.047893
vt 0.085931 0.043634
vt 0.106498 0.047893
f 799/799/799 800/800/800 801/801/801
v 0.102 0.013464 0.05
v 0.1 0.014 0.05
v 0.1 0.01 0.05
vn -0 0 1
vn -0 0 1
vn -0 0 1
vt 0.169696 0.030337
vt 0.171826 0.034025
vt 0.163879 0.036154
f 802/802/802 803/803/803 804/804/804
v 0.103464 0.012 0.05
v 0.102 0.013464 0.05
v 0.1 0.01 0.05
vn -0 0 1
vn -0 0 1
vn -0 0 1
vt 0.166008 0.028207
vt 0.169696 0.030337
vt 0.163879 0.036154
f 805/805/805 806/806/806 807/807/807
v 0.104 0.01 0.05
v 0.103464 0.012 0.05
v 0.1 0.01 0.05
vn -0 0 1
vn -0 0 1
vn -0 0 1
vt 0.16175 0.028207
vt 0.166008 0.028207
vt 0.163879 0.036154
f 808/808/808 809/809/809 810/810/810
v 0.103464 0.008 0.05
v 0.104 0.01 0.05
v 0.1 0.01 0.05
vn -0 0 1
vn -0 0 1
vn -0 0 1
vt 0.158062 0.030337
vt 0.16175 0.028207
vt 0.163879 0.036154
f 811/811/811 812/812/812 813/813/813
v 0.102 0.006536 0.05
v 0.103464 0.008 0.05
v 0.1 0.01 0.05
vn 0 0 1
vn 0 0 1
vn 0 0 1
vt 0.155933 0.034025
vt 0.158062 0.030337
vt 0.163879 0.036154
f 814/814/814 815/815/815 816/816/816
v 0.1 0.006 0.05
v 0.102 0.006536 0.05
v 0.1 0.01 0.05
vn 0 0 1
vn 0 0 1
vn 0 0 1
vt 0.155933 0.038283
vt 0.155933 0.034025
vt 0.163879 0.036154
f 817/817/817 818/818/818 819/819/819
v 0.098 0.006536 0.05
v 0.1 0.006 0.05
v 0.1 0.01 0.05
vn 0 0 1
vn 0 0 1
vn 0 0 1
vt 0.158062 0.041971
vt 0.155933 0.038283
vt 0.163879 0.036154
f 820/820/820 821/821/821 822/822/822
v 0.096536 0.008 0.05
v 0.098 0.006536 0.05
v 0.1 0.01 0.05
vn 0 0 1
vn 0 0 1
vn 0 0 1
vt 0.16175 0.044101
vt 0.158062 0.041971
vt 0.163879 0.036154
f 823/823/823 824/824/824 825/825/825
v 0.096 0.01 0.05
v 0.096536 0.008 0.05
v 0.1 0.01 0.05
vn 0 0 1
vn 0 0 1
vn 0 0 1
vt 0.166008 0.044101
vt 0.16175 0.044101
vt 0.163879 0.036154
f 826/826/826 827/827/827 828/828/828
v 0.096536 0.012 0.05
v 0.096 0.01 0.05
v 0.1 0.01 0.05
vn 0 -0 1
vn 0 -0 1
vn 0 -0 1
vt 0.169696 0.041971
vt 0.166008 0.044101
vt 0.163879 0.036154
f 829/829/829 830/830/830 831/831/831
v 0.098 0.013464 0.05
v 0.096536 0.012 0.05
v 0.1 0.01 0.05
vn 0 -0 1
vn 0 -0 1
vn 0 -0 1
vt 0.171826 0.038283
vt 0.169696 0.041971
vt 0.163879 0.036154
f 832/832/832 833/833/833 834/834/834
v 0.1 0.014 0.05
v 0.098 0.013464 0.05
v 0.1 0.01 0.05
vn 0 -0 1
vn 0 -0 1
vn 0 -0 1
vt 0.171826 0.034025
vt 0.171826 0.038283
vt 0.163879 0.036154
f 835/835/835 836/836/836 837/837/837
v 0.098 0.013464 0.04
v 0.1 0.014 0.04
v 0.1 0.01 0.04
vn -0 0 -1
vn -0 0 -1
vn -0 0 -1
vt 0.139601 0.034025
vt 0.14173 0.030337
vt 0.147547 0.036154
f 838/838/838 839/839/839 840/840/840
v 0.096536 0.012 0.04
v 0.098 0.013464 0.04
v 0.1 0.01 0.04
vn -0 0 -1
vn -0 0 -1
vn -0 0 -1
vt 0.139601 0.038283
vt 0.139601 0.034025
vt 0.147547 0.036154
f 841/841/841 842/842/842 843/843/843
v 0.096 0.01 0.04
v 0.096536 0.012 0.04
v 0.1 0.01 0.04
vn -0 0 -1
vn -0 0 -1
vn -0 0 -1
vt 0.14173 0.041971
vt 0.139601 0.038283
vt 0.147547 0.036154
f 844/844/844 845/845/845 846/846/846
v 0.096536 0.008 0.04
v 0.096 0.01 0.04
v 0.1 0.01 0.04
vn -0 -0 -1
vn -0 -0 -1
vn -0 -0 -1
vt 0.145418 0.044101
vt 0.14173 0.041971
vt 0.147547 0.036154
f 847/847/847 848/848/848 849/849/849
v 0.098 0.006536 0.04
v 0.096536 0.008 0.04
v 0.1 0.01 0.04
vn 0 -0 -1
vn 0 -0 -1
vn 0 -0 -1
vt 0.149677 0.044101
vt 0.145418 0.044101
vt 0.147547 0.036154
f 850/850/850 851/851/851 852/852/852
v 0.1 0.006 0.04
v 0.098 0.006536 0.04
v 0.1 0.01 0.04
vn 0 -0 -1
vn 0 -0 -1
vn 0 -0 -1
vt 0.153365 0.041971
vt 0.149677 0.044101
vt 0.147547 0.036154
f 853/853/853 854/854/854 855/855/855
v 0.102 0.006536 0.04
v 0.1 0.006 0.04
v 0.1 0.01 0.04
vn 0 0 -1
vn 0 0 -1
vn 0 0 -1
vt 0.155494 0.038283
vt 0.153365 0.041971
vt 0.147547 0.036154
f 856/856/856 857/857/857 858/858/858
v 0.103464 0.008 0.04
v 0.102 0.006536 0.04
v 0.1 0.01 0.04
vn 0 0 -1
vn 0 0 -1
vn 0 0 -1
vt 0.155494 0.034025
vt 0.155494 0.038283
vt 0.147547 0.036154
f 859/859/859 860/860/860 861/861/861
v 0.104 0.01 0.04
v 0.103464 0.008 0.04
v 0.1 0.01 0.04
vn 0 0 -1
vn 0 0 -1
vn 0 0 -1
vt 0.153365 0.030336
vt 0.155494 0.034025
vt 0.147547 0.036154
f 862/862/862 863/863/863 864/864/864
v 0.103464 0.012 0.04
v 0.104 0.01 0.04
v 0.1 0.01 0.04
vn 0 0 -1
vn 0 0 -1
vn 0 0 -1
vt 0.149677 0.028207
vt 0.153365 0.030336
vt 0.147547 0.036154
f 865/865/865 866/866/866 867/867/867
v 0.102 0.013464 0.04
v 0.103464 0.012 0.04
v 0.1 0.01 0.04
vn 0 0 -1
vn 0 0 -1
vn 0 0 -1
vt 0.145418 0.028207
vt 0.149677 0.028207
vt 0.147547 0.036154
f 868/868/868 869/869/869 870/870/870
v 0.1 0.014 0.04
v 0.102 0.013464 0.04
v 0.1 0.01 0.04
vn 0 0 -1
vn 0 0 -1
vn 0 0 -1
vt 0.14173 0.030337
vt 0.145418 0.028207
vt 0.147547 0.036154
f 871/871/871 872/872/872 873/873/873
v 0.152 0.013464 0.04
v 0.15 0.014 0.04
v 0.152 0.013464 0.05
vn 0.258866 0.965913 0
vn 0.258866 0.965913 0
vn 0.258866 0.965913 0
vt 0.031631 0.05641
vt 0.031631 0.052151
vt 0.052199 0.05641
f 874/874/874 875/875/875 876/876/876
v 0.153464 0.012 0.04
v 0.152 0.013464 0.04
v 0.153464 0.012 0.05
vn 0.707105 0.707109 0
vn 0.707105 0.707109 0
vn 0.707105 0.707109 0
vt 0.031631 0.060668
vt 0.031631 0.05641
vt 0.052199 0.060668
f 877/877/877 878/878/878 879/879/879
v 0.154 0.01 0.04
v 0.153464 0.012 0.04
v 0.154 0.01 0.05
vn 0.965914 0.258862 0
vn 0.965914 0.258862 0
vn 0.965914 0.258862 0
vt 0.031631 0.064927
vt 0.031631 0.060668
vt 0.052199 0.064927
f 880/880/880 881/881/881 882/882/882
v 0.153464 0.008 0.04
v 0.154 0.01 0.04
v 0.153464 0.008 0.05
vn 0.965914 -0.258863 0
vn 0.965914 -0.258863 0
vn 0.965914 -0.258863 0
vt 0.031631 0.069185
vt 0.031631 0.064927
vt 0.052199 0.069185
f 883/883/883 884/884/884 885/885/885
v 0.152 0.006536 0.04
v 0.153464 0.008 0.04
v 0.152 0.006536 0.05
vn 0.707105 -0.707109 0
vn 0.707105 -0.707109 0
vn 0.707105 -0.707109 0
vt 0.031631 0.073444
vt 0.031631 0.069185
vt 0.052199 0.073444
f 886/886/886 887/887/887 888/888/888
v 0.15 0.006 0.04
v 0.152 0.006536 0.04
v 0.15 0.006 0.05
vn 0.258866 -0.965913 0
vn 0.258866 -0.965913 0
vn 0.258866 -0.965913 0
vt 0.031631 0.077703
vt 0.031631 0.073444
vt 0.052199 0.077703
f 889/889/889 890/890/890 891/891/891
v 0.148 0.006536 0.04
v 0.15 0.006 0.04
v 0.148 0.006536 0.05
vn -0.258864 -0.965914 0
vn -0.258864 -0.965914 0
vn -0.258864 -0.965914 0
vt 0.031631 0.030858
vt 0.031631 0.0266
vt 0.052199 0.030858
f 892/892/892 893/893/893 894/894/894
v 0.146536 0.008 0.04
v 0.148 0.006536 0.04
v 0.146536 0.008 0.05
vn -0.707105 -0.707109 0
vn -0.707105 -0.707109 0
vn -0.707105 -0.707109 0
vt 0.031631 0.035117
vt 0.031631 0.030858
vt 0.052199 0.035117
f 895/895/895 896/896/896 897/897/897
v 0.146 0.01 0.04
v 0.146536 0.008 0.04
v 0.146 0.01 0.05
vn -0.965914 -0.258863 0
vn -0.965914 -0.258863 0
vn -0.965914 -0.258863 0
vt 0.031631 0.039375
vt 0.031631 0.035117
vt 0.052199 0.039375
f 898/898/898 899/899/899 900/900/900
v 0.146536 0.012 0.04
v 0.146 0.01 0.04
v 0.146536 0.012 0.05
vn -0.965914 0.258862 0
vn -0.965914 0.258862 0
vn -0.965914 0.258862 0
vt 0.031631 0.043634
vt 0.031631 0.039375
vt 0.052199 0.043634
f 901/901/901 902/902/902 903/903/903
v 0.148 0.013464 0.04
v 0.146536 0.012 0.04
v 0.148 0.013464 0.05
vn -0.707105 0.707109 0
vn -0.707105 0.707109 0
vn -0.707105 0.707109 0
vt 0.031631 0.047892
vt 0.031631 0.043634
vt 0.052199 0.047892
f 904/904/904 905/905/905 906/906/906
v 0.15 0.014 0.04
v 0.148 0.013464 0.04
v 0.15 0.014 0.05
vn -0.258865 0.965914 0
vn -0.258865 0.965914 0
vn -0.258865 0.965914 0
vt 0.031631 0.052151
vt 0.031631 0.047892
vt 0.052199 0.052151
f 907/907/907 908/908/908 909/909/909
v 0.152 0.013464 0.05
v 0.15 0.014 0.05
v 0.15 0.01 0.05
vn -0 0 1
vn -0 0 1
vn -0 0 1
vt 0.129086 0.028207
vt 0.133345 0.028207
vt 0.131215 0.036154
f 910/910/910 911/911/911 912/912/912
v 0.153464 0.012 0.05
v 0.152 0.013464 0.05
v 0.15 0.01 0.05
vn -0 0 1
vn -0 0 1
vn -0 0 1
vt 0.125398 0.030337
vt 0.129086 0.028207
vt 0.131215 0.036154
f 913/913/913 914/914/914 915/915/915
v 0.154 0.01 0.05
v 0.153464 0.012 0.05
v 0.15 0.01 0.05
vn -0 0 1
vn -0 0 1
vn -0 0 1
vt 0.123269 0.034025
vt 0.125398 0.030337
vt 0.131215 0.036154
f 916/916/916 917/917/917 918/918/918
v 0.153464 0.008 0.05
v 0.154 0.01 0.05
v 0.15 0.01 0.05
vn -0 0 1
vn -0 0 1
vn -0 0 1
vt 0.123269 0.038283
vt 0.123269 0.034025
vt 0.131215 0.036154
f 919/919/919 920/920/920 921/921/921
v 0.152 0.006536 0.05
v 0.153464 0.008 0.05
v 0.15 0.01 0.05
vn 0 0 1
vn 0 0 1
vn 0 0 1
vt 0.125398 0.041971
vt 0.123269 0.038283
vt 0.131215 0.036154
f 922/922/922 923/923/923 924/924/924
v 0.15 0.006 0.05
v 0.152 0.006536 0.05
v 0.15 0.01 0.05
vn 0 0 1
vn 0 0 1
vn 0 0 1
vt 0.129086 0.044101
vt 0.125398 0.041971
vt 0.131215 0.036154
f 925/925/925 926/926/926 927/927/927
v 0.148 0.006536 0.05
v 0.15 0.006 0.05
v 0.15 0.01 0.05
vn 0 0 1
vn 0 0 1
vn 0 0 1
vt 0.133345 0.044101
vt 0.129086 0.044101
vt 0.131215 0.036154
f 928/928/928 929/929/929 930/930/930
v 0.146536 0.008 0.05
v 0.148 0.006536 0.05
v 0.15 0.01 0.05
vn 0 0 1
vn 0 0 1
vn 0 0 1
vt 0.137033 0.041971
vt 0.133345 0.044101
vt 0.131215 0.036154
f 931/931/931 932/932/932 933/933/933
v 0.146 0.01 0.05
v 0.146536 0.008 0.05
v 0.15 0.01 0.05
vn 0 0 1
vn 0 0 1
vn 0 0 1
vt 0.139162 0.038283
vt 0.137033 0.041971
vt 0.131215 0.036154
f 934/934/934 935/935/935 936/936/936
v 0.146536 0.012 0.05
v 0.146 0.01 0.05
v 0.15 0.01 0.05
vn 0 -0 1
vn 0 -0 1
vn 0 -0 1
vt 0.139162 0.034025
vt 0.139162 0.038283
vt 0.131215 0.036154
f 937/937/937 938/938/938 939/939/939
v 0.148 0.013464 0.05
v 0.146536 0.012 0.05
v 0.15 0.01 0.05
vn 0 -0 1
vn 0 -0 1
vn 0 -0 1
vt 0.137033 0.030337
vt 0.139162 0.034025
vt 0.131215 0.036154
f 940/940/940 941/941/941 942/942/942
v 0.15 0.014 0.05
v 0.148 0.013464 0.05
v 0.15 0.01 0.05
vn 0 -0 1
vn 0 -0 1
vn 0 -0 1
vt 0.133345 0.028207
vt 0.137033 0.030337
vt 0.131215 0.036154
f 943/943/943 944/944/944 945/945/945
v 0.148 0.013464 0.04
v 0.15 0.014 0.04
v 0.15 0.01 0.04
vn -0 0 -1
vn -0 0 -1
vn -0 0 -1
vt 0.121529 0.129161
vt 0.121529 0.133419
vt 0.113583 0.13129
f 946/946/946 947/947/947 948/948/948
v 0.146536 0.012 0.04
v 0.148 0.013464 0.04
v 0.15 0.01 0.04
vn -0 0 -1
vn -0 0 -1
vn -0 0 -1
vt 0.1194 0.125473
vt 0.121529 0.129161
vt 0.113583 0.13129
f 949/949/949 950/950/950 951/951/951
v 0.146 0.01 0.04
v 0.146536 0.012 0.04
v 0.15 0.01 0.04
vn -0 0 -1
vn -0 0 -1
vn -0 0 -1
vt 0.115712 0.123343
vt 0.1194 0.125473
vt 0.113583 0.13129
f 952/952/952 953/953/953 954/954/954
v 0.146536 0.008 0.04
v 0.146 0.01 0.04
v 0.15 0.01 0.04
vn -0 -0 -1
vn -0 -0 -1
vn -0 -0 -1
vt 0.111453 0.123343
vt 0.115712 0.123343
vt 0.113583 0.13129
f 955/955/955 956/956/956 957/957/957
v 0.148 0.006536 0.04
v 0.146536 0.008 0.04
v 0.15 0.01 0.04
vn 0 -0 -1
vn 0 -0 -1
vn 0 -0 -1
vt 0.107765 0.125473
vt 0.111453 0.123343
vt 0.113583 0.13129
f 958/958/958 959/959/959 960/960/960
v 0.15 0.006 0.04
v 0.148 0.006536 0.04
v 0.15 0.01 0.04
vn 0 -0 -1
vn 0 -0 -1
vn 0 -0 -1
vt 0.105636 0.129161
vt 0.107765 0.125473
vt 0.113583 0.13129
f 961/961/961 962/962/962 963/963/963
v 0.152 0.006536 0.04
v 0.15 0.006 0.04
v 0.15 0.01 0.04
vn 0 0 -1
vn 0 0 -1
vn 0 0 -1
vt 0.105636 0.133419
vt 0.105636 0.129161
vt 0.113583 0.13129
f 964/964/964 965/965/965 966/966/966
v 0.153464 0.008 0.04
v 0.152 0.006536 0.04
v 0.15 0.01 0.04
vn 0 0 -1
vn 0 0 -1
vn 0 0 -1
vt 0.107765 0.137107
vt 0.105636 0.133419
vt 0.113583 0.13129
f 967/967/967 968/968/968 969/969/969
v 0.154 0.01 0.04
v 0.153464 0.008 0.04
v 0.15 0.01 0.04
vn 0 0 -1
vn 0 0 -1
vn 0 0 -1
vt 0.111453 0.139237
vt 0.107765 0.137107
vt 0.113583 0.13129
f 970/970/970 971/971/971 972/972/972
v 0.153464 0.012 0.04
v 0.154 0.01 0.04
v 0.15 0.01 0.04
vn 0 0 -1
vn 0 0 -1
vn 0 0 -1
vt 0.115712 0.139237
vt 0.111453 0.139237
vt 0.113583 0.13129
f 973/973/973 974/974/974 975/975/975
v 0.152 0.013464 0.04
v 0.153464 0.012 0.04
v 0.15 0.01 0.04
vn 0 0 -1
vn 0 0 -1
vn 0 0 -1
vt 0.1194 0.137107
vt 0.115712 0.139237
vt 0.113583 0.13129
f 976/976/976 977/977/977 978/978/978
v 0.15 0.014 0.04
v 0.152 0.013464 0.04
v 0.15 0.01 0.04
vn 0 0 -1
vn 0 0 -1
vn 0 0 -1
vt 0.121529 0.133419
vt 0.1194 0.137107
vt 0.113583 0.13129
f 979/979/979 980/980/980 981/981/981
v -0.21 0.04 -0
v 0.21 0.04 -0
v 0.21 -0.04 0
vn -0 0 -1
vn -0 0 -1
vn -0 0 -1
vt 0.199596 0.080442
vt 0.880119 0.119408
vt 0.863774 0.272376
f 982/982/982 983/983/983 984/984/984
v 0.21 0.04 -0
v 0.21 0.04 0.04
v 0.21 -0.04 0.04
vn 1 -0 0
vn 1 -0 0
vn 1 -0 0
vt 0.688804 0.068706
vt 0.727017 0.035398
vt 0.732646 0.153702
f 985/985/985 986/986/986 987/987/987
v -0.21 -0.04 0
v -0.21 -0.04 0.04
v -0.21 0.04 0.04
vn -1 -0 -0
vn -1 -0 -0
vn -1 -0 -0
vt 0.398651 0.11623
vt 0.366422 0.089495
vt 0.419892 0.025038
f 988/988/988 989/989/989 990/990/990
v -0.21 0.04 -0
v -0.21 0.04 0.04
v 0.21 0.04 0.04
vn 0 1 0
vn 0 1 0
vn 0 1 0
vt 0.439471 0.05443
vt 0.419892 0.025038
vt 0.727017 0.035398
f 991/991/991 992/992/992 993/993/993
v 0.21 -0.04 0
v 0.21 -0.04 0.04
v -0.21 -0.04 0.04
vn 0 -1 0
vn 0 -1 0
vn 0 -1 0
vt 0.682815 0.124751
vt 0.732646 0.153702
vt 0.397696 0.153702
f 994/994/994 995/995/995 996/996/996
v 0.21 -0.03866 0.045
v -0.21 -0.03866 0.045
v -0.21 -0.04 0.04
vn 0 -0.965914 0.258864
vn 0 -0.965914 0.258864
vn 0 -0.965914 0.258864
vt 0.664104 0.1999
vt 0.374437 0.161048
vt 0.366422 0.153862
f 997/997/997 998/998/998 999/999/999
v -0.21 -0.035 0.04866
v -0.21 -0.03866 0.045
v 0.21 -0.03866 0.045
vn 0 -0.707106 0.707107
vn 0 -0.707106 0.707107
vn 0 -0.707106 0.707107
vt 0.377229 0.166991
vt 0.374437 0.161048
vt 0.664104 0.1999
f 1000/1000/1000 1001/1001/1001 1002/1002/1002
v -0.21 -0.03 0.05
v -0.21 -0.035 0.04866
v 0.21 -0.035 0.04866
vn 0 -0.258865 0.965913
vn 0 -0.258865 0.965913
vn 0 -0.258865 0.965913
vt 0.376743 0.172681
vt 0.377229 0.166991
vt 0.661715 0.205253
f 1003/1003/1003 1004/1004/1004 1005/1005/1005
v 0.21 0.04 0.04
v -0.21 0.04 0.04
v -0.21 0.03866 0.045
vn -0 0.965914 0.258864
vn -0 0.965914 0.258864
vn -0 0.965914 0.258864
vt 0.663426 0.25032
vt 0.366422 0.254239
vt 0.371803 0.248746
f 1006/1006/1006 1007/1007/1007 1008/1008/1008
v 0.21 0.03866 0.045
v -0.21 0.03866 0.045
v -0.21 0.035 0.04866
vn -0 0.707106 0.707107
vn -0 0.707106 0.707107
vn -0 0.707106 0.707107
vt 0.660556 0.245292
vt 0.371803 0.248746
vt 0.375603 0.243098
f 1009/1009/1009 1010/1010/1010 1011/1011/1011
v -0.21 0.03 0.05
v 0.21 0.03 0.05
v 0.21 0.035 0.04866
vn 0 0.258865 0.965913
vn 0 0.258865 0.965913
vn 0 0.258865 0.965913
vt 0.377175 0.23765
vt 0.658563 0.236298
vt 0.658835 0.240514
f 1012/1012/1012 1013/1013/1013 1014/1014/1014
v 0.21 0.03 0.05
v 0.21 0.03866 0.045
v 0.21 0.035 0.04866
vn 1 0 0
vn 1 0 0
vn 1 0 0
vt 0.658563 0.236298
vt 0.660556 0.245292
vt 0.658835 0.240514
f 1015/1015/1015 1016/1016/1016 1017/1017/1017
v 0.21 0.04 0.04
v 0.21 0.03866 0.045
v 0.21 0.03 0.05
vn 1 0 0
vn 1 0 0
vn 1 0 0
vt 0.663426 0.25032
vt 0.660556 0.245292
vt 0.658563 0.236298
f 1018/1018/1018 1019/1019/1019 1020/1020/1020
v 0.21 -0.035 0.04866
v 0.21 -0.04 0.04
v 0.21 -0.03 0.05
vn 1 0 -0
vn 1 0 -0
vn 1 0 -0
vt 0.661715 0.205253
vt 0.670405 0.195288
vt 0.661718 0.210684
f 1021/1021/1021 1022/1022/1022 1023/1023/1023
v 0.21 -0.04 0.04
v 0.21 0.04 0.04
v 0.21 -0.03 0.05
vn 1 0 0
vn 1 0 0
vn 1 0 0
vt 0.670405 0.195288
vt 0.663426 0.25032
vt 0.661718 0.210684
f 1024/1024/1024 1025/1025/1025 1026/1026/1026
v 0.21 0.04 0.04
v 0.21 0.03 0.05
v 0.21 -0.03 0.05
vn 1 -0 0
vn 1 -0 0
vn 1 -0 0
vt 0.663426 0.25032
vt 0.658563 0.236298
vt 0.661718 0.210684
f 1027/1027/1027 1028/1028/1028 1029/1029/1029
v -0.21 0.035 0.04866
v -0.21 0.03866 0.045
v -0.21 0.03 0.05
vn -1 0 0
vn -1 0 0
vn -1 0 0
vt 0.375603 0.243098
vt 0.371803 0.248746
vt 0.377175 0.23765
f 1030/1030/1030 1031/1031/1031 1032/1032/1032
v -0.21 0.03866 0.045
v -0.21 0.04 0.04
v -0.21 0.03 0.05
vn -1 0 0
vn -1 0 0
vn -1 0 0
vt 0.371803 0.248746
vt 0.366422 0.254239
vt 0.377175 0.23765
f 1033/1033/1033 1034/1034/1034 1035/1035/1035
v -0.21 -0.04 0.04
v -0.21 -0.03866 0.045
v -0.21 -0.03 0.05
vn -1 0 0
vn -1 0 0
vn -1 0 0
vt 0.366422 0.153862
vt 0.374437 0.161048
vt 0.376743 0.172681
f 1036/1036/1036 1037/1037/1037 1038/1038/1038
v -0.21 0.04 0.04
v -0.21 -0.04 0.04
v -0.21 0.03 0.05
vn -1 0 -0
vn -1 0 -0
vn -1 0 -0
vt 0.366422 0.254239
vt 0.366422 0.153862
vt 0.377175 0.23765
f 1039/1039/1039 1040/1040/1040 1041/1041/1041
v -0.21 -0.04 0.04
v -0.21 -0.03 0.05
v -0.21 0.03 0.05
vn -1 -0 0
vn -1 -0 0
vn -1 -0 0
vt 0.366422 0.153862
vt 0.376743 0.172681
vt 0.377175 0.23765
f 1042/1042/1042 1043/1043/1043 1044/1044/1044
v 0.05 0.02 0.05
v 0.05 0.02 0.04
v 0.06 0.017321 0.04
vn -0.258775 -0.965938 0
vn -0.258775 -0.965938 0
vn -0.258775 -0.965938 0
vt 0.393152 0.657422
vt 0.372695 0.658361
vt 0.368463 0.643284
f 1045/1045/1045 1046/1046/1046 1047/1047/1047
v 0.06 0.017321 0.05
v 0.06 0.017321 0.04
v 0.067321 0.01 0.04
vn -0.707107 -0.707107 0
vn -0.707107 -0.707107 0
vn -0.707107 -0.707107 0
vt 0.386445 0.631924
vt 0.368463 0.643284
vt 0.356972 0.632028
f 1048/1048/1048 1049/1049/1049 1050/1050/1050
v 0.067321 0.01 0.05
v 0.067321 0.01 0.04
v 0.07 -0 0.04
vn -0.965938 -0.258775 0
vn -0.965938 -0.258775 0
vn -0.965938 -0.258775 0
vt 0.367503 0.613174
vt 0.356972 0.632028
vt 0.34209 0.626991
f 1051/1051/1051 1052/1052/1052 1053/1053/1053
v 0.07 -0 0.05
v 0.07 -0 0.04
v 0.067321 -0.01 0.04
vn -0.965938 0.258775 0
vn -0.965938 0.258775 0
vn -0.965938 0.258775 0
vt 0.341935 0.606473
vt 0.34209 0.626991
vt 0.327318 0.63023
f 1054/1054/1054 1055/1055/1055 1056/1056/1056
v 0.067321 -0.01 0.05
v 0.067321 -0.01 0.04
v 0.06 -0.017321 0.04
vn -0.707107 0.707107 0
vn -0.707107 0.707107 0
vn -0.707107 0.707107 0
vt 0.316603 0.612665
vt 0.327318 0.63023
vt 0.316621 0.640795
f 1057/1057/1057 1058/1058/1058 1059/1059/1059
v 0.06 -0.017321 0.05
v 0.06 -0.017321 0.04
v 0.05 -0.02 0.04
vn -0.258775 0.965938 0
vn -0.258775 0.965938 0
vn -0.258775 0.965938 0
vt 0.298324 0.631063
vt 0.316621 0.640795
vt 0.31266 0.655682
f 1060/1060/1060 1061/1061/1061 1062/1062/1062
v 0.05 -0.02 0.05
v 0.05 -0.02 0.04
v 0.04 -0.017321 0.04
vn 0.258775 0.965938 -0
vn 0.258775 0.965938 -0
vn 0.258775 0.965938 -0
vt 0.292074 0.656463
vt 0.31266 0.655682
vt 0.316663 0.670852
f 1063/1063/1063 1064/1064/1064 1065/1065/1065
v 0.04 -0.017321 0.05
v 0.04 -0.017321 0.04
v 0.032679 -0.01 0.04
vn 0.707107 0.707107 -0
vn 0.707107 0.707107 -0
vn 0.707107 0.707107 -0
vt 0.298682 0.682055
vt 0.316663 0.670852
vt 0.327729 0.682087
f 1066/1066/1066 1067/1067/1067 1068/1068/1068
v 0.032679 -0.01 0.05
v 0.032679 -0.01 0.04
v 0.03 0 0.04
vn 0.965938 0.258775 -0
vn 0.965938 0.258775 -0
vn 0.965938 0.258775 -0
vt 0.317563 0.700767
vt 0.327729 0.682087
vt 0.343002 0.686422
f 1069/1069/1069 1070/1070/1070 1071/1071/1071
v 0.03 0 0.05
v 0.03 0 0.04
v 0.032679 0.01 0.04
vn 0.965938 -0.258775 0
vn 0.965938 -0.258775 0
vn 0.965938 -0.258775 0
vt 0.343253 0.707284
vt 0.343002 0.686422
vt 0.358075 0.683239
f 1072/1072/1072 1073/1073/1073 1074/1074/1074
v 0.032679 0.01 0.05
v 0.032679 0.01 0.04
v 0.04 0.017321 0.04
vn 0.707107 -0.707107 0
vn 0.707107 -0.707107 0
vn 0.707107 -0.707107 0
vt 0.368725 0.70099
vt 0.358075 0.683239
vt 0.36895 0.672974
f 1075/1075/1075 1076/1076/1076 1077/1077/1077
v 0.04 0.017321 0.05
v 0.04 0.017321 0.04
v 0.05 0.02 0.04
vn 0.258775 -0.965938 0
vn 0.258775 -0.965938 0
vn 0.258775 -0.965938 0
vt 0.387037 0.682662
vt 0.36895 0.672974
vt 0.372695 0.658361
f 1078/1078/1078 1079/1079/1079 1080/1080/1080
v 0.1 0.02 0.05
v 0.1 0.02 0.04
v 0.11 0.017321 0.04
vn -0.258775 -0.965938 0
vn -0.258775 -0.965938 0
vn -0.258775 -0.965938 0
vt 0.59596 0.606482
vt 0.596658 0.627281
vt 0.581307 0.631206
f 1081/1081/1081 1082/1082/1082 1083/1083/1083
v 0.11 0.017321 0.05
v 0.11 0.017321 0.04
v 0.117321 0.01 0.04
vn -0.707107 -0.707107 0
vn -0.707107 -0.707107 0
vn -0.707107 -0.707107 0
vt 0.570217 0.613055
vt 0.581307 0.631206
vt 0.569908 0.642184
f 1084/1084/1084 1085/1085/1085 1086/1086/1086
v 0.117321 0.01 0.05
v 0.117321 0.01 0.04
v 0.12 -0 0.04
vn -0.965938 -0.258775 0
vn -0.965938 -0.258775 0
vn -0.965938 -0.258775 0
vt 0.551405 0.631764
vt 0.569908 0.642184
vt 0.565174 0.656809
f 1087/1087/1087 1088/1088/1088 1089/1089/1089
v 0.12 -0 0.05
v 0.12 -0 0.04
v 0.117321 -0.01 0.04
vn -0.965938 0.258775 0
vn -0.965938 0.258775 0
vn -0.965938 0.258775 0
vt 0.544865 0.657132
vt 0.565174 0.656809
vt 0.568627 0.671418
f 1090/1090/1090 1091/1091/1091 1092/1092/1092
v 0.117321 -0.01 0.05
v 0.117321 -0.01 0.04
v 0.11 -0.017321 0.04
vn -0.707107 0.707107 0
vn -0.707107 0.707107 0
vn -0.707107 0.707107 0
vt 0.551189 0.682287
vt 0.568627 0.671418
vt 0.579385 0.681957
f 1093/1093/1093 1094/1094/1094 1095/1095/1095
v 0.11 -0.017321 0.05
v 0.11 -0.017321 0.04
v 0.1 -0.02 0.04
vn -0.258775 0.965938 0
vn -0.258775 0.965938 0
vn -0.258775 0.965938 0
vt 0.569773 0.70042
vt 0.579385 0.681957
vt 0.594549 0.685757
f 1096/1096/1096 1097/1097/1097 1098/1098/1098
v 0.1 -0.02 0.05
v 0.1 -0.02 0.04
v 0.09 -0.017321 0.04
vn 0.258775 0.965938 -0
vn 0.258775 0.965938 -0
vn 0.258775 0.965938 -0
vt 0.595367 0.70664
vt 0.594549 0.685757
vt 0.61017 0.68148
f 1099/1099/1099 1100/1100/1100 1101/1101/1101
v 0.09 -0.017321 0.05
v 0.09 -0.017321 0.04
v 0.082679 -0.01 0.04
vn 0.707107 0.707107 -0
vn 0.707107 0.707107 -0
vn 0.707107 0.707107 -0
vt 0.621118 0.700045
vt 0.61017 0.68148
vt 0.621933 0.671358
f 1102/1102/1102 1103/1103/1103 1104/1104/1104
v 0.082679 -0.01 0.05
v 0.082679 -0.01 0.04
v 0.08 0 0.04
vn 0.965938 0.258775 -0
vn 0.965938 0.258775 -0
vn 0.965938 0.258775 -0
vt 0.640109 0.681639
vt 0.621933 0.671358
vt 0.626369 0.656896
f 1105/1105/1105 1106/1106/1106 1107/1107/1107
v 0.08 0 0.05
v 0.08 0 0.04
v 0.082679 0.01 0.04
vn 0.965938 -0.258775 0
vn 0.965938 -0.258775 0
vn 0.965938 -0.258775 0
vt 0.646605 0.656411
vt 0.626369 0.656896
vt 0.622629 0.64215
f 1108/1108/1108 1109/1109/1109 1110/1110/1110
v 0.082679 0.01 0.05
v 0.082679 0.01 0.04
v 0.09 0.017321 0.04
vn 0.707107 -0.707107 0
vn 0.707107 -0.707107 0
vn 0.707107 -0.707107 0
vt 0.64024 0.631163
vt 0.622629 0.64215
vt 0.611775 0.631297
f 1111/1111/1111 1112/1112/1112 1113/1113/1113
v 0.09 0.017321 0.05
v 0.09 0.017321 0.04
v 0.1 0.02 0.04
vn 0.258775 -0.965938 0
vn 0.258775 -0.965938 0
vn 0.258775 -0.965938 0
vt 0.62159 0.612795
vt 0.611775 0.631297
vt 0.596658 0.627281
f 1114/1114/1114 1115/1115/1115 1116/1116/1116
v 0.15 0.02 0.05
v 0.15 0.02 0.04
v 0.16 0.017321 0.04
vn -0.258775 -0.965938 0
vn -0.258775 -0.965938 0
vn -0.258775 -0.965938 0
vt 0.519579 0.656895
vt 0.498809 0.657318
vt 0.495247 0.642114
f 1117/1117/1117 1118/1118/1118 1119/1119/1119
v 0.16 0.017321 0.05
v 0.16 0.017321 0.04
v 0.167321 0.01 0.04
vn -0.707107 -0.707107 0
vn -0.707107 -0.707107 0
vn -0.707107 -0.707107 0
vt 0.513188 0.631297
vt 0.495247 0.642114
vt 0.484749 0.630962
f 1120/1120/1120 1121/1121/1121 1122/1122/1122
v 0.167321 0.01 0.05
v 0.167321 0.01 0.04
v 0.17 -0 0.04
vn -0.965938 -0.258775 0
vn -0.965938 -0.258775 0
vn -0.965938 -0.258775 0
vt 0.494723 0.61276
vt 0.484749 0.630962
vt 0.470161 0.626772
f 1123/1123/1123 1124/1124/1124 1125/1125/1125
v 0.17 -0 0.05
v 0.17 -0 0.04
v 0.16732 -0.01 0.04
vn -0.965913 0.258865 0
vn -0.965913 0.258865 0
vn -0.965913 0.258865 0
vt 0.469435 0.606516
vt 0.470161 0.626772
vt 0.455456 0.630788
f 1126/1126/1126 1127/1127/1127 1128/1128/1128
v 0.16732 -0.01 0.05
v 0.16732 -0.01 0.04
v 0.16 -0.017321 0.04
vn -0.707155 0.707059 0
vn -0.707155 0.707059 0
vn -0.707155 0.707059 0
vt 0.444152 0.613141
vt 0.455456 0.630788
vt 0.444824 0.642398
f 1129/1129/1129 1130/1130/1130 1131/1131/1131
v 0.16 -0.017321 0.05
v 0.16 -0.017321 0.04
v 0.15 -0.02 0.04
vn -0.258775 0.965938 0
vn -0.258775 0.965938 0
vn -0.258775 0.965938 0
vt 0.425766 0.632122
vt 0.444824 0.642398
vt 0.439871 0.657664
f 1132/1132/1132 1133/1133/1133 1134/1134/1134
v 0.15 -0.02 0.05
v 0.15 -0.02 0.04
v 0.14 -0.017321 0.04
vn 0.258775 0.965938 -0
vn 0.258775 0.965938 -0
vn 0.258775 0.965938 -0
vt 0.419112 0.657828
vt 0.439871 0.657664
vt 0.44305 0.672703
f 1135/1135/1135 1136/1136/1136 1137/1137/1137
v 0.14 -0.017321 0.05
v 0.14 -0.017321 0.04
v 0.132679 -0.01 0.04
vn 0.707107 0.707107 -0
vn 0.707107 0.707107 -0
vn 0.707107 0.707107 -0
vt 0.425306 0.68331
vt 0.44305 0.672703
vt 0.453335 0.683591
f 1138/1138/1138 1139/1139/1139 1140/1140/1140
v 0.132679 -0.01 0.05
v 0.132679 -0.01 0.04
v 0.13 0 0.04
vn 0.965938 0.258775 -0
vn 0.965938 0.258775 -0
vn 0.965938 0.258775 -0
vt 0.443583 0.701698
vt 0.453335 0.683591
vt 0.468024 0.687351
f 1141/1141/1141 1142/1142/1142 1143/1143/1143
v 0.13 0 0.05
v 0.13 0 0.04
v 0.132679 0.01 0.04
vn 0.965938 -0.258775 0
vn 0.965938 -0.258775 0
vn 0.965938 -0.258775 0
vt 0.468821 0.707938
vt 0.468024 0.687351
vt 0.483216 0.683418
f 1144/1144/1144 1145/1145/1145 1146/1146/1146
v 0.132679 0.01 0.05
v 0.132679 0.01 0.04
v 0.14 0.017321 0.04
vn 0.707107 -0.707107 0
vn 0.707107 -0.707107 0
vn 0.707107 -0.707107 0
vt 0.494377 0.701381
vt 0.483216 0.683418
vt 0.494459 0.672446
f 1147/1147/1147 1148/1148/1148 1149/1149/1149
v 0.14 0.017321 0.05
v 0.14 0.017321 0.04
v 0.15 0.02 0.04
vn 0.258775 -0.965938 0
vn 0.258775 -0.965938 0
vn 0.258775 -0.965938 0
vt 0.513086 0.682579
vt 0.494459 0.672446
vt 0.498809 0.657318
f 1150/1150/1150 1151/1151/1151 1152/1152/1152
v -0.05 0.02 0.05
v -0.05 0.02 0.04
v -0.04 0.017321 0.04
vn -0.258775 -0.965938 0
vn -0.258775 -0.965938 0
vn -0.258775 -0.965938 0
vt 0.53832 0.666494
vt 0.51753 0.667014
vt 0.5138 0.65181
f 1153/1153/1153 1154/1154/1154 1155/1155/1155
v -0.04 0.017321 0.05
v -0.04 0.017321 0.04
v -0.032679 0.01 0.04
vn -0.707107 -0.707107 0
vn -0.707107 -0.707107 0
vn -0.707107 -0.707107 0
vt 0.531863 0.640768
vt 0.5138 0.65181
vt 0.502976 0.640587
f 1156/1156/1156 1157/1157/1157 1158/1158/1158
v -0.032679 0.01 0.05
v -0.032679 0.01 0.04
v -0.03 -0 0.04
vn -0.965938 -0.258775 0
vn -0.965938 -0.258775 0
vn -0.965938 -0.258775 0
vt 0.513117 0.622002
vt 0.502976 0.640587
vt 0.487941 0.636311
f 1159/1159/1159 1160/1160/1160 1161/1161/1161
v -0.03 -0 0.05
v -0.03 -0 0.04
v -0.032679 -0.01 0.04
vn -0.965938 0.258775 0
vn -0.965938 0.258775 0
vn -0.965938 0.258775 0
vt 0.487416 0.615503
vt 0.487941 0.636311
vt 0.47273 0.640046
f 1162/1162/1162 1163/1163/1163 1164/1164/1164
v -0.032679 -0.01 0.05
v -0.032679 -0.01 0.04
v -0.04 -0.017321 0.04
vn -0.707107 0.707107 0
vn -0.707107 0.707107 0
vn -0.707107 0.707107 0
vt 0.461673 0.621975
vt 0.47273 0.640046
vt 0.461506 0.650878
f 1165/1165/1165 1166/1166/1166 1167/1167/1167
v -0.04 -0.017321 0.05
v -0.04 -0.017321 0.04
v -0.05 -0.02 0.04
vn -0.258775 0.965938 0
vn -0.258775 0.965938 0
vn -0.258775 0.965938 0
vt 0.442905 0.64074
vt 0.461506 0.650878
vt 0.457237 0.665919
f 1168/1168/1168 1169/1169/1169 1170/1170/1170
v -0.05 -0.02 0.05
v -0.05 -0.02 0.04
v -0.06 -0.017321 0.04
vn 0.258775 0.965938 -0
vn 0.258775 0.965938 -0
vn 0.258775 0.965938 -0
vt 0.436419 0.666457
vt 0.457237 0.665919
vt 0.460983 0.681129
f 1171/1171/1171 1172/1172/1172 1173/1173/1173
v -0.06 -0.017321 0.05
v -0.06 -0.017321 0.04
v -0.06732 -0.01 0.04
vn 0.707155 0.707058 -0
vn 0.707155 0.707058 -0
vn 0.707155 0.707058 -0
vt 0.442915 0.692204
vt 0.460983 0.681129
vt 0.471823 0.692343
f 1174/1174/1174 1175/1175/1175 1176/1176/1176
v -0.06732 -0.01 0.05
v -0.06732 -0.01 0.04
v -0.07 0 0.04
vn 0.965913 0.258865 -0
vn 0.965913 0.258865 -0
vn 0.965913 0.258865 -0
vt 0.461708 0.710943
vt 0.471823 0.692343
vt 0.486861 0.696599
f 1177/1177/1177 1178/1178/1178 1179/1179/1179
v -0.07 0 0.05
v -0.07 0 0.04
v -0.06732 0.01 0.04
vn 0.965913 -0.258865 0
vn 0.965913 -0.258865 0
vn 0.965913 -0.258865 0
vt 0.48742 0.717369
vt 0.486861 0.696599
vt 0.50205 0.692859
f 1180/1180/1180 1181/1181/1181 1182/1182/1182
v -0.06732 0.01 0.05
v -0.06732 0.01 0.04
v -0.06 0.017321 0.04
vn 0.707155 -0.707058 0
vn 0.707155 -0.707058 0
vn 0.707155 -0.707058 0
vt 0.513092 0.710902
vt 0.50205 0.692859
vt 0.513259 0.682039
f 1183/1183/1183 1184/1184/1184 1185/1185/1185
v -0.06 0.017321 0.05
v -0.06 0.017321 0.04
v -0.05 0.02 0.04
vn 0.258775 -0.965938 0
vn 0.258775 -0.965938 0
vn 0.258775 -0.965938 0
vt 0.531824 0.692168
vt 0.513259 0.682039
vt 0.51753 0.667014
f 1186/1186/1186 1187/1187/1187 1188/1188/1188
v -0.075 0.01 0.05
v -0.075 -0.025 0.05
v -0.07 0 0.05
vn 0 -0 1
vn 0 -0 1
vn 0 -0 1
vt 0.513621 0.729974
vt 0.423844 0.730105
vt 0.48742 0.717369
f 1189/1189/1189 1190/1190/1190 1191/1191/1191
v -0.075 0.01 0.06
v -0.075 0.01 0.05
v -0.175 0.01 0.05
vn 0 1 0
vn 0 1 0
vn 0 1 0
vt 0.48791 0.216
vt 0.495342 0.222234
vt 0.411426 0.218316
f 1192/1192/1192 1193/1193/1193 1194/1194/1194
v -0.175 0.01 0.05
v -0.075 0.01 0.05
v -0.075 0.025 0.05
vn 0 0 1
vn 0 0 1
vn 0 0 1
vt 0.411426 0.218316
vt 0.495342 0.222234
vt 0.495352 0.232304
f 1195/1195/1195 1196/1196/1196 1197/1197/1197
v -0.175 0.01 0.06
v -0.175 -0.025 0.05
v -0.075 -0.025 0.05
vn 0 -0.274721 0.961524
vn 0 -0.274721 0.961524
vn 0 -0.274721 0.961524
vt 0.994328 0.221971
vt 0.994328 0.411477
vt 0.118101 0.411476
f 1198/1198/1198 1199/1199/1199 1200/1200/1200
v -0.21 0.03 0.05
v -0.21 -0.03 0.05
v -0.175 0.025 0.05
vn 0 -0 1
vn 0 -0 1
vn 0 -0 1
vt 0.377175 0.23765
vt 0.376743 0.172681
vt 0.410373 0.232892
f 1201/1201/1201 1202/1202/1202 1203/1203/1203
v -0.21 -0.03 0.05
v -0.175 0.01 0.05
v -0.175 0.025 0.05
vn 0 0 1
vn 0 0 1
vn 0 0 1
vt 0.376743 0.172681
vt 0.411426 0.218316
vt 0.410373 0.232892
f 1204/1204/1204 1205/1205/1205 1206/1206/1206
v -0.025 0.025 0.05
v -0.025 -0.025 0.05
v 0.025 -0.025 0.05
vn 0 -0 1
vn 0 -0 1
vn 0 -0 1
vt 0.541516 0.232449
vt 0.544245 0.19925
vt 0.581322 0.203822
f 1207/1207/1207 1208/1208/1208 1209/1209/1209
v 0.175 0.025 0.05
v 0.175 -0.025 0.05
v 0.21 -0.03 0.05
vn 0 -0 1
vn 0 -0 1
vn 0 -0 1
vt 0.645619 0.23407
vt 0.647919 0.211207
vt 0.661718 0.210684
f 1210/1210/1210 1211/1211/1211 1212/1212/1212
v 0.21 -0.03 0.05
v 0.175 -0.025 0.05
v 0.125 -0.025 0.05
vn -0 0 1
vn -0 0 1
vn -0 0 1
vt 0.661718 0.210684
vt 0.647919 0.211207
vt 0.628477 0.20912
f 1213/1213/1213 1214/1214/1214 1215/1215/1215
v -0.175 -0.025 0.05
v 0.21 -0.03 0.05
v -0.075 -0.025 0.05
vn 0 0 1
vn 0 0 1
vn 0 0 1
vt 0.407698 0.181313
vt 0.661718 0.210684
vt 0.496081 0.193335
f 1216/1216/1216 1217/1217/1217 1218/1218/1218
v 0.21 -0.03 0.05
v 0.125 -0.025 0.05
v 0.075 -0.025 0.05
vn -0 0 1
vn -0 0 1
vn -0 0 1
vt 0.661718 0.210684
vt 0.628477 0.20912
vt 0.60828 0.206954
f 1219/1219/1219 1220/1220/1220 1221/1221/1221
v -0.075 -0.025 0.05
v 0.21 -0.03 0.05
v -0.025 -0.025 0.05
vn 0 0 1
vn 0 0 1
vn 0 0 1
vt 0.496081 0.193335
vt 0.661718 0.210684
vt 0.544245 0.19925
f 1222/1222/1222 1223/1223/1223 1224/1224/1224
v 0.21 -0.03 0.05
v 0.075 -0.025 0.05
v 0.025 -0.025 0.05
vn -0 0 1
vn -0 0 1
vn -0 0 1
vt 0.661718 0.210684
vt 0.60828 0.206954
vt 0.581322 0.203822
f 1225/1225/1225 1226/1226/1226 1227/1227/1227
v -0.025 -0.025 0.05
v 0.21 -0.03 0.05
v 0.025 -0.025 0.05
vn 0 0 1
vn 0 0 1
vn 0 0 1
vt 0.544245 0.19925
vt 0.661718 0.210684
vt 0.581322 0.203822
f 1228/1228/1228 1229/1229/1229 1230/1230/1230
v -0.175 0.025 0.05
v -0.075 0.025 0.05
v 0.21 0.03 0.05
vn 0 0 1
vn 0 0 1
vn 0 0 1
vt 0.154852 0.46351
vt 0.386791 0.461905
vt 0.832255 0.472807
f 1231/1231/1231 1232/1232/1232 1233/1233/1233
v -0.075 0.025 0.05
v -0.025 0.025 0.05
v 0.21 0.03 0.05
vn 0 0 1
vn 0 0 1
vn 0 0 1
vt 0.386791 0.461905
vt 0.512789 0.462302
vt 0.832255 0.472807
f 1234/1234/1234 1235/1235/1235 1236/1236/1236
v -0.025 0.025 0.05
v 0.025 0.025 0.05
v 0.21 0.03 0.05
vn 0 0 1
vn 0 0 1
vn 0 0 1
vt 0.512789 0.462302
vt 0.615403 0.463046
vt 0.832255 0.472807
f 1237/1237/1237 1238/1238/1238 1239/1239/1239
v 0.025 0.025 0.05
v 0.075 0.025 0.05
v 0.21 0.03 0.05
vn 0 0 1
vn 0 0 1
vn 0 0 1
vt 0.615403 0.463046
vt 0.689306 0.464126
vt 0.832255 0.472807
f 1240/1240/1240 1241/1241/1241 1242/1242/1242
v 0.075 0.025 0.05
v 0.125 0.025 0.05
v 0.21 0.03 0.05
vn 0 0 1
vn 0 0 1
vn 0 0 1
vt 0.689306 0.464126
vt 0.744111 0.465428
vt 0.832255 0.472807
f 1243/1243/1243 1244/1244/1244 1245/1245/1245
v 0.125 0.025 0.05
v 0.175 0.025 0.05
v 0.21 0.03 0.05
vn 0 0 1
vn 0 0 1
vn 0 0 1
vt 0.744111 0.465428
vt 0.796926 0.466724
vt 0.832255 0.472807
f 1246/1246/1246 1247/1247/1247 1248/1248/1248
v -0.05 0.014 0.04
v -0.05 0.014 0.05
v -0.048 0.013464 0.05
vn 0.258865 0.965913 0
vn 0.258865 0.965913 0
vn 0.258865 0.965913 0
vt 0.059055 0.123343
vt 0.059055 0.143911
vt 0.054797 0.143911
f 1249/1249/1249 1250/1250/1250 1251/1251/1251
v -0.048 0.013464 0.04
v -0.048 0.013464 0.05
v -0.046536 0.012 0.05
vn 0.707106 0.707107 0
vn 0.707106 0.707107 0
vn 0.707106 0.707107 0
vt 0.054797 0.123343
vt 0.054797 0.143911
vt 0.050538 0.143911
f 1252/1252/1252 1253/1253/1253 1254/1254/1254
v -0.046536 0.012 0.04
v -0.046536 0.012 0.05
v -0.046 0.01 0.05
vn 0.965914 0.258864 0
vn 0.965914 0.258864 0
vn 0.965914 0.258864 0
vt 0.050538 0.123343
vt 0.050538 0.143911
vt 0.04628 0.143911
f 1255/1255/1255 1256/1256/1256 1257/1257/1257
v -0.046 0.01 0.04
v -0.046 0.01 0.05
v -0.046536 0.008 0.05
vn 0.965914 -0.258864 0
vn 0.965914 -0.258864 0
vn 0.965914 -0.258864 0
vt 0.04628 0.123343
vt 0.04628 0.143911
vt 0.042021 0.143911
f 1258/1258/1258 1259/1259/1259 1260/1260/1260
v -0.046536 0.008 0.04
v -0.046536 0.008 0.05
v -0.048 0.006536 0.05
vn 0.707106 -0.707107 0
vn 0.707106 -0.707107 0
vn 0.707106 -0.707107 0
vt 0.042021 0.123343
vt 0.042021 0.143911
vt 0.037763 0.143911
f 1261/1261/1261 1262/1262/1262 1263/1263/1263
v -0.048 0.006536 0.04
v -0.048 0.006536 0.05
v -0.05 0.006 0.05
vn 0.258865 -0.965914 0
vn 0.258865 -0.965914 0
vn 0.258865 -0.965914 0
vt 0.088866 0.123343
vt 0.088866 0.143911
vt 0.084607 0.143911
f 1264/1264/1264 1265/1265/1265 1266/1266/1266
v -0.05 0.006 0.04
v -0.05 0.006 0.05
v -0.052 0.006536 0.05
vn -0.258865 -0.965914 -0
vn -0.258865 -0.965914 -0
vn -0.258865 -0.965914 -0
vt 0.084607 0.123343
vt 0.084607 0.143911
vt 0.080348 0.143911
f 1267/1267/1267 1268/1268/1268 1269/1269/1269
v -0.052 0.006536 0.04
v -0.052 0.006536 0.05
v -0.053464 0.008 0.05
vn -0.707107 -0.707106 -0
vn -0.707107 -0.707106 -0
vn -0.707107 -0.707106 -0
vt 0.080348 0.123343
vt 0.080348 0.143911
vt 0.07609 0.143911
f 1270/1270/1270 1271/1271/1271 1272/1272/1272
v -0.053464 0.008 0.04
v -0.053464 0.008 0.05
v -0.054 0.01 0.05
vn -0.965913 -0.258866 -0
vn -0.965913 -0.258866 -0
vn -0.965913 -0.258866 -0
vt 0.07609 0.123343
vt 0.07609 0.143911
vt 0.071831 0.143911
f 1273/1273/1273 1274/1274/1274 1275/1275/1275
v -0.054 0.01 0.04
v -0.054 0.01 0.05
v -0.053464 0.012 0.05
vn -0.965913 0.258866 0
vn -0.965913 0.258866 0
vn -0.965913 0.258866 0
vt 0.071831 0.123343
vt 0.071831 0.143911
vt 0.067573 0.143911
f 1276/1276/1276 1277/1277/1277 1278/1278/1278
v -0.053464 0.012 0.04
v -0.053464 0.012 0.05
v -0.052 0.013464 0.05
vn -0.707107 0.707106 0
vn -0.707107 0.707106 0
vn -0.707107 0.707106 0
vt 0.067573 0.123343
vt 0.067573 0.143911
vt 0.063314 0.143911
f 1279/1279/1279 1280/1280/1280 1281/1281/1281
v -0.052 0.013464 0.04
v -0.052 0.013464 0.05
v -0.05 0.014 0.05
vn -0.258865 0.965913 0
vn -0.258865 0.965913 0
vn -0.258865 0.965913 0
vt 0.063314 0.123343
vt 0.063314 0.143911
vt 0.059055 0.143911
f 1282/1282/1282 1283/1283/1283 1284/1284/1284
v 0.05 0.014 0.04
v 0.05 0.014 0.05
v 0.052 0.013464 0.05
vn 0.258865 0.965913 0
vn 0.258865 0.965913 0
vn 0.258865 0.965913 0
vt 0.052638 0.05641
vt 0.073205 0.05641
vt 0.073205 0.060668
f 1285/1285/1285 1286/1286/1286 1287/1287/1287
v 0.052 0.013464 0.04
v 0.052 0.013464 0.05
v 0.053464 0.012 0.05
vn 0.707107 0.707106 0
vn 0.707107 0.707106 0
vn 0.707107 0.707106 0
vt 0.052638 0.060668
vt 0.073205 0.060668
vt 0.073205 0.064927
f 1288/1288/1288 1289/1289/1289 1290/1290/1290
v 0.053464 0.012 0.04
v 0.053464 0.012 0.05
v 0.054 0.01 0.05
vn 0.965913 0.258866 0
vn 0.965913 0.258866 0
vn 0.965913 0.258866 0
vt 0.052638 0.064927
vt 0.073205 0.064927
vt 0.073205 0.069185
f 1291/1291/1291 1292/1292/1292 1293/1293/1293
v 0.054 0.01 0.04
v 0.054 0.01 0.05
v 0.053464 0.008 0.05
vn 0.965913 -0.258866 0
vn 0.965913 -0.258866 0
vn 0.965913 -0.258866 0
vt 0.052638 0.069185
vt 0.073205 0.069185
vt 0.073205 0.073444
f 1294/1294/1294 1295/1295/1295 1296/1296/1296
v 0.053464 0.008 0.04
v 0.053464 0.008 0.05
v 0.052 0.006536 0.05
vn 0.707107 -0.707106 0
vn 0.707107 -0.707106 0
vn 0.707107 -0.707106 0
vt 0.052638 0.073444
vt 0.073205 0.073444
vt 0.073205 0.077703
f 1297/1297/1297 1298/1298/1298 1299/1299/1299
v 0.052 0.006536 0.04
v 0.052 0.006536 0.05
v 0.05 0.006 0.05
vn 0.258865 -0.965914 0
vn 0.258865 -0.965914 0
vn 0.258865 -0.965914 0
vt 0.052637 0.0266
vt 0.073205 0.0266
vt 0.073205 0.030858
f 1300/1300/1300 1301/1301/1301 1302/1302/1302
v 0.05 0.006 0.04
v 0.05 0.006 0.05
v 0.048 0.006536 0.05
vn -0.258865 -0.965914 -0
vn -0.258865 -0.965914 -0
vn -0.258865 -0.965914 -0
vt 0.052637 0.030858
vt 0.073205 0.030858
vt 0.073205 0.035117
f 1303/1303/1303 1304/1304/1304 1305/1305/1305
v 0.048 0.006536 0.04
v 0.048 0.006536 0.05
v 0.046536 0.008 0.05
vn -0.707106 -0.707107 -0
vn -0.707106 -0.707107 -0
vn -0.707106 -0.707107 -0
vt 0.052637 0.035117
vt 0.073205 0.035117
vt 0.073205 0.039375
f 1306/1306/1306 1307/1307/1307 1308/1308/1308
v 0.046536 0.008 0.04
v 0.046536 0.008 0.05
v 0.046 0.01 0.05
vn -0.965914 -0.258864 -0
vn -0.965914 -0.258864 -0
vn -0.965914 -0.258864 -0
vt 0.052637 0.039375
vt 0.073205 0.039375
vt 0.073205 0.043634
f 1309/1309/1309 1310/1310/1310 1311/1311/1311
v 0.046 0.01 0.04
v 0.046 0.01 0.05
v 0.046536 0.012 0.05
vn -0.965914 0.258864 0
vn -0.965914 0.258864 0
vn -0.965914 0.258864 0
vt 0.052638 0.043634
vt 0.073205 0.043634
vt 0.073205 0.047893
f 1312/1312/1312 1313/1313/1313 1314/1314/1314
v 0.046536 0.012 0.04
v 0.046536 0.012 0.05
v 0.048 0.013464 0.05
vn -0.707106 0.707107 0
vn -0.707106 0.707107 0
vn -0.707106 0.707107 0
vt 0.052638 0.047893
vt 0.073205 0.047893
vt 0.073205 0.052151
f 1315/1315/1315 1316/1316/1316 1317/1317/1317
v 0.048 0.013464 0.04
v 0.048 0.013464 0.05
v 0.05 0.014 0.05
vn -0.258865 0.965913 0
vn -0.258865 0.965913 0
vn -0.258865 0.965913 0
vt 0.052638 0.052151
vt 0.073205 0.052151
vt 0.073205 0.05641
f 1318/1318/1318 1319/1319/1319 1320/1320/1320
v 0.1 0.014 0.04
v 0.1 0.014 0.05
v 0.102 0.013464 0.05
vn 0.258865 0.965913 0
vn 0.258865 0.965913 0
vn 0.258865 0.965913 0
vt 0.085931 0.047893
vt 0.106498 0.047893
vt 0.106498 0.052151
f 1321/1321/1321 1322/1322/1322 1323/1323/1323
v 0.102 0.013464 0.04
v 0.102 0.013464 0.05
v 0.103464 0.012 0.05
vn 0.707106 0.707107 0
vn 0.707106 0.707107 0
vn 0.707106 0.707107 0
vt 0.085931 0.052151
vt 0.106498 0.052151
vt 0.106498 0.05641
f 1324/1324/1324 1325/1325/1325 1326/1326/1326
v 0.103464 0.012 0.04
v 0.103464 0.012 0.05
v 0.104 0.01 0.05
vn 0.965913 0.258866 0
vn 0.965913 0.258866 0
vn 0.965913 0.258866 0
vt 0.085931 0.05641
vt 0.106498 0.05641
vt 0.106498 0.060668
f 1327/1327/1327 1328/1328/1328 1329/1329/1329
v 0.104 0.01 0.04
v 0.104 0.01 0.05
v 0.103464 0.008 0.05
vn 0.965913 -0.258866 0
vn 0.965913 -0.258866 0
vn 0.965913 -0.258866 0
vt 0.085931 0.060668
vt 0.106498 0.060668
vt 0.106498 0.064927
f 1330/1330/1330 1331/1331/1331 1332/1332/1332
v 0.103464 0.008 0.04
v 0.103464 0.008 0.05
v 0.102 0.006536 0.05
vn 0.707106 -0.707107 0
vn 0.707106 -0.707107 0
vn 0.707106 -0.707107 0
vt 0.085931 0.064927
vt 0.106498 0.064927
vt 0.106498 0.069185
f 1333/1333/1333 1334/1334/1334 1335/1335/1335
v 0.102 0.006536 0.04
v 0.102 0.006536 0.05
v 0.1 0.006 0.05
vn 0.258865 -0.965913 0
vn 0.258865 -0.965913 0
vn 0.258865 -0.965913 0
vt 0.085931 0.069185
vt 0.106498 0.069185
vt 0.106498 0.073444
f 1336/1336/1336 1337/1337/1337 1338/1338/1338
v 0.1 0.006 0.04
v 0.1 0.006 0.05
v 0.098 0.006536 0.05
vn -0.258864 -0.965914 -0
vn -0.258864 -0.965914 -0
vn -0.258864 -0.965914 -0
vt 0.085931 0.073444
vt 0.106498 0.073444
vt 0.106498 0.077703
f 1339/1339/1339 1340/1340/1340 1341/1341/1341
v 0.098 0.006536 0.04
v 0.098 0.006536 0.05
v 0.096536 0.008 0.05
vn -0.707108 -0.707105 -0
vn -0.707108 -0.707105 -0
vn -0.707108 -0.707105 -0
vt 0.085931 0.0266
vt 0.106498 0.0266
vt 0.106498 0.030858
f 1342/1342/1342 1343/1343/1343 1344/1344/1344
v 0.096536 0.008 0.04
v 0.096536 0.008 0.05
v 0.096 0.01 0.05
vn -0.965913 -0.258866 -0
vn -0.965913 -0.258866 -0
vn -0.965913 -0.258866 -0
vt 0.085931 0.030858
vt 0.106498 0.030858
vt 0.106498 0.035117
f 1345/1345/1345 1346/1346/1346 1347/1347/1347
v 0.096 0.01 0.04
v 0.096 0.01 0.05
v 0.096536 0.012 0.05
vn -0.965913 0.258866 0
vn -0.965913 0.258866 0
vn -0.965913 0.258866 0
vt 0.085931 0.035117
vt 0.106498 0.035117
vt 0.106498 0.039375
f 1348/1348/1348 1349/1349/1349 1350/1350/1350
v 0.096536 0.012 0.04
v 0.096536 0.012 0.05
v 0.098 0.013464 0.05
vn -0.707108 0.707105 0
vn -0.707108 0.707105 0
vn -0.707108 0.707105 0
vt 0.085931 0.039375
vt 0.106498 0.039375
vt 0.106498 0.043634
f 1351/1351/1351 1352/1352/1352 1353/1353/1353
v 0.098 0.013464 0.04
v 0.098 0.013464 0.05
v 0.1 0.014 0.05
vn -0.258865 0.965914 0
vn -0.258865 0.965914 0
vn -0.258865 0.965914 0
vt 0.085931 0.043634
vt 0.106498 0.043634
vt 0.106498 0.047893
f 1354/1354/1354 1355/1355/1355 1356/1356/1356
v 0.15 0.014 0.04
v 0.15 0.014 0.05
v 0.152 0.013464 0.05
vn 0.258866 0.965913 0
vn 0.258866 0.965913 0
vn 0.258866 0.965913 0
vt 0.031631 0.052151
vt 0.052199 0.052151
vt 0.052199 0.05641
f 1357/1357/1357 1358/1358/1358 1359/1359/1359
v 0.152 0.013464 0.04
v 0.152 0.013464 0.05
v 0.153464 0.012 0.05
vn 0.707105 0.707109 0
vn 0.707105 0.707109 0
vn 0.707105 0.707109 0
vt 0.031631 0.05641
vt 0.052199 0.05641
vt 0.052199 0.060668
f 1360/1360/1360 1361/1361/1361 1362/1362/1362
v 0.153464 0.012 0.04
v 0.153464 0.012 0.05
v 0.154 0.01 0.05
vn 0.965914 0.258862 0
vn 0.965914 0.258862 0
vn 0.965914 0.258862 0
vt 0.031631 0.060668
vt 0.052199 0.060668
vt 0.052199 0.064927
f 1363/1363/1363 1364/1364/1364 1365/1365/1365
v 0.154 0.01 0.04
v 0.154 0.01 0.05
v 0.153464 0.008 0.05
vn 0.965914 -0.258863 0
vn 0.965914 -0.258863 0
vn 0.965914 -0.258863 0
vt 0.031631 0.064927
vt 0.052199 0.064927
vt 0.052199 0.069185
f 1366/1366/1366 1367/1367/1367 1368/1368/1368
v 0.153464 0.008 0.04
v 0.153464 0.008 0.05
v 0.152 0.006536 0.05
vn 0.707105 -0.707109 0
vn 0.707105 -0.707109 0
vn 0.707105 -0.707109 0
vt 0.031631 0.069185
vt 0.052199 0.069185
vt 0.052199 0.073444
f 1369/1369/1369 1370/1370/1370 1371/1371/1371
v 0.152 0.006536 0.04
v 0.152 0.006536 0.05
v 0.15 0.006 0.05
vn 0.258866 -0.965913 0
vn 0.258866 -0.965913 0
vn 0.258866 -0.965913 0
vt 0.031631 0.073444
vt 0.052199 0.073444
vt 0.052199 0.077703
f 1372/1372/1372 1373/1373/1373 1374/1374/1374
v 0.15 0.006 0.04
v 0.15 0.006 0.05
v 0.148 0.006536 0.05
vn -0.258864 -0.965914 -0
vn -0.258864 -0.965914 -0
vn -0.258864 -0.965914 -0
vt 0.031631 0.0266
vt 0.052199 0.0266
vt 0.052199 0.030858
f 1375/1375/1375 1376/1376/1376 1377/1377/1377
v 0.148 0.006536 0.04
v 0.148 0.006536 0.05
v 0.146536 0.008 0.05
vn -0.707105 -0.707109 -0
vn -0.707105 -0.707109 -0
vn -0.707105 -0.707109 -0
vt 0.031631 0.030858
vt 0.052199 0.030858
vt 0.052199 0.035117
f 1378/1378/1378 1379/1379/1379 1380/1380/1380
v 0.146536 0.008 0.04
v 0.146536 0.008 0.05
v 0.146 0.01 0.05
vn -0.965914 -0.258863 -0
vn -0.965914 -0.258863 -0
vn -0.965914 -0.258863 -0
vt 0.031631 0.035117
vt 0.052199 0.035117
vt 0.052199 0.039375
f 1381/1381/1381 1382/1382/1382 1383/1383/1383
v 0.146 0.01 0.04
v 0.146 0.01 0.05
v 0.146536 0.012 0.05
vn -0.965914 0.258862 0
vn -0.965914 0.258862 0
vn -0.965914 0.258862 0
vt 0.031631 0.039375
vt 0.052199 0.039375
vt 0.052199 0.043634
f 1384/1384/1384 1385/1385/1385 1386/1386/1386
v 0.146536 0.012 0.04
v 0.146536 0.012 0.05
v 0.148 0.013464 0.05
vn -0.707105 0.707109 0
vn -0.707105 0.707109 0
vn -0.707105 0.707109 0
vt 0.031631 0.043634
vt 0.052199 0.043634
vt 0.052199 0.047892
f 1387/1387/1387 1388/1388/1388 1389/1389/1389
v 0.148 0.013464 0.04
v 0.148 0.013464 0.05
v 0.15 0.014 0.05
vn -0.258865 0.965914 0
vn -0.258865 0.965914 0
vn -0.258865 0.965914 0
vt 0.031631 0.047892
vt 0.052199 0.047892
vt 0.052199 0.052151
f 1390/1390/1390 1391/1391/1391 1392/1392/1392
