o data/uid/01013857/s/000003.obj
//1
usemtl mat0
v 1.6 0.75 -0.7
v 0 0.75 -0.7
v 1.6 0.75 0
vn -0 1 0
vn -0 1 0
vn -0 1 0
vt 0.034019 0.177212
vt 0.034019 0.917247
vt 0.774054 0.177212
f 1/1/1 2/2/2 3/3/3
v 1.6 0.73 -0.7
v 1.6 0.73 1e-006
v -0 0.73 -0
vn 0 -1 0
vn 0 -1 0
vn 0 -1 0
vt 0.04109 0.26895
vt 0.04109 0.905436
vt 0.677576 0.905436
f 4/4/4 5/5/5 6/6/6
v 1.6 0.75 -0.7
v 1.6 0.75 0
v 1.6 0.73 1e-006
vn 1 -5.36442e-005 0
vn 1 -5.36442e-005 0
vn 1 -5.36442e-005 0
vt 0.01248 0.007371
vt 0.01248 0.091634
vt 0.989904 0.091634
f 7/7/7 8/8/8 9/9/9
v 1.6 0.75 0
v 0 0.75 -0
v -0 0.73 -0
vn 0 0 1
vn 0 0 1
vn 0 0 1
vt 0.01248 0.007371
vt 0.01248 0.091634
vt 0.989904 0.091634
f 10/10/10 11/11/11 12/12/12
v 0 0.75 -0
v 0 0.75 -0.7
v -0 0.73 -0
vn -1 0 0
vn -1 0 0
vn -1 0 0
vt 0.01248 0.007371
vt 0.01248 0.091634
vt 0.989904 0.007371
f 13/13/13 14/14/14 15/15/15
v 1.6 0.73 -0.7
v 0 0.73 -0.7
v 1.6 0.75 -0.7
vn 0 -0 -1
vn 0 -0 -1
vn 0 -0 -1
vt 0.01248 0.007371
vt 0.01248 0.091634
vt 0.989904 0.007371
f 16/16/16 17/17/17 18/18/18
v 0 0.75 -0.7
v 0 0.75 -0
v 1.6 0.75 0
vn 0 1 0
vn 0 1 0
vn 0 1 0
vt 0.034019 0.917247
vt 0.774054 0.917247
vt 0.774054 0.177212
f 19/19/19 20/20/20 21/21/21
v 0 0.73 -0.7
v 1.6 0.73 -0.7
v -0 0.73 -0
vn -0 -1 -0
vn -0 -1 -0
vn -0 -1 -0
vt 0.677576 0.26895
vt 0.04109 0.26895
vt 0.677576 0.905436
f 22/22/22 23/23/23 24/24/24
v 1.6 0.73 -0.7
v 1.6 0.75 -0.7
v 1.6 0.73 1e-006
vn 1 4.76838e-005 2.89508e-006
vn 1 4.76838e-005 2.89508e-006
vn 1 4.76838e-005 2.89508e-006
vt 0.989904 0.007371
vt 0.01248 0.007371
vt 0.989904 0.091634
f 25/25/25 26/26/26 27/27/27
v 1.6 0.73 1e-006
v 1.6 0.75 0
v -0 0.73 -0
vn -6.25e-007 5.00001e-005 1
vn -6.25e-007 5.00001e-005 1
vn -6.25e-007 5.00001e-005 1
vt 0.989904 0.007371
vt 0.01248 0.007371
vt 0.989904 0.091634
f 28/28/28 29/29/29 30/30/30
v 0 0.75 -0.7
v 0 0.73 -0.7
v -0 0.73 -0
vn -1 0 0
vn -1 0 0
vn -1 0 0
vt 0.01248 0.091634
vt 0.989904 0.091634
vt 0.989904 0.007371
f 31/31/31 32/32/32 33/33/33
v 0 0.73 -0.7
v 0 0.75 -0.7
v 1.6 0.75 -0.7
vn -0 -0 -1
vn -0 -0 -1
vn -0 -0 -1
vt 0.01248 0.091634
vt 0.989904 0.091634
vt 0.989904 0.007371
f 34/34/34 35/35/35 36/36/36
