o data/uid/01015144/s/000017.obj
//1
usemtl mat0
v -10.2404 0 -0.738947
v -10.2174 0 -2.89422
v -10.2174 0 -2.90422
vn 0 1 -0
vn 0 1 -0
vn 0 1 -0
vt 0.0541 0
vt 0 0
vt 0 1
f 1/1/1 2/2/2 3/3/3
v -10.2404 0 -0.748947
v -10.2404 0 -0.738947
v -10.2174 0 -2.90422
vn 0 1 0
vn 0 1 0
vn 0 1 0
vt 0.0541 1
vt 0.0541 0
vt 0 1
f 4/4/4 5/5/5 6/6/6
v -10.1932 0 -0.256745
v -10.2404 0 -0.738947
v -10.2404 0 -0.748947
vn 0 -1 0
vn 0 -1 0
vn 0 -1 0
vt 0.066261 0
vt 0.0541 0
vt 0.0541 1
f 7/7/7 8/8/8 9/9/9
v -10.1932 0 -0.266745
v -10.1932 0 -0.256745
v -10.2404 0 -0.748947
vn 0 -1 0
vn 0 -1 0
vn 0 -1 0
vt 0.066261 1
vt 0.066261 0
vt 0.0541 1
f 10/10/10 11/11/11 12/12/12
v -10.1411 0 -0.091792
v -10.1932 0 -0.256745
v -10.1932 0 -0.266745
vn 0 -1 0
vn 0 -1 0
vn 0 -1 0
vt 0.070604 0
vt 0.066261 0
vt 0.066261 1
f 13/13/13 14/14/14 15/15/15
v -10.1411 0 -0.101792
v -10.1411 0 -0.091792
v -10.1932 0 -0.266745
vn 0 -1 0
vn 0 -1 0
vn 0 -1 0
vt 0.070604 1
vt 0.070604 0
vt 0.066261 1
f 16/16/16 17/17/17 18/18/18
v -10.0794 0 0.16085
v -10.1411 0 -0.091792
v -10.1411 0 -0.101792
vn 0 -1 0
vn 0 -1 0
vn 0 -1 0
vt 0.077131 0
vt 0.070604 0
vt 0.070604 1
f 19/19/19 20/20/20 21/21/21
v -10.0794 0 0.15085
v -10.0794 0 0.16085
v -10.1411 0 -0.101792
vn 0 -1 0
vn 0 -1 0
vn 0 -1 0
vt 0.077131 1
vt 0.077131 0
vt 0.070604 1
f 22/22/22 23/23/23 24/24/24
v -9.91996 0 0.458797
v -10.0794 0 0.16085
v -10.0794 0 0.15085
vn 0 -1 0
vn 0 -1 0
vn 0 -1 0
vt 0.085613 0
vt 0.077131 0
vt 0.077131 1
f 25/25/25 26/26/26 27/27/27
v -9.91996 0 0.448797
v -9.91996 0 0.458797
v -10.0794 0 0.15085
vn 0 -1 0
vn 0 -1 0
vn 0 -1 0
vt 0.085613 1
vt 0.085613 0
vt 0.077131 1
f 28/28/28 29/29/29 30/30/30
v -9.68668 0 0.864811
v -9.91996 0 0.458797
v -9.91996 0 0.448797
vn 0 -1 0
vn 0 -1 0
vn 0 -1 0
vt 0.097367 0
vt 0.085613 0
vt 0.085613 1
f 31/31/31 32/32/32 33/33/33
v -9.68668 0 0.854811
v -9.68668 0 0.864811
v -9.91996 0 0.448797
vn 0 -1 0
vn 0 -1 0
vn 0 -1 0
vt 0.097367 1
vt 0.097367 0
vt 0.085613 1
f 34/34/34 35/35/35 36/36/36
v -9.45917 0 1.21797
v -9.68668 0 0.864811
v -9.68668 0 0.854811
vn 0 -1 0
vn 0 -1 0
vn 0 -1 0
vt 0.107911 0
vt 0.097367 0
vt 0.097367 1
f 37/37/37 38/38/38 39/39/39
v -9.45917 0 1.20797
v -9.45917 0 1.21797
v -9.68668 0 0.854811
vn 0 -1 0
vn 0 -1 0
vn 0 -1 0
vt 0.107911 1
vt 0.107911 0
vt 0.097367 1
f 40/40/40 41/41/41 42/42/42
v -9.24931 0 1.38578
v -9.45917 0 1.21797
v -9.45917 0 1.20797
vn 0 -1 0
vn 0 -1 0
vn 0 -1 0
vt 0.114656 0
vt 0.107911 0
vt 0.107911 1
f 43/43/43 44/44/44 45/45/45
v -9.24931 0 1.37578
v -9.24931 0 1.38578
v -9.45917 0 1.20797
vn 0 -1 0
vn 0 -1 0
vn 0 -1 0
vt 0.114656 1
vt 0.114656 0
vt 0.107911 1
f 46/46/46 47/47/47 48/48/48
v -9.03185 0 1.50573
v -9.24931 0 1.38578
v -9.24931 0 1.37578
vn 0 -1 0
vn 0 -1 0
vn 0 -1 0
vt 0.120889 0
vt 0.114656 0
vt 0.114656 1
f 49/49/49 50/50/50 51/51/51
v -9.03185 0 1.49573
v -9.03185 0 1.50573
v -9.24931 0 1.37578
vn 0 -1 0
vn 0 -1 0
vn 0 -1 0
vt 0.120889 1
vt 0.120889 0
vt 0.114656 1
f 52/52/52 53/53/53 54/54/54
v -8.61522 0 1.60138
v -9.03185 0 1.50573
v -9.03185 0 1.49573
vn 0 -1 0
vn 0 -1 0
vn 0 -1 0
vt 0.131619 0
vt 0.120889 0
vt 0.120889 1
f 55/55/55 56/56/56 57/57/57
v -8.61522 0 1.59138
v -8.61522 0 1.60138
v -9.03185 0 1.49573
vn 0 -1 0
vn 0 -1 0
vn 0 -1 0
vt 0.131619 1
vt 0.131619 0
vt 0.120889 1
f 58/58/58 59/59/59 60/60/60
v 5.55331 0 1.68537
v -8.61522 0 1.60138
v -8.61522 0 1.59138
vn 0 -1 0
vn 0 -1 0
vn 0 -1 0
vt 0.487255 0
vt 0.131619 0
vt 0.131619 1
f 61/61/61 62/62/62 63/63/63
v 5.55331 0 1.67537
v 5.55331 0 1.68537
v -8.61522 0 1.59138
vn 0 -1 0
vn 0 -1 0
vn 0 -1 0
vt 0.487255 1
vt 0.487255 0
vt 0.131619 1
f 64/64/64 65/65/65 66/66/66
v 5.55351 0 -2.97154
v 5.55331 0 1.68537
v 5.55331 0 1.67537
vn 0 -1 0
vn 0 -1 0
vn 0 -1 0
vt 0.604144 0
vt 0.487255 0
vt 0.487255 1
f 67/67/67 68/68/68 69/69/69
v 5.55351 0 -2.98154
v 5.55351 0 -2.97154
v 5.55331 0 1.67537
vn 0 -1 0
vn 0 -1 0
vn 0 -1 0
vt 0.604144 1
vt 0.604144 0
vt 0.487255 1
f 70/70/70 71/71/71 72/72/72
v -10.2174 0 -2.89422
v 5.55351 0 -2.97154
v 5.55351 0 -2.98154
vn 0 1 -0
vn 0 1 -0
vn 0 1 -0
vt 1 0
vt 0.604144 0
vt 0.604144 1
f 73/73/73 74/74/74 75/75/75
v -10.2174 0 -2.90422
v -10.2174 0 -2.89422
v 5.55351 0 -2.98154
vn 0 1 0
vn 0 1 0
vn 0 1 0
vt 1 1
vt 1 0
vt 0.604144 1
f 76/76/76 77/77/77 78/78/78
v -8.61521 0 1.60138
v 5.55331 0 1.68537
v 5.55351 0 -2.97154
vn 0 1 0
vn 0 1 0
vn 0 1 0
vt 0.102897 0.994682
vt 0.999987 1
vt 1 0.705144
f 79/79/79 80/80/80 81/81/81
v -10.2174 0 -2.89422
v -8.61521 0 1.60138
v 5.55351 0 -2.97154
vn 0 1 0
vn 0 1 0
vn 0 1 0
vt 0.001451 0.71004
vt 0.102897 0.994682
vt 1 0.705144
f 82/82/82 83/83/83 84/84/84
v -9.24931 0 1.38578
v -9.03184 0 1.50573
v -8.61521 0 1.60138
vn 0 1 0
vn 0 1 0
vn 0 1 0
vt 0.062749 0.981031
vt 0.076518 0.988626
vt 0.102897 0.994682
f 85/85/85 86/86/86 87/87/87
v -9.68668 0 0.864812
v -9.24931 0 1.38578
v -8.61521 0 1.60138
vn 0 1 0
vn 0 1 0
vn 0 1 0
vt 0.035057 0.948046
vt 0.062749 0.981031
vt 0.102897 0.994682
f 88/88/88 89/89/89 90/90/90
v -9.91996 0 0.458798
v -9.68668 0 0.864812
v -8.61521 0 1.60138
vn 0 1 0
vn 0 1 0
vn 0 1 0
vt 0.020286 0.922339
vt 0.035057 0.948046
vt 0.102897 0.994682
f 91/91/91 92/92/92 93/93/93
v -10.1411 0 -0.091791
v -9.91996 0 0.458798
v -8.61521 0 1.60138
vn 0 1 0
vn 0 1 0
vn 0 1 0
vt 0.006285 0.887478
vt 0.020286 0.922339
vt 0.102897 0.994682
f 94/94/94 95/95/95 96/96/96
v -10.2404 0 -0.738947
v -10.1411 0 -0.091791
v -8.61521 0 1.60138
vn 0 1 0
vn 0 1 0
vn 0 1 0
vt 0 0.846503
vt 0.006285 0.887478
vt 0.102897 0.994682
f 97/97/97 98/98/98 99/99/99
v -10.2174 0 -2.89422
v -10.2404 0 -0.738947
v -8.61521 0 1.60138
vn 0 1 0
vn 0 1 0
vn 0 1 0
vt 0.001451 0.71004
vt 0 0.846503
vt 0.102897 0.994682
f 100/100/100 101/101/101 102/102/102
v -9.68668 0 0.864812
v -9.45917 0 1.21797
v -9.24931 0 1.38578
vn 0 1 0
vn 0 1 0
vn 0 1 0
vt 0.035057 0.948046
vt 0.049462 0.970406
vt 0.062749 0.981031
f 103/103/103 104/104/104 105/105/105
v -10.1411 0 -0.091791
v -10.0794 0 0.160851
v -9.91996 0 0.458798
vn 0 1 0
vn 0 1 0
vn 0 1 0
vt 0.006285 0.887478
vt 0.01019 0.903474
vt 0.020286 0.922339
f 106/106/106 107/107/107 108/108/108
v -10.2404 0 -0.738947
v -10.1932 0 -0.256745
v -10.1411 0 -0.091791
vn 0 1 0
vn 0 1 0
vn 0 1 0
vt 0 0.846503
vt 0.002984 0.877033
vt 0.006285 0.887478
f 109/109/109 110/110/110 111/111/111
v 5.55351 0 -2.98154
v -8.61521 0 1.59138
v -10.2174 0 -2.90422
vn 0 -1 0
vn 0 -1 0
vn 0 -1 0
vt 2.59968 0.696273
vt 0.265413 1.51045
vt 0.001451 0.71004
f 112/112/112 113/113/113 114/114/114
v -8.61521 0 1.59138
v -10.2404 0 -0.748947
v -10.2174 0 -2.90422
vn 0 -1 0
vn 0 -1 0
vn 0 -1 0
vt 0.265413 1.51045
vt -0.002324 1.09377
vt 0.001451 0.71004
f 115/115/115 116/116/116 117/117/117
v -10.1411 0 -0.101791
v -10.1932 0 -0.266745
v -10.2404 0 -0.748947
vn 0 -1 0
vn 0 -1 0
vn 0 -1 0
vt 0.014028 1.20899
vt 0.005441 1.17963
vt -0.002324 1.09377
f 118/118/118 119/119/119 120/120/120
v -8.61521 0 1.59138
v -10.1411 0 -0.101791
v -10.2404 0 -0.748947
vn 0 -1 0
vn 0 -1 0
vn 0 -1 0
vt 0.265413 1.51045
vt 0.014028 1.20899
vt -0.002324 1.09377
f 121/121/121 122/122/122 123/123/123
v -9.91996 0 0.448798
v -10.0794 0 0.150851
v -10.1411 0 -0.101791
vn 0 -1 0
vn 0 -1 0
vn 0 -1 0
vt 0.05046 1.30702
vt 0.02419 1.25398
vt 0.014028 1.20899
f 124/124/124 125/125/125 126/126/126
v -8.61521 0 1.59138
v -9.91996 0 0.448798
v -10.1411 0 -0.101791
vn 0 -1 0
vn 0 -1 0
vn 0 -1 0
vt 0.265413 1.51045
vt 0.05046 1.30702
vt 0.014028 1.20899
f 127/127/127 128/128/128 129/129/129
v -8.61521 0 1.59138
v -9.68668 0 0.854812
v -9.91996 0 0.448798
vn 0 -1 0
vn 0 -1 0
vn 0 -1 0
vt 0.265413 1.51045
vt 0.088893 1.37931
vt 0.05046 1.30702
f 130/130/130 131/131/131 132/132/132
v -9.24931 0 1.37578
v -9.45917 0 1.20797
v -9.68668 0 0.854812
vn 0 -1 0
vn 0 -1 0
vn 0 -1 0
vt 0.160948 1.47207
vt 0.126374 1.44219
vt 0.088893 1.37931
f 133/133/133 134/134/134 135/135/135
v -8.61521 0 1.59138
v -9.24931 0 1.37578
v -9.68668 0 0.854812
vn 0 -1 0
vn 0 -1 0
vn 0 -1 0
vt 0.265413 1.51045
vt 0.160948 1.47207
vt 0.088893 1.37931
f 136/136/136 137/137/137 138/138/138
v -8.61521 0 1.59138
v -9.03184 0 1.49573
v -9.24931 0 1.37578
vn 0 -1 0
vn 0 -1 0
vn 0 -1 0
vt 0.265413 1.51045
vt 0.196775 1.49342
vt 0.160948 1.47207
f 139/139/139 140/140/140 141/141/141
v 5.55351 0 -2.98154
v 5.55331 0 1.67537
v -8.61521 0 1.59138
vn 0 -1 0
vn 0 -1 0
vn 0 -1 0
vt 2.59968 0.696273
vt 2.59964 1.52541
vt 0.265413 1.51045
f 142/142/142 143/143/143 144/144/144
