o data/uid/01015144/s/000010.obj
//1
usemtl mat0
v -4.30976 0 1.18111
v -3.60078 0 -2.19428
v -3.60078 0 -2.21428
vn 0 1 -0
vn 0 1 -0
vn 0 1 -0
vt 0.168755 0
vt 0 0
vt 0 1
f 1/1/1 2/2/2 3/3/3
v -4.30976 0 1.16111
v -4.30976 0 1.18111
v -3.60078 0 -2.21428
vn 0 1 0
vn 0 1 0
vn 0 1 0
vt 0.168755 1
vt 0.168755 0
vt 0 1
f 4/4/4 5/5/5 6/6/6
v 2.85082 0 1.15232
v -4.30976 0 1.18111
v -4.30976 0 1.16111
vn 0 -1 0
vn 0 -1 0
vn 0 -1 0
vt 0.51911 0
vt 0.168755 0
vt 0.168755 1
f 7/7/7 8/8/8 9/9/9
v 2.85082 0 1.13232
v 2.85082 0 1.15232
v -4.30976 0 1.16111
vn 0 -1 0
vn 0 -1 0
vn 0 -1 0
vt 0.51911 1
vt 0.51911 0
vt 0.168755 1
f 10/10/10 11/11/11 12/12/12
v 2.86017 0 -2.21522
v 2.85082 0 1.15232
v 2.85082 0 1.13232
vn 0 -1 0
vn 0 -1 0
vn 0 -1 0
vt 0.683878 0
vt 0.51911 0
vt 0.51911 1
f 13/13/13 14/14/14 15/15/15
v 2.86017 0 -2.23522
v 2.86017 0 -2.21522
v 2.85082 0 1.13232
vn 0 -1 0
vn 0 -1 0
vn 0 -1 0
vt 0.683878 1
vt 0.683878 0
vt 0.51911 1
f 16/16/16 17/17/17 18/18/18
v -3.60078 0 -2.19428
v 2.86017 0 -2.21522
v 2.86017 0 -2.23522
vn 0 1 -0
vn 0 1 -0
vn 0 1 -0
vt 1 0
vt 0.683878 0
vt 0.683878 1
f 19/19/19 20/20/20 21/21/21
v -3.60078 0 -2.21428
v -3.60078 0 -2.19428
v 2.86017 0 -2.23522
vn 0 1 0
vn 0 1 0
vn 0 1 0
vt 1 1
vt 1 0
vt 0.683878 1
f 22/22/22 23/23/23 24/24/24
v -3.60078 0 -2.19428
v 2.85081 0 1.15232
v 2.86016 0 -2.21522
vn 0 1 0
vn 0 1 0
vn 0 1 0
vt 0.098883 0.529228
vt 0.998696 0.995984
vt 1 0.526309
f 25/25/25 26/26/26 27/27/27
v -3.60078 0 -2.19428
v -4.30976 0 1.18111
v 2.85081 0 1.15232
vn 0 1 0
vn 0 1 0
vn 0 1 0
vt 0.098883 0.529228
vt 0 1
vt 0.998696 0.995984
f 28/28/28 29/29/29 30/30/30
v 2.86016 0 -2.23522
v 2.85081 0 1.13232
v -3.60078 0 -2.21428
vn 0 -1 0
vn 0 -1 0
vn 0 -1 0
vt 1 0.526309
vt 0.998696 0.995984
vt 0.098883 0.529228
f 31/31/31 32/32/32 33/33/33
v 2.85081 0 1.13232
v -4.30976 0 1.16111
v -3.60078 0 -2.21428
vn 0 -1 0
vn 0 -1 0
vn 0 -1 0
vt 0.998696 0.995984
vt 0 1
vt 0.098883 0.529228
f 34/34/34 35/35/35 36/36/36
