o data/uid/01015144/s/000011.obj
//1
usemtl mat0
v -34.6743 0.007246 5.49657
v -7.91604 0.002021 -1.67142
v -24.6182 0.002021 -1.52054
vn -6.81501e-006 1 -0.000754375
vn -6.81501e-006 1 -0.000754375
vn -6.81501e-006 1 -0.000754375
vt -4.10522 1.25884
vt -1.99258 0.817795
vt -3.31126 0.836332
f 1/1/1 2/2/2 3/3/3
v -34.6763 0.002021 -1.47333
v -34.6743 0.007246 5.49657
v -24.6182 0.002021 -1.52054
vn -3.51857e-006 1 -0.000749651
vn -3.51857e-006 1 -0.000749651
vn -3.51857e-006 1 -0.000749651
vt -4.10538 0.842133
vt -4.10522 1.25884
vt -3.31126 0.836332
f 4/4/4 5/5/5 6/6/6
v 29.8409 -0.021343 2.45716
v 21.6755 0.002021 -1.95427
v -7.91604 0.002021 -1.67142
vn 4.97423e-005 0.999986 0.0052041
vn 4.97423e-005 0.999986 0.0052041
vn 4.97423e-005 0.999986 0.0052041
vt 0.988443 1.3236
vt 0.343764 0.783044
vt -1.99258 0.817795
f 7/7/7 8/8/8 9/9/9
v -34.6743 0.007246 5.49657
v 29.8409 -0.021343 2.45716
v -7.91604 0.002021 -1.67142
vn 0.00049603 0.999999 0.00112276
vn 0.00049603 0.999999 0.00112276
vn 0.00049603 0.999999 0.00112276
vt -4.10522 1.25884
vt 0.988443 1.3236
vt -1.99258 0.817795
f 10/10/10 11/11/11 12/12/12
v 29.8409 -0.021343 2.45716
v 26.2171 -0.090078 -1.66162
v 21.6755 0.002021 -1.95427
vn 0.0226172 0.999075 -0.0365721
vn 0.0226172 0.999075 -0.0365721
vn 0.0226172 0.999075 -0.0365721
vt 0.988443 1.3236
vt 0.70233 0.818999
vt 0.343764 0.783044
f 13/13/13 14/14/14 15/15/15
v 29.2343 -0.021343 -1.1913
v 28.9229 -0.038816 -1.48371
v 26.2171 -0.090078 -1.66162
vn -0.0161301 0.998966 -0.0425163
vn -0.0161301 0.998966 -0.0425163
vn -0.0161301 0.998966 -0.0425163
vt 0.940548 0.876783
vt 0.915962 0.840857
vt 0.70233 0.818999
f 16/16/16 17/17/17 18/18/18
v 29.5343 -0.021343 -0.77737
v 29.2343 -0.021343 -1.1913
v 26.2171 -0.090078 -1.66162
vn -0.0256696 0.999497 0.0186045
vn -0.0256696 0.999497 0.0186045
vn -0.0256696 0.999497 0.0186045
vt 0.964234 0.927638
vt 0.940548 0.876783
vt 0.70233 0.818999
f 19/19/19 20/20/20 21/21/21
v 29.8495 -0.021343 0.050487
v 29.5343 -0.021343 -0.77737
v 26.2171 -0.090078 -1.66162
vn -0.0230542 0.999696 0.0087775
vn -0.0230542 0.999696 0.0087775
vn -0.0230542 0.999696 0.0087775
vt 0.989119 1.02935
vt 0.964234 0.927638
vt 0.70233 0.818999
f 22/22/22 23/23/23 24/24/24
v 29.9018 -0.021343 0.465051
v 29.8495 -0.021343 0.050487
v 26.2171 -0.090078 -1.66162
vn -0.020115 0.999794 0.0025377
vn -0.020115 0.999794 0.0025377
vn -0.020115 0.999794 0.0025377
vt 0.993248 1.08028
vt 0.989119 1.02935
vt 0.70233 0.818999
f 25/25/25 26/26/26 27/27/27
v 29.8409 -0.021343 2.45716
v 29.9018 -0.021343 0.465051
v 26.2171 -0.090078 -1.66162
vn -0.0183278 0.999832 -0.000560025
vn -0.0183278 0.999832 -0.000560025
vn -0.0183278 0.999832 -0.000560025
vt 0.988443 1.3236
vt 0.993248 1.08028
vt 0.70233 0.818999
f 28/28/28 29/29/29 30/30/30
v 29.8495 -0.021343 0.050487
v 29.7432 -0.021343 -0.352049
v 29.5343 -0.021343 -0.77737
vn 0 1 0
vn 0 1 0
vn 0 1 0
vt 0.989119 1.02935
vt 0.980724 0.979893
vt 0.964234 0.927638
f 31/31/31 32/32/32 33/33/33
