o data/uid/01015144/s/000003.obj
//1
usemtl mat0
v -2.62111 0.020024 -1.95752
v 2.12417 0.020024 -1.95435
v 2.12417 0.010024 -1.95435
vn 0.00066698 0 -1
vn 0.00066698 0 -1
vn 0.00066698 0 -1
vt 0.289666 0
vt 0 0
vt 0 1
f 1/1/1 2/2/2 3/3/3
v -2.62111 0.010024 -1.95752
v -2.62111 0.020024 -1.95752
v 2.12417 0.010024 -1.95435
vn 0.00066698 0 -1
vn 0.00066698 0 -1
vn 0.00066698 0 -1
vt 0.289666 1
vt 0.289666 0
vt 0 1
f 4/4/4 5/5/5 6/6/6
v -2.55517 0.020024 -0.786623
v -2.62111 0.020024 -1.95752
v -2.62111 0.010024 -1.95752
vn -0.998418 0 0.0562271
vn -0.998418 0 0.0562271
vn -0.998418 0 0.0562271
vt 0.361254 0
vt 0.289666 0
vt 0.289666 1
f 7/7/7 8/8/8 9/9/9
v -2.55517 0.010024 -0.786623
v -2.55517 0.020024 -0.786623
v -2.62111 0.010024 -1.95752
vn -0.998418 0 0.0562271
vn -0.998418 0 0.0562271
vn -0.998418 0 0.0562271
vt 0.361254 1
vt 0.361254 0
vt 0.289666 1
f 10/10/10 11/11/11 12/12/12
v -2.38187 0.020024 0.337056
v -2.55517 0.020024 -0.786623
v -2.55517 0.010024 -0.786623
vn -0.988316 0 0.152418
vn -0.988316 0 0.152418
vn -0.988316 0 0.152418
vt 0.430658 0
vt 0.361254 0
vt 0.361254 1
f 13/13/13 14/14/14 15/15/15
v -2.38187 0.010024 0.337056
v -2.38187 0.020024 0.337056
v -2.55517 0.010024 -0.786623
vn -0.988316 0 0.152418
vn -0.988316 0 0.152418
vn -0.988316 0 0.152418
vt 0.430658 1
vt 0.430658 0
vt 0.361254 1
f 16/16/16 17/17/17 18/18/18
v -1.9284 0.020024 1.20139
v -2.38187 0.020024 0.337056
v -2.38187 0.010024 0.337056
vn -0.885522 0 0.464598
vn -0.885522 0 0.464598
vn -0.885522 0 0.464598
vt 0.49024 0
vt 0.430658 0
vt 0.430658 1
f 19/19/19 20/20/20 21/21/21
v -1.9284 0.010024 1.20139
v -1.9284 0.020024 1.20139
v -2.38187 0.010024 0.337056
vn -0.885522 0 0.464598
vn -0.885522 0 0.464598
vn -0.885522 0 0.464598
vt 0.49024 1
vt 0.49024 0
vt 0.430658 1
f 22/22/22 23/23/23 24/24/24
v -1.1903 0.020024 1.98872
v -1.9284 0.020024 1.20139
v -1.9284 0.010024 1.20139
vn -0.729552 0 0.683925
vn -0.729552 0 0.683925
vn -0.729552 0 0.683925
vt 0.556118 0
vt 0.49024 0
vt 0.49024 1
f 25/25/25 26/26/26 27/27/27
v -1.1903 0.010024 1.98872
v -1.1903 0.020024 1.98872
v -1.9284 0.010024 1.20139
vn -0.729552 0 0.683925
vn -0.729552 0 0.683925
vn -0.729552 0 0.683925
vt 0.556118 1
vt 0.556118 0
vt 0.49024 1
f 28/28/28 29/29/29 30/30/30
v -0.33532 0.020024 2.37812
v -1.1903 0.020024 1.98872
v -1.1903 0.010024 1.98872
vn -0.414484 0 0.910057
vn -0.414484 0 0.910057
vn -0.414484 0 0.910057
vt 0.613467 0
vt 0.556118 0
vt 0.556118 1
f 31/31/31 32/32/32 33/33/33
v -0.33532 0.010024 2.37812
v -0.33532 0.020024 2.37812
v -1.1903 0.010024 1.98872
vn -0.414484 0 0.910057
vn -0.414484 0 0.910057
vn -0.414484 0 0.910057
vt 0.613467 1
vt 0.613467 0
vt 0.556118 1
f 34/34/34 35/35/35 36/36/36
v 0.504996 0.020024 2.52084
v -0.33532 0.020024 2.37812
v -0.33532 0.010024 2.37812
vn -0.167443 0 0.985882
vn -0.167443 0 0.985882
vn -0.167443 0 0.985882
vt 0.665497 0
vt 0.613467 0
vt 0.613467 1
f 37/37/37 38/38/38 39/39/39
v 0.504996 0.010024 2.52084
v 0.504996 0.020024 2.52084
v -0.33532 0.010024 2.37812
vn -0.167443 0 0.985882
vn -0.167443 0 0.985882
vn -0.167443 0 0.985882
vt 0.665497 1
vt 0.665497 0
vt 0.613467 1
f 40/40/40 41/41/41 42/42/42
v 1.33417 0.020024 2.31315
v 0.504996 0.020024 2.52084
v 0.504996 0.010024 2.52084
vn 0.242974 -0 0.970033
vn 0.242974 -0 0.970033
vn 0.242974 -0 0.970033
vt 0.717675 0
vt 0.665497 0
vt 0.665497 1
f 43/43/43 44/44/44 45/45/45
v 1.33417 0.010024 2.31315
v 1.33417 0.020024 2.31315
v 0.504996 0.010024 2.52084
vn 0.242974 0 0.970033
vn 0.242974 0 0.970033
vn 0.242974 0 0.970033
vt 0.717675 1
vt 0.717675 0
vt 0.665497 1
f 46/46/46 47/47/47 48/48/48
v 1.88659 0.020024 1.91195
v 1.33417 0.020024 2.31315
v 1.33417 0.010024 2.31315
vn 0.587629 -0 0.80913
vn 0.587629 -0 0.80913
vn 0.587629 -0 0.80913
vt 0.759352 0
vt 0.717675 0
vt 0.717675 1
f 49/49/49 50/50/50 51/51/51
v 1.88659 0.010024 1.91195
v 1.88659 0.020024 1.91195
v 1.33417 0.010024 2.31315
vn 0.587629 0 0.80913
vn 0.587629 0 0.80913
vn 0.587629 0 0.80913
vt 0.759352 1
vt 0.759352 0
vt 0.717675 1
f 52/52/52 53/53/53 54/54/54
v 2.15774 0.020024 1.46493
v 1.88659 0.020024 1.91195
v 1.88659 0.010024 1.91195
vn 0.855004 -0 0.518621
vn 0.855004 -0 0.518621
vn 0.855004 -0 0.518621
vt 0.791267 0
vt 0.759352 0
vt 0.759352 1
f 55/55/55 56/56/56 57/57/57
v 2.15774 0.010024 1.46493
v 2.15774 0.020024 1.46493
v 1.88659 0.010024 1.91195
vn 0.855004 0 0.518621
vn 0.855004 0 0.518621
vn 0.855004 0 0.518621
vt 0.791267 1
vt 0.791267 0
vt 0.759352 1
f 58/58/58 59/59/59 60/60/60
v 2.12417 0.020024 -1.95435
v 2.15774 0.020024 1.46493
v 2.15774 0.010024 1.46493
vn 0.999952 0 -0.00981649
vn 0.999952 0 -0.00981649
vn 0.999952 0 -0.00981649
vt 1 0
vt 0.791267 0
vt 0.791267 1
f 61/61/61 62/62/62 63/63/63
v 2.12417 0.010024 -1.95435
v 2.12417 0.020024 -1.95435
v 2.15774 0.010024 1.46493
vn 0.999952 0 -0.00981649
vn 0.999952 0 -0.00981649
vn 0.999952 0 -0.00981649
vt 1 1
vt 1 0
vt 0.791267 1
f 64/64/64 65/65/65 66/66/66
v 2.12417 0.020024 -1.95435
v -1.9284 0.020024 1.20139
v 2.15774 0.020024 1.46493
vn 0 1 0
vn 0 1 0
vn 0 1 0
vt 0.992976 0.063543
vt 0.144954 0.723897
vt 1 0.779046
f 67/67/67 68/68/68 69/69/69
v 1.33417 0.020024 2.31315
v 1.88659 0.020024 1.91195
v 2.15774 0.020024 1.46493
vn 0 1 0
vn 0 1 0
vn 0 1 0
vt 0.827663 0.95654
vt 0.943261 0.872587
vt 1 0.779046
f 70/70/70 71/71/71 72/72/72
v 0.504995 0.020024 2.52084
v 1.33417 0.020024 2.31315
v 2.15774 0.020024 1.46493
vn 0 1 0
vn 0 1 0
vn 0 1 0
vt 0.654154 1
vt 0.827663 0.95654
vt 1 0.779046
f 73/73/73 74/74/74 75/75/75
v -0.33532 0.020024 2.37812
v 0.504995 0.020024 2.52084
v 2.15774 0.020024 1.46493
vn 0 1 0
vn 0 1 0
vn 0 1 0
vt 0.478314 0.970135
vt 0.654154 1
vt 1 0.779046
f 76/76/76 77/77/77 78/78/78
v -1.1903 0.020024 1.98872
v -0.33532 0.020024 2.37812
v 2.15774 0.020024 1.46493
vn 0 1 0
vn 0 1 0
vn 0 1 0
vt 0.299404 0.888651
vt 0.478314 0.970135
vt 1 0.779046
f 79/79/79 80/80/80 81/81/81
v -1.9284 0.020024 1.20139
v -1.1903 0.020024 1.98872
v 2.15774 0.020024 1.46493
vn 0 1 0
vn 0 1 0
vn 0 1 0
vt 0.144954 0.723897
vt 0.299404 0.888651
vt 1 0.779046
f 82/82/82 83/83/83 84/84/84
v 2.12417 0.020024 -1.95435
v -2.38187 0.020024 0.337056
v -1.9284 0.020024 1.20139
vn 0 1 0
vn 0 1 0
vn 0 1 0
vt 0.992976 0.063543
vt 0.050061 0.543032
vt 0.144954 0.723897
f 85/85/85 86/86/86 87/87/87
v 2.12417 0.020024 -1.95435
v -2.55517 0.020024 -0.786623
v -2.38187 0.020024 0.337056
vn 0 1 0
vn 0 1 0
vn 0 1 0
vt 0.992976 0.063543
vt 0.013798 0.307896
vt 0.050061 0.543032
f 88/88/88 89/89/89 90/90/90
v 2.12417 0.020024 -1.95435
v -2.62111 0.020024 -1.95752
v -2.55517 0.020024 -0.786623
vn -0 1 0
vn -0 1 0
vn -0 1 0
vt 0.992976 0.063543
vt 0 0.06288
vt 0.013798 0.307896
f 91/91/91 92/92/92 93/93/93
v -2.55517 0.010024 -0.786623
v -2.62111 0.010024 -1.95752
v 2.12417 0.010024 -1.95435
vn -0 -1 0
vn -0 -1 0
vn -0 -1 0
vt 0.013798 0.307896
vt 0 0.06288
vt 0.992976 0.063543
f 94/94/94 95/95/95 96/96/96
v -2.38187 0.010024 0.337056
v -2.55517 0.010024 -0.786623
v 2.12417 0.010024 -1.95435
vn 0 -1 0
vn 0 -1 0
vn 0 -1 0
vt 0.050061 0.543032
vt 0.013798 0.307896
vt 0.992976 0.063543
f 97/97/97 98/98/98 99/99/99
v -1.9284 0.010024 1.20139
v -2.38187 0.010024 0.337056
v 2.12417 0.010024 -1.95435
vn 0 -1 0
vn 0 -1 0
vn 0 -1 0
vt 0.144954 0.723897
vt 0.050061 0.543032
vt 0.992976 0.063543
f 100/100/100 101/101/101 102/102/102
v 2.15774 0.010024 1.46493
v -1.9284 0.010024 1.20139
v 2.12417 0.010024 -1.95435
vn 0 -1 0
vn 0 -1 0
vn 0 -1 0
vt 1 0.779046
vt 0.144954 0.723897
vt 0.992976 0.063543
f 103/103/103 104/104/104 105/105/105
v 2.15774 0.010024 1.46493
v -1.1903 0.010024 1.98872
v -1.9284 0.010024 1.20139
vn 0 -1 0
vn 0 -1 0
vn 0 -1 0
vt 1 0.779046
vt 0.299404 0.888651
vt 0.144954 0.723897
f 106/106/106 107/107/107 108/108/108
v 2.15774 0.010024 1.46493
v -0.33532 0.010024 2.37812
v -1.1903 0.010024 1.98872
vn 0 -1 0
vn 0 -1 0
vn 0 -1 0
vt 1 0.779046
vt 0.478314 0.970135
vt 0.299404 0.888651
f 109/109/109 110/110/110 111/111/111
v 2.15774 0.010024 1.46493
v 0.504995 0.010024 2.52084
v -0.33532 0.010024 2.37812
vn 0 -1 0
vn 0 -1 0
vn 0 -1 0
vt 1 0.779046
vt 0.654154 1
vt 0.478314 0.970135
f 112/112/112 113/113/113 114/114/114
v 2.15774 0.010024 1.46493
v 1.33417 0.010024 2.31315
v 0.504995 0.010024 2.52084
vn 0 -1 0
vn 0 -1 0
vn 0 -1 0
vt 1 0.779046
vt 0.827663 0.95654
vt 0.654154 1
f 115/115/115 116/116/116 117/117/117
v 2.15774 0.010024 1.46493
v 1.88659 0.010024 1.91195
v 1.33417 0.010024 2.31315
vn 0 -1 0
vn 0 -1 0
vn 0 -1 0
vt 1 0.779046
vt 0.943261 0.872587
vt 0.827663 0.95654
f 118/118/118 119/119/119 120/120/120
