o data/uid/01015144/s/000014.obj
//1
usemtl mat0
v -0.084902 0 -0.218655
v -28.2649 0 -0.218655
v -28.2649 0 4.64635
vn -0 1 0
vn -0 1 0
vn -0 1 0
vt 10.8682 0.5
vt 0 0.5
vt 0 -1.65731
f 1/1/1 2/2/2 3/3/3
v -0.084902 0 4.64635
v -0.084902 0 -0.218655
v -28.2649 0 4.64635
vn -0 1 0
vn -0 1 0
vn -0 1 0
vt 10.8682 -1.65731
vt 10.8682 0.5
vt 0 -1.65731
f 4/4/4 5/5/5 6/6/6
v 28.0951 0 -0.218655
v -0.084902 0 -0.218655
v -0.084902 0 4.64635
vn -0 1 0
vn -0 1 0
vn -0 1 0
vt 21.7364 0.5
vt 10.8682 0.5
vt 10.8682 -1.65731
f 7/7/7 8/8/8 9/9/9
v 28.0951 0 4.64635
v 28.0951 0 -0.218655
v -0.084902 0 4.64635
vn -0 1 0
vn -0 1 0
vn -0 1 0
vt 21.7364 -1.65731
vt 21.7364 0.5
vt 10.8682 -1.65731
f 10/10/10 11/11/11 12/12/12
v -0.084902 0 -5.08365
v -28.2649 0 -5.08365
v -28.2649 0 -0.218655
vn -0 1 0
vn -0 1 0
vn -0 1 0
vt 10.8682 2.65731
vt 0 2.65731
vt 0 0.5
f 13/13/13 14/14/14 15/15/15
v -0.084902 0 -0.218655
v -0.084902 0 -5.08365
v -28.2649 0 -0.218655
vn -0 1 0
vn -0 1 0
vn -0 1 0
vt 10.8682 0.5
vt 10.8682 2.65731
vt 0 0.5
f 16/16/16 17/17/17 18/18/18
v 28.0951 0 -5.08365
v -0.084902 0 -5.08365
v -0.084902 0 -0.218655
vn -0 1 0
vn -0 1 0
vn -0 1 0
vt 21.7364 2.65731
vt 10.8682 2.65731
vt 10.8682 0.5
f 19/19/19 20/20/20 21/21/21
v 28.0951 0 -0.218655
v 28.0951 0 -5.08365
v -0.084902 0 -0.218655
vn -0 1 0
vn -0 1 0
vn -0 1 0
vt 21.7364 0.5
vt 21.7364 2.65731
vt 10.8682 0.5
f 22/22/22 23/23/23 24/24/24
