o data/uid/01015144/s/000016.obj
//1
usemtl mat0
v -3.769 0 0.840006
v -3.82198 0 -2.28229
v -3.82198 0 -2.28729
vn 0 -1 0
vn 0 -1 0
vn 0 -1 0
vt 0.160222 0
vt 0 0
vt 0 1
f 1/1/1 2/2/2 3/3/3
v -3.769 0 0.835006
v -3.769 0 0.840006
v -3.82198 0 -2.28729
vn 0 -1 0
vn 0 -1 0
vn 0 -1 0
vt 0.160222 1
vt 0.160222 0
vt 0 1
f 4/4/4 5/5/5 6/6/6
v -3.72691 0 1.09274
v -3.769 0 0.840006
v -3.769 0 0.835006
vn 0 -1 0
vn 0 -1 0
vn 0 -1 0
vt 0.173368 0
vt 0.160222 0
vt 0.160222 1
f 7/7/7 8/8/8 9/9/9
v -3.72691 0 1.08774
v -3.72691 0 1.09274
v -3.769 0 0.835006
vn 0 -1 0
vn 0 -1 0
vn 0 -1 0
vt 0.173368 1
vt 0.173368 0
vt 0.160222 1
f 10/10/10 11/11/11 12/12/12
v -3.66522 0 1.24353
v -3.72691 0 1.09274
v -3.72691 0 1.08774
vn 0 -1 0
vn 0 -1 0
vn 0 -1 0
vt 0.181726 0
vt 0.173368 0
vt 0.173368 1
f 13/13/13 14/14/14 15/15/15
v -3.66522 0 1.23853
v -3.66522 0 1.24353
v -3.72691 0 1.08774
vn 0 -1 0
vn 0 -1 0
vn 0 -1 0
vt 0.181726 1
vt 0.181726 0
vt 0.173368 1
f 16/16/16 17/17/17 18/18/18
v -3.61039 0 1.37375
v -3.66522 0 1.24353
v -3.66522 0 1.23853
vn 0 -1 0
vn 0 -1 0
vn 0 -1 0
vt 0.188976 0
vt 0.181726 0
vt 0.181726 1
f 19/19/19 20/20/20 21/21/21
v -3.61039 0 1.36875
v -3.61039 0 1.37375
v -3.66522 0 1.23853
vn 0 -1 0
vn 0 -1 0
vn 0 -1 0
vt 0.188976 1
vt 0.188976 0
vt 0.181726 1
f 22/22/22 23/23/23 24/24/24
v -3.51444 0 1.49026
v -3.61039 0 1.37375
v -3.61039 0 1.36875
vn 0 -1 0
vn 0 -1 0
vn 0 -1 0
vt 0.19672 0
vt 0.188976 0
vt 0.188976 1
f 25/25/25 26/26/26 27/27/27
v -3.51444 0 1.48526
v -3.51444 0 1.49026
v -3.61039 0 1.36875
vn 0 -1 0
vn 0 -1 0
vn 0 -1 0
vt 0.19672 1
vt 0.19672 0
vt 0.188976 1
f 28/28/28 29/29/29 30/30/30
v -3.39107 0 1.63419
v -3.51444 0 1.49026
v -3.51444 0 1.48526
vn 0 -1 0
vn 0 -1 0
vn 0 -1 0
vt 0.206446 0
vt 0.19672 0
vt 0.19672 1
f 31/31/31 32/32/32 33/33/33
v -3.39107 0 1.62919
v -3.39107 0 1.63419
v -3.51444 0 1.48526
vn 0 -1 0
vn 0 -1 0
vn 0 -1 0
vt 0.206446 1
vt 0.206446 0
vt 0.19672 1
f 34/34/34 35/35/35 36/36/36
v -3.24029 0 1.76441
v -3.39107 0 1.63419
v -3.39107 0 1.62919
vn 0 -1 0
vn 0 -1 0
vn 0 -1 0
vt 0.216669 0
vt 0.206446 0
vt 0.206446 1
f 37/37/37 38/38/38 39/39/39
v -3.24029 0 1.75941
v -3.24029 0 1.76441
v -3.39107 0 1.62919
vn 0 -1 0
vn 0 -1 0
vn 0 -1 0
vt 0.216669 1
vt 0.216669 0
vt 0.206446 1
f 40/40/40 41/41/41 42/42/42
v -3.03467 0 1.87407
v -3.24029 0 1.76441
v -3.24029 0 1.75941
vn 0 -1 0
vn 0 -1 0
vn 0 -1 0
vt 0.228625 0
vt 0.216669 0
vt 0.216669 1
f 43/43/43 44/44/44 45/45/45
v -3.03467 0 1.86907
v -3.03467 0 1.87407
v -3.24029 0 1.75941
vn 0 -1 0
vn 0 -1 0
vn 0 -1 0
vt 0.228625 1
vt 0.228625 0
vt 0.216669 1
f 46/46/46 47/47/47 48/48/48
v -2.50693 0 2.0043
v -3.03467 0 1.87407
v -3.03467 0 1.86907
vn 0 -1 0
vn 0 -1 0
vn 0 -1 0
vt 0.256514 0
vt 0.228625 0
vt 0.228625 1
f 49/49/49 50/50/50 51/51/51
v -2.50693 0 1.9993
v -2.50693 0 2.0043
v -3.03467 0 1.86907
vn 0 -1 0
vn 0 -1 0
vn 0 -1 0
vt 0.256514 1
vt 0.256514 0
vt 0.228625 1
f 52/52/52 53/53/53 54/54/54
v -1.76672 0 2.07969
v -2.50693 0 2.0043
v -2.50693 0 1.9993
vn 0 -1 0
vn 0 -1 0
vn 0 -1 0
vt 0.294689 0
vt 0.256514 0
vt 0.256514 1
f 55/55/55 56/56/56 57/57/57
v -1.76672 0 2.07469
v -1.76672 0 2.07969
v -2.50693 0 1.9993
vn 0 -1 0
vn 0 -1 0
vn 0 -1 0
vt 0.294689 1
vt 0.294689 0
vt 0.256514 1
f 58/58/58 59/59/59 60/60/60
v 2.42779 0 1.9289
v -1.76672 0 2.07969
v -1.76672 0 2.07469
vn 0 -1 0
vn 0 -1 0
vn 0 -1 0
vt 0.510041 0
vt 0.294689 0
vt 0.294689 1
f 61/61/61 62/62/62 63/63/63
v 2.42779 0 1.9239
v 2.42779 0 1.9289
v -1.76672 0 2.07469
vn 0 -1 0
vn 0 -1 0
vn 0 -1 0
vt 0.510041 1
vt 0.510041 0
vt 0.294689 1
f 64/64/64 65/65/65 66/66/66
v 1.28873 0 -2.36051
v 2.42779 0 1.9289
v 2.42779 0 1.9239
vn 0 1 -0
vn 0 1 -0
vn 0 1 -0
vt 0.737749 0
vt 0.510041 0
vt 0.510041 1
f 67/67/67 68/68/68 69/69/69
v 1.28873 0 -2.36551
v 1.28873 0 -2.36051
v 2.42779 0 1.9239
vn 0 1 0
vn 0 1 0
vn 0 1 0
vt 0.737749 1
vt 0.737749 0
vt 0.510041 1
f 70/70/70 71/71/71 72/72/72
v -3.82198 0 -2.28229
v 1.28873 0 -2.36051
v 1.28873 0 -2.36551
vn 0 1 -0
vn 0 1 -0
vn 0 1 -0
vt 1 0
vt 0.737749 0
vt 0.737749 1
f 73/73/73 74/74/74 75/75/75
v -3.82198 0 -2.28729
v -3.82198 0 -2.28229
v 1.28873 0 -2.36551
vn 0 1 0
vn 0 1 0
vn 0 1 0
vt 1 1
vt 1 0
vt 0.737749 1
f 76/76/76 77/77/77 78/78/78
v -1.76672 0 2.07969
v 2.4278 0 1.92891
v 1.28874 0 -2.36051
vn 0 1 -0
vn 0 1 -0
vn 0 1 -0
vt 0.328853 1
vt 1 0.975874
vt 0.817743 0.289542
f 79/79/79 80/80/80 81/81/81
v -3.82198 0 -2.28229
v -1.76672 0 2.07969
v 1.28874 0 -2.36051
vn 0 1 0
vn 0 1 0
vn 0 1 0
vt 0 0.302058
vt 0.328853 1
vt 0.817743 0.289542
f 82/82/82 83/83/83 84/84/84
v -3.76899 0 0.840007
v -2.50693 0 2.0043
v -1.76672 0 2.07969
vn 0 1 0
vn 0 1 0
vn 0 1 0
vt 0.008478 0.801644
vt 0.210415 0.987937
vt 0.328853 1
f 85/85/85 86/86/86 87/87/87
v -3.82198 0 -2.28229
v -3.76899 0 0.840007
v -1.76672 0 2.07969
vn 0 1 0
vn 0 1 0
vn 0 1 0
vt 0 0.302058
vt 0.008478 0.801644
vt 0.328853 1
f 88/88/88 89/89/89 90/90/90
v -3.76899 0 0.840007
v -3.03467 0 1.87408
v -2.50693 0 2.0043
vn 0 1 0
vn 0 1 0
vn 0 1 0
vt 0.008478 0.801644
vt 0.125973 0.967101
vt 0.210415 0.987937
f 91/91/91 92/92/92 93/93/93
v -3.39107 0 1.63419
v -3.24028 0 1.76441
v -3.03467 0 1.87408
vn 0 1 0
vn 0 1 0
vn 0 1 0
vt 0.068948 0.928718
vt 0.093074 0.949554
vt 0.125973 0.967101
f 94/94/94 95/95/95 96/96/96
v -3.51444 0 1.49026
v -3.39107 0 1.63419
v -3.03467 0 1.87408
vn 0 1 0
vn 0 1 0
vn 0 1 0
vt 0.049208 0.905688
vt 0.068948 0.928718
vt 0.125973 0.967101
f 97/97/97 98/98/98 99/99/99
v -3.76899 0 0.840007
v -3.51444 0 1.49026
v -3.03467 0 1.87408
vn 0 1 0
vn 0 1 0
vn 0 1 0
vt 0.008478 0.801644
vt 0.049208 0.905688
vt 0.125973 0.967101
f 100/100/100 101/101/101 102/102/102
v -3.66522 0 1.24353
v -3.61039 0 1.37375
v -3.51444 0 1.49026
vn 0 1 0
vn 0 1 0
vn 0 1 0
vt 0.025082 0.866209
vt 0.033855 0.887046
vt 0.049208 0.905688
f 103/103/103 104/104/104 105/105/105
v -3.76899 0 0.840007
v -3.66522 0 1.24353
v -3.51444 0 1.49026
vn 0 1 0
vn 0 1 0
vn 0 1 0
vt 0.008478 0.801644
vt 0.025082 0.866209
vt 0.049208 0.905688
f 106/106/106 107/107/107 108/108/108
v -3.76899 0 0.840007
v -3.7269 0 1.09274
v -3.66522 0 1.24353
vn 0 1 0
vn 0 1 0
vn 0 1 0
vt 0.008478 0.801644
vt 0.015212 0.842083
vt 0.025082 0.866209
f 109/109/109 110/110/110 111/111/111
v -1.76672 0 2.07469
v -3.76899 0 0.835007
v -3.82198 0 -2.28729
vn 0 -1 0
vn 0 -1 0
vn 0 -1 0
vt 0.328853 1
vt 0.008478 0.801644
vt 0 0.302058
f 112/112/112 113/113/113 114/114/114
v 1.28874 0 -2.36551
v -1.76672 0 2.07469
v -3.82198 0 -2.28729
vn 0 -1 0
vn 0 -1 0
vn 0 -1 0
vt 0.817743 0.289542
vt 0.328853 1
vt 0 0.302058
f 115/115/115 116/116/116 117/117/117
v -3.66522 0 1.23853
v -3.7269 0 1.08774
v -3.76899 0 0.835007
vn 0 -1 0
vn 0 -1 0
vn 0 -1 0
vt 0.025082 0.866209
vt 0.015212 0.842083
vt 0.008478 0.801644
f 118/118/118 119/119/119 120/120/120
v -3.51444 0 1.48526
v -3.66522 0 1.23853
v -3.76899 0 0.835007
vn 0 -1 0
vn 0 -1 0
vn 0 -1 0
vt 0.049208 0.905688
vt 0.025082 0.866209
vt 0.008478 0.801644
f 121/121/121 122/122/122 123/123/123
v -3.03467 0 1.86907
v -3.51444 0 1.48526
v -3.76899 0 0.835007
vn 0 -1 0
vn 0 -1 0
vn 0 -1 0
vt 0.125973 0.967101
vt 0.049208 0.905688
vt 0.008478 0.801644
f 124/124/124 125/125/125 126/126/126
v -2.50693 0 1.9993
v -3.03467 0 1.86907
v -3.76899 0 0.835007
vn 0 -1 0
vn 0 -1 0
vn 0 -1 0
vt 0.210415 0.987937
vt 0.125973 0.967101
vt 0.008478 0.801644
f 127/127/127 128/128/128 129/129/129
v -1.76672 0 2.07469
v -2.50693 0 1.9993
v -3.76899 0 0.835007
vn 0 -1 0
vn 0 -1 0
vn 0 -1 0
vt 0.328853 1
vt 0.210415 0.987937
vt 0.008478 0.801644
f 130/130/130 131/131/131 132/132/132
v -3.51444 0 1.48526
v -3.61039 0 1.36875
v -3.66522 0 1.23853
vn 0 -1 0
vn 0 -1 0
vn 0 -1 0
vt 0.049208 0.905688
vt 0.033855 0.887046
vt 0.025082 0.866209
f 133/133/133 134/134/134 135/135/135
v -3.03467 0 1.86907
v -3.39107 0 1.62919
v -3.51444 0 1.48526
vn 0 -1 0
vn 0 -1 0
vn 0 -1 0
vt 0.125973 0.967101
vt 0.068948 0.928718
vt 0.049208 0.905688
f 136/136/136 137/137/137 138/138/138
v -3.03467 0 1.86907
v -3.24028 0 1.75941
v -3.39107 0 1.62919
vn 0 -1 0
vn 0 -1 0
vn 0 -1 0
vt 0.125973 0.967101
vt 0.093074 0.949554
vt 0.068948 0.928718
f 139/139/139 140/140/140 141/141/141
v 1.28874 0 -2.36551
v 2.4278 0 1.92391
v -1.76672 0 2.07469
vn 0 -1 -0
vn 0 -1 -0
vn 0 -1 -0
vt 0.817743 0.289542
vt 1 0.975874
vt 0.328853 1
f 142/142/142 143/143/143 144/144/144
