o data/uid/01015144/s/000005.obj
//1
usemtl mat0
v -4.96655 -0.019901 1.31254
v -2.56449 -0.070838 -2.11267
v -2.56449 -0.090836 -2.11238
vn -0.818765 -0.00855508 -0.574064
vn -0.818765 -0.00855508 -0.574064
vn -0.818765 -0.00855508 -0.574064
vt 0.162865 0
vt 0 0
vt 0 1
f 1/1/1 2/2/2 3/3/3
v -4.96655 -0.039899 1.31283
v -4.96655 -0.019901 1.31254
v -2.56449 -0.090836 -2.11238
vn -0.818765 -0.00852429 -0.574065
vn -0.818765 -0.00852429 -0.574065
vn -0.818765 -0.00852429 -0.574065
vt 0.162865 1
vt 0.162865 0
vt 0 1
f 4/4/4 5/5/5 6/6/6
v 6.10678 -0.020419 1.27775
v -4.96655 -0.019901 1.31254
v -4.96655 -0.039899 1.31283
vn 0.00314175 0.0148473 0.999885
vn 0.00314175 0.0148473 0.999885
vn 0.00314175 0.0148473 0.999885
vt 0.593919 0
vt 0.162865 0
vt 0.162865 1
f 7/7/7 8/8/8 9/9/9
v 6.10678 -0.040417 1.27805
v 6.10678 -0.020419 1.27775
v -4.96655 -0.039899 1.31283
vn 0.00314175 0.0148473 0.999885
vn 0.00314175 0.0148473 0.999885
vn 0.00314175 0.0148473 0.999885
vt 0.593919 1
vt 0.593919 0
vt 0.162865 1
f 10/10/10 11/11/11 12/12/12
v 3.66324 -0.071287 -2.14283
v 6.10678 -0.020419 1.27775
v 6.10678 -0.040417 1.27805
vn 0.813733 -0.00862985 -0.581174
vn 0.813733 -0.00862985 -0.581174
vn 0.813733 -0.00862985 -0.581174
vt 0.75757 0
vt 0.593919 0
vt 0.593919 1
f 13/13/13 14/14/14 15/15/15
v 3.66324 -0.091285 -2.14254
v 3.66324 -0.071287 -2.14283
v 6.10678 -0.040417 1.27805
vn 0.813733 -0.0086541 -0.581174
vn 0.813733 -0.0086541 -0.581174
vn 0.813733 -0.0086541 -0.581174
vt 0.75757 1
vt 0.75757 0
vt 0.593919 1
f 16/16/16 17/17/17 18/18/18
v -2.56449 -0.070838 -2.11267
v 3.66324 -0.071287 -2.14283
v 3.66324 -0.091285 -2.14254
vn -0.00484364 -0.0148889 -0.999877
vn -0.00484364 -0.0148889 -0.999877
vn -0.00484364 -0.0148889 -0.999877
vt 1 0
vt 0.75757 0
vt 0.75757 1
f 19/19/19 20/20/20 21/21/21
v -2.56449 -0.090836 -2.11238
v -2.56449 -0.070838 -2.11267
v 3.66324 -0.091285 -2.14254
vn -0.00484368 -0.0149008 -0.999877
vn -0.00484368 -0.0149008 -0.999877
vn -0.00484368 -0.0149008 -0.999877
vt 1 1
vt 1 0
vt 0.75757 1
f 22/22/22 23/23/23 24/24/24
v -4.96655 -0.019901 1.31254
v 6.10678 -0.020419 1.27775
v 3.66323 -0.071287 -2.14283
vn 6.23879e-008 0.999889 -0.0148695
vn 6.23879e-008 0.999889 -0.0148695
vn 6.23879e-008 0.999889 -0.0148695
vt 0 1
vt 1 0.996858
vt 0.779331 0.687921
f 25/25/25 26/26/26 27/27/27
v -2.56449 -0.070838 -2.11267
v -4.96655 -0.019901 1.31254
v 3.66323 -0.071287 -2.14283
vn 7.38691e-008 0.999889 -0.0148695
vn 7.38691e-008 0.999889 -0.0148695
vn 7.38691e-008 0.999889 -0.0148695
vt 0.216923 0.690645
vt 0 1
vt 0.779331 0.687921
f 28/28/28 29/29/29 30/30/30
v 3.66323 -0.091285 -2.14254
v -4.96655 -0.039899 1.31283
v -2.56449 -0.090836 -2.11238
vn -6.97796e-008 -0.999889 0.0148695
vn -6.97796e-008 -0.999889 0.0148695
vn -6.97796e-008 -0.999889 0.0148695
vt 0.779331 0.687921
vt 0 1
vt 0.216923 0.690645
f 31/31/31 32/32/32 33/33/33
v 3.66323 -0.091285 -2.14254
v 6.10678 -0.040417 1.27805
v -4.96655 -0.039899 1.31283
vn -6.2559e-008 -0.999889 0.0148695
vn -6.2559e-008 -0.999889 0.0148695
vn -6.2559e-008 -0.999889 0.0148695
vt 0.779331 0.687921
vt 1 0.996858
vt 0 1
f 34/34/34 35/35/35 36/36/36
