o data/uid/01015144/s/000002.obj
//1
usemtl mat0
v -2.32591 0.042732 0.397145
v -2.35575 0.042732 -2.45114
v -2.35575 0.032732 -2.44976
vn -0.999944 0.00144754 0.0104752
vn -0.999944 0.00144754 0.0104752
vn -0.999944 0.00144754 0.0104752
vt 0.168935 0
vt 0 0
vt 0 1
f 1/1/1 2/2/2 3/3/3
v -2.22449 0.042732 0.655285
v -2.32591 0.042732 0.397145
v -2.32591 0.032732 0.397145
vn -0.930732 0 0.365701
vn -0.930732 0 0.365701
vn -0.930732 0 0.365701
vt 0.185593 0
vt 0.168935 0
vt 0.168935 1
f 4/4/4 5/5/5 6/6/6
v -1.92465 0.042732 1.12667
v -2.22449 0.042732 0.655285
v -2.22449 0.032732 0.655285
vn -0.843774 0 0.536698
vn -0.843774 0 0.536698
vn -0.843774 0 0.536698
vt 0.219492 0
vt 0.185593 0
vt 0.185593 1
f 7/7/7 8/8/8 9/9/9
v -1.62964 0.042732 1.51949
v -1.92465 0.042732 1.12667
v -1.9216 0.032732 1.12667
vn -0.776888 -0.236717 0.583446
vn -0.776888 -0.236717 0.583446
vn -0.776888 -0.236717 0.583446
vt 0.251345 0
vt 0.219492 0
vt 0.219492 1
f 10/10/10 11/11/11 12/12/12
v -1.46129 0.042732 1.63285
v -1.62964 0.042732 1.51949
v -1.62964 0.032732 1.51949
vn -0.558506 0 0.8295
vn -0.558506 0 0.8295
vn -0.558506 0 0.8295
vt 0.264807 0
vt 0.251345 0
vt 0.251345 1
f 13/13/13 14/14/14 15/15/15
v -0.967455 0.042732 1.78193
v -1.46129 0.042732 1.63285
v -1.46129 0.032732 1.6298
vn -0.277438 -0.280027 0.919028
vn -0.277438 -0.280027 0.919028
vn -0.277438 -0.280027 0.919028
vt 0.297383 0
vt 0.264807 0
vt 0.264807 1
f 16/16/16 17/17/17 18/18/18
v -0.078614 0.042732 1.78245
v -0.967455 0.042732 1.78193
v -0.967455 0.032732 1.78901
vn -0.000482827 0.578106 0.815962
vn -0.000482827 0.578106 0.815962
vn -0.000482827 0.578106 0.815962
vt 0.36017 0
vt 0.297383 0
vt 0.297383 1
f 19/19/19 20/20/20 21/21/21
v 0.378834 0.042732 1.627
v -0.078614 0.042732 1.78245
v -0.076763 0.032732 1.78497
vn 0.308339 0.285723 0.907353
vn 0.308339 0.285723 0.907353
vn 0.308339 0.285723 0.907353
vt 0.383765 0
vt 0.36017 0
vt 0.36017 1
f 22/22/22 23/23/23 24/24/24
v 0.982825 0.042732 1.19877
v 0.378834 0.042732 1.627
v 0.378834 0.032732 1.627
vn 0.578382 -0 0.815766
vn 0.578382 -0 0.815766
vn 0.578382 -0 0.815766
vt 0.429995 0
vt 0.383765 0
vt 0.383765 1
f 25/25/25 26/26/26 27/27/27
v 1.60682 0.042732 0.552168
v 0.982825 0.042732 1.19877
v 0.982825 0.032732 1.19877
vn 0.719575 -0 0.694415
vn 0.719575 -0 0.694415
vn 0.719575 -0 0.694415
vt 0.486101 0
vt 0.429995 0
vt 0.429995 1
f 28/28/28 29/29/29 30/30/30
v 1.86861 0.042732 0.068798
v 1.60682 0.042732 0.552168
v 1.60682 0.032732 0.552168
vn 0.879314 -0 0.476242
vn 0.879314 -0 0.476242
vn 0.879314 -0 0.476242
vt 0.522176 0
vt 0.486101 0
vt 0.486101 1
f 31/31/31 32/32/32 33/33/33
v 2.3974 0.042732 -0.995728
v 1.86861 0.042732 0.068798
v 1.86861 0.032732 0.068798
vn 0.895592 -0 0.444876
vn 0.895592 -0 0.444876
vn 0.895592 -0 0.444876
vt 0.594938 0
vt 0.522176 0
vt 0.522176 1
f 34/34/34 35/35/35 36/36/36
v 2.61062 0.042732 -1.6168
v 2.3974 0.042732 -0.995728
v 2.3974 0.032732 -0.995728
vn 0.945817 -0 0.3247
vn 0.945817 -0 0.3247
vn 0.945817 -0 0.3247
vt 0.630462 0
vt 0.594938 0
vt 0.594938 1
f 37/37/37 38/38/38 39/39/39
v 2.69612 0.042732 -2.46503
v 2.61062 0.042732 -1.6168
v 2.61062 0.032732 -1.6052
vn 0.988293 0.115552 0.0996221
vn 0.988293 0.115552 0.0996221
vn 0.988293 0.115552 0.0996221
vt 0.688194 0
vt 0.630462 0
vt 0.630462 1
f 40/40/40 41/41/41 42/42/42
v -2.35575 0.042732 -2.45114
v 2.69612 0.042732 -2.46503
v 2.6894 0.032732 -2.46503
vn -0.00274946 0.00184818 -0.999995
vn -0.00274946 0.00184818 -0.999995
vn -0.00274946 0.00184818 -0.999995
vt 1 0
vt 0.688194 0
vt 0.688194 1
f 43/43/43 44/44/44 45/45/45
v -2.32591 0.032732 0.397145
v -2.32591 0.042732 0.397145
v -2.35575 0.032732 -2.44976
vn -0.999945 0 0.0104803
vn -0.999945 0 0.0104803
vn -0.999945 0 0.0104803
vt 0.168935 1
vt 0.168935 0
vt 0 1
f 46/46/46 47/47/47 48/48/48
v -2.22449 0.032732 0.655285
v -2.22449 0.042732 0.655285
v -2.32591 0.032732 0.397145
vn -0.930732 0 0.365701
vn -0.930732 0 0.365701
vn -0.930732 0 0.365701
vt 0.185593 1
vt 0.185593 0
vt 0.168935 1
f 49/49/49 50/50/50 51/51/51
v -1.9216 0.032732 1.12667
v -1.92465 0.042732 1.12667
v -2.22449 0.032732 0.655285
vn -0.814953 -0.248315 0.523633
vn -0.814953 -0.248315 0.523633
vn -0.814953 -0.248315 0.523633
vt 0.219492 1
vt 0.219492 0
vt 0.185593 1
f 52/52/52 53/53/53 54/54/54
v -1.62964 0.032732 1.51949
v -1.62964 0.042732 1.51949
v -1.9216 0.032732 1.12667
vn -0.802594 0 0.596526
vn -0.802594 0 0.596526
vn -0.802594 0 0.596526
vt 0.251345 1
vt 0.251345 0
vt 0.219492 1
f 55/55/55 56/56/56 57/57/57
v -1.46129 0.032732 1.6298
v -1.46129 0.042732 1.63285
v -1.62964 0.032732 1.51949
vn -0.531069 -0.24697 0.810538
vn -0.531069 -0.24697 0.810538
vn -0.531069 -0.24697 0.810538
vt 0.264807 1
vt 0.264807 0
vt 0.251345 1
f 58/58/58 59/59/59 60/60/60
v -0.967455 0.032732 1.78901
v -0.967455 0.042732 1.78193
v -1.46129 0.032732 1.6298
vn -0.254409 0.559084 0.789114
vn -0.254409 0.559084 0.789114
vn -0.254409 0.559084 0.789114
vt 0.297383 1
vt 0.297383 0
vt 0.264807 1
f 61/61/61 62/62/62 63/63/63
v -0.076763 0.032732 1.78497
v -0.078614 0.042732 1.78245
v -0.967455 0.032732 1.78901
vn 0.00439634 0.24512 0.969483
vn 0.00439634 0.24512 0.969483
vn 0.00439634 0.24512 0.969483
vt 0.36017 1
vt 0.36017 0
vt 0.297383 1
f 64/64/64 65/65/65 66/66/66
v 0.378834 0.032732 1.627
v 0.378834 0.042732 1.627
v -0.076763 0.032732 1.78497
vn 0.3276 0 0.944817
vn 0.3276 0 0.944817
vn 0.3276 0 0.944817
vt 0.383765 1
vt 0.383765 0
vt 0.36017 1
f 67/67/67 68/68/68 69/69/69
v 0.982825 0.032732 1.19877
v 0.982825 0.042732 1.19877
v 0.378834 0.032732 1.627
vn 0.578382 0 0.815766
vn 0.578382 0 0.815766
vn 0.578382 0 0.815766
vt 0.429995 1
vt 0.429995 0
vt 0.383765 1
f 70/70/70 71/71/71 72/72/72
v 1.60682 0.032732 0.552168
v 1.60682 0.042732 0.552168
v 0.982825 0.032732 1.19877
vn 0.719575 0 0.694415
vn 0.719575 0 0.694415
vn 0.719575 0 0.694415
vt 0.486101 1
vt 0.486101 0
vt 0.429995 1
f 73/73/73 74/74/74 75/75/75
v 1.86861 0.032732 0.068798
v 1.86861 0.042732 0.068798
v 1.60682 0.032732 0.552168
vn 0.879314 0 0.476242
vn 0.879314 0 0.476242
vn 0.879314 0 0.476242
vt 0.522176 1
vt 0.522176 0
vt 0.486101 1
f 76/76/76 77/77/77 78/78/78
v 2.3974 0.032732 -0.995728
v 2.3974 0.042732 -0.995728
v 1.86861 0.032732 0.068798
vn 0.895592 0 0.444876
vn 0.895592 0 0.444876
vn 0.895592 0 0.444876
vt 0.594938 1
vt 0.594938 0
vt 0.522176 1
f 79/79/79 80/80/80 81/81/81
v 2.61062 0.032732 -1.6052
v 2.61062 0.042732 -1.6168
v 2.3974 0.032732 -0.995728
vn 0.881463 0.357677 0.308367
vn 0.881463 0.357677 0.308367
vn 0.881463 0.357677 0.308367
vt 0.630462 1
vt 0.630462 0
vt 0.594938 1
f 82/82/82 83/83/83 84/84/84
v 2.6894 0.032732 -2.46503
v 2.69612 0.042732 -2.46503
v 2.61062 0.032732 -1.6052
vn 0.827537 -0.556268 0.0758226
vn 0.827537 -0.556268 0.0758226
vn 0.827537 -0.556268 0.0758226
vt 0.688194 1
vt 0.688194 0
vt 0.630462 1
f 85/85/85 86/86/86 87/87/87
v -2.35575 0.032732 -2.44976
v -2.35575 0.042732 -2.45114
v 2.6894 0.032732 -2.46503
vn -0.00299854 -0.136886 -0.990582
vn -0.00299854 -0.136886 -0.990582
vn -0.00299854 -0.136886 -0.990582
vt 1 1
vt 1 0
vt 0.688194 1
f 88/88/88 89/89/89 90/90/90
v -2.35575 0.042732 -2.45361
v 2.55843 0.042732 -1.54141
v 2.63562 0.042732 -2.46281
vn 0 1 0
vn 0 1 0
vn 0 1 0
vt 0 0.172523
vt 0.984534 0.32605
vt 1 0.141452
f 91/91/91 92/92/92 93/93/93
v -2.35575 0.042732 -2.45361
v 2.3974 0.042732 -0.995728
v 2.55843 0.042732 -1.54141
vn 0 1 0
vn 0 1 0
vn 0 1 0
vt 0 0.172523
vt 0.952275 0.435374
vt 0.984534 0.32605
f 94/94/94 95/95/95 96/96/96
v -2.35575 0.042732 -2.45361
v 1.89883 0.042732 0.068798
v 2.3974 0.042732 -0.995728
vn 0 1 0
vn 0 1 0
vn 0 1 0
vt 0 0.172523
vt 0.857287 0.648648
vt 0.952275 0.435374
f 97/97/97 98/98/98 99/99/99
v -2.35575 0.042732 -2.45361
v 1.60682 0.042732 0.552167
v 1.89883 0.042732 0.068798
vn 0 1 0
vn 0 1 0
vn 0 1 0
vt 0 0.172523
vt 0.793884 0.745489
vt 0.857287 0.648648
f 100/100/100 101/101/101 102/102/102
v -2.35575 0.042732 -2.45361
v -2.29183 0.042732 0.397145
v 1.60682 0.042732 0.552167
vn 0 1 0
vn 0 1 0
vn 0 1 0
vt 0 0.172523
vt 0.012807 0.714431
vt 0.793884 0.745489
f 103/103/103 104/104/104 105/105/105
v -2.29183 0.042732 0.397145
v 0.982826 0.042732 1.19877
v 1.60682 0.042732 0.552167
vn 0 1 0
vn 0 1 0
vn 0 1 0
vt 0.012807 0.714431
vt 0.66887 0.875032
vt 0.793884 0.745489
f 106/106/106 107/107/107 108/108/108
v -2.29183 0.042732 0.397145
v 0.378835 0.042732 1.627
v 0.982826 0.042732 1.19877
vn 0 1 0
vn 0 1 0
vn 0 1 0
vt 0.012807 0.714431
vt 0.547863 0.960827
vt 0.66887 0.875032
f 109/109/109 110/110/110 111/111/111
v -2.29183 0.042732 0.397145
v -1.95512 0.042732 1.12667
v 0.378835 0.042732 1.627
vn 0 1 0
vn 0 1 0
vn 0 1 0
vt 0.012807 0.714431
vt 0.080265 0.860588
vt 0.547863 0.960827
f 112/112/112 113/113/113 114/114/114
v -0.967454 0.042732 1.82253
v 0.03757 0.042732 1.78929
v 0.378835 0.042732 1.627
vn 0 1 0
vn 0 1 0
vn 0 1 0
vt 0.278139 1
vt 0.479492 0.99334
vt 0.547863 0.960827
f 115/115/115 116/116/116 117/117/117
v -1.95512 0.042732 1.12667
v -0.967454 0.042732 1.82253
v 0.378835 0.042732 1.627
vn 0 1 0
vn 0 1 0
vn 0 1 0
vt 0.080265 0.860588
vt 0.278139 1
vt 0.547863 0.960827
f 118/118/118 119/119/119 120/120/120
v -1.62964 0.042732 1.51949
v -1.46129 0.042732 1.65418
v -0.967454 0.042732 1.82253
vn 0 1 0
vn 0 1 0
vn 0 1 0
vt 0.145473 0.939288
vt 0.179202 0.966271
vt 0.278139 1
f 121/121/121 122/122/122 123/123/123
v -1.95512 0.042732 1.12667
v -1.62964 0.042732 1.51949
v -0.967454 0.042732 1.82253
vn 0 1 0
vn 0 1 0
vn 0 1 0
vt 0.080265 0.860588
vt 0.145473 0.939288
vt 0.278139 1
f 124/124/124 125/125/125 126/126/126
v -2.29183 0.042732 0.397145
v -2.22448 0.042732 0.655285
v -1.95512 0.042732 1.12667
vn 0 1 0
vn 0 1 0
vn 0 1 0
vt 0.012807 0.714431
vt 0.026299 0.766148
vt 0.080265 0.860588
f 127/127/127 128/128/128 129/129/129
v 1.60682 0.032732 0.552167
v -2.29183 0.032732 0.397145
v -2.35575 0.032732 -2.44833
vn 0 -1 0
vn 0 -1 0
vn 0 -1 0
vt 0.793884 0.745489
vt 0.012807 0.714431
vt 0 0.172523
f 130/130/130 131/131/131 132/132/132
v 1.90005 0.032732 0.068798
v 1.60682 0.032732 0.552167
v -2.35575 0.032732 -2.44833
vn 0 -1 0
vn 0 -1 0
vn 0 -1 0
vt 0.857287 0.648648
vt 0.793884 0.745489
vt 0 0.172523
f 133/133/133 134/134/134 135/135/135
v 2.3974 0.032732 -0.995728
v 1.90005 0.032732 0.068798
v -2.35575 0.032732 -2.44833
vn 0 -1 0
vn 0 -1 0
vn 0 -1 0
vt 0.952275 0.435374
vt 0.857287 0.648648
vt 0 0.172523
f 136/136/136 137/137/137 138/138/138
v 2.55843 0.032732 -1.54141
v 2.3974 0.032732 -0.995728
v -2.35575 0.032732 -2.44833
vn 0 -1 0
vn 0 -1 0
vn 0 -1 0
vt 0.984534 0.32605
vt 0.952275 0.435374
vt 0 0.172523
f 139/139/139 140/140/140 141/141/141
v 2.63562 0.032732 -2.46281
v 2.55843 0.032732 -1.54141
v -2.35575 0.032732 -2.44833
vn 0 -1 0
vn 0 -1 0
vn 0 -1 0
vt 1 0.141452
vt 0.984534 0.32605
vt 0 0.172523
f 142/142/142 143/143/143 144/144/144
v -1.95512 0.032732 1.12667
v -2.22448 0.032732 0.655285
v -2.29183 0.032732 0.397145
vn 0 -1 0
vn 0 -1 0
vn 0 -1 0
vt 0.080265 0.860588
vt 0.026299 0.766148
vt 0.012807 0.714431
f 145/145/145 146/146/146 147/147/147
v 0.378835 0.032732 1.627
v -1.95512 0.032732 1.12667
v -2.29183 0.032732 0.397145
vn 0 -1 0
vn 0 -1 0
vn 0 -1 0
vt 0.547863 0.960827
vt 0.080265 0.860588
vt 0.012807 0.714431
f 148/148/148 149/149/149 150/150/150
v 0.982826 0.032732 1.19877
v 0.378835 0.032732 1.627
v -2.29183 0.032732 0.397145
vn 0 -1 0
vn 0 -1 0
vn 0 -1 0
vt 0.66887 0.875032
vt 0.547863 0.960827
vt 0.012807 0.714431
f 151/151/151 152/152/152 153/153/153
v 1.60682 0.032732 0.552167
v 0.982826 0.032732 1.19877
v -2.29183 0.032732 0.397145
vn 0 -1 0
vn 0 -1 0
vn 0 -1 0
vt 0.793884 0.745489
vt 0.66887 0.875032
vt 0.012807 0.714431
f 154/154/154 155/155/155 156/156/156
v -0.967454 0.032732 1.82253
v -1.62964 0.032732 1.51949
v -1.95512 0.032732 1.12667
vn 0 -1 0
vn 0 -1 0
vn 0 -1 0
vt 0.278139 1
vt 0.145473 0.939288
vt 0.080265 0.860588
f 157/157/157 158/158/158 159/159/159
v 0.378835 0.032732 1.627
v -0.967454 0.032732 1.82253
v -1.95512 0.032732 1.12667
vn 0 -1 0
vn 0 -1 0
vn 0 -1 0
vt 0.547863 0.960827
vt 0.278139 1
vt 0.080265 0.860588
f 160/160/160 161/161/161 162/162/162
v -0.967454 0.032732 1.82253
v -1.46129 0.032732 1.65418
v -1.62964 0.032732 1.51949
vn 0 -1 0
vn 0 -1 0
vn 0 -1 0
vt 0.278139 1
vt 0.179202 0.966271
vt 0.145473 0.939288
f 163/163/163 164/164/164 165/165/165
v 0.378835 0.032732 1.627
v 0.03757 0.032732 1.78929
v -0.967454 0.032732 1.82253
vn 0 -1 0
vn 0 -1 0
vn 0 -1 0
vt 0.547863 0.960827
vt 0.479492 0.99334
vt 0.278139 1
f 166/166/166 167/167/167 168/168/168
