o data/uid/01015144/s/000012.obj
//1
usemtl mat0
v 2.35139 0 -1.77305
v 2.33139 0 -1.77305
v -4.10288 0 -1.71207
vn -0 1 0
vn -0 1 0
vn -0 1 0
vt 0.281323 0
vt 0.281323 1
vt 0 1
f 1/1/1 2/2/2 3/3/3
v -4.08288 0 -1.71207
v 2.35139 0 -1.77305
v -4.10288 0 -1.71207
vn -0 1 -0
vn -0 1 -0
vn -0 1 -0
vt 0 0
vt 0.281323 0
vt 0 1
f 4/4/4 5/5/5 6/6/6
v 4.77933 0 1.67406
v 4.75933 0 1.67406
v 2.33139 0 -1.77305
vn 0 -1 0
vn 0 -1 0
vn 0 -1 0
vt 0.465664 0
vt 0.465664 1
vt 0.281323 1
f 7/7/7 8/8/8 9/9/9
v 2.35139 0 -1.77305
v 4.77933 0 1.67406
v 2.33139 0 -1.77305
vn 0 -1 -0
vn 0 -1 -0
vn 0 -1 -0
vt 0.281323 0
vt 0.465664 0
vt 0.281323 1
f 10/10/10 11/11/11 12/12/12
v -4.07552 0 1.65463
v -4.09552 0 1.65463
v 4.75933 0 1.67406
vn -0 1 0
vn -0 1 0
vn -0 1 0
vt 0.852805 0
vt 0.852805 1
vt 0.465664 1
f 13/13/13 14/14/14 15/15/15
v 4.77933 0 1.67406
v -4.07552 0 1.65463
v 4.75933 0 1.67406
vn -0 1 0
vn -0 1 0
vn -0 1 0
vt 0.465664 0
vt 0.852805 0
vt 0.465664 1
f 16/16/16 17/17/17 18/18/18
v -4.08288 0 -1.71207
v -4.10288 0 -1.71207
v -4.09552 0 1.65463
vn -0 1 0
vn -0 1 0
vn -0 1 0
vt 1 0
vt 1 1
vt 0.852805 1
f 19/19/19 20/20/20 21/21/21
v -4.07552 0 1.65463
v -4.08288 0 -1.71207
v -4.09552 0 1.65463
vn -0 1 0
vn -0 1 0
vn -0 1 0
vt 0.852805 0
vt 1 0
vt 0.852805 1
f 22/22/22 23/23/23 24/24/24
v -4.07551 4e-006 1.65463
v 2.35139 4e-006 -1.77305
v -4.08288 5e-006 -1.71207
vn 1.5823e-007 1 2.9668e-007
vn 1.5823e-007 1 2.9668e-007
vn 1.5823e-007 1 2.9668e-007
vt 0.000831 0.997807
vt 0.726034 0.611032
vt 0 0.617913
f 25/25/25 26/26/26 27/27/27
v -4.07551 4e-006 1.65463
v 4.77933 4e-006 1.67406
v 2.35139 4e-006 -1.77305
vn 0 1 -0
vn 0 1 -0
vn 0 1 -0
vt 0.000831 0.997807
vt 1 1
vt 0.726034 0.611032
f 28/28/28 29/29/29 30/30/30
v -4.10288 5e-006 -1.71207
v 2.33139 4e-006 -1.77305
v -4.09551 4e-006 1.65463
vn -1.5823e-007 -1 -2.9668e-007
vn -1.5823e-007 -1 -2.9668e-007
vn -1.5823e-007 -1 -2.9668e-007
vt 0 0.617913
vt 0.726034 0.611032
vt 0.000831 0.997807
f 31/31/31 32/32/32 33/33/33
v 2.33139 4e-006 -1.77305
v 4.75933 4e-006 1.67406
v -4.09551 4e-006 1.65463
vn 0 -1 -0
vn 0 -1 -0
vn 0 -1 -0
vt 0.726034 0.611032
vt 1 1
vt 0.000831 0.997807
f 34/34/34 35/35/35 36/36/36
