o data/uid/01015144/s/000018.obj
//1
usemtl mat0
v 14.5105 0 15.1871
v 12.9991 0 16.4969
v 15.2695 0 19.1166
vn 0 1 0
vn 0 1 0
vn 0 1 0
vt 1.00298 1.56719
vt 0.012853 1.56719
vt 0.012853 0.026806
f 1/1/1 2/2/2 3/3/3
v 16.7809 0 17.8068
v 14.5105 0 15.1871
v 15.2695 0 19.1166
vn -0 1 0
vn -0 1 0
vn -0 1 0
vt 1.00298 0.026806
vt 1.00298 1.56719
vt 0.012853 0.026806
f 4/4/4 5/5/5 6/6/6
v 12.2401 0 12.5673
v 10.7287 0 13.8772
v 12.9991 0 16.4969
vn 0 1 0
vn 0 1 0
vn 0 1 0
vt 1.00298 3.10756
vt 0.012853 3.10756
vt 0.012853 1.56719
f 7/7/7 8/8/8 9/9/9
v 14.5105 0 15.1871
v 12.2401 0 12.5673
v 12.9991 0 16.4969
vn -0 1 0
vn -0 1 0
vn -0 1 0
vt 1.00298 1.56719
vt 1.00298 3.10756
vt 0.012853 1.56719
f 10/10/10 11/11/11 12/12/12
v 9.96968 0 9.94758
v 8.45829 0 11.2574
v 10.7287 0 13.8772
vn 0 1 0
vn 0 1 0
vn 0 1 0
vt 1.00298 4.64794
vt 0.012853 4.64794
vt 0.012853 3.10756
f 13/13/13 14/14/14 15/15/15
v 12.2401 0 12.5673
v 9.96968 0 9.94758
v 10.7287 0 13.8772
vn -0 1 0
vn -0 1 0
vn -0 1 0
vt 1.00298 3.10756
vt 1.00298 4.64794
vt 0.012853 3.10756
f 16/16/16 17/17/17 18/18/18
v 7.69927 0 7.32784
v 6.18788 0 8.63769
v 8.45829 0 11.2574
vn 0 1 0
vn 0 1 0
vn 0 1 0
vt 1.00298 6.18831
vt 0.012853 6.18831
vt 0.012853 4.64794
f 19/19/19 20/20/20 21/21/21
v 9.96968 0 9.94758
v 7.69927 0 7.32784
v 8.45829 0 11.2574
vn -0 1 0
vn -0 1 0
vn -0 1 0
vt 1.00298 4.64794
vt 1.00298 6.18831
vt 0.012853 4.64794
f 22/22/22 23/23/23 24/24/24
v 5.42886 0 4.7081
v 3.91748 0 6.01795
v 6.18788 0 8.63769
vn 0 1 0
vn 0 1 0
vn 0 1 0
vt 1.00298 7.72869
vt 0.012853 7.72869
vt 0.012853 6.18831
f 25/25/25 26/26/26 27/27/27
v 7.69927 0 7.32784
v 5.42886 0 4.7081
v 6.18788 0 8.63769
vn -0 1 0
vn -0 1 0
vn -0 1 0
vt 1.00298 6.18831
vt 1.00298 7.72869
vt 0.012853 6.18831
f 28/28/28 29/29/29 30/30/30
v 3.15846 0 2.08836
v 1.64707 0 3.39821
v 3.91748 0 6.01795
vn 0 1 0
vn 0 1 0
vn 0 1 0
vt 1.00298 9.26907
vt 0.012853 9.26907
vt 0.012853 7.72869
f 31/31/31 32/32/32 33/33/33
v 5.42886 0 4.7081
v 3.15846 0 2.08836
v 3.91748 0 6.01795
vn -0 1 0
vn -0 1 0
vn -0 1 0
vt 1.00298 7.72869
vt 1.00298 9.26907
vt 0.012853 7.72869
f 34/34/34 35/35/35 36/36/36
v 0.888054 0 -0.531379
v -0.623335 0 0.77847
v 1.64707 0 3.39821
vn 0 1 0
vn 0 1 0
vn 0 1 0
vt 1.00298 10.8094
vt 0.012853 10.8094
vt 0.012853 9.26907
f 37/37/37 38/38/38 39/39/39
v 3.15846 0 2.08836
v 0.888054 0 -0.531379
v 1.64707 0 3.39821
vn -0 1 0
vn -0 1 0
vn -0 1 0
vt 1.00298 9.26907
vt 1.00298 10.8094
vt 0.012853 9.26907
f 40/40/40 41/41/41 42/42/42
v -1.38235 0 -3.15112
v -2.89374 0 -1.84127
v -0.623335 0 0.77847
vn 0 1 0
vn 0 1 0
vn 0 1 0
vt 1.00298 12.3498
vt 0.012853 12.3498
vt 0.012853 10.8094
f 43/43/43 44/44/44 45/45/45
v 0.888054 0 -0.531379
v -1.38235 0 -3.15112
v -0.623335 0 0.77847
vn -0 1 0
vn -0 1 0
vn -0 1 0
vt 1.00298 10.8094
vt 1.00298 12.3498
vt 0.012853 10.8094
f 46/46/46 47/47/47 48/48/48
v -3.65276 0 -5.77086
v -5.16415 0 -4.46101
v -2.89374 0 -1.84127
vn 0 1 0
vn 0 1 0
vn 0 1 0
vt 1.00298 13.8902
vt 0.012853 13.8902
vt 0.012853 12.3498
f 49/49/49 50/50/50 51/51/51
v -1.38235 0 -3.15112
v -3.65276 0 -5.77086
v -2.89374 0 -1.84127
vn -0 1 0
vn -0 1 0
vn -0 1 0
vt 1.00298 12.3498
vt 1.00298 13.8902
vt 0.012853 12.3498
f 52/52/52 53/53/53 54/54/54
v -5.92316 0 -8.3906
v -7.43455 0 -7.08075
v -5.16415 0 -4.46101
vn 0 1 0
vn 0 1 0
vn 0 1 0
vt 1.00298 15.4306
vt 0.012853 15.4306
vt 0.012853 13.8902
f 55/55/55 56/56/56 57/57/57
v -3.65276 0 -5.77086
v -5.92316 0 -8.3906
v -5.16415 0 -4.46101
vn -0 1 0
vn -0 1 0
vn -0 1 0
vt 1.00298 13.8902
vt 1.00298 15.4306
vt 0.012853 13.8902
f 58/58/58 59/59/59 60/60/60
v -8.19357 0 -11.0103
v -9.70496 0 -9.70049
v -7.43455 0 -7.08075
vn 0 1 0
vn 0 1 0
vn 0 1 0
vt 1.00298 16.971
vt 0.012853 16.971
vt 0.012853 15.4306
f 61/61/61 62/62/62 63/63/63
v -5.92316 0 -8.3906
v -8.19357 0 -11.0103
v -7.43455 0 -7.08075
vn -0 1 0
vn -0 1 0
vn -0 1 0
vt 1.00298 15.4306
vt 1.00298 16.971
vt 0.012853 15.4306
f 64/64/64 65/65/65 66/66/66
v -10.464 0 -13.6301
v -11.9754 0 -12.3202
v -9.70496 0 -9.70049
vn 0 1 0
vn 0 1 0
vn 0 1 0
vt 1.00298 18.5113
vt 0.012853 18.5113
vt 0.012853 16.971
f 67/67/67 68/68/68 69/69/69
v -8.19357 0 -11.0103
v -10.464 0 -13.6301
v -9.70496 0 -9.70049
vn -0 1 0
vn -0 1 0
vn -0 1 0
vt 1.00298 16.971
vt 1.00298 18.5113
vt 0.012853 16.971
f 70/70/70 71/71/71 72/72/72
v -12.7344 0 -16.2498
v -14.2458 0 -14.94
v -11.9754 0 -12.3202
vn 0 1 0
vn 0 1 0
vn 0 1 0
vt 1.00298 20.0517
vt 0.012853 20.0517
vt 0.012853 18.5113
f 73/73/73 74/74/74 75/75/75
v -10.464 0 -13.6301
v -12.7344 0 -16.2498
v -11.9754 0 -12.3202
vn -0 1 0
vn -0 1 0
vn -0 1 0
vt 1.00298 18.5113
vt 1.00298 20.0517
vt 0.012853 18.5113
f 76/76/76 77/77/77 78/78/78
v -15.0048 0 -18.8696
v -16.5162 0 -17.5597
v -14.2458 0 -14.94
vn 0 1 0
vn 0 1 0
vn 0 1 0
vt 1.00298 21.5921
vt 0.012853 21.5921
vt 0.012853 20.0517
f 79/79/79 80/80/80 81/81/81
v -12.7344 0 -16.2498
v -15.0048 0 -18.8696
v -14.2458 0 -14.94
vn -0 1 0
vn -0 1 0
vn -0 1 0
vt 1.00298 20.0517
vt 1.00298 21.5921
vt 0.012853 20.0517
f 82/82/82 83/83/83 84/84/84
v -17.2435 0 -21.5678
v -19.4335 0 -21.5717
v -16.5162 0 -17.5597
vn -0 1 0
vn -0 1 0
vn -0 1 0
vt 1.00298 23.1325
vt 0.012853 23.1325
vt 0.012853 21.5921
f 85/85/85 86/86/86 87/87/87
v -15.0048 0 -18.8696
v -17.2435 0 -21.5678
v -16.5162 0 -17.5597
vn -0 1 0
vn -0 1 0
vn -0 1 0
vt 1.00298 21.5921
vt 1.00298 23.1325
vt 0.012853 21.5921
f 88/88/88 89/89/89 90/90/90
v 21.6598 0 30.285
v 19.9777 0 31.1371
v 22.4303 0 35.6703
vn 0 1 0
vn 0 1 0
vn 0 1 0
vt 0.012171 -2.0547
vt -0.992438 -2.0547
vt -0.992438 -2.97772
f 91/91/91 92/92/92 93/93/93
v 22.4184 0 32.3782
v 21.6598 0 30.285
v 22.4303 0 35.6703
vn -0 1 0
vn -0 1 0
vn -0 1 0
vt 0.012171 -2.97772
vt 0.012171 -2.0547
vt -0.992438 -2.97772
f 94/94/94 95/95/95 96/96/96
v 20.6881 0 27.7461
v 18.9039 0 28.6499
v 19.9777 0 31.1371
vn 0 1 0
vn 0 1 0
vn 0 1 0
vt -0.029526 -1.12436
vt -0.971534 -1.12436
vt -0.971534 -2.04424
f 97/97/97 98/98/98 99/99/99
v 21.6598 0 30.285
v 20.6881 0 27.7461
v 19.9777 0 31.1371
vn -0 1 0
vn -0 1 0
vn -0 1 0
vt -0.029526 -2.04424
vt -0.029526 -1.12436
vt -0.971534 -2.04424
f 100/100/100 101/101/101 102/102/102
v 18.8943 0 22.7604
v 17.1416 0 23.6483
v 18.9039 0 28.6499
vn 0 1 0
vn 0 1 0
vn 0 1 0
vt -0.029526 -0.204488
vt -0.971534 -0.204488
vt -0.971534 -1.12436
f 103/103/103 104/104/104 105/105/105
v 20.6881 0 27.7461
v 18.8943 0 22.7604
v 18.9039 0 28.6499
vn -0 1 0
vn -0 1 0
vn -0 1 0
vt -0.029526 -1.12436
vt -0.029526 -0.204488
vt -0.971534 -1.12436
f 106/106/106 107/107/107 108/108/108
v 17.876 0 20.2451
v 16.2004 0 21.0939
v 17.1416 0 23.6483
vn 0 1 0
vn 0 1 0
vn 0 1 0
vt -0.029526 0.715386
vt -0.971534 0.715386
vt -0.971534 -0.204488
f 109/109/109 110/110/110 111/111/111
v 18.8943 0 22.7604
v 17.876 0 20.2451
v 17.1416 0 23.6483
vn -0 1 0
vn -0 1 0
vn -0 1 0
vt -0.029526 -0.204488
vt -0.029526 0.715386
vt -0.971534 -0.204488
f 112/112/112 113/113/113 114/114/114
v 16.7309 0 17.8179
v 15.2645 0 19.0841
v 16.2004 0 21.0939
vn 0 1 0
vn 0 1 0
vn 0 1 0
vt -0.029526 1.63526
vt -0.971534 1.63526
vt -0.971534 0.715386
f 115/115/115 116/116/116 117/117/117
v 17.876 0 20.2451
v 16.7309 0 17.8179
v 16.2004 0 21.0939
vn -0 1 0
vn -0 1 0
vn -0 1 0
vt -0.029526 0.715386
vt -0.029526 1.63526
vt -0.971534 0.715386
f 118/118/118 119/119/119 120/120/120
