o data/uid/01015144/s/000013.obj
//1
usemtl mat0
v 2.55919 0 -0.531548
v 2.53919 0 -0.531548
v 2.52477 0 -2.42433
vn 0 -1 0
vn 0 -1 0
vn 0 -1 0
vt 0.11287 0
vt 0.11287 1
vt 0 1
f 1/1/1 2/2/2 3/3/3
v 2.54477 0 -2.42433
v 2.55919 0 -0.531548
v 2.52477 0 -2.42433
vn 0 -1 -0
vn 0 -1 -0
vn 0 -1 -0
vt 0 0
vt 0.11287 0
vt 0 1
f 4/4/4 5/5/5 6/6/6
v 2.39918 0 -0.027522
v 2.37918 0 -0.027522
v 2.53919 0 -0.531548
vn 0 -1 0
vn 0 -1 0
vn 0 -1 0
vt 0.144403 0
vt 0.144403 1
vt 0.11287 1
f 7/7/7 8/8/8 9/9/9
v 2.55919 0 -0.531548
v 2.39918 0 -0.027522
v 2.53919 0 -0.531548
vn 0 -1 0
vn 0 -1 0
vn 0 -1 0
vt 0.11287 0
vt 0.144403 0
vt 0.11287 1
f 10/10/10 11/11/11 12/12/12
v 1.67114 0 0.892525
v 1.65114 0 0.892525
v 2.37918 0 -0.027522
vn 0 -1 0
vn 0 -1 0
vn 0 -1 0
vt 0.214364 0
vt 0.214364 1
vt 0.144403 1
f 13/13/13 14/14/14 15/15/15
v 2.39918 0 -0.027522
v 1.67114 0 0.892525
v 2.37918 0 -0.027522
vn 0 -1 0
vn 0 -1 0
vn 0 -1 0
vt 0.144403 0
vt 0.214364 0
vt 0.144403 1
f 16/16/16 17/17/17 18/18/18
v 1.03111 0 1.52456
v 1.01111 0 1.52456
v 1.65114 0 0.892525
vn 0 -1 0
vn 0 -1 0
vn 0 -1 0
vt 0.268002 0
vt 0.268002 1
vt 0.214364 1
f 19/19/19 20/20/20 21/21/21
v 1.67114 0 0.892525
v 1.03111 0 1.52456
v 1.65114 0 0.892525
vn 0 -1 0
vn 0 -1 0
vn 0 -1 0
vt 0.214364 0
vt 0.268002 0
vt 0.214364 1
f 22/22/22 23/23/23 24/24/24
v 0.111065 0 2.15659
v 0.091065 0 2.15659
v 1.01111 0 1.52456
vn 0 -1 0
vn 0 -1 0
vn 0 -1 0
vt 0.334562 0
vt 0.334562 1
vt 0.268002 1
f 25/25/25 26/26/26 27/27/27
v 1.03111 0 1.52456
v 0.111065 0 2.15659
v 1.01111 0 1.52456
vn 0 -1 0
vn 0 -1 0
vn 0 -1 0
vt 0.268002 0
vt 0.334562 0
vt 0.268002 1
f 28/28/28 29/29/29 30/30/30
v -0.864986 0 2.47661
v -0.884986 0 2.47661
v 0.091065 0 2.15659
vn 0 -1 0
vn 0 -1 0
vn 0 -1 0
vt 0.395812 0
vt 0.395812 1
vt 0.334562 1
f 31/31/31 32/32/32 33/33/33
v 0.111065 0 2.15659
v -0.864986 0 2.47661
v 0.091065 0 2.15659
vn 0 -1 0
vn 0 -1 0
vn 0 -1 0
vt 0.334562 0
vt 0.395812 0
vt 0.334562 1
f 34/34/34 35/35/35 36/36/36
v -1.61703 0 2.66062
v -1.63702 0 2.66062
v -0.884986 0 2.47661
vn 0 -1 0
vn 0 -1 0
vn 0 -1 0
vt 0.441979 0
vt 0.441979 1
vt 0.395812 1
f 37/37/37 38/38/38 39/39/39
v -0.864986 0 2.47661
v -1.61703 0 2.66062
v -0.884986 0 2.47661
vn 0 -1 0
vn 0 -1 0
vn 0 -1 0
vt 0.395812 0
vt 0.441979 0
vt 0.395812 1
f 40/40/40 41/41/41 42/42/42
v -1.67338 0 2.66374
v -1.69337 0 2.66374
v -1.63702 0 2.66062
vn 0 -1 0
vn 0 -1 0
vn 0 -1 0
vt 0.445345 0
vt 0.445345 1
vt 0.441979 1
f 43/43/43 44/44/44 45/45/45
v -1.61703 0 2.66062
v -1.67338 0 2.66374
v -1.63702 0 2.66062
vn 0 -1 0
vn 0 -1 0
vn 0 -1 0
vt 0.441979 0
vt 0.445345 0
vt 0.441979 1
f 46/46/46 47/47/47 48/48/48
v -1.66864 0 -2.42447
v -1.68864 0 -2.42447
v -1.69337 0 2.66374
vn -0 1 0
vn -0 1 0
vn -0 1 0
vt 0.748755 0
vt 0.748755 1
vt 0.445345 1
f 49/49/49 50/50/50 51/51/51
v -1.67338 0 2.66374
v -1.66864 0 -2.42447
v -1.69337 0 2.66374
vn -0 1 -0
vn -0 1 -0
vn -0 1 -0
vt 0.445345 0
vt 0.748755 0
vt 0.445345 1
f 52/52/52 53/53/53 54/54/54
v 2.54477 0 -2.42433
v 2.52477 0 -2.42433
v -1.68864 0 -2.42447
vn 0 -1 0
vn 0 -1 0
vn 0 -1 0
vt 1 0
vt 1 1
vt 0.748755 1
f 55/55/55 56/56/56 57/57/57
v -1.66864 0 -2.42447
v 2.54477 0 -2.42433
v -1.68864 0 -2.42447
vn 0 -1 -0
vn 0 -1 -0
vn 0 -1 -0
vt 0.748755 0
vt 1 0
vt 0.748755 1
f 58/58/58 59/59/59 60/60/60
v -1.66864 5e-006 -2.42447
v 2.55919 5e-006 -0.531544
v 2.54478 5e-006 -2.42433
vn 0 1 -0
vn 0 1 -0
vn 0 1 -0
vt 0.000931 0
vt 0.831838 0.372021
vt 0.829004 2.7e-005
f 61/61/61 62/62/62 63/63/63
v 1.67115 5e-006 0.892529
v 2.39918 5e-006 -0.027518
v 2.55919 5e-006 -0.531544
vn 0 1 0
vn 0 1 0
vn 0 1 0
vt 0.657308 0.651898
vt 0.800391 0.471079
vt 0.831838 0.372021
f 64/64/64 65/65/65 66/66/66
v -1.66864 5e-006 -2.42447
v 1.67115 5e-006 0.892529
v 2.55919 5e-006 -0.531544
vn 0 1 0
vn 0 1 0
vn 0 1 0
vt 0.000931 0
vt 0.657308 0.651898
vt 0.831838 0.372021
f 67/67/67 68/68/68 69/69/69
v -1.66864 5e-006 -2.42447
v 1.03111 5e-006 1.52456
v 1.67115 5e-006 0.892529
vn 0 1 0
vn 0 1 0
vn 0 1 0
vt 0.000931 0
vt 0.53152 0.776113
vt 0.657308 0.651898
f 70/70/70 71/71/71 72/72/72
v -1.66864 5e-006 -2.42447
v 0.111067 5e-006 2.15659
v 1.03111 5e-006 1.52456
vn 0 1 0
vn 0 1 0
vn 0 1 0
vt 0.000931 0
vt 0.350701 0.900328
vt 0.53152 0.776113
f 73/73/73 74/74/74 75/75/75
v -1.66864 5e-006 -2.42447
v -0.864984 5e-006 2.47661
v 0.111067 5e-006 2.15659
vn 0 1 0
vn 0 1 0
vn 0 1 0
vt 0.000931 0
vt 0.158875 0.963222
vt 0.350701 0.900328
f 76/76/76 77/77/77 78/78/78
v -1.67337 5e-006 2.66375
v -1.61702 5e-006 2.66062
v -0.864984 5e-006 2.47661
vn 0 1 0
vn 0 1 0
vn 0 1 0
vt 0 1
vt 0.011075 0.999386
vt 0.158875 0.963222
f 79/79/79 80/80/80 81/81/81
v -1.66864 5e-006 -2.42447
v -1.67337 5e-006 2.66375
v -0.864984 5e-006 2.47661
vn 0 1 0
vn 0 1 0
vn 0 1 0
vt 0.000931 0
vt 0 1
vt 0.158875 0.963222
f 82/82/82 83/83/83 84/84/84
v -0.884984 5e-006 2.47661
v -1.69337 5e-006 2.66375
v -1.68864 5e-006 -2.42447
vn 0 -1 0
vn 0 -1 0
vn 0 -1 0
vt 0.158875 0.963222
vt 0 1
vt 0.000931 0
f 85/85/85 86/86/86 87/87/87
v 0.091067 5e-006 2.15659
v -0.884984 5e-006 2.47661
v -1.68864 5e-006 -2.42447
vn 0 -1 0
vn 0 -1 0
vn 0 -1 0
vt 0.350701 0.900328
vt 0.158875 0.963222
vt 0.000931 0
f 88/88/88 89/89/89 90/90/90
v 1.01111 5e-006 1.52456
v 0.091067 5e-006 2.15659
v -1.68864 5e-006 -2.42447
vn 0 -1 0
vn 0 -1 0
vn 0 -1 0
vt 0.53152 0.776113
vt 0.350701 0.900328
vt 0.000931 0
f 91/91/91 92/92/92 93/93/93
v 1.65115 5e-006 0.892529
v 1.01111 5e-006 1.52456
v -1.68864 5e-006 -2.42447
vn 0 -1 0
vn 0 -1 0
vn 0 -1 0
vt 0.657308 0.651898
vt 0.53152 0.776113
vt 0.000931 0
f 94/94/94 95/95/95 96/96/96
v 2.53919 5e-006 -0.531544
v 1.65115 5e-006 0.892529
v -1.68864 5e-006 -2.42447
vn 0 -1 0
vn 0 -1 0
vn 0 -1 0
vt 0.831838 0.372021
vt 0.657308 0.651898
vt 0.000931 0
f 97/97/97 98/98/98 99/99/99
v 2.52478 5e-006 -2.42433
v 2.53919 5e-006 -0.531544
v -1.68864 5e-006 -2.42447
vn 0 -1 -0
vn 0 -1 -0
vn 0 -1 -0
vt 0.829004 2.7e-005
vt 0.831838 0.372021
vt 0.000931 0
f 100/100/100 101/101/101 102/102/102
v -0.884984 5e-006 2.47661
v -1.63702 5e-006 2.66062
v -1.69337 5e-006 2.66375
vn 0 -1 0
vn 0 -1 0
vn 0 -1 0
vt 0.158875 0.963222
vt 0.011075 0.999386
vt 0 1
f 103/103/103 104/104/104 105/105/105
v 2.53919 5e-006 -0.531544
v 2.37918 5e-006 -0.027518
v 1.65115 5e-006 0.892529
vn 0 -1 0
vn 0 -1 0
vn 0 -1 0
vt 0.831838 0.372021
vt 0.800391 0.471079
vt 0.657308 0.651898
f 106/106/106 107/107/107 108/108/108
