o data/uid/01015144/s/000022.obj
//1
usemtl mat0
v 0.6 0.01 0.4
v -0.6 0.01 0.4
v -0.6 -0.01 0.4
vn 0 0 1
vn 0 0 1
vn 0 0 1
vt 0.056 1
vt 0 1
vt 0 0.944
f 1/1/1 2/2/2 3/3/3
v 0.6 -0.01 0.4
v 0.6 0.01 0.4
v -0.6 -0.01 0.4
vn -0 0 1
vn -0 0 1
vn -0 0 1
vt 0.056 0.944
vt 0.056 1
vt 0 0.944
f 4/4/4 5/5/5 6/6/6
v 0.6 0.01 -0.4
v 0.6 0.01 0.4
v 0.6 -0.01 0.4
vn 1 -0 0
vn 1 -0 0
vn 1 -0 0
vt 0.056 1
vt 0 1
vt 0 0.944
f 7/7/7 8/8/8 9/9/9
v 0.6 -0.01 -0.4
v 0.6 0.01 -0.4
v 0.6 -0.01 0.4
vn 1 0 0
vn 1 0 0
vn 1 0 0
vt 0.056 0.944
vt 0.056 1
vt 0 0.944
f 10/10/10 11/11/11 12/12/12
v -0.6 0.01 -0.4
v 0.6 0.01 -0.4
v 0.6 -0.01 -0.4
vn 0 0 -1
vn 0 0 -1
vn 0 0 -1
vt 0.056 1
vt 0 1
vt 0 0.944
f 13/13/13 14/14/14 15/15/15
v -0.6 -0.01 -0.4
v -0.6 0.01 -0.4
v 0.6 -0.01 -0.4
vn -0 -0 -1
vn -0 -0 -1
vn -0 -0 -1
vt 0.056 0.944
vt 0.056 1
vt 0 0.944
f 16/16/16 17/17/17 18/18/18
v -0.6 0.01 0.4
v -0.6 0.01 -0.4
v -0.6 -0.01 -0.4
vn -1 0 0
vn -1 0 0
vn -1 0 0
vt 0.056 1
vt 0 1
vt 0 0.944
f 19/19/19 20/20/20 21/21/21
v -0.6 -0.01 0.4
v -0.6 0.01 0.4
v -0.6 -0.01 -0.4
vn -1 0 0
vn -1 0 0
vn -1 0 0
vt 0.056 0.944
vt 0.056 1
vt 0 0.944
f 22/22/22 23/23/23 24/24/24
v 0.6 0.01 -0.4
v -0.6 0.01 -0.4
v -0.6 0.01 0.4
vn -0 1 0
vn -0 1 0
vn -0 1 0
vt 1 1
vt 0 1
vt 0 0
f 25/25/25 26/26/26 27/27/27
v 0.6 0.01 0.4
v 0.6 0.01 -0.4
v -0.6 0.01 0.4
vn -0 1 0
vn -0 1 0
vn -0 1 0
vt 1 0
vt 1 1
vt 0 0
f 28/28/28 29/29/29 30/30/30
v 0.6 -0.01 0.4
v -0.6 -0.01 0.4
v -0.6 -0.01 -0.4
vn 0 -1 0
vn 0 -1 0
vn 0 -1 0
vt 1 1
vt 0 1
vt 0 0
f 31/31/31 32/32/32 33/33/33
v 0.6 -0.01 -0.4
v 0.6 -0.01 0.4
v -0.6 -0.01 -0.4
vn 0 -1 0
vn 0 -1 0
vn 0 -1 0
vt 1 0
vt 1 1
vt 0 0
f 34/34/34 35/35/35 36/36/36
