o data/uid/01015144/s/000007.obj
//1
usemtl mat0
v -7.90463 0.044805 3.34784
v -5.54119 -0.009075 -0.05639
v -5.54119 -0.029072 -0.056073
vn -0.821472 -0.00903867 -0.570178
vn -0.821472 -0.00903867 -0.570178
vn -0.821472 -0.00903867 -0.570178
vt 0.121684 0
vt 0 0
vt 0 1
f 1/1/1 2/2/2 3/3/3
v -7.90463 0.024807 3.34816
v -7.90463 0.044805 3.34784
v -5.54119 -0.029072 -0.056073
vn -0.821472 -0.00904098 -0.570178
vn -0.821472 -0.00904098 -0.570178
vn -0.821472 -0.00904098 -0.570178
vt 0.121684 1
vt 0.121684 0
vt 0 1
f 4/4/4 5/5/5 6/6/6
v 6.51293 0.044867 3.35181
v -7.90463 0.044805 3.34784
v -7.90463 0.024807 3.34816
vn -0.000274923 0.0158544 0.999874
vn -0.000274923 0.0158544 0.999874
vn -0.000274923 0.0158544 0.999874
vt 0.54498 0
vt 0.121684 0
vt 0.121684 1
f 7/7/7 8/8/8 9/9/9
v 6.51293 0.02487 3.35212
v 6.51293 0.044867 3.35181
v -7.90463 0.024807 3.34816
vn -0.000274907 0.0158433 0.999874
vn -0.000274907 0.0158433 0.999874
vn -0.000274907 0.0158433 0.999874
vt 0.54498 1
vt 0.54498 0
vt 0.121684 1
f 10/10/10 11/11/11 12/12/12
v 6.50909 -0.009694 -0.095512
v 6.51293 0.044867 3.35181
v 6.51293 0.02487 3.35212
vn 0.999999 -1.7615e-005 -0.00111168
vn 0.999999 -1.7615e-005 -0.00111168
vn 0.999999 -1.7615e-005 -0.00111168
vt 0.646205 0
vt 0.54498 0
vt 0.54498 1
f 13/13/13 14/14/14 15/15/15
v 6.50909 -0.029691 -0.095196
v 6.50909 -0.009694 -0.095512
v 6.51293 0.02487 3.35212
vn 0.999999 -1.75673e-005 -0.00111168
vn 0.999999 -1.75673e-005 -0.00111168
vn 0.999999 -1.75673e-005 -0.00111168
vt 0.646205 1
vt 0.646205 0
vt 0.54498 1
f 16/16/16 17/17/17 18/18/18
v -5.54119 -0.009075 -0.05639
v 6.50909 -0.009694 -0.095512
v 6.50909 -0.029691 -0.095196
vn -0.00324695 -0.0158004 -0.99987
vn -0.00324695 -0.0158004 -0.99987
vn -0.00324695 -0.0158004 -0.99987
vt 1 0
vt 0.646205 0
vt 0.646205 1
f 19/19/19 20/20/20 21/21/21
v -5.54119 -0.029072 -0.056073
v -5.54119 -0.009075 -0.05639
v 6.50909 -0.029691 -0.095196
vn -0.00324704 -0.0158503 -0.999869
vn -0.00324704 -0.0158503 -0.999869
vn -0.00324704 -0.0158503 -0.999869
vt 1 1
vt 1 0
vt 0.646205 1
f 22/22/22 23/23/23 24/24/24
v -5.54119 -0.009075 -0.05639
v 6.51292 0.044867 3.35181
v 6.50909 -0.009694 -0.095512
vn -1.55436e-008 0.999875 -0.0158251
vn -1.55436e-008 0.999875 -0.0158251
vn -1.55436e-008 0.999875 -0.0158251
vt 0.163928 0.763578
vt 1 1
vt 0.999734 0.760864
f 25/25/25 26/26/26 27/27/27
v -5.54119 -0.009075 -0.05639
v -7.90464 0.044805 3.34784
v 6.51292 0.044867 3.35181
vn 5.04402e-008 0.999875 -0.0158253
vn 5.04402e-008 0.999875 -0.0158253
vn 5.04402e-008 0.999875 -0.0158253
vt 0.163928 0.763578
vt 0 0.999725
vt 1 1
f 28/28/28 29/29/29 30/30/30
v 6.51292 0.02487 3.35212
v -7.90464 0.024807 3.34816
v -5.54119 -0.029072 -0.056073
vn 1.9257e-008 -0.999875 0.0158251
vn 1.9257e-008 -0.999875 0.0158251
vn 1.9257e-008 -0.999875 0.0158251
vt 1 1
vt 0 0.999725
vt 0.163928 0.763578
f 31/31/31 32/32/32 33/33/33
v 6.50909 -0.029691 -0.095196
v 6.51292 0.02487 3.35212
v -5.54119 -0.029072 -0.056073
vn 1.68411e-008 -0.999875 0.0158251
vn 1.68411e-008 -0.999875 0.0158251
vn 1.68411e-008 -0.999875 0.0158251
vt 0.999734 0.760864
vt 1 1
vt 0.163928 0.763578
f 34/34/34 35/35/35 36/36/36
