o data/uid/01015144/s/000001.obj
//1
usemtl mat0
v 0.080179 -0.098485 -0.070853
v -24.9198 -0.098485 -0.070853
v -24.9198 -0.098485 30.9291
vn -0 1 0
vn -0 1 0
vn -0 1 0
vt 2.41867 -1.4766
vt 0 -1.4766
vt 0 -3.9812
f 1/1/1 2/2/2 3/3/3
v 0.080179 -0.098485 30.9291
v 0.080179 -0.098485 -0.070853
v -24.9198 -0.098485 30.9291
vn -0 1 0
vn -0 1 0
vn -0 1 0
vt 2.41867 -3.9812
vt 2.41867 -1.4766
vt 0 -3.9812
f 4/4/4 5/5/5 6/6/6
v 25.0802 -0.098485 -0.070853
v 0.080179 -0.098485 -0.070853
v 0.080179 -0.098485 30.9291
vn -0 1 0
vn -0 1 0
vn -0 1 0
vt 4.83733 -1.4766
vt 2.41867 -1.4766
vt 2.41867 -3.9812
f 7/7/7 8/8/8 9/9/9
v 25.0802 -0.098485 30.9291
v 25.0802 -0.098485 -0.070853
v 0.080179 -0.098485 30.9291
vn -0 1 0
vn -0 1 0
vn -0 1 0
vt 4.83733 -3.9812
vt 4.83733 -1.4766
vt 2.41867 -3.9812
f 10/10/10 11/11/11 12/12/12
v 0.080179 -0.098485 -31.0709
v -24.9198 -0.098485 -31.0709
v -24.9198 -0.098485 -0.070853
vn -0 1 0
vn -0 1 0
vn -0 1 0
vt 2.41867 1.028
vt 0 1.028
vt 0 -1.4766
f 13/13/13 14/14/14 15/15/15
v 0.080179 -0.098485 -0.070853
v 0.080179 -0.098485 -31.0709
v -24.9198 -0.098485 -0.070853
vn -0 1 0
vn -0 1 0
vn -0 1 0
vt 2.41867 -1.4766
vt 2.41867 1.028
vt 0 -1.4766
f 16/16/16 17/17/17 18/18/18
v 25.0802 -0.098485 -31.0709
v 0.080179 -0.098485 -31.0709
v 0.080179 -0.098485 -0.070853
vn -0 1 0
vn -0 1 0
vn -0 1 0
vt 4.83733 1.028
vt 2.41867 1.028
vt 2.41867 -1.4766
f 19/19/19 20/20/20 21/21/21
v 25.0802 -0.098485 -0.070853
v 25.0802 -0.098485 -31.0709
v 0.080179 -0.098485 -0.070853
vn -0 1 0
vn -0 1 0
vn -0 1 0
vt 4.83733 -1.4766
vt 4.83733 1.028
vt 2.41867 -1.4766
f 22/22/22 23/23/23 24/24/24
