o data/uid/01015144/s/000006.obj
//1
usemtl mat0
v -6.23492 0.02145 2.21346
v -3.88932 -0.020173 -1.21822
v -3.88932 -0.040172 -1.21797
vn -0.825594 -0.0068273 -0.564223
vn -0.825594 -0.0068273 -0.564223
vn -0.825594 -0.0068273 -0.564223
vt -0.818032 -1.09367
vt -1.09367 -1.09367
vt -1.09367 1
f 1/1/1 2/2/2 3/3/3
v -6.23492 0.001451 2.2137
v -6.23492 0.02145 2.21346
v -3.88932 -0.040172 -1.21797
vn -0.825594 -0.0068542 -0.564223
vn -0.825594 -0.0068542 -0.564223
vn -0.825594 -0.0068542 -0.564223
vt -0.818032 1
vt -0.818032 -1.09367
vt -1.09367 1
f 4/4/4 5/5/5 6/6/6
v 7.77659 0.020353 2.12302
v -6.23492 0.02145 2.21346
v -6.23492 0.001451 2.2137
vn 0.0064551 0.0121469 0.999905
vn 0.0064551 0.0121469 0.999905
vn 0.0064551 0.0121469 0.999905
vt 0.111053 -1.09367
vt -0.818032 -1.09367
vt -0.818032 1
f 7/7/7 8/8/8 9/9/9
v 7.77659 0.000354 2.12326
v 7.77659 0.020353 2.12302
v -6.23492 0.001451 2.2137
vn 0.00645517 0.0120992 0.999906
vn 0.00645517 0.0120992 0.999906
vn 0.00645517 0.0120992 0.999906
vt 0.111053 1
vt 0.111053 -1.09367
vt -0.818032 1
f 10/10/10 11/11/11 12/12/12
v 5.38644 -0.020506 -1.24565
v 7.77659 0.020353 2.12302
v 7.77659 0.000354 2.12326
vn 0.815586 -0.00700119 -0.578594
vn 0.815586 -0.00700119 -0.578594
vn 0.815586 -0.00700119 -0.578594
vt 0.384947 -1.09367
vt 0.111053 -1.09367
vt 0.111053 1
f 13/13/13 14/14/14 15/15/15
v 5.38644 -0.040505 -1.24541
v 5.38644 -0.020506 -1.24565
v 7.77659 0.000354 2.12326
vn 0.815585 -0.00703223 -0.578594
vn 0.815585 -0.00703223 -0.578594
vn 0.815585 -0.00703223 -0.578594
vt 0.384947 1
vt 0.384947 -1.09367
vt 0.111053 1
f 16/16/16 17/17/17 18/18/18
v -3.88932 -0.020173 -1.21822
v 5.38644 -0.020506 -1.24565
v 5.38644 -0.040505 -1.24541
vn -0.00295782 -0.012153 -0.999922
vn -0.00295782 -0.012153 -0.999922
vn -0.00295782 -0.012153 -0.999922
vt 1 -1.09367
vt 0.384947 -1.09367
vt 0.384947 1
f 19/19/19 20/20/20 21/21/21
v -3.88932 -0.040172 -1.21797
v -3.88932 -0.020173 -1.21822
v 5.38644 -0.040505 -1.24541
vn -0.0029577 -0.0120994 -0.999922
vn -0.0029577 -0.0120994 -0.999922
vn -0.0029577 -0.0120994 -0.999922
vt 1 1
vt 1 -1.09367
vt 0.384947 1
f 22/22/22 23/23/23 24/24/24
v -6.23492 0.02145 2.21346
v 7.77659 0.020353 2.12302
v 5.38644 -0.020506 -1.24565
vn 2.02282e-009 0.999927 -0.0121282
vn 2.02282e-009 0.999927 -0.0121282
vn 2.02282e-009 0.999927 -0.0121282
vt 0 1
vt 1 0.993545
vt 0.829415 0.753106
f 25/25/25 26/26/26 27/27/27
v -3.88932 -0.020173 -1.21822
v -6.23492 0.02145 2.21346
v 5.38644 -0.020506 -1.24565
vn 2.69772e-008 0.999926 -0.0121282
vn 2.69772e-008 0.999926 -0.0121282
vn 2.69772e-008 0.999926 -0.0121282
vt 0.167405 0.755064
vt 0 1
vt 0.829415 0.753106
f 28/28/28 29/29/29 30/30/30
v 5.38644 -0.040505 -1.24541
v -6.23492 0.001451 2.2137
v -3.88932 -0.040172 -1.21797
vn -2.83934e-008 -0.999927 0.0121282
vn -2.83934e-008 -0.999927 0.0121282
vn -2.83934e-008 -0.999927 0.0121282
vt 0.829415 0.753106
vt 0 1
vt 0.167405 0.755064
f 31/31/31 32/32/32 33/33/33
v 5.38644 -0.040505 -1.24541
v 7.77659 0.000354 2.12326
v -6.23492 0.001451 2.2137
vn -1.23045e-009 -0.999926 0.0121282
vn -1.23045e-009 -0.999926 0.0121282
vn -1.23045e-009 -0.999926 0.0121282
vt 0.829415 0.753106
vt 1 0.993545
vt 0 1
f 34/34/34 35/35/35 36/36/36
