o data/uid/01015144/s/000008.obj
//1
usemtl mat0
v 44.043 0.075906 -0.911902
v -44.0005 -0.005066 -1.02134
v -44.0005 -0.005066 1.02866
vn -0.000919682 1 0
vn -0.000919682 1 0
vn -0.000919682 1 0
vt 0.479506 1.08018
vt 0.479506 -8.94453
vt 1.0532 -8.94453
f 1/1/1 2/2/2 3/3/3
v 44.1888 0.075906 1.13291
v 44.043 0.075906 -0.911902
v -44.0005 -0.005066 1.02866
vn -0.000918238 1 6.5482e-005
vn -0.000918238 1 6.5482e-005
vn -0.000918238 1 6.5482e-005
vt 1.0532 1.08018
vt 0.479506 1.08018
vt 1.0532 -8.94453
f 4/4/4 5/5/5 6/6/6
