o data/uid/01015144/s/000015.obj
//1
usemtl mat0
v -35.371 0.027119 -4.10609
v -35.2126 -1e-006 5.55707
v -35.2326 -1e-006 5.55707
vn 0 -0.999996 -0.00280652
vn 0 -0.999996 -0.00280652
vn 0 -0.999996 -0.00280652
vt 0.062233 0
vt 0 0
vt 0 1
f 1/1/1 2/2/2 3/3/3
v -35.391 0.027119 -4.10609
v -35.371 0.027119 -4.10609
v -35.2326 -1e-006 5.55707
vn -0 -0.999996 -0.00280652
vn -0 -0.999996 -0.00280652
vn -0 -0.999996 -0.00280652
vt 0.062233 1
vt 0.062233 0
vt 0 1
f 4/4/4 5/5/5 6/6/6
v -26.0876 -1e-006 -4.15502
v -35.371 0.027119 -4.10609
v -35.391 0.027119 -4.10609
vn 0 -0.874624 0.484802
vn 0 -0.874624 0.484802
vn 0 -0.874624 0.484802
vt 0.122012 0
vt 0.062233 0
vt 0.062233 1
f 7/7/7 8/8/8 9/9/9
v -26.1076 -1e-006 -4.15502
v -26.0876 -1e-006 -4.15502
v -35.391 0.027119 -4.10609
vn 0 -0.874624 0.484802
vn 0 -0.874624 0.484802
vn 0 -0.874624 0.484802
vt 0.122012 1
vt 0.122012 0
vt 0.062233 1
f 10/10/10 11/11/11 12/12/12
v -7.39735 -0.024675 -4.10609
v -12.1678 -1e-006 -4.15502
v -12.1878 -1e-006 -4.15502
vn -0 0.892885 0.450285
vn -0 0.892885 0.450285
vn -0 0.892885 0.450285
vt 0.242367 0
vt 0.211647 0
vt 0.211647 1
f 13/13/13 14/14/14 15/15/15
v -7.41735 -0.024675 -4.10609
v -7.39735 -0.024675 -4.10609
v -12.1878 -1e-006 -4.15502
vn 0 0.892885 0.450285
vn 0 0.892885 0.450285
vn 0 0.892885 0.450285
vt 0.242367 1
vt 0.242367 0
vt 0.211647 1
f 16/16/16 17/17/17 18/18/18
v -4.71827 -0.046309 -4.07272
v -7.39735 -0.024675 -4.10609
v -7.41735 -0.024675 -4.10609
vn -0 0.839128 0.543934
vn -0 0.839128 0.543934
vn -0 0.839128 0.543934
vt 0.25962 0
vt 0.242367 0
vt 0.242367 1
f 19/19/19 20/20/20 21/21/21
v -4.73827 -0.046309 -4.07272
v -4.71827 -0.046309 -4.07272
v -7.41735 -0.024675 -4.10609
vn 0 0.839128 0.543934
vn 0 0.839128 0.543934
vn 0 0.839128 0.543934
vt 0.25962 1
vt 0.25962 0
vt 0.242367 1
f 22/22/22 23/23/23 24/24/24
v -1.34627 -1.03635 -4.05408
v -4.71827 -0.046309 -4.07272
v -4.73827 -0.046309 -4.07272
vn -0 0.0188253 0.999823
vn -0 0.0188253 0.999823
vn -0 0.0188253 0.999823
vt 0.282251 0
vt 0.25962 0
vt 0.25962 1
f 25/25/25 26/26/26 27/27/27
v -1.36627 -1.03635 -4.05408
v -1.34627 -1.03635 -4.05408
v -4.73827 -0.046309 -4.07272
vn 0 0.0188253 0.999823
vn 0 0.0188253 0.999823
vn 0 0.0188253 0.999823
vt 0.282251 1
vt 0.282251 0
vt 0.25962 1
f 28/28/28 29/29/29 30/30/30
v 9.53754 -1.11272 -4.09136
v -1.34627 -1.03635 -4.05408
v -1.36627 -1.03635 -4.05408
vn 0 -0.438693 0.898637
vn 0 -0.438693 0.898637
vn 0 -0.438693 0.898637
vt 0.352337 0
vt 0.282251 0
vt 0.282251 1
f 31/31/31 32/32/32 33/33/33
v 9.51754 -1.11272 -4.09136
v 9.53754 -1.11272 -4.09136
v -1.36627 -1.03635 -4.05408
vn 0 -0.438693 0.898637
vn 0 -0.438693 0.898637
vn 0 -0.438693 0.898637
vt 0.352337 1
vt 0.352337 0
vt 0.282251 1
f 34/34/34 35/35/35 36/36/36
v 15.7449 -1.1597 -4.11
v 9.53754 -1.11272 -4.09136
v 9.51754 -1.11272 -4.09136
vn 0 -0.368783 0.929516
vn 0 -0.368783 0.929516
vn 0 -0.368783 0.929516
vt 0.39231 0
vt 0.352337 0
vt 0.352337 1
f 37/37/37 38/38/38 39/39/39
v 15.7249 -1.1597 -4.11
v 15.7449 -1.1597 -4.11
v 9.51754 -1.11272 -4.09136
vn 0 -0.368783 0.929516
vn 0 -0.368783 0.929516
vn 0 -0.368783 0.929516
vt 0.39231 1
vt 0.39231 0
vt 0.352337 1
f 40/40/40 41/41/41 42/42/42
v 22.0983 -1.12094 -4.29075
v 15.7449 -1.1597 -4.11
v 15.7249 -1.1597 -4.11
vn 0 -0.977767 -0.209693
vn 0 -0.977767 -0.209693
vn 0 -0.977767 -0.209693
vt 0.433238 0
vt 0.39231 0
vt 0.39231 1
f 43/43/43 44/44/44 45/45/45
v 22.0783 -1.12094 -4.29075
v 22.0983 -1.12094 -4.29075
v 15.7249 -1.1597 -4.11
vn -0 -0.977767 -0.209693
vn -0 -0.977767 -0.209693
vn -0 -0.977767 -0.209693
vt 0.433238 1
vt 0.433238 0
vt 0.39231 1
f 46/46/46 47/47/47 48/48/48
v 22.2065 -0.754637 -4.36983
v 22.0983 -1.12094 -4.29075
v 22.0783 -1.12094 -4.29075
vn 0 -0.211036 -0.977478
vn 0 -0.211036 -0.977478
vn 0 -0.211036 -0.977478
vt 0.43575 0
vt 0.433238 0
vt 0.433238 1
f 49/49/49 50/50/50 51/51/51
v 22.1865 -0.754637 -4.36983
v 22.2065 -0.754637 -4.36983
v 22.0783 -1.12094 -4.29075
vn -0 -0.211036 -0.977478
vn -0 -0.211036 -0.977478
vn -0 -0.211036 -0.977478
vt 0.43575 1
vt 0.43575 0
vt 0.433238 1
f 52/52/52 53/53/53 54/54/54
v 22.9413 -0.700516 -4.34146
v 22.2065 -0.754637 -4.36983
v 22.1865 -0.754637 -4.36983
vn 0 0.464213 -0.885724
vn 0 0.464213 -0.885724
vn 0 0.464213 -0.885724
vt 0.440498 0
vt 0.43575 0
vt 0.43575 1
f 55/55/55 56/56/56 57/57/57
v 22.9213 -0.700516 -4.34146
v 22.9413 -0.700516 -4.34146
v 22.1865 -0.754637 -4.36983
vn 0 0.464213 -0.885724
vn 0 0.464213 -0.885724
vn 0 0.464213 -0.885724
vt 0.440498 1
vt 0.440498 0
vt 0.43575 1
f 58/58/58 59/59/59 60/60/60
v 24.9406 -0.497057 -4.41509
v 22.9413 -0.700516 -4.34146
v 22.9213 -0.700516 -4.34146
vn 0 -0.340277 -0.940325
vn 0 -0.340277 -0.940325
vn 0 -0.340277 -0.940325
vt 0.453448 0
vt 0.440498 0
vt 0.440498 1
f 61/61/61 62/62/62 63/63/63
v 24.9206 -0.497057 -4.41509
v 24.9406 -0.497057 -4.41509
v 22.9213 -0.700516 -4.34146
vn -0 -0.340277 -0.940325
vn -0 -0.340277 -0.940325
vn -0 -0.340277 -0.940325
vt 0.453448 1
vt 0.453448 0
vt 0.440498 1
f 64/64/64 65/65/65 66/66/66
v 28.7913 0.186132 -4.41509
v 24.9406 -0.497057 -4.41509
v 24.9206 -0.497057 -4.41509
vn 0 0 -1
vn 0 0 -1
vn 0 0 -1
vt 0.47863 0
vt 0.453448 0
vt 0.453448 1
f 67/67/67 68/68/68 69/69/69
v 28.7713 0.186132 -4.41509
v 28.7913 0.186132 -4.41509
v 24.9206 -0.497057 -4.41509
vn 0 0 -1
vn 0 0 -1
vn 0 0 -1
vt 0.47863 1
vt 0.47863 0
vt 0.453448 1
f 70/70/70 71/71/71 72/72/72
v 32.3616 -1e-006 -4.46454
v 28.7913 0.186132 -4.41509
v 28.7713 0.186132 -4.41509
vn 0 -0.256782 0.966469
vn 0 -0.256782 0.966469
vn 0 -0.256782 0.966469
vt 0.501654 0
vt 0.47863 0
vt 0.47863 1
f 73/73/73 74/74/74 75/75/75
v 32.3416 -1e-006 -4.46454
v 32.3616 -1e-006 -4.46454
v 28.7713 0.186132 -4.41509
vn 0 -0.256782 0.966469
vn 0 -0.256782 0.966469
vn 0 -0.256782 0.966469
vt 0.501654 1
vt 0.501654 0
vt 0.47863 1
f 76/76/76 77/77/77 78/78/78
v 32.4245 -1e-006 5.28679
v 32.3616 -1e-006 -4.46454
v 32.3416 -1e-006 -4.46454
vn 0 1 0
vn 0 1 0
vn 0 1 0
vt 0.564448 0
vt 0.501654 0
vt 0.501654 1
f 79/79/79 80/80/80 81/81/81
v 32.4045 -1e-006 5.28679
v 32.4245 -1e-006 5.28679
v 32.3416 -1e-006 -4.46454
vn 0 1 -0
vn 0 1 -0
vn 0 1 -0
vt 0.564448 1
vt 0.564448 0
vt 0.501654 1
f 82/82/82 83/83/83 84/84/84
v 11.0534 -1e-006 5.49229
v 32.4245 -1e-006 5.28679
v 32.4045 -1e-006 5.28679
vn 0 1 -0
vn 0 1 -0
vn 0 1 -0
vt 0.702069 0
vt 0.564448 0
vt 0.564448 1
f 85/85/85 86/86/86 87/87/87
v 11.0334 -1e-006 5.49229
v 11.0534 -1e-006 5.49229
v 32.4045 -1e-006 5.28679
vn 0 1 0
vn 0 1 0
vn 0 1 0
vt 0.702069 1
vt 0.702069 0
vt 0.564448 1
f 88/88/88 89/89/89 90/90/90
v -14.2906 -1e-006 5.62928
v -6.00241 -1e-006 5.49229
v -6.02241 -1e-006 5.49229
vn 0 1 -0
vn 0 1 -0
vn 0 1 -0
vt 0.865274 0
vt 0.811897 0
vt 0.811897 1
f 91/91/91 92/92/92 93/93/93
v -14.3106 -1e-006 5.62928
v -14.2906 -1e-006 5.62928
v -6.02241 -1e-006 5.49229
vn 0 1 0
vn 0 1 0
vn 0 1 0
vt 0.865274 1
vt 0.865274 0
vt 0.811897 1
f 94/94/94 95/95/95 96/96/96
v -27.168 -1e-006 5.56078
v -19.7703 -1e-006 5.62928
v -19.7903 -1e-006 5.62928
vn 0 -1 -0
vn 0 -1 -0
vn 0 -1 -0
vt 0.948198 0
vt 0.90056 0
vt 0.90056 1
f 97/97/97 98/98/98 99/99/99
v -27.188 -1e-006 5.56078
v -27.168 -1e-006 5.56078
v -19.7903 -1e-006 5.62928
vn -0 -1 0
vn -0 -1 0
vn -0 -1 0
vt 0.948198 1
vt 0.948198 0
vt 0.90056 1
f 100/100/100 101/101/101 102/102/102
v -35.2126 -1e-006 5.55707
v -31.7573 -1e-006 5.56078
v -31.7773 -1e-006 5.56078
vn 0 -1 -0
vn 0 -1 -0
vn 0 -1 -0
vt 1 0
vt 0.97775 0
vt 0.97775 1
f 103/103/103 104/104/104 105/105/105
v -35.2326 -1e-006 5.55707
v -35.2126 -1e-006 5.55707
v -31.7773 -1e-006 5.56078
vn -0 -1 0
vn -0 -1 0
vn -0 -1 0
vt 1 1
vt 1 0
vt 0.97775 1
f 106/106/106 107/107/107 108/108/108
v -26.0876 -4e-006 -4.15503
v -27.168 -5e-006 5.56078
v -31.7573 -4e-006 5.56078
vn -2.17898e-007 -1 -1.27155e-007
vn -2.17898e-007 -1 -1.27155e-007
vn -2.17898e-007 -1 -1.27155e-007
vt 0.88105 0.026368
vt 0.772465 0.951827
vt 0.334803 0.949203
f 109/109/109 110/110/110 111/111/111
v -35.371 0.027116 -4.1061
v -26.0876 -4e-006 -4.15503
v -31.7573 -4e-006 5.56078
vn -0.00293036 -0.999994 -0.00171002
vn -0.00293036 -0.999994 -0.00171002
vn -0.00293036 -0.999994 -0.00171002
vt -0.004292 0.025807
vt 0.88105 0.026368
vt 0.334803 0.949203
f 112/112/112 113/113/113 114/114/114
v -35.2126 -4e-006 5.55707
v -35.371 0.027116 -4.1061
v -31.7573 -4e-006 5.56078
vn 3.01525e-006 -0.999996 -0.00280657
vn 3.01525e-006 -0.999996 -0.00280657
vn 3.01525e-006 -0.999996 -0.00280657
vt 0.005291 0.946874
vt -0.004292 0.025807
vt 0.334803 0.949203
f 115/115/115 116/116/116 117/117/117
v -26.0876 -4e-006 -4.15503
v -19.7703 -5e-006 5.62927
v -27.168 -5e-006 5.56078
vn 9.52011e-010 -1 -1.02819e-007
vn 9.52011e-010 -1 -1.02819e-007
vn 9.52011e-010 -1 -1.02819e-007
vt 0.88105 0.026368
vt 1.47791 0.962586
vt 0.772465 0.951827
f 118/118/118 119/119/119 120/120/120
v -19.8494 -5e-006 -4.15503
v -14.2906 -6e-006 5.62927
v -19.7703 -5e-006 5.62927
vn -1.8249e-007 -1 1.47442e-009
vn -1.8249e-007 -1 1.47442e-009
vn -1.8249e-007 -1 1.47442e-009
vt 1.47597 0.029935
vt 2.00049 0.965718
vt 1.47791 0.962586
f 121/121/121 122/122/122 123/123/123
v -26.0876 -4e-006 -4.15503
v -19.8494 -5e-006 -4.15503
v -19.7703 -5e-006 5.62927
vn -1.60301e-007 -1 1.29515e-009
vn -1.60301e-007 -1 1.29515e-009
vn -1.60301e-007 -1 1.29515e-009
vt 0.88105 0.026368
vt 1.47597 0.029935
vt 1.47791 0.962586
f 124/124/124 125/125/125 126/126/126
v -12.1678 -5e-006 -4.15503
v -6.00241 -6e-006 5.49228
v -14.2906 -6e-006 5.62927
vn -1.69542e-009 -1 -1.02572e-007
vn -1.69542e-009 -1 -1.02572e-007
vn -1.69542e-009 -1 -1.02572e-007
vt 2.20853 0.034326
vt 2.79098 0.957399
vt 2.00049 0.965718
f 127/127/127 128/128/128 129/129/129
v -19.8494 -5e-006 -4.15503
v -12.1678 -5e-006 -4.15503
v -14.2906 -6e-006 5.62927
vn -1.26887e-014 -1 -1.02205e-007
vn -1.26887e-014 -1 -1.02205e-007
vn -1.26887e-014 -1 -1.02205e-007
vt 1.47597 0.029935
vt 2.20853 0.034326
vt 2.00049 0.965718
f 130/130/130 131/131/131 132/132/132
v -1.34628 -1.03635 -4.05408
v 11.0534 -8e-006 5.49228
v -6.00241 -6e-006 5.49228
vn -9.84735e-008 -0.994159 0.107925
vn -9.84735e-008 -0.994159 0.107925
vn -9.84735e-008 -0.994159 0.107925
vt 3.24049 0.046958
vt 4.41752 0.96715
vt 2.79098 0.957399
f 133/133/133 134/134/134 135/135/135
v -4.71827 -0.046314 -4.07272
v -1.34628 -1.03635 -4.05408
v -6.00241 -6e-006 5.49228
vn -0.281391 -0.959021 -0.0331346
vn -0.281391 -0.959021 -0.0331346
vn -0.281391 -0.959021 -0.0331346
vt 2.91891 0.046288
vt 3.24049 0.046958
vt 2.79098 0.957399
f 136/136/136 137/137/137 138/138/138
v -7.39735 -0.02468 -4.1061
v -4.71827 -0.046314 -4.07272
v -6.00241 -6e-006 5.49228
vn -0.00812158 -0.99996 0.00375086
vn -0.00812158 -0.99996 0.00375086
vn -0.00812158 -0.99996 0.00375086
vt 2.66343 0.041642
vt 2.91891 0.046288
vt 2.79098 0.957399
f 139/139/139 140/140/140 141/141/141
v -12.1678 -5e-006 -4.15503
v -7.39735 -0.02468 -4.1061
v -6.00241 -6e-006 5.49228
vn -0.00520652 -0.999981 0.00332726
vn -0.00520652 -0.999981 0.00332726
vn -0.00520652 -0.999981 0.00332726
vt 2.20853 0.034326
vt 2.66343 0.041642
vt 2.79098 0.957399
f 142/142/142 143/143/143 144/144/144
v 22.0983 -1.12095 -4.29076
v 32.4245 -9e-006 5.28678
v 11.0534 -8e-006 5.49228
vn 0.00110639 -0.993357 0.115068
vn 0.00110639 -0.993357 0.115068
vn 0.00110639 -0.993357 0.115068
vt 5.47643 0.037544
vt 6.45571 0.959782
vt 4.41752 0.96715
f 145/145/145 146/146/146 147/147/147
v 15.7449 -1.15971 -4.11001
v 22.0983 -1.12095 -4.29076
v 11.0534 -8e-006 5.49228
vn 0.00959583 -0.992171 0.124516
vn 0.00959583 -0.992171 0.124516
vn 0.00959583 -0.992171 0.124516
vt 4.87044 0.051021
vt 5.47643 0.037544
vt 4.41752 0.96715
f 148/148/148 149/149/149 150/150/150
v 9.53754 -1.11272 -4.09137
v 15.7449 -1.15971 -4.11001
v 11.0534 -8e-006 5.49228
vn -0.00716812 -0.993171 0.116446
vn -0.00716812 -0.993171 0.116446
vn -0.00716812 -0.993171 0.116446
vt 4.27846 0.049393
vt 4.87044 0.051021
vt 4.41752 0.96715
f 151/151/151 152/152/152 153/153/153
v -1.34628 -1.03635 -4.05408
v 9.53754 -1.11272 -4.09137
v 11.0534 -8e-006 5.49228
vn -0.00657064 -0.993186 0.116354
vn -0.00657064 -0.993186 0.116354
vn -0.00657064 -0.993186 0.116354
vt 3.24049 0.046958
vt 4.27846 0.049393
vt 4.41752 0.96715
f 154/154/154 155/155/155 156/156/156
v 28.7913 0.186124 -4.4151
v 32.3616 -9e-006 -4.46456
v 32.4245 -9e-006 5.28678
vn -0.0520576 -0.998644 0.000335591
vn -0.0520576 -0.998644 0.000335591
vn -0.0520576 -0.998644 0.000335591
vt 6.11476 0.033525
vt 6.45529 0.030282
vt 6.45571 0.959782
f 157/157/157 158/158/158 159/159/159
v 24.9406 -0.497065 -4.4151
v 28.7913 0.186124 -4.4151
v 32.4245 -9e-006 5.28678
vn 0.174077 -0.981142 -0.0840128
vn 0.174077 -0.981142 -0.0840128
vn 0.174077 -0.981142 -0.0840128
vt 5.74756 0.02923
vt 6.11476 0.033525
vt 6.45571 0.959782
f 160/160/160 161/161/161 162/162/162
v 22.9413 -0.700523 -4.34148
v 24.9406 -0.497065 -4.4151
v 32.4245 -9e-006 5.28678
vn 0.100245 -0.994613 -0.0263698
vn 0.100245 -0.994613 -0.0263698
vn 0.100245 -0.994613 -0.0263698
vt 5.55685 0.034481
vt 5.74756 0.02923
vt 6.45571 0.959782
f 163/163/163 164/164/164 165/165/165
v 22.0983 -1.12095 -4.29076
v 22.9413 -0.700523 -4.34148
v 32.4245 -9e-006 5.28678
vn 0.404049 -0.850768 -0.336061
vn 0.404049 -0.850768 -0.336061
vn 0.404049 -0.850768 -0.336061
vt 5.47643 0.037544
vt 5.55685 0.034481
vt 6.45571 0.959782
f 166/166/166 167/167/167 168/168/168
v 22.0983 -1.12095 -4.29076
v 22.2065 -0.754644 -4.36984
v 22.9413 -0.700523 -4.34148
vn 0.0541859 -0.22599 -0.972621
vn 0.0541859 -0.22599 -0.972621
vn 0.0541859 -0.22599 -0.972621
vt 5.47643 0.037544
vt 5.48679 0.031191
vt 5.55685 0.034481
f 169/169/169 170/170/170 171/171/171
v -31.7773 -4e-006 5.56078
v -35.391 0.027116 -4.1061
v -35.2326 -4e-006 5.55707
vn -3.01525e-006 0.999996 0.00280657
vn -3.01525e-006 0.999996 0.00280657
vn -3.01525e-006 0.999996 0.00280657
vt 0.34691 0.999303
vt -0.008562 0.03131
vt 0.001483 0.996861
f 172/172/172 173/173/173 174/174/174
v -31.7773 -4e-006 5.56078
v -26.1076 -4e-006 -4.15503
v -35.391 0.027116 -4.1061
vn 0.00293036 0.999994 0.00171002
vn 0.00293036 0.999994 0.00171002
vn 0.00293036 0.999994 0.00171002
vt 0.34691 0.999303
vt 0.919539 0.031897
vt -0.008562 0.03131
f 175/175/175 176/176/176 177/177/177
v -19.7903 -5e-006 5.62927
v -19.8694 -5e-006 -4.15503
v -26.1076 -4e-006 -4.15503
vn 1.60301e-007 1 -1.29515e-009
vn 1.60301e-007 1 -1.29515e-009
vn 1.60301e-007 1 -1.29515e-009
vt 1.54523 1.01333
vt 1.54319 0.035636
vt 0.919539 0.031897
f 178/178/178 179/179/179 180/180/180
v -27.188 -5e-006 5.56078
v -19.7903 -5e-006 5.62927
v -26.1076 -4e-006 -4.15503
vn -9.52011e-010 1 1.02819e-007
vn -9.52011e-010 1 1.02819e-007
vn -9.52011e-010 1 1.02819e-007
vt 0.805711 1.00205
vt 1.54523 1.01333
vt 0.919539 0.031897
f 181/181/181 182/182/182 183/183/183
v -31.7773 -4e-006 5.56078
v -27.188 -5e-006 5.56078
v -26.1076 -4e-006 -4.15503
vn 2.17898e-007 1 1.27155e-007
vn 2.17898e-007 1 1.27155e-007
vn 2.17898e-007 1 1.27155e-007
vt 0.34691 0.999303
vt 0.805711 1.00205
vt 0.919539 0.031897
f 184/184/184 185/185/185 186/186/186
v -14.3106 -6e-006 5.62927
v -12.1878 -5e-006 -4.15503
v -19.8694 -5e-006 -4.15503
vn 1.26887e-014 1 1.02205e-007
vn 1.26887e-014 1 1.02205e-007
vn 1.26887e-014 1 1.02205e-007
vt 2.09305 1.01662
vt 2.31113 0.04024
vt 1.54319 0.035636
f 187/187/187 188/188/188 189/189/189
v -19.7903 -5e-006 5.62927
v -14.3106 -6e-006 5.62927
v -19.8694 -5e-006 -4.15503
vn 1.8249e-007 1 -1.47442e-009
vn 1.8249e-007 1 -1.47442e-009
vn 1.8249e-007 1 -1.47442e-009
vt 1.54523 1.01333
vt 2.09305 1.01662
vt 1.54319 0.035636
f 190/190/190 191/191/191 192/192/192
v -6.02241 -6e-006 5.49228
v -7.41735 -0.02468 -4.1061
v -12.1878 -5e-006 -4.15503
vn 0.00520653 0.999981 -0.00332726
vn 0.00520653 0.999981 -0.00332726
vn 0.00520653 0.999981 -0.00332726
vt 2.92171 1.00789
vt 2.78801 0.047909
vt 2.31113 0.04024
f 193/193/193 194/194/194 195/195/195
v -14.3106 -6e-006 5.62927
v -6.02241 -6e-006 5.49228
v -12.1878 -5e-006 -4.15503
vn 1.69542e-009 1 1.02572e-007
vn 1.69542e-009 1 1.02572e-007
vn 1.69542e-009 1 1.02572e-007
vt 2.09305 1.01662
vt 2.92171 1.00789
vt 2.31113 0.04024
f 196/196/196 197/197/197 198/198/198
v -6.02241 -6e-006 5.49228
v -4.73827 -0.046314 -4.07272
v -7.41735 -0.02468 -4.1061
vn 0.00812158 0.99996 -0.00375086
vn 0.00812158 0.99996 -0.00375086
vn 0.00812158 0.99996 -0.00375086
vt 2.92171 1.00789
vt 3.05582 0.05278
vt 2.78801 0.047909
f 199/199/199 200/200/200 201/201/201
v -6.02241 -6e-006 5.49228
v -1.36628 -1.03635 -4.05408
v -4.73827 -0.046314 -4.07272
vn 0.281391 0.959021 0.0331346
vn 0.281391 0.959021 0.0331346
vn 0.281391 0.959021 0.0331346
vt 2.92171 1.00789
vt 3.39293 0.053482
vt 3.05582 0.05278
f 202/202/202 203/203/203 204/204/204
v 11.0334 -8e-006 5.49228
v 9.51754 -1.11272 -4.09137
v -1.36628 -1.03635 -4.05408
vn 0.00657064 0.993186 -0.116354
vn 0.00657064 0.993186 -0.116354
vn 0.00657064 0.993186 -0.116354
vt 4.62681 1.01812
vt 4.48103 0.056035
vt 3.39293 0.053482
f 205/205/205 206/206/206 207/207/207
v -6.02241 -6e-006 5.49228
v 11.0334 -8e-006 5.49228
v -1.36628 -1.03635 -4.05408
vn 9.84735e-008 0.994159 -0.107925
vn 9.84735e-008 0.994159 -0.107925
vn 9.84735e-008 0.994159 -0.107925
vt 2.92171 1.00789
vt 4.62681 1.01812
vt 3.39293 0.053482
f 208/208/208 209/209/209 210/210/210
v 11.0334 -8e-006 5.49228
v 15.7249 -1.15971 -4.11001
v 9.51754 -1.11272 -4.09137
vn 0.00716812 0.993171 -0.116446
vn 0.00716812 0.993171 -0.116446
vn 0.00716812 0.993171 -0.116446
vt 4.62681 1.01812
vt 5.10161 0.057741
vt 4.48103 0.056035
f 211/211/211 212/212/212 213/213/213
v 11.0334 -8e-006 5.49228
v 22.0783 -1.12095 -4.29076
v 15.7249 -1.15971 -4.11001
vn -0.00959583 0.992171 -0.124516
vn -0.00959583 0.992171 -0.124516
vn -0.00959583 0.992171 -0.124516
vt 4.62681 1.01812
vt 5.73687 0.043613
vt 5.10161 0.057741
f 214/214/214 215/215/215 216/216/216
v 22.9213 -0.700523 -4.34148
v 22.1865 -0.754644 -4.36984
v 22.0783 -1.12095 -4.29076
vn -0.0541857 0.22599 0.972622
vn -0.0541857 0.22599 0.972622
vn -0.0541857 0.22599 0.972622
vt 5.82117 0.040402
vt 5.74773 0.036953
vt 5.73687 0.043613
f 217/217/217 218/218/218 219/219/219
v 32.4045 -9e-006 5.28678
v 22.9213 -0.700523 -4.34148
v 22.0783 -1.12095 -4.29076
vn -0.404049 0.850769 0.336061
vn -0.404049 0.850769 0.336061
vn -0.404049 0.850769 0.336061
vt 6.76344 1.01039
vt 5.82117 0.040402
vt 5.73687 0.043613
f 220/220/220 221/221/221 222/222/222
v 11.0334 -8e-006 5.49228
v 32.4045 -9e-006 5.28678
v 22.0783 -1.12095 -4.29076
vn -0.00110639 0.993357 -0.115068
vn -0.00110639 0.993357 -0.115068
vn -0.00110639 0.993357 -0.115068
vt 4.62681 1.01812
vt 6.76344 1.01039
vt 5.73687 0.043613
f 223/223/223 224/224/224 225/225/225
v 32.4045 -9e-006 5.28678
v 24.9206 -0.497065 -4.4151
v 22.9213 -0.700523 -4.34148
vn -0.100245 0.994613 0.0263699
vn -0.100245 0.994613 0.0263699
vn -0.100245 0.994613 0.0263699
vt 6.76344 1.01039
vt 6.02109 0.034897
vt 5.82117 0.040402
f 226/226/226 227/227/227 228/228/228
v 32.4045 -9e-006 5.28678
v 28.7713 0.186124 -4.4151
v 24.9206 -0.497065 -4.4151
vn -0.174077 0.981142 0.0840127
vn -0.174077 0.981142 0.0840127
vn -0.174077 0.981142 0.0840127
vt 6.76344 1.01039
vt 6.40603 0.0394
vt 6.02109 0.034897
f 229/229/229 230/230/230 231/231/231
v 32.4045 -9e-006 5.28678
v 32.3416 -9e-006 -4.46456
v 28.7713 0.186124 -4.4151
vn 0.0520576 0.998644 -0.000335592
vn 0.0520576 0.998644 -0.000335592
vn 0.0520576 0.998644 -0.000335592
vt 6.76344 1.01039
vt 6.763 0.036
vt 6.40603 0.0394
f 232/232/232 233/233/233 234/234/234
