o data/uid/01015014/s/000012.obj
//1
usemtl mat0
v 125.438 -0.052406 -3.87085
v 123.494 -0.052406 -3.39828
v 123.471 -0.052406 -3.49545
vn 0 -1 0
vn 0 -1 0
vn 0 -1 0
vt 1 1
vt 0 1
vt 0 0
f 1/1/1 2/2/2 3/3/3
v 125.414 -0.052406 -3.96802
v 125.438 -0.052406 -3.87085
v 123.471 -0.052406 -3.49545
vn 0 -1 -0
vn 0 -1 -0
vn 0 -1 -0
vt 1 0
vt 1 1
vt 0 0
f 4/4/4 5/5/5 6/6/6
v 125.438 -0.042406 -3.87085
v 125.438 -0.052406 -3.87085
v 125.414 -0.052406 -3.96802
vn 0.971684 0 -0.236283
vn 0.971684 0 -0.236283
vn 0.971684 0 -0.236283
vt 1 1
vt 0 1
vt 0 0
f 7/7/7 8/8/8 9/9/9
v 125.414 -0.042406 -3.96802
v 125.438 -0.042406 -3.87085
v 125.414 -0.052406 -3.96802
vn 0.971684 0 -0.236283
vn 0.971684 0 -0.236283
vn 0.971684 0 -0.236283
vt 1 0
vt 1 1
vt 0 0
f 10/10/10 11/11/11 12/12/12
v 123.494 -0.042406 -3.39828
v 125.438 -0.042406 -3.87085
v 125.414 -0.042406 -3.96802
vn 0 1 -0
vn 0 1 -0
vn 0 1 -0
vt 1 1
vt 0 1
vt 0 0
f 13/13/13 14/14/14 15/15/15
v 123.471 -0.042406 -3.49545
v 123.494 -0.042406 -3.39828
v 125.414 -0.042406 -3.96802
vn 0 1 0
vn 0 1 0
vn 0 1 0
vt 1 0
vt 1 1
vt 0 0
f 16/16/16 17/17/17 18/18/18
v 123.494 -0.052406 -3.39828
v 123.494 -0.042406 -3.39828
v 123.471 -0.042406 -3.49545
vn -0.971667 0 0.236355
vn -0.971667 0 0.236355
vn -0.971667 0 0.236355
vt 1 1
vt 0 1
vt 0 0
f 19/19/19 20/20/20 21/21/21
v 123.471 -0.052406 -3.49545
v 123.494 -0.052406 -3.39828
v 123.471 -0.042406 -3.49545
vn -0.971667 0 0.236355
vn -0.971667 0 0.236355
vn -0.971667 0 0.236355
vt 1 0
vt 1 1
vt 0 0
f 22/22/22 23/23/23 24/24/24
v 125.438 -0.042406 -3.87085
v 123.494 -0.042406 -3.39828
v 123.494 -0.052406 -3.39828
vn 0.236285 -0 0.971684
vn 0.236285 -0 0.971684
vn 0.236285 -0 0.971684
vt 1 1
vt 0 1
vt 0 0
f 25/25/25 26/26/26 27/27/27
v 125.438 -0.052406 -3.87085
v 125.438 -0.042406 -3.87085
v 123.494 -0.052406 -3.39828
vn 0.236285 0 0.971684
vn 0.236285 0 0.971684
vn 0.236285 0 0.971684
vt 1 0
vt 1 1
vt 0 0
f 28/28/28 29/29/29 30/30/30
v 125.414 -0.052406 -3.96802
v 123.471 -0.052406 -3.49545
v 123.471 -0.042406 -3.49545
vn -0.236284 -0 -0.971684
vn -0.236284 -0 -0.971684
vn -0.236284 -0 -0.971684
vt 1 1
vt 0 1
vt 0 0
f 31/31/31 32/32/32 33/33/33
v 125.414 -0.042406 -3.96802
v 125.414 -0.052406 -3.96802
v 123.471 -0.042406 -3.49545
vn -0.236284 0 -0.971684
vn -0.236284 0 -0.971684
vn -0.236284 0 -0.971684
vt 1 0
vt 1 1
vt 0 0
f 34/34/34 35/35/35 36/36/36
v 125.404 -0.052406 -2.7959
v 123.497 -0.052406 -3.39985
v 123.527 -0.052406 -3.49518
vn 0 -1 0
vn 0 -1 0
vn 0 -1 0
vt 1 1
vt 0 1
vt 0 0
f 37/37/37 38/38/38 39/39/39
v 125.434 -0.052406 -2.89123
v 125.404 -0.052406 -2.7959
v 123.527 -0.052406 -3.49518
vn 0 -1 0
vn 0 -1 0
vn 0 -1 0
vt 1 0
vt 1 1
vt 0 0
f 40/40/40 41/41/41 42/42/42
v 125.404 -0.042406 -2.7959
v 125.404 -0.052406 -2.7959
v 125.434 -0.052406 -2.89123
vn 0.953317 -0 0.301971
vn 0.953317 -0 0.301971
vn 0.953317 -0 0.301971
vt 1 1
vt 0 1
vt 0 0
f 43/43/43 44/44/44 45/45/45
v 125.434 -0.042406 -2.89123
v 125.404 -0.042406 -2.7959
v 125.434 -0.052406 -2.89123
vn 0.953317 0 0.301971
vn 0.953317 0 0.301971
vn 0.953317 0 0.301971
vt 1 0
vt 1 1
vt 0 0
f 46/46/46 47/47/47 48/48/48
v 123.497 -0.042406 -3.39985
v 125.404 -0.042406 -2.7959
v 125.434 -0.042406 -2.89123
vn 0 1 0
vn 0 1 0
vn 0 1 0
vt 1 1
vt 0 1
vt 0 0
f 49/49/49 50/50/50 51/51/51
v 123.527 -0.042406 -3.49518
v 123.497 -0.042406 -3.39985
v 125.434 -0.042406 -2.89123
vn 0 1 0
vn 0 1 0
vn 0 1 0
vt 1 0
vt 1 1
vt 0 0
f 52/52/52 53/53/53 54/54/54
v 123.497 -0.052406 -3.39985
v 123.497 -0.042406 -3.39985
v 123.527 -0.042406 -3.49518
vn -0.953317 -0 -0.30197
vn -0.953317 -0 -0.30197
vn -0.953317 -0 -0.30197
vt 1 1
vt 0 1
vt 0 0
f 55/55/55 56/56/56 57/57/57
v 123.527 -0.052406 -3.49518
v 123.497 -0.052406 -3.39985
v 123.527 -0.042406 -3.49518
vn -0.953317 0 -0.30197
vn -0.953317 0 -0.30197
vn -0.953317 0 -0.30197
vt 1 0
vt 1 1
vt 0 0
f 58/58/58 59/59/59 60/60/60
v 125.404 -0.042406 -2.7959
v 123.497 -0.042406 -3.39985
v 123.497 -0.052406 -3.39985
vn -0.301976 0 0.953316
vn -0.301976 0 0.953316
vn -0.301976 0 0.953316
vt 1 1
vt 0 1
vt 0 0
f 61/61/61 62/62/62 63/63/63
v 125.404 -0.052406 -2.7959
v 125.404 -0.042406 -2.7959
v 123.497 -0.052406 -3.39985
vn -0.301976 0 0.953316
vn -0.301976 0 0.953316
vn -0.301976 0 0.953316
vt 1 0
vt 1 1
vt 0 0
f 64/64/64 65/65/65 66/66/66
v 125.434 -0.052406 -2.89123
v 123.527 -0.052406 -3.49518
v 123.527 -0.042406 -3.49518
vn 0.301976 0 -0.953316
vn 0.301976 0 -0.953316
vn 0.301976 0 -0.953316
vt 1 1
vt 0 1
vt 0 0
f 67/67/67 68/68/68 69/69/69
v 125.434 -0.042406 -2.89123
v 125.434 -0.052406 -2.89123
v 123.527 -0.042406 -3.49518
vn 0.301976 0 -0.953316
vn 0.301976 0 -0.953316
vn 0.301976 0 -0.953316
vt 1 0
vt 1 1
vt 0 0
f 70/70/70 71/71/71 72/72/72
v 124.219 -0.052406 -3.59687
v 124.369 -0.052406 -3.22595
v 124.276 -0.052406 -3.18852
vn 0 -1 -0
vn 0 -1 -0
vn 0 -1 -0
vt 1 1
vt 0 1
vt 0 0
f 73/73/73 74/74/74 75/75/75
v 124.126 -0.052406 -3.55944
v 124.219 -0.052406 -3.59687
v 124.276 -0.052406 -3.18852
vn -0 -1 0
vn -0 -1 0
vn -0 -1 0
vt 1 0
vt 1 1
vt 0 0
f 76/76/76 77/77/77 78/78/78
v 124.219 -0.042406 -3.59687
v 124.219 -0.052406 -3.59687
v 124.126 -0.052406 -3.55944
vn -0.374293 0 -0.92731
vn -0.374293 0 -0.92731
vn -0.374293 0 -0.92731
vt 1 1
vt 0 1
vt 0 0
f 79/79/79 80/80/80 81/81/81
v 124.126 -0.042406 -3.55944
v 124.219 -0.042406 -3.59687
v 124.126 -0.052406 -3.55944
vn -0.374293 0 -0.92731
vn -0.374293 0 -0.92731
vn -0.374293 0 -0.92731
vt 1 0
vt 1 1
vt 0 0
f 82/82/82 83/83/83 84/84/84
v 124.369 -0.042406 -3.22595
v 124.219 -0.042406 -3.59687
v 124.126 -0.042406 -3.55944
vn -0 1 0
vn -0 1 0
vn -0 1 0
vt 1 1
vt 0 1
vt 0 0
f 85/85/85 86/86/86 87/87/87
v 124.276 -0.042406 -3.18852
v 124.369 -0.042406 -3.22595
v 124.126 -0.042406 -3.55944
vn 0 1 -0
vn 0 1 -0
vn 0 1 -0
vt 1 0
vt 1 1
vt 0 0
f 88/88/88 89/89/89 90/90/90
v 124.369 -0.052406 -3.22595
v 124.369 -0.042406 -3.22595
v 124.276 -0.042406 -3.18852
vn 0.374311 0 0.927303
vn 0.374311 0 0.927303
vn 0.374311 0 0.927303
vt 1 1
vt 0 1
vt 0 0
f 91/91/91 92/92/92 93/93/93
v 124.276 -0.052406 -3.18852
v 124.369 -0.052406 -3.22595
v 124.276 -0.042406 -3.18852
vn 0.374311 0 0.927303
vn 0.374311 0 0.927303
vn 0.374311 0 0.927303
vt 1 0
vt 1 1
vt 0 0
f 94/94/94 95/95/95 96/96/96
v 124.219 -0.042406 -3.59687
v 124.369 -0.042406 -3.22595
v 124.369 -0.052406 -3.22595
vn 0.927308 0 -0.374299
vn 0.927308 0 -0.374299
vn 0.927308 0 -0.374299
vt 1 1
vt 0 1
vt 0 0
f 97/97/97 98/98/98 99/99/99
v 124.219 -0.052406 -3.59687
v 124.219 -0.042406 -3.59687
v 124.369 -0.052406 -3.22595
vn 0.927308 0 -0.374299
vn 0.927308 0 -0.374299
vn 0.927308 0 -0.374299
vt 1 0
vt 1 1
vt 0 0
f 100/100/100 101/101/101 102/102/102
v 124.126 -0.052406 -3.55944
v 124.276 -0.052406 -3.18852
v 124.276 -0.042406 -3.18852
vn -0.927301 0 0.374317
vn -0.927301 0 0.374317
vn -0.927301 0 0.374317
vt 1 1
vt 0 1
vt 0 0
f 103/103/103 104/104/104 105/105/105
v 124.126 -0.042406 -3.55944
v 124.126 -0.052406 -3.55944
v 124.276 -0.042406 -3.18852
vn -0.927301 0 0.374317
vn -0.927301 0 0.374317
vn -0.927301 0 0.374317
vt 1 0
vt 1 1
vt 0 0
f 106/106/106 107/107/107 108/108/108
v 124.513 -0.052406 -3.71536
v 124.662 -0.052406 -3.34444
v 124.57 -0.052406 -3.30701
vn 0 -1 -0
vn 0 -1 -0
vn 0 -1 -0
vt 1 1
vt 0 1
vt 0 0
f 109/109/109 110/110/110 111/111/111
v 124.42 -0.052406 -3.67793
v 124.513 -0.052406 -3.71536
v 124.57 -0.052406 -3.30701
vn -0 -1 0
vn -0 -1 0
vn -0 -1 0
vt 1 0
vt 1 1
vt 0 0
f 112/112/112 113/113/113 114/114/114
v 124.513 -0.042406 -3.71536
v 124.513 -0.052406 -3.71536
v 124.42 -0.052406 -3.67793
vn -0.374311 0 -0.927303
vn -0.374311 0 -0.927303
vn -0.374311 0 -0.927303
vt 1 1
vt 0 1
vt 0 0
f 115/115/115 116/116/116 117/117/117
v 124.42 -0.042406 -3.67793
v 124.513 -0.042406 -3.71536
v 124.42 -0.052406 -3.67793
vn -0.374311 0 -0.927303
vn -0.374311 0 -0.927303
vn -0.374311 0 -0.927303
vt 1 0
vt 1 1
vt 0 0
f 118/118/118 119/119/119 120/120/120
v 124.662 -0.042406 -3.34444
v 124.513 -0.042406 -3.71536
v 124.42 -0.042406 -3.67793
vn -0 1 0
vn -0 1 0
vn -0 1 0
vt 1 1
vt 0 1
vt 0 0
f 121/121/121 122/122/122 123/123/123
v 124.57 -0.042406 -3.30701
v 124.662 -0.042406 -3.34444
v 124.42 -0.042406 -3.67793
vn 0 1 -0
vn 0 1 -0
vn 0 1 -0
vt 1 0
vt 1 1
vt 0 0
f 124/124/124 125/125/125 126/126/126
v 124.769 -0.052406 -3.07923
v 124.769 -0.042406 -3.07923
v 124.677 -0.042406 -3.0418
vn 0.374309 0 0.927304
vn 0.374309 0 0.927304
vn 0.374309 0 0.927304
vt 1 1
vt 0 1
vt 0 0
f 127/127/127 128/128/128 129/129/129
v 124.677 -0.052406 -3.0418
v 124.769 -0.052406 -3.07923
v 124.677 -0.042406 -3.0418
vn 0.374309 0 0.927304
vn 0.374309 0 0.927304
vn 0.374309 0 0.927304
vt 1 0
vt 1 1
vt 0 0
f 130/130/130 131/131/131 132/132/132
v 124.513 -0.042406 -3.71536
v 124.662 -0.042406 -3.34444
v 124.662 -0.052406 -3.34444
vn 0.927308 0 -0.374299
vn 0.927308 0 -0.374299
vn 0.927308 0 -0.374299
vt 1 1
vt 0 1
vt 0 0
f 133/133/133 134/134/134 135/135/135
v 124.513 -0.052406 -3.71536
v 124.513 -0.042406 -3.71536
v 124.662 -0.052406 -3.34444
vn 0.927308 0 -0.374299
vn 0.927308 0 -0.374299
vn 0.927308 0 -0.374299
vt 1 0
vt 1 1
vt 0 0
f 136/136/136 137/137/137 138/138/138
v 124.42 -0.052406 -3.67793
v 124.57 -0.052406 -3.30701
v 124.57 -0.042406 -3.30701
vn -0.927308 0 0.374299
vn -0.927308 0 0.374299
vn -0.927308 0 0.374299
vt 1 1
vt 0 1
vt 0 0
f 139/139/139 140/140/140 141/141/141
v 124.42 -0.042406 -3.67793
v 124.42 -0.052406 -3.67793
v 124.57 -0.042406 -3.30701
vn -0.927308 0 0.374299
vn -0.927308 0 0.374299
vn -0.927308 0 0.374299
vt 1 0
vt 1 1
vt 0 0
f 142/142/142 143/143/143 144/144/144
v 124.677 -0.052406 -3.0418
v 124.677 -0.042406 -3.0418
v 124.57 -0.042406 -3.30701
vn -0.9273 0 0.374319
vn -0.9273 0 0.374319
vn -0.9273 0 0.374319
vt 1 0
vt 0 0
vt 0 0
f 145/145/145 146/146/146 147/147/147
v 124.57 -0.052406 -3.30701
v 124.677 -0.052406 -3.0418
v 124.57 -0.042406 -3.30701
vn -0.9273 0 0.374319
vn -0.9273 0 0.374319
vn -0.9273 0 0.374319
vt 1 0
vt 1 0
vt 0 0
f 148/148/148 149/149/149 150/150/150
v 124.769 -0.052406 -3.07923
v 124.677 -0.052406 -3.0418
v 124.57 -0.052406 -3.30701
vn 0 -1 0
vn 0 -1 0
vn 0 -1 0
vt 1 1
vt 1 0
vt 1 0
f 151/151/151 152/152/152 153/153/153
v 124.662 -0.052406 -3.34444
v 124.769 -0.052406 -3.07923
v 124.57 -0.052406 -3.30701
vn 0 -1 -0
vn 0 -1 -0
vn 0 -1 -0
vt 1 1
vt 1 1
vt 1 0
f 154/154/154 155/155/155 156/156/156
v 124.769 -0.042406 -3.07923
v 124.769 -0.052406 -3.07923
v 124.662 -0.052406 -3.34444
vn 0.9273 0 -0.374319
vn 0.9273 0 -0.374319
vn 0.9273 0 -0.374319
vt 0 1
vt 1 1
vt 1 1
f 157/157/157 158/158/158 159/159/159
v 124.662 -0.042406 -3.34444
v 124.769 -0.042406 -3.07923
v 124.662 -0.052406 -3.34444
vn 0.9273 0 -0.374319
vn 0.9273 0 -0.374319
vn 0.9273 0 -0.374319
vt 0 1
vt 0 1
vt 1 1
f 160/160/160 161/161/161 162/162/162
v 124.677 -0.042406 -3.0418
v 124.769 -0.042406 -3.07923
v 124.662 -0.042406 -3.34444
vn 0 1 -0
vn 0 1 -0
vn 0 1 -0
vt 0 0
vt 0 1
vt 0 1
f 163/163/163 164/164/164 165/165/165
v 124.57 -0.042406 -3.30701
v 124.677 -0.042406 -3.0418
v 124.662 -0.042406 -3.34444
vn 0 1 -0
vn 0 1 -0
vn 0 1 -0
vt 0 0
vt 0 0
vt 0 1
f 166/166/166 167/167/167 168/168/168
v 124.892 -0.052406 -3.78426
v 125.018 -0.052406 -3.40464
v 124.923 -0.052406 -3.37313
vn 0 -1 -0
vn 0 -1 -0
vn 0 -1 -0
vt 1 1
vt 0 1
vt 0 0
f 169/169/169 170/170/170 171/171/171
v 124.797 -0.052406 -3.75274
v 124.892 -0.052406 -3.78426
v 124.923 -0.052406 -3.37313
vn -0 -1 0
vn -0 -1 0
vn -0 -1 0
vt 1 0
vt 1 1
vt 0 0
f 172/172/172 173/173/173 174/174/174
v 124.892 -0.042406 -3.78426
v 124.892 -0.052406 -3.78426
v 124.797 -0.052406 -3.75274
vn -0.315166 0 -0.949037
vn -0.315166 0 -0.949037
vn -0.315166 0 -0.949037
vt 1 1
vt 0 1
vt 0 0
f 175/175/175 176/176/176 177/177/177
v 124.797 -0.042406 -3.75274
v 124.892 -0.042406 -3.78426
v 124.797 -0.052406 -3.75274
vn -0.315166 0 -0.949037
vn -0.315166 0 -0.949037
vn -0.315166 0 -0.949037
vt 1 0
vt 1 1
vt 0 0
f 178/178/178 179/179/179 180/180/180
v 125.018 -0.042406 -3.40464
v 124.892 -0.042406 -3.78426
v 124.797 -0.042406 -3.75274
vn -0 1 0
vn -0 1 0
vn -0 1 0
vt 1 1
vt 0 1
vt 0 0
f 181/181/181 182/182/182 183/183/183
v 124.923 -0.042406 -3.37313
v 125.018 -0.042406 -3.40464
v 124.797 -0.042406 -3.75274
vn 0 1 -0
vn 0 1 -0
vn 0 1 -0
vt 1 0
vt 1 1
vt 0 0
f 184/184/184 185/185/185 186/186/186
v 125.166 -0.052406 -2.95764
v 125.166 -0.042406 -2.95764
v 125.071 -0.042406 -2.92613
vn 0.315166 0 0.949037
vn 0.315166 0 0.949037
vn 0.315166 0 0.949037
vt 1 1
vt 0 1
vt 0 0
f 187/187/187 188/188/188 189/189/189
v 125.071 -0.052406 -2.92613
v 125.166 -0.052406 -2.95764
v 125.071 -0.042406 -2.92613
vn 0.315166 0 0.949037
vn 0.315166 0 0.949037
vn 0.315166 0 0.949037
vt 1 0
vt 1 1
vt 0 0
f 190/190/190 191/191/191 192/192/192
v 124.892 -0.042406 -3.78426
v 125.018 -0.042406 -3.40464
v 125.018 -0.052406 -3.40464
vn 0.949035 0 -0.31517
vn 0.949035 0 -0.31517
vn 0.949035 0 -0.31517
vt 1 1
vt 0 1
vt 0 0
f 193/193/193 194/194/194 195/195/195
v 124.892 -0.052406 -3.78426
v 124.892 -0.042406 -3.78426
v 125.018 -0.052406 -3.40464
vn 0.949035 0 -0.31517
vn 0.949035 0 -0.31517
vn 0.949035 0 -0.31517
vt 1 0
vt 1 1
vt 0 0
f 196/196/196 197/197/197 198/198/198
v 124.797 -0.052406 -3.75274
v 124.923 -0.052406 -3.37313
v 124.923 -0.042406 -3.37313
vn -0.949035 0 0.31517
vn -0.949035 0 0.31517
vn -0.949035 0 0.31517
vt 1 1
vt 0 1
vt 0 0
f 199/199/199 200/200/200 201/201/201
v 124.797 -0.042406 -3.75274
v 124.797 -0.052406 -3.75274
v 124.923 -0.042406 -3.37313
vn -0.949035 0 0.31517
vn -0.949035 0 0.31517
vn -0.949035 0 0.31517
vt 1 0
vt 1 1
vt 0 0
f 202/202/202 203/203/203 204/204/204
v 125.013 -0.052406 -3.1017
v 125.013 -0.042406 -3.1017
v 124.923 -0.042406 -3.37313
vn -0.949041 0 0.315153
vn -0.949041 0 0.315153
vn -0.949041 0 0.315153
vt 1 0
vt 0 0
vt 0 0
f 205/205/205 206/206/206 207/207/207
v 124.923 -0.052406 -3.37313
v 125.013 -0.052406 -3.1017
v 124.923 -0.042406 -3.37313
vn -0.949041 0 0.315153
vn -0.949041 0 0.315153
vn -0.949041 0 0.315153
vt 1 0
vt 1 0
vt 0 0
f 208/208/208 209/209/209 210/210/210
v 125.108 -0.052406 -3.13322
v 125.013 -0.052406 -3.1017
v 124.923 -0.052406 -3.37313
vn 0 -1 0
vn 0 -1 0
vn 0 -1 0
vt 1 1
vt 1 0
vt 1 0
f 211/211/211 212/212/212 213/213/213
v 125.018 -0.052406 -3.40464
v 125.108 -0.052406 -3.13322
v 124.923 -0.052406 -3.37313
vn 0 -1 -0
vn 0 -1 -0
vn 0 -1 -0
vt 1 1
vt 1 1
vt 1 0
f 214/214/214 215/215/215 216/216/216
v 125.108 -0.042406 -3.13322
v 125.108 -0.052406 -3.13322
v 125.018 -0.052406 -3.40464
vn 0.949033 0 -0.315177
vn 0.949033 0 -0.315177
vn 0.949033 0 -0.315177
vt 0 1
vt 1 1
vt 1 1
f 217/217/217 218/218/218 219/219/219
v 125.018 -0.042406 -3.40464
v 125.108 -0.042406 -3.13322
v 125.018 -0.052406 -3.40464
vn 0.949033 0 -0.315177
vn 0.949033 0 -0.315177
vn 0.949033 0 -0.315177
vt 0 1
vt 0 1
vt 1 1
f 220/220/220 221/221/221 222/222/222
v 125.013 -0.042406 -3.1017
v 125.108 -0.042406 -3.13322
v 125.018 -0.042406 -3.40464
vn 0 1 -0
vn 0 1 -0
vn 0 1 -0
vt 0 0
vt 0 1
vt 0 1
f 223/223/223 224/224/224 225/225/225
v 124.923 -0.042406 -3.37313
v 125.013 -0.042406 -3.1017
v 125.018 -0.042406 -3.40464
vn 0 1 0
vn 0 1 0
vn 0 1 0
vt 0 0
vt 0 0
vt 0 1
f 226/226/226 227/227/227 228/228/228
v 125.071 -0.052406 -2.92613
v 125.071 -0.042406 -2.92613
v 125.013 -0.042406 -3.1017
vn -0.949027 0 0.315193
vn -0.949027 0 0.315193
vn -0.949027 0 0.315193
vt 1 0
vt 0 0
vt 0 0
f 229/229/229 230/230/230 231/231/231
v 125.013 -0.052406 -3.1017
v 125.071 -0.052406 -2.92613
v 125.013 -0.042406 -3.1017
vn -0.949027 0 0.315193
vn -0.949027 0 0.315193
vn -0.949027 0 0.315193
vt 1 0
vt 1 0
vt 0 0
f 232/232/232 233/233/233 234/234/234
v 125.166 -0.052406 -2.95764
v 125.071 -0.052406 -2.92613
v 125.013 -0.052406 -3.1017
vn 0 -1 0
vn 0 -1 0
vn 0 -1 0
vt 1 1
vt 1 0
vt 1 0
f 235/235/235 236/236/236 237/237/237
v 125.108 -0.052406 -3.13322
v 125.166 -0.052406 -2.95764
v 125.013 -0.052406 -3.1017
vn 0 -1 -0
vn 0 -1 -0
vn 0 -1 -0
vt 1 1
vt 1 1
vt 1 0
f 238/238/238 239/239/239 240/240/240
v 125.166 -0.042406 -2.95764
v 125.166 -0.052406 -2.95764
v 125.108 -0.052406 -3.13322
vn 0.94904 0 -0.315157
vn 0.94904 0 -0.315157
vn 0.94904 0 -0.315157
vt 0 1
vt 1 1
vt 1 1
f 241/241/241 242/242/242 243/243/243
v 125.108 -0.042406 -3.13322
v 125.166 -0.042406 -2.95764
v 125.108 -0.052406 -3.13322
vn 0.94904 0 -0.315157
vn 0.94904 0 -0.315157
vn 0.94904 0 -0.315157
vt 0 1
vt 0 1
vt 1 1
f 244/244/244 245/245/245 246/246/246
v 125.071 -0.042406 -2.92613
v 125.166 -0.042406 -2.95764
v 125.108 -0.042406 -3.13322
vn 0 1 -0
vn 0 1 -0
vn 0 1 -0
vt 0 0
vt 0 1
vt 0 1
f 247/247/247 248/248/248 249/249/249
v 125.013 -0.042406 -3.1017
v 125.071 -0.042406 -2.92613
v 125.108 -0.042406 -3.13322
vn 0 1 0
vn 0 1 0
vn 0 1 0
vt 0 0
vt 0 0
vt 0 1
f 250/250/250 251/251/251 252/252/252
v 125.215 -0.052406 -3.86638
v 125.331 -0.052406 -3.48361
v 125.236 -0.052406 -3.45458
vn 0 -1 -0
vn 0 -1 -0
vn 0 -1 -0
vt 1 1
vt 0 1
vt 0 0
f 253/253/253 254/254/254 255/255/255
v 125.12 -0.052406 -3.83734
v 125.215 -0.052406 -3.86638
v 125.236 -0.052406 -3.45458
vn -0 -1 0
vn -0 -1 0
vn -0 -1 0
vt 1 0
vt 1 1
vt 0 0
f 256/256/256 257/257/257 258/258/258
v 125.215 -0.042406 -3.86638
v 125.215 -0.052406 -3.86638
v 125.12 -0.052406 -3.83734
vn -0.290389 0 -0.956909
vn -0.290389 0 -0.956909
vn -0.290389 0 -0.956909
vt 1 1
vt 0 1
vt 0 0
f 259/259/259 260/260/260 261/261/261
v 125.12 -0.042406 -3.83734
v 125.215 -0.042406 -3.86638
v 125.12 -0.052406 -3.83734
vn -0.290389 0 -0.956909
vn -0.290389 0 -0.956909
vn -0.290389 0 -0.956909
vt 1 0
vt 1 1
vt 0 0
f 262/262/262 263/263/263 264/264/264
v 125.331 -0.042406 -3.48361
v 125.215 -0.042406 -3.86638
v 125.12 -0.042406 -3.83734
vn -0 1 0
vn -0 1 0
vn -0 1 0
vt 1 1
vt 0 1
vt 0 0
f 265/265/265 266/266/266 267/267/267
v 125.236 -0.042406 -3.45458
v 125.331 -0.042406 -3.48361
v 125.12 -0.042406 -3.83734
vn 0 1 -0
vn 0 1 -0
vn 0 1 -0
vt 1 0
vt 1 1
vt 0 0
f 268/268/268 269/269/269 270/270/270
v 125.331 -0.052406 -3.48361
v 125.331 -0.042406 -3.48361
v 125.236 -0.042406 -3.45458
vn 0.290359 0 0.956918
vn 0.290359 0 0.956918
vn 0.290359 0 0.956918
vt 1 1
vt 0 1
vt 0 0
f 271/271/271 272/272/272 273/273/273
v 125.236 -0.052406 -3.45458
v 125.331 -0.052406 -3.48361
v 125.236 -0.042406 -3.45458
vn 0.290359 0 0.956918
vn 0.290359 0 0.956918
vn 0.290359 0 0.956918
vt 1 0
vt 1 1
vt 0 0
f 274/274/274 275/275/275 276/276/276
v 125.215 -0.042406 -3.86638
v 125.331 -0.042406 -3.48361
v 125.331 -0.052406 -3.48361
vn 0.956908 0 -0.290392
vn 0.956908 0 -0.290392
vn 0.956908 0 -0.290392
vt 1 1
vt 0 1
vt 0 0
f 277/277/277 278/278/278 279/279/279
v 125.215 -0.052406 -3.86638
v 125.215 -0.042406 -3.86638
v 125.331 -0.052406 -3.48361
vn 0.956908 0 -0.290392
vn 0.956908 0 -0.290392
vn 0.956908 0 -0.290392
vt 1 0
vt 1 1
vt 0 0
f 280/280/280 281/281/281 282/282/282
v 125.12 -0.052406 -3.83734
v 125.236 -0.052406 -3.45458
v 125.236 -0.042406 -3.45458
vn -0.956913 0 0.290376
vn -0.956913 0 0.290376
vn -0.956913 0 0.290376
vt 1 1
vt 0 1
vt 0 0
f 283/283/283 284/284/284 285/285/285
v 125.12 -0.042406 -3.83734
v 125.12 -0.052406 -3.83734
v 125.236 -0.042406 -3.45458
vn -0.956913 0 0.290376
vn -0.956913 0 0.290376
vn -0.956913 0 0.290376
vt 1 0
vt 1 1
vt 0 0
f 286/286/286 287/287/287 288/288/288
