o data/uid/01015014/s/000005.obj
//1
usemtl mat0
v 47.8103 -0.034505 -6.81817
v 47.4831 -0.034505 -7.38995
v 25.0142 -0.034505 -10.4241
vn 0 1 0
vn 0 1 0
vn 0 1 0
vt 18.324 0.418244
vt 18.2132 0.611836
vt 10.6056 1.63915
f 1/1/1 2/2/2 3/3/3
v 99.4084 -0.029505 -6.95982
v 98.7525 -0.029505 -7.11083
v 98.7525 -0.029505 -7.04948
vn -0 1 0
vn -0 1 0
vn -0 1 0
vt 1.18474 -0.001458
vt 0.995086 0.042204
vt 0.995086 0.024465
f 4/4/4 5/5/5 6/6/6
v 99.5164 -0.029505 -6.87066
v 99.4084 -0.029505 -6.95982
v 98.7525 -0.029505 -7.04948
vn 0 1 0
vn 0 1 0
vn 0 1 0
vt 1.21597 -0.027238
vt 1.18474 -0.001458
vt 0.995086 0.024465
f 7/7/7 8/8/8 9/9/9
v 48.0441 -0.034505 -6.5208
v 47.9497 -0.034505 -6.61897
v 25.0142 -0.034505 -10.4241
vn 0 1 0
vn 0 1 0
vn 0 1 0
vt 18.4032 0.317556
vt 18.3712 0.350795
vt 10.6056 1.63915
f 10/10/10 11/11/11 12/12/12
v 98.7525 -0.029505 -10.9014
v 98.7627 -0.029505 -10.9514
v 71.1202 -0.029505 -10.8077
vn -0 1 -0
vn -0 1 -0
vn -0 1 -0
vt 0.995093 1.1382
vt 0.998027 1.15265
vt -6.99446 1.1111
f 13/13/13 14/14/14 15/15/15
v 71.1202 -0.029505 -10.8077
v 71.1928 -0.029505 -8.15223
v 98.7525 -0.029505 -10.3561
vn 0 1 0
vn 0 1 0
vn 0 1 0
vt -6.99446 1.1111
vt -6.97348 0.343313
vt 0.995093 0.980524
f 16/16/16 17/17/17 18/18/18
v 98.7525 -0.029505 -10.9014
v 71.1202 -0.029505 -10.8077
v 98.7525 -0.029505 -10.3561
vn 0 1 0
vn 0 1 0
vn 0 1 0
vt 0.995093 1.1382
vt -6.99446 1.1111
vt 0.995093 0.980524
f 19/19/19 20/20/20 21/21/21
v -17.6048 -0.029505 -6.009
v -18.1438 -0.029505 -7.24677
v -40.7721 -0.029505 -10.3049
vn 0 1 0
vn 0 1 0
vn 0 1 0
vt -3.74222 0.129472
vt -3.92911 0.558704
vt -11.7761 1.6192
f 22/22/22 23/23/23 24/24/24
v -17.6048 -0.029505 -6.009
v -17.8851 -0.029505 -6.79363
v -18.1438 -0.029505 -7.24677
vn 0 1 0
vn 0 1 0
vn 0 1 0
vt -3.74222 0.129472
vt -3.83939 0.401566
vt -3.92911 0.558704
f 25/25/25 26/26/26 27/27/27
v 99.5164 -0.029505 -6.87066
v 98.7525 -0.029505 -7.04948
v 98.7525 -0.029505 -7.00861
vn -0 1 0
vn -0 1 0
vn -0 1 0
vt 1.21597 -0.027238
vt 0.995086 0.024465
vt 0.995086 0.01265
f 28/28/28 29/29/29 30/30/30
v 99.697 -0.029505 -6.78511
v 99.5164 -0.029505 -6.87066
v 98.7525 -0.029505 -7.00861
vn 0 1 0
vn 0 1 0
vn 0 1 0
vt 1.26818 -0.051973
vt 1.21597 -0.027238
vt 0.995086 0.01265
f 31/31/31 32/32/32 33/33/33
v 98.9744 -0.029505 -8.1405
v 98.7525 -0.029505 -8.17677
v 98.7525 -0.029505 -7.6938
vn -0 1 0
vn -0 1 0
vn -0 1 0
vt 1.05924 0.33992
vt 0.995086 0.350407
vt 0.995086 0.210762
f 34/34/34 35/35/35 36/36/36
v 99.0077 -0.029505 -7.64435
v 98.9744 -0.029505 -8.1405
v 98.7525 -0.029505 -7.6938
vn -0 1 0
vn -0 1 0
vn -0 1 0
vt 1.06888 0.196466
vt 1.05924 0.33992
vt 0.995086 0.210762
f 37/37/37 38/38/38 39/39/39
v -17.6048 -0.029505 -6.009
v -17.5622 -0.029505 -6.37377
v -17.8851 -0.029505 -6.79363
vn 0 1 -0
vn 0 1 -0
vn 0 1 -0
vt -3.74222 0.129472
vt -3.72742 0.255967
vt -3.83939 0.401566
f 40/40/40 41/41/41 42/42/42
v -45.0004 -0.029505 -10.3223
v -57.3606 -0.029505 -6.50164
v -58.2691 -0.029505 -5.87011
vn 0 1 0
vn 0 1 0
vn 0 1 0
vt -13.2424 1.62523
vt -17.5287 0.300308
vt -17.8437 0.08131
f 43/43/43 44/44/44 45/45/45
v 98.7525 -0.029505 -10.2002
v 98.7525 -0.029505 -10.2433
v 71.0193 -0.029505 -7.63275
vn -0 1 0
vn -0 1 0
vn -0 1 0
vt 0.995093 0.935459
vt 0.995093 0.947913
vt -7.02364 0.19311
f 46/46/46 47/47/47 48/48/48
v 70.9323 -0.029505 -7.43101
v 98.7525 -0.029505 -10.2002
v 71.0193 -0.029505 -7.63275
vn -0 1 -0
vn -0 1 -0
vn -0 1 -0
vt -7.04878 0.134779
vt 0.995093 0.935459
vt -7.02364 0.19311
f 49/49/49 50/50/50 51/51/51
v -17.3454 -0.029505 -6.19596
v -17.5622 -0.029505 -6.37377
v -17.6048 -0.029505 -6.009
vn -0 1 0
vn -0 1 0
vn -0 1 0
vt -3.65224 0.194308
vt -3.72742 0.255967
vt -3.74222 0.129472
f 52/52/52 53/53/53 54/54/54
v 98.7525 -0.029505 -10.0481
v 98.7525 -0.029505 -10.2002
v 70.9323 -0.029505 -7.43101
vn -0 1 0
vn -0 1 0
vn -0 1 0
vt 0.995093 0.891489
vt 0.995093 0.935459
vt -7.04878 0.134779
f 55/55/55 56/56/56 57/57/57
v 70.4897 -0.029505 -6.69511
v 98.7525 -0.029505 -10.0481
v 70.9323 -0.029505 -7.43101
vn -0 1 -0
vn -0 1 -0
vn -0 1 -0
vt -7.17677 -0.077996
vt 0.995093 0.891489
vt -7.04878 0.134779
f 58/58/58 59/59/59 60/60/60
v -17.3412 -0.029505 -6.00827
v -16.9897 -0.029505 -6.00736
v -17.3454 -0.029505 -6.19596
vn 0 1 -0
vn 0 1 -0
vn 0 1 -0
vt -3.65078 0.12922
vt -3.5289 0.128905
vt -3.65224 0.194308
f 61/61/61 62/62/62 63/63/63
v -18.2065 -0.029505 -7.49695
v -18.2375 -0.029505 -7.86192
v -40.7721 -0.029505 -10.3049
vn 0 1 0
vn 0 1 0
vn 0 1 0
vt -3.95087 0.645461
vt -3.96159 0.772024
vt -11.7761 1.6192
f 64/64/64 65/65/65 66/66/66
v -59.0577 -0.029505 -5.63503
v -58.8965 -0.029505 -5.54773
v -58.2691 -0.029505 -5.87011
vn 0 1 0
vn 0 1 0
vn 0 1 0
vt -17.8003 -0.008827
vt -17.7458 -0.038323
vt -17.5339 0.070602
f 67/67/67 68/68/68 69/69/69
v -4.2435 -0.034505 -5.94551
v -4.62921 -0.034505 -5.85721
v 48.4733 -0.034505 -6.30037
vn 0 1 0
vn 0 1 0
vn 0 1 0
vt 0.699425 0.122772
vt 0.568829 0.092878
vt 18.5485 0.242924
f 70/70/70 71/71/71 72/72/72
v -56.7158 -0.029505 -7.12436
v -57.3606 -0.029505 -6.50164
v -45.0004 -0.029505 -10.3223
vn 0 1 0
vn 0 1 0
vn 0 1 0
vt -17.3051 0.516258
vt -17.5287 0.300308
vt -13.2424 1.62523
f 73/73/73 74/74/74 75/75/75
v -50.7456 -0.029505 -10.3547
v -55.9825 -0.029505 -8.05276
v -56.7158 -0.029505 -7.12436
vn 0 1 0
vn 0 1 0
vn 0 1 0
vt -15.2347 1.63647
vt -17.0508 0.838204
vt -17.3051 0.516258
f 76/76/76 77/77/77 78/78/78
v -50.7456 -0.029505 -10.3547
v -55.8209 -0.029505 -8.5361
v -55.9825 -0.029505 -8.05276
vn 0 1 0
vn 0 1 0
vn 0 1 0
vt -15.2347 1.63647
vt -16.9947 1.00582
vt -17.0508 0.838204
f 79/79/79 80/80/80 81/81/81
v 25.0142 -0.034505 -10.4241
v -3.3944 -0.034505 -10.1941
v -3.37638 -0.034505 -6.86513
vn 0 1 0
vn 0 1 0
vn 0 1 0
vt 10.6056 1.63915
vt 0.986916 1.56126
vt 0.993016 0.43414
f 82/82/82 83/83/83 84/84/84
v 47.4831 -0.034505 -7.38995
v 47.3435 -0.034505 -7.69313
v 25.0142 -0.034505 -10.4241
vn 0 1 0
vn 0 1 0
vn 0 1 0
vt 18.2132 0.611836
vt 18.1659 0.714488
vt 10.6056 1.63915
f 85/85/85 86/86/86 87/87/87
v -40.7721 -0.029505 -10.3049
v -45.0004 -0.029505 -10.3223
v -58.2691 -0.029505 -5.87011
vn -0 1 0
vn -0 1 0
vn -0 1 0
vt -11.7761 1.6192
vt -13.2424 1.62523
vt -17.8437 0.08131
f 88/88/88 89/89/89 90/90/90
v 25.0142 -0.034505 -10.4241
v -3.48604 -0.034505 -6.62045
v -3.68143 -0.034505 -6.34069
vn 0 1 0
vn 0 1 0
vn 0 1 0
vt 10.6056 1.63915
vt 0.955887 0.351298
vt 0.889732 0.256577
f 91/91/91 92/92/92 93/93/93
v 99.0956 -0.029505 -7.36812
v 98.7525 -0.029505 -7.44003
v 98.7525 -0.029505 -7.27495
vn -0 1 0
vn -0 1 0
vn -0 1 0
vt 1.09428 0.116598
vt 0.995086 0.13739
vt 0.995086 0.089658
f 94/94/94 95/95/95 96/96/96
v 99.2255 -0.029505 -7.17092
v 99.0956 -0.029505 -7.36812
v 98.7525 -0.029505 -7.27495
vn -0 1 0
vn -0 1 0
vn -0 1 0
vt 1.13185 0.059577
vt 1.09428 0.116598
vt 0.995086 0.089658
f 97/97/97 98/98/98 99/99/99
v 47.2215 -0.034505 -8.10505
v 47.1615 -0.034505 -8.59604
v 25.0142 -0.034505 -10.4241
vn 0 1 0
vn 0 1 0
vn 0 1 0
vt 18.1246 0.85396
vt 18.1043 1.0202
vt 10.6056 1.63915
f 100/100/100 101/101/101 102/102/102
v -18.2375 -0.029505 -7.86192
v -18.2244 -0.029505 -10.2453
v -40.7721 -0.029505 -10.3049
vn 0 1 -0
vn 0 1 -0
vn 0 1 -0
vt -3.96159 0.772024
vt -3.95707 1.59854
vt -11.7761 1.6192
f 103/103/103 104/104/104 105/105/105
v 99.0458 -0.029505 -7.47665
v 98.7525 -0.029505 -7.53635
v 98.7525 -0.029505 -7.44003
vn -0 1 0
vn -0 1 0
vn -0 1 0
vt 1.07988 0.147975
vt 0.995086 0.165238
vt 0.995086 0.13739
f 106/106/106 107/107/107 108/108/108
v 99.0956 -0.029505 -7.36812
v 99.0458 -0.029505 -7.47665
v 98.7525 -0.029505 -7.44003
vn -0 1 0
vn -0 1 0
vn -0 1 0
vt 1.09428 0.116598
vt 1.07988 0.147975
vt 0.995086 0.13739
f 109/109/109 110/110/110 111/111/111
v 25.0142 -0.034505 -10.4241
v -3.68143 -0.034505 -6.34069
v -4.2435 -0.034505 -5.94551
vn 0 1 0
vn 0 1 0
vn 0 1 0
vt 10.6056 1.63915
vt 0.889732 0.256577
vt 0.699425 0.122772
f 112/112/112 113/113/113 114/114/114
v 99.2255 -0.029505 -7.17092
v 98.7525 -0.029505 -7.27495
v 98.7525 -0.029505 -7.11083
vn -0 1 0
vn -0 1 0
vn -0 1 0
vt 1.13185 0.059577
vt 0.995086 0.089658
vt 0.995086 0.042204
f 115/115/115 116/116/116 117/117/117
v 99.4084 -0.029505 -6.95982
v 99.2255 -0.029505 -7.17092
v 98.7525 -0.029505 -7.11083
vn -0 1 0
vn -0 1 0
vn -0 1 0
vt 1.18474 -0.001458
vt 1.13185 0.059577
vt 0.995086 0.042204
f 118/118/118 119/119/119 120/120/120
v 47.3435 -0.034505 -7.69313
v 47.2493 -0.034505 -7.96169
v 25.0142 -0.034505 -10.4241
vn 0 1 0
vn 0 1 0
vn 0 1 0
vt 18.1659 0.714488
vt 18.1341 0.805418
vt 10.6056 1.63915
f 121/121/121 122/122/122 123/123/123
v 98.7525 -0.029505 -6.7193
v 98.7525 -0.029505 -6.73408
v 70.1974 -0.029505 -6.40908
vn -0 1 0
vn -0 1 0
vn -0 1 0
vt 0.995093 -0.071002
vt 0.995093 -0.066728
vt -7.26128 -0.160698
f 124/124/124 125/125/125 126/126/126
v 70.0975 -0.029505 -6.37613
v 98.7525 -0.029505 -6.7193
v 70.1974 -0.029505 -6.40908
vn -0 1 -0
vn -0 1 -0
vn -0 1 -0
vt -7.29015 -0.170225
vt 0.995093 -0.071002
vt -7.26128 -0.160698
f 127/127/127 128/128/128 129/129/129
v 98.7525 -0.029505 -9.99331
v 70.1974 -0.029505 -6.40908
v 98.7525 -0.029505 -6.73408
vn 0 1 0
vn 0 1 0
vn 0 1 0
vt 0.995093 0.87564
vt -7.26128 -0.160698
vt 0.995093 -0.066728
f 130/130/130 131/131/131 132/132/132
v 98.7525 -0.029505 -6.7743
v 99.697 -0.029505 -6.78511
v 98.7525 -0.029505 -7.00861
vn 0 1 -0
vn 0 1 -0
vn 0 1 -0
vt 0.995086 -0.0551
vt 1.26818 -0.051973
vt 0.995086 0.01265
f 133/133/133 134/134/134 135/135/135
v 47.9497 -0.034505 -6.61897
v 47.8103 -0.034505 -6.81817
v 25.0142 -0.034505 -10.4241
vn 0 1 0
vn 0 1 0
vn 0 1 0
vt 18.3712 0.350795
vt 18.324 0.418244
vt 10.6056 1.63915
f 136/136/136 137/137/137 138/138/138
v 47.2493 -0.034505 -7.96169
v 47.2215 -0.034505 -8.10505
v 25.0142 -0.034505 -10.4241
vn 0 1 0
vn 0 1 0
vn 0 1 0
vt 18.1341 0.805418
vt 18.1246 0.85396
vt 10.6056 1.63915
f 139/139/139 140/140/140 141/141/141
v 98.7525 -0.029505 -6.7193
v 70.0975 -0.029505 -6.37613
v 98.7525 -0.029505 -6.59376
vn 0 1 0
vn 0 1 0
vn 0 1 0
vt 0.995093 -0.071002
vt -7.29015 -0.170225
vt 0.995093 -0.1073
f 142/142/142 143/143/143 144/144/144
v 98.7525 -0.029505 -6.57973
v 98.7525 -0.029505 -6.5352
v 100.598 -0.029505 -6.556
vn 0 1 0
vn 0 1 0
vn 0 1 0
vt 0.995086 -0.111358
vt 0.995086 -0.124232
vt 1.52876 -0.118219
f 145/145/145 146/146/146 147/147/147
v 99.697 -0.029505 -6.78511
v 98.7525 -0.029505 -6.7743
v 98.7525 -0.029505 -6.57973
vn 0 1 0
vn 0 1 0
vn 0 1 0
vt 1.26818 -0.051973
vt 0.995086 -0.0551
vt 0.995086 -0.111358
f 148/148/148 149/149/149 150/150/150
v 100.598 -0.029505 -6.556
v 99.697 -0.029505 -6.78511
v 98.7525 -0.029505 -6.57973
vn -0 1 0
vn -0 1 0
vn -0 1 0
vt 1.52876 -0.118219
vt 1.26818 -0.051973
vt 0.995086 -0.111358
f 151/151/151 152/152/152 153/153/153
v 25.0142 -0.034505 -10.4241
v -3.37638 -0.034505 -6.86513
v -3.48604 -0.034505 -6.62045
vn 0 1 0
vn 0 1 0
vn 0 1 0
vt 10.6056 1.63915
vt 0.993016 0.43414
vt 0.955887 0.351298
f 154/154/154 155/155/155 156/156/156
v 48.2966 -0.034505 -6.35645
v 48.0441 -0.034505 -6.5208
v 25.0142 -0.034505 -10.4241
vn 0 1 0
vn 0 1 0
vn 0 1 0
vt 18.4887 0.261909
vt 18.4032 0.317556
vt 10.6056 1.63915
f 157/157/157 158/158/158 159/159/159
v 98.7525 -0.029505 -10.2433
v 98.7525 -0.029505 -10.3561
v 71.1928 -0.029505 -8.15223
vn -0 1 0
vn -0 1 0
vn -0 1 0
vt 0.995093 0.947913
vt 0.995093 0.980524
vt -6.97348 0.343313
f 160/160/160 161/161/161 162/162/162
v 71.0193 -0.029505 -7.63275
v 98.7525 -0.029505 -10.2433
v 71.1928 -0.029505 -8.15223
vn -0 1 -0
vn -0 1 -0
vn -0 1 -0
vt -7.02364 0.19311
vt 0.995093 0.947913
vt -6.97348 0.343313
f 163/163/163 164/164/164 165/165/165
v -50.7456 -0.029505 -10.3547
v -55.847 -0.029505 -10.4137
v -55.8209 -0.029505 -8.5361
vn -0 1 0
vn -0 1 0
vn -0 1 0
vt -15.2347 1.63647
vt -17.0038 1.65693
vt -16.9947 1.00582
f 166/166/166 167/167/167 168/168/168
v 47.1615 -0.034505 -8.59604
v 47.1585 -0.034505 -10.6714
v 25.0142 -0.034505 -10.4241
vn -0 1 0
vn -0 1 0
vn -0 1 0
vt 18.1043 1.0202
vt 18.1033 1.72289
vt 10.6056 1.63915
f 169/169/169 170/170/170 171/171/171
v 99.0077 -0.029505 -7.64435
v 98.7525 -0.029505 -7.6938
v 98.7525 -0.029505 -7.53635
vn -0 1 0
vn -0 1 0
vn -0 1 0
vt 1.06888 0.196466
vt 0.995086 0.210762
vt 0.995086 0.165238
f 172/172/172 173/173/173 174/174/174
v 99.0458 -0.029505 -7.47665
v 99.0077 -0.029505 -7.64435
v 98.7525 -0.029505 -7.53635
vn -0 1 0
vn -0 1 0
vn -0 1 0
vt 1.07988 0.147975
vt 1.06888 0.196466
vt 0.995086 0.165238
f 175/175/175 176/176/176 177/177/177
v 98.7525 -0.029505 -10.015
v 98.7525 -0.029505 -10.0481
v 70.4897 -0.029505 -6.69511
vn -0 1 0
vn -0 1 0
vn -0 1 0
vt 0.995093 0.881905
vt 0.995093 0.891489
vt -7.17677 -0.077996
f 178/178/178 179/179/179 180/180/180
v 70.3608 -0.029505 -6.5285
v 98.7525 -0.029505 -10.015
v 70.4897 -0.029505 -6.69511
vn -0 1 -0
vn -0 1 -0
vn -0 1 -0
vt -7.21405 -0.126169
vt 0.995093 0.881905
vt -7.17677 -0.077996
f 181/181/181 182/182/182 183/183/183
v 98.9744 -0.029505 -8.1405
v 98.9223 -0.029505 -10.9443
v 98.7525 -0.029505 -10.9426
vn -0 1 0
vn -0 1 0
vn -0 1 0
vt 1.05924 0.33992
vt 1.04418 1.1506
vt 0.995086 1.15012
f 184/184/184 185/185/185 186/186/186
v 98.7525 -0.029505 -10.9014
v 98.9744 -0.029505 -8.1405
v 98.7525 -0.029505 -10.9426
vn 0 1 -0
vn 0 1 -0
vn 0 1 -0
vt 0.995093 1.1382
vt 1.05924 0.33992
vt 0.995086 1.15012
f 187/187/187 188/188/188 189/189/189
v 98.7525 -0.029505 -10.9014
v 98.7525 -0.029505 -8.17677
v 98.9744 -0.029505 -8.1405
vn 0 1 0
vn 0 1 0
vn 0 1 0
vt 0.995093 1.1382
vt 0.995086 0.350407
vt 1.05924 0.33992
f 190/190/190 191/191/191 192/192/192
v -18.1438 -0.029505 -7.24677
v -18.2065 -0.029505 -7.49695
v -40.7721 -0.029505 -10.3049
vn 0 1 0
vn 0 1 0
vn 0 1 0
vt -3.92911 0.558704
vt -3.95087 0.645461
vt -11.7761 1.6192
f 193/193/193 194/194/194 195/195/195
v -58.8965 -0.029505 -5.54773
v -17.6048 -0.029505 -6.009
v -40.7721 -0.029505 -10.3049
vn 0 1 -0
vn 0 1 -0
vn 0 1 -0
vt -18.0613 -0.030485
vt -3.74222 0.129472
vt -11.7761 1.6192
f 196/196/196 197/197/197 198/198/198
v -17.3412 -0.029505 -6.00827
v -17.3454 -0.029505 -6.19596
v -17.6048 -0.029505 -6.009
vn -0 1 0
vn -0 1 0
vn -0 1 0
vt -3.65078 0.12922
vt -3.65224 0.194308
vt -3.74222 0.129472
f 199/199/199 200/200/200 201/201/201
v 48.2966 -0.034505 -6.35645
v -4.2435 -0.034505 -5.94551
v 48.4733 -0.034505 -6.30037
vn 0 1 0
vn 0 1 0
vn 0 1 0
vt 18.4887 0.261909
vt 0.699425 0.122772
vt 18.5485 0.242924
f 202/202/202 203/203/203 204/204/204
v -50.7456 -0.029505 -10.3547
v -56.7158 -0.029505 -7.12436
v -45.0004 -0.029505 -10.3223
vn 0 1 0
vn 0 1 0
vn 0 1 0
vt -15.2347 1.63647
vt -17.3051 0.516258
vt -13.2424 1.62523
f 205/205/205 206/206/206 207/207/207
v -58.8965 -0.029505 -5.54773
v -40.7721 -0.029505 -10.3049
v -58.2691 -0.029505 -5.87011
vn -0 1 -0
vn -0 1 -0
vn -0 1 -0
vt -18.0613 -0.030485
vt -11.7761 1.6192
vt -17.8437 0.08131
f 208/208/208 209/209/209 210/210/210
v 48.2966 -0.034505 -6.35645
v 25.0142 -0.034505 -10.4241
v -4.2435 -0.034505 -5.94551
vn -0 1 0
vn -0 1 0
vn -0 1 0
vt 18.4887 0.261909
vt 10.6056 1.63915
vt 0.699425 0.122772
f 211/211/211 212/212/212 213/213/213
v 98.7525 -0.029505 -9.99331
v 98.7525 -0.029505 -10.015
v 70.3608 -0.029505 -6.5285
vn -0 1 0
vn -0 1 0
vn -0 1 0
vt 0.995093 0.87564
vt 0.995093 0.881905
vt -7.21405 -0.126169
f 214/214/214 215/215/215 216/216/216
v 70.1974 -0.029505 -6.40908
v 98.7525 -0.029505 -9.99331
v 70.3608 -0.029505 -6.5285
vn -0 1 -0
vn -0 1 -0
vn -0 1 -0
vt -7.26128 -0.160698
vt 0.995093 0.87564
vt -7.21405 -0.126169
f 217/217/217 218/218/218 219/219/219
v 98.7525 -0.029505 -6.55089
v 98.7525 -0.029505 -6.59376
v 70.0975 -0.029505 -6.37613
vn -0 1 0
vn -0 1 0
vn -0 1 0
vt 0.995093 -0.119695
vt 0.995093 -0.1073
vt -7.29015 -0.170225
f 220/220/220 221/221/221 222/222/222
v 69.0361 -0.029505 -6.1681
v 98.7525 -0.029505 -6.55089
v 70.0975 -0.029505 -6.37613
vn -0 1 -0
vn -0 1 -0
vn -0 1 -0
vt -7.59707 -0.230376
vt 0.995093 -0.119695
vt -7.29015 -0.170225
f 223/223/223 224/224/224 225/225/225
v 69.0361 -0.029505 -6.1681
v 98.7569 -0.029505 -6.50089
v 98.7525 -0.029505 -6.55089
vn 0 1 -0
vn 0 1 -0
vn 0 1 -0
vt -7.59707 -0.230376
vt 0.996361 -0.134153
vt 0.995093 -0.119695
f 226/226/226 227/227/227 228/228/228
