o data/uid/01015014/s/000011.obj
//1
usemtl mat0
v 123.85 -0.039379 3.64885
v 123.561 -0.039379 3.33885
v 123.55 -0.039379 3.63867
vn -0 1 0
vn -0 1 0
vn -0 1 0
vt 0.252053 0.229787
vt 0.202359 0.279454
vt 0.202255 0.229647
f 1/1/1 2/2/2 3/3/3
v 124.25 -0.039379 3.66241
v 123.574 -0.039379 2.93908
v 123.561 -0.039379 3.33885
vn -0 1 0
vn -0 1 0
vn -0 1 0
vt 0.318452 0.229974
vt 0.202499 0.345864
vt 0.202359 0.279454
f 4/4/4 5/5/5 6/6/6
v 123.588 -0.039379 2.53931
v 123.574 -0.039379 2.93908
v 124.25 -0.039379 3.66241
vn 0 1 0
vn 0 1 0
vn 0 1 0
vt 0.202638 0.412274
vt 0.202499 0.345864
vt 0.318452 0.229974
f 7/7/7 8/8/8 9/9/9
v 125.05 -0.039379 3.68953
v 123.601 -0.039379 2.13859
v 123.588 -0.039379 2.53931
vn -0 1 0
vn -0 1 0
vn -0 1 0
vt 0.451249 0.230348
vt 0.202778 0.478841
vt 0.202638 0.412274
f 10/10/10 11/11/11 12/12/12
v 125.449 -0.039379 3.70309
v 123.607 -0.039379 1.73064
v 123.601 -0.039379 2.13859
vn -0 1 0
vn -0 1 0
vn -0 1 0
vt 0.517647 0.230535
vt 0.201631 0.546562
vt 0.202778 0.478841
f 13/13/13 14/14/14 15/15/15
v 125.177 -0.039379 -0.065672
v 123.556 -0.039379 1.31531
v 123.607 -0.039379 1.73064
vn 0 1 0
vn 0 1 0
vn 0 1 0
vt 0.452559 0.85416
vt 0.19083 0.615153
vt 0.201631 0.546562
f 16/16/16 17/17/17 18/18/18
v 125.581 -0.039379 -0.05198
v 123.607 -0.039379 1.73064
v 125.449 -0.039379 3.70309
vn 0 1 0
vn 0 1 0
vn 0 1 0
vt 0.519592 0.854348
vt 0.201631 0.546562
vt 0.517647 0.230535
f 19/19/19 20/20/20 21/21/21
v 124.376 -0.039379 -0.092829
v 123.446 -0.039379 0.895353
v 123.556 -0.039379 1.31531
vn 0 1 0
vn 0 1 0
vn 0 1 0
vt 0.319597 0.853786
vt 0.170474 0.684163
vt 0.19083 0.615153
f 22/22/22 23/23/23 24/24/24
v 125.177 -0.039379 -0.065672
v 124.777 -0.039379 -0.079234
v 123.556 -0.039379 1.31531
vn -0 1 0
vn -0 1 0
vn -0 1 0
vt 0.452559 0.85416
vt 0.38616 0.853973
vt 0.19083 0.615153
f 25/25/25 26/26/26 27/27/27
v 123.237 -0.039379 0.471282
v 123.446 -0.039379 0.895353
v 124.376 -0.039379 -0.092829
vn 0 1 0
vn 0 1 0
vn 0 1 0
vt 0.133603 0.75325
vt 0.170474 0.684163
vt 0.319597 0.853786
f 28/28/28 29/29/29 30/30/30
v 123.066 -0.039379 -0.163398
v 122.927 -0.039379 0.048002
v 123.237 -0.039379 0.471282
vn 0 1 0
vn 0 1 0
vn 0 1 0
vt 0.101785 0.857505
vt 0.079793 0.821582
vt 0.133603 0.75325
f 31/31/31 32/32/32 33/33/33
v 123.066 -0.039379 -0.163398
v 122.698 -0.039379 -0.185619
v 122.927 -0.039379 0.048002
vn -0 1 0
vn -0 1 0
vn -0 1 0
vt 0.101785 0.857505
vt 0.040601 0.858948
vt 0.079793 0.821582
f 34/34/34 35/35/35 36/36/36
v 125.98 -0.039379 -0.068983
v 125.581 -0.039379 -0.05198
v 127.421 -0.039379 1.86
vn 0 1 0
vn 0 1 0
vn 0 1 0
vt 0.585844 0.859607
vt 0.519592 0.854348
vt 0.834995 0.548343
f 37/37/37 38/38/38 39/39/39
v 127.501 -0.039379 1.44915
v 126.376 -0.039379 -0.048066
v 125.98 -0.039379 -0.068983
vn 0 1 0
vn 0 1 0
vn 0 1 0
vt 0.846084 0.616997
vt 0.651618 0.858549
vt 0.585844 0.859607
f 40/40/40 41/41/41 42/42/42
v 126.778 -0.039379 -0.035081
v 126.376 -0.039379 -0.048066
v 127.501 -0.039379 1.44915
vn -0 1 0
vn -0 1 0
vn -0 1 0
vt 0.718294 0.858842
vt 0.651618 0.858549
vt 0.846084 0.616997
f 43/43/43 44/44/44 45/45/45
v 127.875 -0.039379 0.628615
v 128.088 -0.039379 -0.009564
v 126.778 -0.039379 -0.035081
vn 0 1 -0
vn 0 1 -0
vn 0 1 -0
vt 0.903892 0.755416
vt 0.935889 0.862598
vt 0.718294 0.858842
f 46/46/46 47/47/47 48/48/48
v 128.214 -0.039379 0.227375
v 128.465 -0.039379 0.003229
v 128.088 -0.039379 -0.009564
vn 0 1 -0
vn 0 1 -0
vn 0 1 -0
vt 0.957989 0.824052
vt 0.998526 0.862774
vt 0.935889 0.862598
f 49/49/49 50/50/50 51/51/51
v 127.875 -0.039379 0.628615
v 128.214 -0.039379 0.227375
v 128.088 -0.039379 -0.009564
vn 0 1 -0
vn 0 1 -0
vn 0 1 -0
vt 0.903892 0.755416
vt 0.957989 0.824052
vt 0.935889 0.862598
f 52/52/52 53/53/53 54/54/54
v 127.399 -0.039379 2.26743
v 127.421 -0.039379 1.86
v 125.449 -0.039379 3.70309
vn -0 1 -0
vn -0 1 -0
vn -0 1 -0
vt 0.833563 0.480615
vt 0.834995 0.548343
vt 0.517647 0.230535
f 55/55/55 56/56/56 57/57/57
v 127.386 -0.039379 2.66815
v 127.399 -0.039379 2.26743
v 125.849 -0.039379 3.71666
vn -0 1 -0
vn -0 1 -0
vn -0 1 -0
vt 0.833423 0.414048
vt 0.833563 0.480615
vt 0.584046 0.230721
f 58/58/58 59/59/59 60/60/60
v 126.649 -0.039379 3.74378
v 127.372 -0.039379 3.06792
v 127.386 -0.039379 2.66815
vn 0 1 0
vn 0 1 0
vn 0 1 0
vt 0.716843 0.231095
vt 0.833284 0.347638
vt 0.833423 0.414048
f 61/61/61 62/62/62 63/63/63
v 127.358 -0.039379 3.46769
v 127.372 -0.039379 3.06792
v 126.649 -0.039379 3.74378
vn -0 1 -0
vn -0 1 -0
vn -0 1 -0
vt 0.833145 0.281229
vt 0.833284 0.347638
vt 0.716843 0.231095
f 64/64/64 65/65/65 66/66/66
v 127.048 -0.039379 3.75734
v 127.348 -0.039379 3.76751
v 127.358 -0.039379 3.46769
vn 0 1 0
vn 0 1 0
vn 0 1 0
vt 0.783241 0.231282
vt 0.83304 0.231422
vt 0.833145 0.281229
f 67/67/67 68/68/68 69/69/69
v 123.85 -0.039379 3.64885
v 124.25 -0.039379 3.66241
v 123.561 -0.039379 3.33885
vn 0 1 -0
vn 0 1 -0
vn 0 1 -0
vt 0.252053 0.229787
vt 0.318452 0.229974
vt 0.202359 0.279454
f 70/70/70 71/71/71 72/72/72
v 124.65 -0.039379 3.67597
v 123.588 -0.039379 2.53931
v 124.25 -0.039379 3.66241
vn -0 1 0
vn -0 1 0
vn -0 1 0
vt 0.38485 0.230161
vt 0.202638 0.412274
vt 0.318452 0.229974
f 73/73/73 74/74/74 75/75/75
v 124.65 -0.039379 3.67597
v 125.05 -0.039379 3.68953
v 123.588 -0.039379 2.53931
vn 0 1 -0
vn 0 1 -0
vn 0 1 -0
vt 0.38485 0.230161
vt 0.451249 0.230348
vt 0.202638 0.412274
f 76/76/76 77/77/77 78/78/78
v 125.05 -0.039379 3.68953
v 125.449 -0.039379 3.70309
v 123.601 -0.039379 2.13859
vn 0 1 -0
vn 0 1 -0
vn 0 1 -0
vt 0.451249 0.230348
vt 0.517647 0.230535
vt 0.202778 0.478841
f 79/79/79 80/80/80 81/81/81
v 125.581 -0.039379 -0.05198
v 125.177 -0.039379 -0.065672
v 123.607 -0.039379 1.73064
vn -0 1 0
vn -0 1 0
vn -0 1 0
vt 0.519592 0.854348
vt 0.452559 0.85416
vt 0.201631 0.546562
f 82/82/82 83/83/83 84/84/84
v 127.421 -0.039379 1.86
v 125.581 -0.039379 -0.05198
v 125.449 -0.039379 3.70309
vn -0 1 0
vn -0 1 0
vn -0 1 0
vt 0.834995 0.548343
vt 0.519592 0.854348
vt 0.517647 0.230535
f 85/85/85 86/86/86 87/87/87
v 124.777 -0.039379 -0.079234
v 124.376 -0.039379 -0.092829
v 123.556 -0.039379 1.31531
vn -0 1 0
vn -0 1 0
vn -0 1 0
vt 0.38616 0.853973
vt 0.319597 0.853786
vt 0.19083 0.615153
f 88/88/88 89/89/89 90/90/90
v 123.066 -0.039379 -0.163398
v 123.237 -0.039379 0.471282
v 124.376 -0.039379 -0.092829
vn 0 1 0
vn 0 1 0
vn 0 1 0
vt 0.101785 0.857505
vt 0.133603 0.75325
vt 0.319597 0.853786
f 91/91/91 92/92/92 93/93/93
v 127.501 -0.039379 1.44915
v 125.98 -0.039379 -0.068983
v 127.421 -0.039379 1.86
vn -0 1 0
vn -0 1 0
vn -0 1 0
vt 0.846084 0.616997
vt 0.585844 0.859607
vt 0.834995 0.548343
f 94/94/94 95/95/95 96/96/96
v 127.638 -0.039379 1.03756
v 126.778 -0.039379 -0.035081
v 127.501 -0.039379 1.44915
vn -0 1 0
vn -0 1 0
vn -0 1 0
vt 0.866729 0.686122
vt 0.718294 0.858842
vt 0.846084 0.616997
f 97/97/97 98/98/98 99/99/99
v 127.638 -0.039379 1.03756
v 127.875 -0.039379 0.628615
v 126.778 -0.039379 -0.035081
vn 0 1 -0
vn 0 1 -0
vn 0 1 -0
vt 0.866729 0.686122
vt 0.903892 0.755416
vt 0.718294 0.858842
f 100/100/100 101/101/101 102/102/102
v 125.849 -0.039379 3.71666
v 127.399 -0.039379 2.26743
v 125.449 -0.039379 3.70309
vn -0 1 -0
vn -0 1 -0
vn -0 1 -0
vt 0.584046 0.230721
vt 0.833563 0.480615
vt 0.517647 0.230535
f 103/103/103 104/104/104 105/105/105
v 126.249 -0.039379 3.73022
v 127.386 -0.039379 2.66815
v 125.849 -0.039379 3.71666
vn -0 1 -0
vn -0 1 -0
vn -0 1 -0
vt 0.650444 0.230908
vt 0.833423 0.414048
vt 0.584046 0.230721
f 106/106/106 107/107/107 108/108/108
v 126.249 -0.039379 3.73022
v 126.649 -0.039379 3.74378
v 127.386 -0.039379 2.66815
vn 0 1 0
vn 0 1 0
vn 0 1 0
vt 0.650444 0.230908
vt 0.716843 0.231095
vt 0.833423 0.414048
f 109/109/109 110/110/110 111/111/111
v 127.048 -0.039379 3.75734
v 127.358 -0.039379 3.46769
v 126.649 -0.039379 3.74378
vn -0 1 -0
vn -0 1 -0
vn -0 1 -0
vt 0.783241 0.231282
vt 0.833145 0.281229
vt 0.716843 0.231095
f 112/112/112 113/113/113 114/114/114
v 15.4723 2e-006 -0.054438
v -2.17269 2e-006 0.07632
v 0.128126 2e-006 3.35936
vn 0 1 0
vn 0 1 0
vn 0 1 0
vt 2.88485 1.02014
vt 0.033548 0.999013
vt 0.405344 0.468497
f 115/115/115 116/116/116 117/117/117
v 13.228 2e-006 3.26229
v 15.4723 2e-006 -0.054438
v 0.128126 2e-006 3.35936
vn -0 1 -0
vn -0 1 -0
vn -0 1 -0
vt 2.52219 0.484184
vt 2.88485 1.02014
vt 0.405344 0.468497
f 118/118/118 119/119/119 120/120/120
v -11.6719 -0.033861 0.140217
v -29.3171 -0.03386 0.240179
v -27.022 -0.03386 3.52723
vn 5.63577e-008 1 -3.93501e-008
vn 5.63577e-008 1 -3.93501e-008
vn 5.63577e-008 1 -3.93501e-008
vt 3.01741 0.967897
vt 0.039494 0.951027
vt 0.426827 0.396282
f 121/121/121 122/122/122 123/123/123
v -13.922 -0.033861 3.45302
v -11.6719 -0.033861 0.140217
v -27.022 -0.03386 3.52723
vn 7.6506e-008 1 5.19633e-008
vn 7.6506e-008 1 5.19633e-008
vn 7.6506e-008 1 5.19633e-008
vt 2.63768 0.408807
vt 3.01741 0.967897
vt 0.426827 0.396282
f 124/124/124 125/125/125 126/126/126
v -35.8356 -0.03386 0.266113
v -53.481 -0.03386 0.30448
v -51.1974 -0.03386 3.59953
vn 0 1 0
vn 0 1 0
vn 0 1 0
vt 2.94567 0.971466
vt 0.031037 0.965129
vt 0.408236 0.420861
f 127/127/127 128/128/128 129/129/129
v -38.0972 -0.03386 3.57104
v -35.8356 -0.03386 0.266113
v -51.1974 -0.03386 3.59953
vn -0 1 -0
vn -0 1 -0
vn -0 1 -0
vt 2.5721 0.425566
vt 2.94567 0.971466
vt 0.408236 0.420861
f 130/130/130 131/131/131 132/132/132
v 47.4465 1e-006 0.15049
v 47.4975 1e-006 -0.094264
v 45.5778 1e-006 -0.07319
vn -0 1 -0
vn -0 1 -0
vn -0 1 -0
vt 1.83821 0.849232
vt 1.84394 0.880789
vt 1.598 0.870859
f 133/133/133 134/134/134 135/135/135
v 47.3752 1e-006 0.493146
v 47.4465 1e-006 0.15049
v 45.5778 1e-006 -0.07319
vn 0 1 -0
vn 0 1 -0
vn 0 1 -0
vt 1.83018 0.805053
vt 1.83821 0.849232
vt 1.598 0.870859
f 136/136/136 137/137/137 138/138/138
v 47.3039 1e-006 0.835801
v 47.3752 1e-006 0.493146
v 45.5778 1e-006 -0.07319
vn 0 1 -0
vn 0 1 -0
vn 0 1 -0
vt 1.82216 0.760874
vt 1.83018 0.805053
vt 1.598 0.870859
f 139/139/139 140/140/140 141/141/141
v 47.2326 1e-006 1.17846
v 47.3039 1e-006 0.835801
v 45.5778 1e-006 -0.07319
vn 0 1 -0
vn 0 1 -0
vn 0 1 -0
vt 1.81414 0.716695
vt 1.82216 0.760874
vt 1.598 0.870859
f 142/142/142 143/143/143 144/144/144
v 47.0899 1e-006 1.86377
v 47.1612 1e-006 1.52111
v 45.5778 1e-006 -0.07319
vn 0 1 -0
vn 0 1 -0
vn 0 1 -0
vt 1.79809 0.628337
vt 1.80612 0.672516
vt 1.598 0.870859
f 145/145/145 146/146/146 147/147/147
v 45.5836 1e-006 3.2268
v 47.0186 1e-006 2.20642
v 47.0899 1e-006 1.86377
vn 0 1 0
vn 0 1 0
vn 0 1 0
vt 1.60951 0.447995
vt 1.79007 0.584158
vt 1.79809 0.628337
f 148/148/148 149/149/149 150/150/150
v 35.5836 1e-006 3.24426
v 35.5778 1e-006 -0.055737
v 33.5778 1e-006 -0.052246
vn -0 1 0
vn -0 1 0
vn -0 1 0
vt 0.328093 0.408098
vt 0.316591 0.830962
vt 0.060308 0.822982
f 151/151/151 152/152/152 153/153/153
v 37.5778 1e-006 -0.059227
v 35.5778 1e-006 -0.055737
v 35.5836 1e-006 3.24426
vn 0 1 0
vn 0 1 0
vn 0 1 0
vt 0.572873 0.838941
vt 0.316591 0.830962
vt 0.328093 0.408098
f 154/154/154 155/155/155 156/156/156
v 47.1612 1e-006 1.52111
v 47.2326 1e-006 1.17846
v 45.5778 1e-006 -0.07319
vn 0 1 -0
vn 0 1 -0
vn 0 1 -0
vt 1.80612 0.672516
vt 1.81414 0.716695
vt 1.598 0.870859
f 157/157/157 158/158/158 159/159/159
v 39.5836 1e-006 3.23728
v 39.5778 1e-006 -0.062718
v 37.5778 1e-006 -0.059227
vn -0 1 0
vn -0 1 0
vn -0 1 0
vt 0.840658 0.424057
vt 0.829156 0.84692
vt 0.572873 0.838941
f 160/160/160 161/161/161 162/162/162
v 41.5778 1e-006 -0.066209
v 39.5778 1e-006 -0.062718
v 39.5836 1e-006 3.23728
vn 0 1 0
vn 0 1 0
vn 0 1 0
vt 1.08544 0.8549
vt 0.829156 0.84692
vt 0.840658 0.424057
f 163/163/163 164/164/164 165/165/165
v 43.5836 1e-006 3.2303
v 43.5778 1e-006 -0.069699
v 41.5778 1e-006 -0.066209
vn -0 1 0
vn -0 1 0
vn -0 1 0
vt 1.35322 0.440016
vt 1.34172 0.862879
vt 1.08544 0.8549
f 166/166/166 167/167/167 168/168/168
v 45.5778 1e-006 -0.07319
v 43.5778 1e-006 -0.069699
v 43.5836 1e-006 3.2303
vn 0 1 0
vn 0 1 0
vn 0 1 0
vt 1.598 0.870859
vt 1.34172 0.862879
vt 1.35322 0.440016
f 169/169/169 170/170/170 171/171/171
v 45.5836 1e-006 3.2268
v 46.8759 1e-006 2.89174
v 46.9473 1e-006 2.54908
vn 0 1 0
vn 0 1 0
vn 0 1 0
vt 1.60951 0.447995
vt 1.77403 0.4958
vt 1.78205 0.539979
f 172/172/172 173/173/173 174/174/174
v 45.5836 1e-006 3.2268
v 46.825 1e-006 3.13649
v 46.8759 1e-006 2.89174
vn 0 1 0
vn 0 1 0
vn 0 1 0
vt 1.60951 0.447995
vt 1.7683 0.464244
vt 1.77403 0.4958
f 175/175/175 176/176/176 177/177/177
v 45.5836 1e-006 3.2268
v 46.9473 1e-006 2.54908
v 47.0186 1e-006 2.20642
vn 0 1 0
vn 0 1 0
vn 0 1 0
vt 1.60951 0.447995
vt 1.78205 0.539979
vt 1.79007 0.584158
f 178/178/178 179/179/179 180/180/180
v 45.5836 1e-006 3.2268
v 47.0899 1e-006 1.86377
v 45.5778 1e-006 -0.07319
vn 0 1 -0
vn 0 1 -0
vn 0 1 -0
vt 1.60951 0.447995
vt 1.79809 0.628337
vt 1.598 0.870859
f 181/181/181 182/182/182 183/183/183
v 33.4905 1e-006 3.24791
v 35.5836 1e-006 3.24426
v 33.5778 1e-006 -0.052246
vn 0 1 -0
vn 0 1 -0
vn 0 1 -0
vt 0.059879 0.399747
vt 0.328093 0.408098
vt 0.060308 0.822982
f 184/184/184 185/185/185 186/186/186
v 37.5836 1e-006 3.24077
v 37.5778 1e-006 -0.059227
v 35.5836 1e-006 3.24426
vn -0 1 0
vn -0 1 0
vn -0 1 0
vt 0.584376 0.416077
vt 0.572873 0.838941
vt 0.328093 0.408098
f 187/187/187 188/188/188 189/189/189
v 37.5836 1e-006 3.24077
v 39.5836 1e-006 3.23728
v 37.5778 1e-006 -0.059227
vn 0 1 -0
vn 0 1 -0
vn 0 1 -0
vt 0.584376 0.416077
vt 0.840658 0.424057
vt 0.572873 0.838941
f 190/190/190 191/191/191 192/192/192
v 41.5836 1e-006 3.23379
v 41.5778 1e-006 -0.066209
v 39.5836 1e-006 3.23728
vn -0 1 0
vn -0 1 0
vn -0 1 0
vt 1.09694 0.432036
vt 1.08544 0.8549
vt 0.840658 0.424057
f 193/193/193 194/194/194 195/195/195
v 41.5836 1e-006 3.23379
v 43.5836 1e-006 3.2303
v 41.5778 1e-006 -0.066209
vn 0 1 -0
vn 0 1 -0
vn 0 1 -0
vt 1.09694 0.432036
vt 1.35322 0.440016
vt 1.08544 0.8549
f 196/196/196 197/197/197 198/198/198
v 45.5836 1e-006 3.2268
v 45.5778 1e-006 -0.07319
v 43.5836 1e-006 3.2303
vn -0 1 0
vn -0 1 0
vn -0 1 0
vt 1.60951 0.447995
vt 1.598 0.870859
vt 1.35322 0.440016
f 199/199/199 200/200/200 201/201/201
v 0 0 0
v 0 0 0
v 0 0 0
vn 0 0 0
vn 0 0 0
vn 0 0 0
vt 4.36774e-005 1.01398e-008
vt 4.22496e-005 2.08404e-019
vt 6.48975e-007 2.70009e-006
f 202/202/202 203/203/203 204/204/204
