o data/uid/01015014/s/000007.obj
//1
usemtl mat0
v 29.5778 1e-006 -0.045265
v 27.6819 1e-006 2.30805
v 27.6825 1e-006 2.65805
vn 0 1 0
vn 0 1 0
vn 0 1 0
vt -7.27956 -3.69615
vt -4.3416 -5.98789
vt -3.91012 -5.98036
f 1/1/1 2/2/2 3/3/3
v 31.5778 1e-006 -0.048756
v 29.5778 1e-006 -0.045265
v 27.6825 1e-006 2.65805
vn 0 1 0
vn 0 1 0
vn 0 1 0
vt -7.32259 -1.23055
vt -7.27956 -3.69615
vt -3.91012 -5.98036
f 4/4/4 5/5/5 6/6/6
v 29.5778 1e-006 -0.045265
v 27.6813 1e-006 1.95805
v 27.6819 1e-006 2.30805
vn 0 1 0
vn 0 1 0
vn 0 1 0
vt -7.27956 -3.69615
vt -4.77307 -5.99543
vt -4.3416 -5.98789
f 7/7/7 8/8/8 9/9/9
v 29.5778 1e-006 -0.045265
v 27.6807 1e-006 1.60805
v 27.6813 1e-006 1.95805
vn 0 1 0
vn 0 1 0
vn 0 1 0
vt -7.27956 -3.69615
vt -5.20455 -6.00296
vt -4.77307 -5.99543
f 10/10/10 11/11/11 12/12/12
v 29.5778 1e-006 -0.045265
v 27.6801 1e-006 1.25805
v 27.6807 1e-006 1.60805
vn 0 1 0
vn 0 1 0
vn 0 1 0
vt -7.27956 -3.69615
vt -5.63603 -6.01049
vt -5.20455 -6.00296
f 13/13/13 14/14/14 15/15/15
v 29.5778 1e-006 -0.045265
v 27.6778 1e-006 -0.041949
v 27.6783 1e-006 0.208051
vn 0 1 0
vn 0 1 0
vn 0 1 0
vt -7.27956 -3.69615
vt -7.23867 -6.03846
vt -6.93047 -6.03308
f 16/16/16 17/17/17 18/18/18
v 33.4905 1e-006 3.24791
v 27.6832 1e-006 3.00805
v 27.6838 1e-006 3.35482
vn -0 1 0
vn -0 1 0
vn -0 1 0
vt -3.29539 1.19127
vt -3.47864 -5.97283
vt -3.05113 -5.96537
f 19/19/19 20/20/20 21/21/21
v 31.5897 1e-006 6.75123
v 33.4905 1e-006 3.24791
v 27.6838 1e-006 3.35482
vn -0 1 -0
vn -0 1 -0
vn -0 1 -0
vt 1.06043 -1.08422
vt -3.29539 1.19127
vt -3.05113 -5.96537
f 22/22/22 23/23/23 24/24/24
v 29.5778 1e-006 -0.045265
v 27.6789 1e-006 0.55805
v 27.6795 1e-006 0.90805
vn 0 1 0
vn 0 1 0
vn 0 1 0
vt -7.27956 -3.69615
vt -6.49899 -6.02555
vt -6.06751 -6.01802
f 25/25/25 26/26/26 27/27/27
v 29.5778 1e-006 -0.045265
v 27.6783 1e-006 0.208051
v 27.6789 1e-006 0.55805
vn 0 1 0
vn 0 1 0
vn 0 1 0
vt -7.27956 -3.69615
vt -6.93047 -6.03308
vt -6.49899 -6.02555
f 28/28/28 29/29/29 30/30/30
v 29.5778 1e-006 -0.045265
v 27.6795 1e-006 0.90805
v 27.6801 1e-006 1.25805
vn 0 1 0
vn 0 1 0
vn 0 1 0
vt -7.27956 -3.69615
vt -6.06751 -6.01802
vt -5.63603 -6.01049
f 31/31/31 32/32/32 33/33/33
v 33.4905 1e-006 3.24791
v 33.5778 1e-006 -0.052246
v 31.5778 1e-006 -0.048756
vn -0 1 -0
vn -0 1 -0
vn -0 1 -0
vt -3.29539 1.19127
vt -7.36563 1.23505
vt -7.32259 -1.23055
f 34/34/34 35/35/35 36/36/36
v 31.5897 1e-006 6.75123
v 33.2465 1e-006 6.74834
v 33.4905 1e-006 3.24791
vn 0 1 0
vn 0 1 0
vn 0 1 0
vt 1.06043 -1.08422
vt 1.02478 0.958338
vt -3.29539 1.19127
f 37/37/37 38/38/38 39/39/39
v 29.5897 1e-006 6.75472
v 31.5897 1e-006 6.75123
v 27.6838 1e-006 3.35482
vn 0 1 -0
vn 0 1 -0
vn 0 1 -0
vt 1.10347 -3.54982
vt 1.06043 -1.08422
vt -3.05113 -5.96537
f 40/40/40 41/41/41 42/42/42
v 27.9093 1e-006 6.75766
v 29.5897 1e-006 6.75472
v 27.6838 1e-006 3.35482
vn 0 1 -0
vn 0 1 -0
vn 0 1 -0
vt 1.13963 -5.62135
vt 1.10347 -3.54982
vt -3.05113 -5.96537
f 43/43/43 44/44/44 45/45/45
v 27.6825 1e-006 2.65805
v 27.6832 1e-006 3.00805
v 33.4905 1e-006 3.24791
vn 0 1 0
vn 0 1 0
vn 0 1 0
vt -3.91012 -5.98036
vt -3.47864 -5.97283
vt -3.29539 1.19127
f 46/46/46 47/47/47 48/48/48
v 31.5778 1e-006 -0.048756
v 27.6825 1e-006 2.65805
v 33.4905 1e-006 3.24791
vn 0 1 0
vn 0 1 0
vn 0 1 0
vt -7.32259 -1.23055
vt -3.91012 -5.98036
vt -3.29539 1.19127
f 49/49/49 50/50/50 51/51/51
