o data/uid/01015014/s/000015.obj
//1
usemtl mat0
v 180.341 -0.064443 -5.91133
v 172.558 -0.044515 -6.30596
v 171.774 -0.044515 -5.91958
vn 0.00232158 0.999986 0.00470784
vn 0.00232158 0.999986 0.00470784
vn 0.00232158 0.999986 0.00470784
vt 1.06143 0.239956
vt -5.58399 0.75419
vt -6.27767 0.439252
f 1/1/1 2/2/2 3/3/3
v 180.341 -0.064443 -5.91133
v 173.187 -0.067605 -6.82723
v 172.558 -0.044515 -6.30596
vn 0.00452544 0.999237 -0.038797
vn 0.00452544 0.999237 -0.038797
vn 0.00452544 0.999237 -0.038797
vt 1.06143 0.239956
vt -5.00158 1.18833
vt -5.58399 0.75419
f 4/4/4 5/5/5 6/6/6
v 180.341 -0.064443 -5.91133
v 173.785 -0.044515 -7.47892
v 173.187 -0.067605 -6.82723
vn -0.00445258 0.999499 0.0313276
vn -0.00445258 0.999499 0.0313276
vn -0.00445258 0.999499 0.0313276
vt 1.06143 0.239956
vt -4.53456 1.73793
vt -5.00158 1.18833
f 7/7/7 8/8/8 9/9/9
v 180.341 -0.064443 -5.91133
v 171.774 -0.044515 -5.91958
v 170.896 -0.044515 -5.6668
vn 0.00231831 0.999965 0.00805664
vn 0.00231831 0.999965 0.00805664
vn 0.00231831 0.999965 0.00805664
vt 1.06143 0.239956
vt -6.27767 0.439252
vt -7.0815 0.242377
f 10/10/10 11/11/11 12/12/12
v 174.178 -0.044515 -8.2692
v 173.858 -0.044515 -7.59721
v 179.824 -0.044515 -8.27404
vn 0 1 0
vn 0 1 0
vn 0 1 0
vt -4.17709 2.40989
vt -4.4689 1.83819
vt 0.658761 2.28742
f 13/13/13 14/14/14 15/15/15
v 174.452 -0.044515 -9.18285
v 174.178 -0.044515 -8.2692
v 179.717 -0.044515 -8.76986
vn 0 1 0
vn 0 1 0
vn 0 1 0
vt -3.93812 3.1913
vt -4.17709 2.40989
vt 0.569 2.71723
f 16/16/16 17/17/17 18/18/18
v 174.48 -0.161012 -10.1821
v 174.452 -0.044515 -9.18285
v 179.678 -0.044515 -9.25238
vn -0.00154134 0.993266 -0.115844
vn -0.00154134 0.993266 -0.115844
vn -0.00154134 0.993266 -0.115844
vt -3.89147 4.05153
vt -3.93812 3.1913
vt 0.548664 3.13375
f 19/19/19 20/20/20 21/21/21
v 173.858 -0.044515 -7.59721
v 173.785 -0.044515 -7.47892
v 180.341 -0.064443 -5.91133
vn 0.00265183 0.999995 0.00162203
vn 0.00265183 0.999995 0.00162203
vn 0.00265183 0.999995 0.00162203
vt -4.4689 1.83819
vt -4.53456 1.73793
vt 1.06143 0.239956
f 22/22/22 23/23/23 24/24/24
v 179.714 -0.044515 -9.72225
v 179.757 -0.161012 -10.3416
v 174.48 -0.161012 -10.1821
vn -0.00560003 0.982682 -0.185215
vn -0.00560003 0.982682 -0.185215
vn -0.00560003 0.982682 -0.185215
vt 0.598478 3.53752
vt 0.658283 4.06994
vt -3.89147 4.05153
f 25/25/25 26/26/26 27/27/27
v 180.341 -0.064443 -5.91133
v 180.299 -0.044515 -7.2679
v 179.824 -0.044515 -8.27404
vn -0.0333132 0.999321 0.0157269
vn -0.0333132 0.999321 0.0157269
vn -0.0333132 0.999321 0.0157269
vt 1.06143 0.239956
vt 1.04003 1.41003
vt 0.658761 2.28742
f 28/28/28 29/29/29 30/30/30
v 180.341 -0.064443 -5.91133
v 180.376 -0.067605 -7.12648
v 180.299 -0.044515 -7.2679
vn 0.277272 0.960776 0.00539995
vn 0.277272 0.960776 0.00539995
vn 0.277272 0.960776 0.00539995
vt 1.06143 0.239956
vt 1.113 1.2862
vt 1.04003 1.41003
f 31/31/31 32/32/32 33/33/33
v 179.738 -0.245562 -10.9612
v 174.462 -0.245562 -10.8016
v 174.48 -0.161012 -10.1821
vn -0.00408477 0.990824 -0.1351
vn -0.00408477 0.990824 -0.1351
vn -0.00408477 0.990824 -0.1351
vt 0.656122 4.60409
vt -3.89364 4.58568
vt -3.89147 4.05153
f 34/34/34 35/35/35 36/36/36
v 179.717 -0.044515 -8.76986
v 174.178 -0.044515 -8.2692
v 179.824 -0.044515 -8.27404
vn 0 1 0
vn 0 1 0
vn 0 1 0
vt 0.569 2.71723
vt -4.17709 2.40989
vt 0.658761 2.28742
f 37/37/37 38/38/38 39/39/39
v 179.678 -0.044515 -9.25238
v 174.452 -0.044515 -9.18285
v 179.717 -0.044515 -8.76986
vn 0 1 0
vn 0 1 0
vn 0 1 0
vt 0.548664 3.13375
vt -3.93812 3.1913
vt 0.569 2.71723
f 40/40/40 41/41/41 42/42/42
v 179.714 -0.044515 -9.72225
v 174.48 -0.161012 -10.1821
v 179.678 -0.044515 -9.25238
vn -0.0221014 0.999754 -0.00171682
vn -0.0221014 0.999754 -0.00171682
vn -0.0221014 0.999754 -0.00171682
vt 0.598478 3.53752
vt -3.89147 4.05153
vt 0.548664 3.13375
f 43/43/43 44/44/44 45/45/45
v 179.824 -0.044515 -8.27404
v 173.858 -0.044515 -7.59721
v 180.341 -0.064443 -5.91133
vn 0.000933623 0.999966 0.00822956
vn 0.000933623 0.999966 0.00822956
vn 0.000933623 0.999966 0.00822956
vt 0.658761 2.28742
vt -4.4689 1.83819
vt 1.06143 0.239956
f 46/46/46 47/47/47 48/48/48
v 179.757 -0.161012 -10.3416
v 179.738 -0.245562 -10.9612
v 174.48 -0.161012 -10.1821
vn -0.00408479 0.990824 -0.1351
vn -0.00408479 0.990824 -0.1351
vn -0.00408479 0.990824 -0.1351
vt 0.658283 4.06994
vt 0.656122 4.60409
vt -3.89147 4.05153
f 49/49/49 50/50/50 51/51/51
