o data/uid/01014700/s/000004.obj
//1
usemtl mat0
v 0.851089 0.063457 -0.036973
v 0.851155 0.063457 -0.036793
v 0.747393 0.063457 0.000973
vn 0 -1 -0
vn 0 -1 -0
vn 0 -1 -0
vt 0.002002 0.327033
vt 0.002002 0.326967
vt 0.040012 0.326833
f 1/1/1 2/2/2 3/3/3
v 0.747328 0.063457 0.000793
v 0.851089 0.063457 -0.036973
v 0.747393 0.063457 0.000973
vn -0 -1 -0
vn -0 -1 -0
vn -0 -1 -0
vt 0.040013 0.326899
vt 0.002002 0.327033
vt 0.040012 0.326833
f 4/4/4 5/5/5 6/6/6
v 0.851089 2.17586 -0.036972
v 0.747328 2.17586 0.000793
v 0.747393 2.17586 0.000974
vn 0 1 0
vn 0 1 0
vn 0 1 0
vt 0.078354 0.110616
vt 0.040366 0.111902
vt 0.040364 0.111835
f 7/7/7 8/8/8 9/9/9
v 0.747393 2.17586 0.000974
v 0.851155 2.17586 -0.036792
v 0.851089 2.17586 -0.036972
vn 0 1 -0
vn 0 1 -0
vn 0 1 -0
vt 0.040364 0.111835
vt 0.078352 0.11055
vt 0.078354 0.110616
f 10/10/10 11/11/11 12/12/12
v 0.851155 2.17586 -0.036792
v 0.747393 2.17586 0.000974
v 0.747393 0.063457 0.000973
vn 0.342018 -4.4485e-007 0.939693
vn 0.342018 -4.4485e-007 0.939693
vn 0.342018 -4.4485e-007 0.939693
vt 0.820529 0.110144
vt 0.820529 0.146991
vt 0.0704 0.146991
f 13/13/13 14/14/14 15/15/15
v 0.747393 0.063457 0.000973
v 0.851155 0.063457 -0.036793
v 0.851155 2.17586 -0.036792
vn 0.342018 -4.45782e-007 0.939693
vn 0.342018 -4.45782e-007 0.939693
vn 0.342018 -4.45782e-007 0.939693
vt 0.0704 0.146991
vt 0.0704 0.110144
vt 0.820529 0.110144
f 16/16/16 17/17/17 18/18/18
v 0.851089 2.17586 -0.036972
v 0.851155 2.17586 -0.036792
v 0.851155 0.063457 -0.036793
vn 0.938908 1.63271e-007 -0.34417
vn 0.938908 1.63271e-007 -0.34417
vn 0.938908 1.63271e-007 -0.34417
vt 0.820716 0.939958
vt 0.820716 0.940022
vt 0.070214 0.940022
f 19/19/19 20/20/20 21/21/21
v 0.851155 0.063457 -0.036793
v 0.851089 0.063457 -0.036973
v 0.851089 2.17586 -0.036972
vn 0.938905 1.62667e-007 -0.344176
vn 0.938905 1.62667e-007 -0.344176
vn 0.938905 1.62667e-007 -0.344176
vt 0.070214 0.940022
vt 0.070214 0.939958
vt 0.820716 0.939958
f 22/22/22 23/23/23 24/24/24
v 0.851089 2.17586 -0.036972
v 0.851089 0.063457 -0.036973
v 0.747328 2.17586 0.000793
vn -0.342013 4.44126e-007 -0.939695
vn -0.342013 4.44126e-007 -0.939695
vn -0.342013 4.44126e-007 -0.939695
vt 0.820529 0.615615
vt 0.0704 0.615615
vt 0.820529 0.578769
f 25/25/25 26/26/26 27/27/27
v 0.851089 0.063457 -0.036973
v 0.747328 0.063457 0.000793
v 0.747328 2.17586 0.000793
vn -0.342021 -0 -0.939692
vn -0.342021 -0 -0.939692
vn -0.342021 -0 -0.939692
vt 0.0704 0.615615
vt 0.0704 0.578769
vt 0.820529 0.578769
f 28/28/28 29/29/29 30/30/30
v 0.747393 2.17586 0.000974
v 0.747328 2.17586 0.000793
v 0.747328 0.063457 0.000793
vn -0.941105 0 0.338115
vn -0.941105 0 0.338115
vn -0.941105 0 0.338115
vt 0.820398 0.940961
vt 0.820398 0.941025
vt 0.070532 0.941025
f 31/31/31 32/32/32 33/33/33
v 0.747328 0.063457 0.000793
v 0.747393 0.063457 0.000973
v 0.747393 2.17586 0.000974
vn -0.940506 -1.6085e-007 0.339777
vn -0.940506 -1.6085e-007 0.339777
vn -0.940506 -1.6085e-007 0.339777
vt 0.070532 0.941025
vt 0.070532 0.940961
vt 0.820398 0.940961
f 34/34/34 35/35/35 36/36/36
v 0.735088 0.063457 -0.036973
v 0.735153 0.063457 -0.036793
v 0.631392 0.063457 0.000973
vn 0 -1 -0
vn 0 -1 -0
vn 0 -1 -0
vt 0.002 0.218889
vt 0.002 0.218823
vt 0.040014 0.218689
f 37/37/37 38/38/38 39/39/39
v 0.631392 0.063457 0.000973
v 0.631326 0.063457 0.000793
v 0.735088 0.063457 -0.036973
vn 0 -1 0
vn 0 -1 0
vn 0 -1 0
vt 0.040014 0.218689
vt 0.040015 0.218755
vt 0.002 0.218889
f 40/40/40 41/41/41 42/42/42
v 0.735088 2.17586 -0.036972
v 0.631326 2.17586 0.000793
v 0.631392 2.17586 0.000974
vn 0 1 0
vn 0 1 0
vn 0 1 0
vt 0.078355 0.146664
vt 0.040365 0.14795
vt 0.040363 0.147883
f 43/43/43 44/44/44 45/45/45
v 0.631392 2.17586 0.000974
v 0.735153 2.17586 -0.036792
v 0.735088 2.17586 -0.036972
vn 0 1 -0
vn 0 1 -0
vn 0 1 -0
vt 0.040363 0.147883
vt 0.078353 0.146598
vt 0.078355 0.146664
f 46/46/46 47/47/47 48/48/48
v 0.735153 2.17586 -0.036792
v 0.631392 2.17586 0.000974
v 0.631392 0.063457 0.000973
vn 0.342021 -4.44849e-007 0.939692
vn 0.342021 -4.44849e-007 0.939692
vn 0.342021 -4.44849e-007 0.939692
vt 0.820529 0.686912
vt 0.820529 0.723758
vt 0.0704 0.723758
f 49/49/49 50/50/50 51/51/51
v 0.631392 0.063457 0.000973
v 0.735153 0.063457 -0.036793
v 0.735153 2.17586 -0.036792
vn 0.342021 -4.45781e-007 0.939692
vn 0.342021 -4.45781e-007 0.939692
vn 0.342021 -4.45781e-007 0.939692
vt 0.0704 0.723758
vt 0.0704 0.686912
vt 0.820529 0.686912
f 52/52/52 53/53/53 54/54/54
v 0.735088 2.17586 -0.036972
v 0.735153 2.17586 -0.036792
v 0.735153 0.063457 -0.036793
vn 0.940507 1.61185e-007 -0.339773
vn 0.940507 1.61185e-007 -0.339773
vn 0.940507 1.61185e-007 -0.339773
vt 0.820398 0.941024
vt 0.820398 0.941088
vt 0.070532 0.941088
f 55/55/55 56/56/56 57/57/57
v 0.735153 0.063457 -0.036793
v 0.735088 0.063457 -0.036973
v 0.735088 2.17586 -0.036972
vn 0.940505 1.60589e-007 -0.339779
vn 0.940505 1.60589e-007 -0.339779
vn 0.940505 1.60589e-007 -0.339779
vt 0.070532 0.941088
vt 0.070532 0.941024
vt 0.820398 0.941024
f 58/58/58 59/59/59 60/60/60
v 0.631326 2.17586 0.000793
v 0.735088 2.17586 -0.036972
v 0.735088 0.063457 -0.036973
vn -0.34201 4.44126e-007 -0.939696
vn -0.34201 4.44126e-007 -0.939696
vn -0.34201 4.44126e-007 -0.939696
vt 0.820529 0.074096
vt 0.820529 0.110943
vt 0.0704 0.110943
f 61/61/61 62/62/62 63/63/63
v 0.735088 0.063457 -0.036973
v 0.631326 0.063457 0.000793
v 0.631326 2.17586 0.000793
vn -0.342018 -0 -0.939693
vn -0.342018 -0 -0.939693
vn -0.342018 -0 -0.939693
vt 0.0704 0.110943
vt 0.0704 0.074096
vt 0.820529 0.074096
f 64/64/64 65/65/65 66/66/66
v 0.631392 2.17586 0.000974
v 0.631326 2.17586 0.000793
v 0.631326 0.063457 0.000793
vn -0.939519 0 0.342495
vn -0.939519 0 0.342495
vn -0.939519 0 0.342495
vt 0.820728 0.94046
vt 0.820728 0.940524
vt 0.070201 0.940524
f 67/67/67 68/68/68 69/69/69
v 0.631326 0.063457 0.000793
v 0.631392 0.063457 0.000973
v 0.631392 2.17586 0.000974
vn -0.938906 -1.62931e-007 0.344173
vn -0.938906 -1.62931e-007 0.344173
vn -0.938906 -1.62931e-007 0.344173
vt 0.070201 0.940524
vt 0.070201 0.94046
vt 0.820728 0.94046
f 70/70/70 71/71/71 72/72/72
v 0.266828 0.063457 -0.036973
v 0.266894 0.063457 -0.036793
v 0.163132 0.063457 0.000973
vn 0 -1 -0
vn 0 -1 -0
vn 0 -1 -0
vt 0.002003 0.074697
vt 0.002002 0.074631
vt 0.040012 0.074496
f 73/73/73 74/74/74 75/75/75
v 0.163132 0.063457 0.000973
v 0.163067 0.063457 0.000793
v 0.266828 0.063457 -0.036973
vn 0 -1 0
vn 0 -1 0
vn 0 -1 0
vt 0.040012 0.074496
vt 0.040012 0.074562
vt 0.002003 0.074697
f 76/76/76 77/77/77 78/78/78
v 0.266828 2.17586 -0.036972
v 0.163067 2.17586 0.000793
v 0.163132 2.17586 0.000974
vn 0 1 0
vn 0 1 0
vn 0 1 0
vt 0.078353 0.326904
vt 0.040367 0.32819
vt 0.040364 0.328124
f 79/79/79 80/80/80 81/81/81
v 0.163132 2.17586 0.000974
v 0.266894 2.17586 -0.036792
v 0.266828 2.17586 -0.036972
vn 0 1 -0
vn 0 1 -0
vn 0 1 -0
vt 0.040364 0.328124
vt 0.078351 0.326838
vt 0.078353 0.326904
f 82/82/82 83/83/83 84/84/84
v 0.266894 2.17586 -0.036792
v 0.163132 2.17586 0.000974
v 0.163132 0.063457 0.000973
vn 0.342018 -4.4485e-007 0.939693
vn 0.342018 -4.4485e-007 0.939693
vn 0.342018 -4.4485e-007 0.939693
vt 0.820529 0.146192
vt 0.820529 0.183039
vt 0.0704 0.183039
f 85/85/85 86/86/86 87/87/87
v 0.163132 0.063457 0.000973
v 0.266894 0.063457 -0.036793
v 0.266894 2.17586 -0.036792
vn 0.342018 -4.45782e-007 0.939693
vn 0.342018 -4.45782e-007 0.939693
vn 0.342018 -4.45782e-007 0.939693
vt 0.0704 0.183039
vt 0.0704 0.146192
vt 0.820529 0.146192
f 88/88/88 89/89/89 90/90/90
v 0.266828 2.17586 -0.036972
v 0.266894 2.17586 -0.036792
v 0.266894 0.063457 -0.036793
vn 0.938857 1.63336e-007 -0.344307
vn 0.938857 1.63336e-007 -0.344307
vn 0.938857 1.63336e-007 -0.344307
vt 0.820728 0.940209
vt 0.820728 0.940273
vt 0.070201 0.940273
f 91/91/91 92/92/92 93/93/93
v 0.266894 0.063457 -0.036793
v 0.266828 0.063457 -0.036973
v 0.266828 2.17586 -0.036972
vn 0.938855 1.62732e-007 -0.344313
vn 0.938855 1.62732e-007 -0.344313
vn 0.938855 1.62732e-007 -0.344313
vt 0.070201 0.940273
vt 0.070201 0.940209
vt 0.820728 0.940209
f 94/94/94 95/95/95 96/96/96
v 0.163067 2.17586 0.000793
v 0.266828 2.17586 -0.036972
v 0.266828 0.063457 -0.036973
vn -0.342013 4.44126e-007 -0.939695
vn -0.342013 4.44126e-007 -0.939695
vn -0.342013 4.44126e-007 -0.939695
vt 0.820529 0.650864
vt 0.820529 0.68771
vt 0.0704 0.68771
f 97/97/97 98/98/98 99/99/99
v 0.266828 0.063457 -0.036973
v 0.163067 0.063457 0.000793
v 0.163067 2.17586 0.000793
vn -0.342021 -0 -0.939692
vn -0.342021 -0 -0.939692
vn -0.342021 -0 -0.939692
vt 0.0704 0.68771
vt 0.0704 0.650864
vt 0.820529 0.650864
f 100/100/100 101/101/101 102/102/102
v 0.163132 2.17586 0.000974
v 0.163067 2.17586 0.000793
v 0.163067 0.063457 0.000793
vn -0.941154 0 0.337978
vn -0.941154 0 0.337978
vn -0.941154 0 0.337978
vt 0.820404 0.939644
vt 0.820404 0.939708
vt 0.070526 0.939708
f 103/103/103 104/104/104 105/105/105
v 0.163067 0.063457 0.000793
v 0.163132 0.063457 0.000973
v 0.163132 2.17586 0.000974
vn -0.940556 -1.60785e-007 0.339639
vn -0.940556 -1.60785e-007 0.339639
vn -0.940556 -1.60785e-007 0.339639
vt 0.070526 0.939708
vt 0.070526 0.939644
vt 0.820404 0.939644
f 106/106/106 107/107/107 108/108/108
v 0.825169 2.18786 -0.066008
v 0.825169 2.18786 0.03001
v -0.615104 2.18786 0.03001
vn 0 -1 0
vn 0 -1 0
vn 0 -1 0
vt 0.820728 0.499925
vt 0.853781 0.499925
vt 0.853781 0.995715
f 109/109/109 110/110/110 111/111/111
v -0.615104 2.18786 0.03001
v -0.615104 2.18786 -0.066008
v 0.825169 2.18786 -0.066008
vn 0 -1 0
vn 0 -1 0
vn 0 -1 0
vt 0.853781 0.995715
vt 0.820728 0.995715
vt 0.820728 0.499925
f 112/112/112 113/113/113 114/114/114
v 0.825169 2.24547 -0.066008
v -0.615104 2.24547 -0.066008
v -0.615104 2.24547 0.03001
vn -0 1 0
vn -0 1 0
vn -0 1 0
vt 0.913886 0.002
vt 0.913886 0.49779
vt 0.880833 0.49779
f 115/115/115 116/116/116 117/117/117
v -0.615104 2.24547 0.03001
v 0.825169 2.24547 0.03001
v 0.825169 2.24547 -0.066008
vn 0 1 -0
vn 0 1 -0
vn 0 1 -0
vt 0.880833 0.49779
vt 0.880833 0.002
vt 0.913886 0.002
f 118/118/118 119/119/119 120/120/120
v 0.825169 2.24547 0.03001
v -0.615104 2.24547 0.03001
v -0.615104 2.18786 0.03001
vn 0 0 1
vn 0 0 1
vn 0 0 1
vt 0.860574 0.002
vt 0.860574 0.49779
vt 0.840743 0.49779
f 121/121/121 122/122/122 123/123/123
v -0.615104 2.18786 0.03001
v 0.825169 2.18786 0.03001
v 0.825169 2.24547 0.03001
vn 0 0 1
vn 0 0 1
vn 0 0 1
vt 0.840743 0.49779
vt 0.840743 0.002
vt 0.860574 0.002
f 124/124/124 125/125/125 126/126/126
v 0.825169 2.24547 -0.066008
v 0.825169 2.24547 0.03001
v 0.825169 2.18786 0.03001
vn 1 -0 0
vn 1 -0 0
vn 1 -0 0
vt 0.84056 0.433515
vt 0.84056 0.466568
vt 0.820728 0.466568
f 127/127/127 128/128/128 129/129/129
v 0.825169 2.18786 0.03001
v 0.825169 2.18786 -0.066008
v 0.825169 2.24547 -0.066008
vn 1 0 -0
vn 1 0 -0
vn 1 0 -0
vt 0.820728 0.466568
vt 0.820728 0.433515
vt 0.84056 0.433515
f 130/130/130 131/131/131 132/132/132
v -0.615104 2.24547 -0.066008
v 0.825169 2.24547 -0.066008
v 0.825169 2.18786 -0.066008
vn 0 0 -1
vn 0 0 -1
vn 0 0 -1
vt 0.880589 0.002
vt 0.880589 0.49779
vt 0.860757 0.49779
f 133/133/133 134/134/134 135/135/135
v 0.825169 2.18786 -0.066008
v -0.615104 2.18786 -0.066008
v -0.615104 2.24547 -0.066008
vn 0 0 -1
vn 0 0 -1
vn 0 0 -1
vt 0.860757 0.49779
vt 0.860757 0.002
vt 0.880589 0.002
f 136/136/136 137/137/137 138/138/138
v -0.615104 2.24547 0.03001
v -0.615104 2.24547 -0.066008
v -0.615104 2.18786 -0.066008
vn -1 0 0
vn -1 0 0
vn -1 0 0
vt 0.84056 0.466873
vt 0.84056 0.499925
vt 0.820728 0.499925
f 139/139/139 140/140/140 141/141/141
v -0.615104 2.18786 -0.066008
v -0.615104 2.18786 0.03001
v -0.615104 2.24547 0.03001
vn -1 -0 -0
vn -1 -0 -0
vn -1 -0 -0
vt 0.820728 0.499925
vt 0.820728 0.466873
vt 0.84056 0.466873
f 142/142/142 143/143/143 144/144/144
v 0.814774 0.765109 0.002661
v 0.814774 0.765109 0.004581
v 0.812854 0.765109 0.004581
vn 0 -1 0
vn 0 -1 0
vn 0 -1 0
vt 0.857771 0.997339
vt 0.857771 0.998
vt 0.85711 0.998
f 145/145/145 146/146/146 147/147/147
v 0.812854 0.765109 0.004581
v 0.812854 0.765109 0.002661
v 0.814774 0.765109 0.002661
vn 0 -1 0
vn 0 -1 0
vn 0 -1 0
vt 0.85711 0.998
vt 0.85711 0.997339
vt 0.857771 0.997339
f 148/148/148 149/149/149 150/150/150
v 0.814774 2.20538 0.002661
v 0.812854 2.20538 0.002661
v 0.812854 2.20538 0.004581
vn -0 1 0
vn -0 1 0
vn -0 1 0
vt 0.857771 0.997333
vt 0.85711 0.997333
vt 0.85711 0.996672
f 151/151/151 152/152/152 153/153/153
v 0.812854 2.20538 0.004581
v 0.814774 2.20538 0.004581
v 0.814774 2.20538 0.002661
vn 0 1 -0
vn 0 1 -0
vn 0 1 -0
vt 0.85711 0.996672
vt 0.857771 0.996672
vt 0.857771 0.997333
f 154/154/154 155/155/155 156/156/156
v 0.814774 2.20538 0.004581
v 0.812854 2.20538 0.004581
v 0.812854 0.765109 0.004581
vn 0 0 1
vn 0 0 1
vn 0 0 1
vt 0.859106 0.995715
vt 0.858445 0.995715
vt 0.858445 0.499925
f 157/157/157 158/158/158 159/159/159
v 0.812854 0.765109 0.004581
v 0.814774 0.765109 0.004581
v 0.814774 2.20538 0.004581
vn 0 0 1
vn 0 0 1
vn 0 0 1
vt 0.858445 0.499925
vt 0.859106 0.499925
vt 0.859106 0.995715
f 160/160/160 161/161/161 162/162/162
v 0.814774 2.20538 0.002661
v 0.814774 2.20538 0.004581
v 0.814774 0.765109 0.004581
vn 1 -0 0
vn 1 -0 0
vn 1 -0 0
vt 0.859773 0.995715
vt 0.859112 0.995715
vt 0.859112 0.499925
f 163/163/163 164/164/164 165/165/165
v 0.814774 0.765109 0.004581
v 0.814774 0.765109 0.002661
v 0.814774 2.20538 0.002661
vn 1 0 -0
vn 1 0 -0
vn 1 0 -0
vt 0.859112 0.499925
vt 0.859773 0.499925
vt 0.859773 0.995715
f 166/166/166 167/167/167 168/168/168
v 0.812854 2.20538 0.002661
v 0.814774 2.20538 0.002661
v 0.814774 0.765109 0.002661
vn 0 0 -1
vn 0 0 -1
vn 0 0 -1
vt 0.858439 0.995715
vt 0.857778 0.995715
vt 0.857778 0.499925
f 169/169/169 170/170/170 171/171/171
v 0.814774 0.765109 0.002661
v 0.812854 0.765109 0.002661
v 0.812854 2.20538 0.002661
vn 0 0 -1
vn 0 0 -1
vn 0 0 -1
vt 0.857778 0.499925
vt 0.858439 0.499925
vt 0.858439 0.995715
f 172/172/172 173/173/173 174/174/174
v 0.812854 2.20538 0.004581
v 0.812854 2.20538 0.002661
v 0.812854 0.765109 0.002661
vn -1 0 0
vn -1 0 0
vn -1 0 0
vt 0.86044 0.995715
vt 0.859779 0.995715
vt 0.859779 0.499925
f 175/175/175 176/176/176 177/177/177
v 0.812854 0.765109 0.002661
v 0.812854 0.765109 0.004581
v 0.812854 2.20538 0.004581
vn -1 -0 -0
vn -1 -0 -0
vn -1 -0 -0
vt 0.859779 0.499925
vt 0.86044 0.499925
vt 0.86044 0.995715
f 178/178/178 179/179/179 180/180/180
v 0.384096 0.063457 -0.036973
v 0.384161 0.063457 -0.036793
v 0.280399 0.063457 0.000973
vn 0 -1 -0
vn 0 -1 -0
vn 0 -1 -0
vt 0.002001 0.399129
vt 0.002001 0.399063
vt 0.040014 0.398929
f 181/181/181 182/182/182 183/183/183
v 0.280399 0.063457 0.000973
v 0.280334 0.063457 0.000793
v 0.384096 0.063457 -0.036973
vn 0 -1 0
vn 0 -1 0
vn 0 -1 0
vt 0.040014 0.398929
vt 0.040014 0.398995
vt 0.002001 0.399129
f 184/184/184 185/185/185 186/186/186
v 0.384096 2.17586 -0.036972
v 0.280334 2.17586 0.000793
v 0.280399 2.17586 0.000974
vn 0 1 0
vn 0 1 0
vn 0 1 0
vt 0.078354 0.002472
vt 0.040365 0.003757
vt 0.040363 0.003691
f 187/187/187 188/188/188 189/189/189
v 0.280399 2.17586 0.000974
v 0.384161 2.17586 -0.036792
v 0.384096 2.17586 -0.036972
vn 0 1 -0
vn 0 1 -0
vn 0 1 -0
vt 0.040363 0.003691
vt 0.078352 0.002406
vt 0.078354 0.002472
f 190/190/190 191/191/191 192/192/192
v 0.384161 2.17586 -0.036792
v 0.280399 2.17586 0.000974
v 0.280399 0.063457 0.000973
vn 0.342018 -4.4485e-007 0.939693
vn 0.342018 -4.4485e-007 0.939693
vn 0.342018 -4.4485e-007 0.939693
vt 0.820529 0.434577
vt 0.820529 0.471423
vt 0.0704 0.471423
f 193/193/193 194/194/194 195/195/195
v 0.280399 0.063457 0.000973
v 0.384161 0.063457 -0.036793
v 0.384161 2.17586 -0.036792
vn 0.342018 -4.45782e-007 0.939693
vn 0.342018 -4.45782e-007 0.939693
vn 0.342018 -4.45782e-007 0.939693
vt 0.0704 0.471423
vt 0.0704 0.434577
vt 0.820529 0.434577
f 196/196/196 197/197/197 198/198/198
v 0.384096 2.17586 -0.036972
v 0.384161 2.17586 -0.036792
v 0.384161 0.063457 -0.036793
vn 0.940557 1.6112e-007 -0.339635
vn 0.940557 1.6112e-007 -0.339635
vn 0.940557 1.6112e-007 -0.339635
vt 0.820404 0.940773
vt 0.820404 0.940837
vt 0.070526 0.940837
f 199/199/199 200/200/200 201/201/201
v 0.384161 0.063457 -0.036793
v 0.384096 0.063457 -0.036973
v 0.384096 2.17586 -0.036972
vn 0.940555 1.60524e-007 -0.339642
vn 0.940555 1.60524e-007 -0.339642
vn 0.940555 1.60524e-007 -0.339642
vt 0.070526 0.940837
vt 0.070526 0.940773
vt 0.820404 0.940773
f 202/202/202 203/203/203 204/204/204
v 0.280334 2.17586 0.000793
v 0.384096 2.17586 -0.036972
v 0.384096 0.063457 -0.036973
vn -0.34201 4.44126e-007 -0.939696
vn -0.34201 4.44126e-007 -0.939696
vn -0.34201 4.44126e-007 -0.939696
vt 0.820529 0.254336
vt 0.820529 0.291183
vt 0.0704 0.291183
f 205/205/205 206/206/206 207/207/207
v 0.384096 0.063457 -0.036973
v 0.280334 0.063457 0.000793
v 0.280334 2.17586 0.000793
vn -0.342018 -0 -0.939693
vn -0.342018 -0 -0.939693
vn -0.342018 -0 -0.939693
vt 0.0704 0.291183
vt 0.0704 0.254336
vt 0.820529 0.254336
f 208/208/208 209/209/209 210/210/210
v 0.280399 2.17586 0.000974
v 0.280334 2.17586 0.000793
v 0.280334 0.063457 0.000793
vn -0.941154 0 0.337978
vn -0.941154 0 0.337978
vn -0.941154 0 0.337978
vt 0.82041 0.940836
vt 0.82041 0.9409
vt 0.07052 0.9409
f 211/211/211 212/212/212 213/213/213
v 0.280334 0.063457 0.000793
v 0.280399 0.063457 0.000973
v 0.280399 2.17586 0.000974
vn -0.940556 -1.60785e-007 0.339639
vn -0.940556 -1.60785e-007 0.339639
vn -0.940556 -1.60785e-007 0.339639
vt 0.07052 0.9409
vt 0.07052 0.940836
vt 0.82041 0.940836
f 214/214/214 215/215/215 216/216/216
v 0.036623 0.063457 -0.036973
v 0.036689 0.063457 -0.036793
v -0.067073 0.063457 0.000973
vn 0 -1 -0
vn 0 -1 -0
vn 0 -1 -0
vt 0.002002 0.038649
vt 0.002002 0.038583
vt 0.040012 0.038448
f 217/217/217 218/218/218 219/219/219
v -0.067073 0.063457 0.000973
v -0.067138 0.063457 0.000793
v 0.036623 0.063457 -0.036973
vn 0 -1 0
vn 0 -1 0
vn 0 -1 0
vt 0.040012 0.038448
vt 0.040012 0.038514
vt 0.002002 0.038649
f 220/220/220 221/221/221 222/222/222
v 0.036623 2.17586 -0.036972
v -0.067138 2.17586 0.000793
v -0.067073 2.17586 0.000974
vn 0 1 0
vn 0 1 0
vn 0 1 0
vt 0.078353 0.290856
vt 0.040367 0.292142
vt 0.040364 0.292076
f 223/223/223 224/224/224 225/225/225
v -0.067073 2.17586 0.000974
v 0.036689 2.17586 -0.036792
v 0.036623 2.17586 -0.036972
vn 0 1 -0
vn 0 1 -0
vn 0 1 -0
vt 0.040364 0.292076
vt 0.078351 0.29079
vt 0.078353 0.290856
f 226/226/226 227/227/227 228/228/228
v 0.036689 2.17586 -0.036792
v -0.067073 2.17586 0.000974
v -0.067073 0.063457 0.000973
vn 0.342018 -4.4485e-007 0.939693
vn 0.342018 -4.4485e-007 0.939693
vn 0.342018 -4.4485e-007 0.939693
vt 0.820529 0.36248
vt 0.820529 0.399327
vt 0.0704 0.399327
f 229/229/229 230/230/230 231/231/231
v -0.067073 0.063457 0.000973
v 0.036689 0.063457 -0.036793
v 0.036689 2.17586 -0.036792
vn 0.342018 -4.45782e-007 0.939693
vn 0.342018 -4.45782e-007 0.939693
vn 0.342018 -4.45782e-007 0.939693
vt 0.0704 0.399327
vt 0.0704 0.36248
vt 0.820529 0.36248
f 232/232/232 233/233/233 234/234/234
v 0.036623 2.17586 -0.036972
v 0.036689 2.17586 -0.036792
v 0.036689 0.063457 -0.036793
vn 0.938882 1.63303e-007 -0.344238
vn 0.938882 1.63303e-007 -0.344238
vn 0.938882 1.63303e-007 -0.344238
vt 0.820726 0.940083
vt 0.820726 0.940147
vt 0.070203 0.940147
f 235/235/235 236/236/236 237/237/237
v 0.036689 0.063457 -0.036793
v 0.036623 0.063457 -0.036973
v 0.036623 2.17586 -0.036972
vn 0.93888 1.62699e-007 -0.344244
vn 0.93888 1.62699e-007 -0.344244
vn 0.93888 1.62699e-007 -0.344244
vt 0.070203 0.940147
vt 0.070203 0.940083
vt 0.820726 0.940083
f 238/238/238 239/239/239 240/240/240
v -0.067138 2.17586 0.000793
v 0.036623 2.17586 -0.036972
v 0.036623 0.063457 -0.036973
vn -0.342013 4.44126e-007 -0.939695
vn -0.342013 4.44126e-007 -0.939695
vn -0.342013 4.44126e-007 -0.939695
vt 0.820529 0.86715
vt 0.820529 0.903997
vt 0.0704 0.903997
f 241/241/241 242/242/242 243/243/243
v 0.036623 0.063457 -0.036973
v -0.067138 0.063457 0.000793
v -0.067138 2.17586 0.000793
vn -0.342021 -0 -0.939692
vn -0.342021 -0 -0.939692
vn -0.342021 -0 -0.939692
vt 0.0704 0.903997
vt 0.0704 0.86715
vt 0.820529 0.86715
f 244/244/244 245/245/245 246/246/246
v -0.067073 2.17586 0.000974
v -0.067138 2.17586 0.000793
v -0.067138 0.063457 0.000793
vn -0.941154 0 0.337978
vn -0.941154 0 0.337978
vn -0.941154 0 0.337978
vt 0.82041 0.941149
vt 0.82041 0.941213
vt 0.07052 0.941213
f 247/247/247 248/248/248 249/249/249
v -0.067138 0.063457 0.000793
v -0.067073 0.063457 0.000973
v -0.067073 2.17586 0.000974
vn -0.940556 -1.60785e-007 0.339639
vn -0.940556 -1.60785e-007 0.339639
vn -0.940556 -1.60785e-007 0.339639
vt 0.07052 0.941213
vt 0.07052 0.941149
vt 0.82041 0.941149
f 250/250/250 251/251/251 252/252/252
v -0.196331 0.063457 -0.036973
v -0.196265 0.063457 -0.036793
v -0.300027 0.063457 0.000973
vn 0 -1 -0
vn 0 -1 -0
vn 0 -1 -0
vt 0.002003 0.182841
vt 0.002003 0.182775
vt 0.040012 0.18264
f 253/253/253 254/254/254 255/255/255
v -0.300027 0.063457 0.000973
v -0.300092 0.063457 0.000793
v -0.196331 0.063457 -0.036973
vn 0 -1 0
vn 0 -1 0
vn 0 -1 0
vt 0.040012 0.18264
vt 0.040012 0.182707
vt 0.002003 0.182841
f 256/256/256 257/257/257 258/258/258
v -0.196331 2.17586 -0.036972
v -0.300092 2.17586 0.000793
v -0.300027 2.17586 0.000974
vn 0 1 0
vn 0 1 0
vn 0 1 0
vt 0.078355 0.399
vt 0.040365 0.400286
vt 0.040363 0.40022
f 259/259/259 260/260/260 261/261/261
v -0.300027 2.17586 0.000974
v -0.196265 2.17586 -0.036792
v -0.196331 2.17586 -0.036972
vn 0 1 -0
vn 0 1 -0
vn 0 1 -0
vt 0.040363 0.40022
vt 0.078353 0.398934
vt 0.078355 0.399
f 262/262/262 263/263/263 264/264/264
v -0.196265 2.17586 -0.036792
v -0.300027 2.17586 0.000974
v -0.300027 0.063457 0.000973
vn 0.342018 -4.4485e-007 0.939693
vn 0.342018 -4.4485e-007 0.939693
vn 0.342018 -4.4485e-007 0.939693
vt 0.820529 0.18224
vt 0.820529 0.219087
vt 0.0704 0.219087
f 265/265/265 266/266/266 267/267/267
v -0.300027 0.063457 0.000973
v -0.196265 0.063457 -0.036793
v -0.196265 2.17586 -0.036792
vn 0.342018 -4.45782e-007 0.939693
vn 0.342018 -4.45782e-007 0.939693
vn 0.342018 -4.45782e-007 0.939693
vt 0.0704 0.219087
vt 0.0704 0.18224
vt 0.820529 0.18224
f 268/268/268 269/269/269 270/270/270
v -0.196331 2.17586 -0.036972
v -0.196265 2.17586 -0.036792
v -0.196265 0.063457 -0.036793
vn 0.938882 1.63303e-007 -0.344238
vn 0.938882 1.63303e-007 -0.344238
vn 0.938882 1.63303e-007 -0.344238
vt 0.820728 0.940648
vt 0.820728 0.940712
vt 0.070201 0.940712
f 271/271/271 272/272/272 273/273/273
v -0.196265 0.063457 -0.036793
v -0.196331 0.063457 -0.036973
v -0.196331 2.17586 -0.036972
vn 0.93888 1.62699e-007 -0.344244
vn 0.93888 1.62699e-007 -0.344244
vn 0.93888 1.62699e-007 -0.344244
vt 0.070201 0.940712
vt 0.070201 0.940648
vt 0.820728 0.940648
f 274/274/274 275/275/275 276/276/276
v -0.300092 2.17586 0.000793
v -0.196331 2.17586 -0.036972
v -0.196331 0.063457 -0.036973
vn -0.342013 4.44126e-007 -0.939695
vn -0.342013 4.44126e-007 -0.939695
vn -0.342013 4.44126e-007 -0.939695
vt 0.820529 0.903198
vt 0.820529 0.940044
vt 0.0704 0.940044
f 277/277/277 278/278/278 279/279/279
v -0.196331 0.063457 -0.036973
v -0.300092 0.063457 0.000793
v -0.300092 2.17586 0.000793
vn -0.342021 -0 -0.939692
vn -0.342021 -0 -0.939692
vn -0.342021 -0 -0.939692
vt 0.0704 0.940044
vt 0.0704 0.903198
vt 0.820529 0.903198
f 280/280/280 281/281/281 282/282/282
v -0.300027 2.17586 0.000974
v -0.300092 2.17586 0.000793
v -0.300092 0.063457 0.000793
vn -0.941154 0 0.337978
vn -0.941154 0 0.337978
vn -0.941154 0 0.337978
vt 0.820398 0.94071
vt 0.820398 0.940775
vt 0.070532 0.940775
f 283/283/283 284/284/284 285/285/285
v -0.300092 0.063457 0.000793
v -0.300027 0.063457 0.000973
v -0.300027 2.17586 0.000974
vn -0.940556 -1.60785e-007 0.339639
vn -0.940556 -1.60785e-007 0.339639
vn -0.940556 -1.60785e-007 0.339639
vt 0.070532 0.940775
vt 0.070532 0.94071
vt 0.820398 0.94071
f 286/286/286 287/287/287 288/288/288
v -0.42761 0.063457 -0.036973
v -0.427544 0.063457 -0.036793
v -0.531306 0.063457 0.000973
vn 0 -1 -0
vn 0 -1 -0
vn 0 -1 -0
vt 0.002 0.254937
vt 0.002 0.254871
vt 0.040015 0.254737
f 289/289/289 290/290/290 291/291/291
v -0.531306 0.063457 0.000973
v -0.531371 0.063457 0.000793
v -0.42761 0.063457 -0.036973
vn 0 -1 0
vn 0 -1 0
vn 0 -1 0
vt 0.040015 0.254737
vt 0.040015 0.254803
vt 0.002 0.254937
f 292/292/292 293/293/293 294/294/294
v -0.42761 2.17586 -0.036972
v -0.531371 2.17586 0.000793
v -0.531306 2.17586 0.000974
vn 0 1 0
vn 0 1 0
vn 0 1 0
vt 0.078355 0.182712
vt 0.040365 0.183998
vt 0.040363 0.183932
f 295/295/295 296/296/296 297/297/297
v -0.531306 2.17586 0.000974
v -0.427544 2.17586 -0.036792
v -0.42761 2.17586 -0.036972
vn 0 1 -0
vn 0 1 -0
vn 0 1 -0
vt 0.040363 0.183932
vt 0.078353 0.182646
vt 0.078355 0.182712
f 298/298/298 299/299/299 300/300/300
v -0.427544 2.17586 -0.036792
v -0.531306 2.17586 0.000974
v -0.531306 0.063457 0.000973
vn 0.342018 -4.4485e-007 0.939693
vn 0.342018 -4.4485e-007 0.939693
vn 0.342018 -4.4485e-007 0.939693
vt 0.820529 0.002
vt 0.820529 0.038847
vt 0.0704 0.038847
f 301/301/301 302/302/302 303/303/303
v -0.531306 0.063457 0.000973
v -0.427544 0.063457 -0.036793
v -0.427544 2.17586 -0.036792
vn 0.342018 -4.45782e-007 0.939693
vn 0.342018 -4.45782e-007 0.939693
vn 0.342018 -4.45782e-007 0.939693
vt 0.0704 0.038847
vt 0.0704 0.002
vt 0.820529 0.002
f 304/304/304 305/305/305 306/306/306
v -0.42761 2.17586 -0.036972
v -0.427544 2.17586 -0.036792
v -0.427544 0.063457 -0.036793
vn 0.938857 1.63336e-007 -0.344307
vn 0.938857 1.63336e-007 -0.344307
vn 0.938857 1.63336e-007 -0.344307
vt 0.820728 0.941087
vt 0.820728 0.941151
vt 0.070201 0.941151
f 307/307/307 308/308/308 309/309/309
v -0.427544 0.063457 -0.036793
v -0.42761 0.063457 -0.036973
v -0.42761 2.17586 -0.036972
vn 0.938855 1.62732e-007 -0.344313
vn 0.938855 1.62732e-007 -0.344313
vn 0.938855 1.62732e-007 -0.344313
vt 0.070201 0.941151
vt 0.070201 0.941087
vt 0.820728 0.941087
f 310/310/310 311/311/311 312/312/312
v -0.531371 2.17586 0.000793
v -0.42761 2.17586 -0.036972
v -0.42761 0.063457 -0.036973
vn -0.342013 4.44126e-007 -0.939695
vn -0.342013 4.44126e-007 -0.939695
vn -0.342013 4.44126e-007 -0.939695
vt 0.820529 0.614816
vt 0.820529 0.651663
vt 0.0704 0.651663
f 313/313/313 314/314/314 315/315/315
v -0.42761 0.063457 -0.036973
v -0.531371 0.063457 0.000793
v -0.531371 2.17586 0.000793
vn -0.342021 -0 -0.939692
vn -0.342021 -0 -0.939692
vn -0.342021 -0 -0.939692
vt 0.0704 0.651663
vt 0.0704 0.614816
vt 0.820529 0.614816
f 316/316/316 317/317/317 318/318/318
v -0.531306 2.17586 0.000974
v -0.531371 2.17586 0.000793
v -0.531371 0.063457 0.000793
vn -0.941203 0 0.33784
vn -0.941203 0 0.33784
vn -0.941203 0 0.33784
vt 0.820398 0.940522
vt 0.820398 0.940586
vt 0.070532 0.940586
f 319/319/319 320/320/320 321/321/321
v -0.531371 0.063457 0.000793
v -0.531306 0.063457 0.000973
v -0.531306 2.17586 0.000974
vn -0.940606 -1.6072e-007 0.339501
vn -0.940606 -1.6072e-007 0.339501
vn -0.940606 -1.6072e-007 0.339501
vt 0.070532 0.940586
vt 0.070532 0.940522
vt 0.820398 0.940522
f 322/322/322 323/323/323 324/324/324
v -0.312747 0.063457 -0.036973
v -0.312681 0.063457 -0.036793
v -0.416443 0.063457 0.000973
vn 0 -1 -0
vn 0 -1 -0
vn 0 -1 -0
vt 0.002002 0.002601
vt 0.002002 0.002534
vt 0.040012 0.0024
f 325/325/325 326/326/326 327/327/327
v -0.416443 0.063457 0.000973
v -0.416508 0.063457 0.000793
v -0.312747 0.063457 -0.036973
vn 0 -1 0
vn 0 -1 0
vn 0 -1 0
vt 0.040012 0.0024
vt 0.040012 0.002466
vt 0.002002 0.002601
f 328/328/328 329/329/329 330/330/330
v -0.312747 2.17586 -0.036972
v -0.416508 2.17586 0.000793
v -0.416443 2.17586 0.000974
vn 0 1 0
vn 0 1 0
vn 0 1 0
vt 0.078353 0.254808
vt 0.040367 0.256094
vt 0.040364 0.256028
f 331/331/331 332/332/332 333/333/333
v -0.416443 2.17586 0.000974
v -0.312681 2.17586 -0.036792
v -0.312747 2.17586 -0.036972
vn 0 1 -0
vn 0 1 -0
vn 0 1 -0
vt 0.040364 0.256028
vt 0.078351 0.254742
vt 0.078353 0.254808
f 334/334/334 335/335/335 336/336/336
v -0.312681 2.17586 -0.036792
v -0.416443 2.17586 0.000974
v -0.416443 0.063457 0.000973
vn 0.342018 -4.4485e-007 0.939693
vn 0.342018 -4.4485e-007 0.939693
vn 0.342018 -4.4485e-007 0.939693
vt 0.820529 0.326432
vt 0.820529 0.363279
vt 0.0704 0.363279
f 337/337/337 338/338/338 339/339/339
v -0.416443 0.063457 0.000973
v -0.312681 0.063457 -0.036793
v -0.312681 2.17586 -0.036792
vn 0.342018 -4.45782e-007 0.939693
vn 0.342018 -4.45782e-007 0.939693
vn 0.342018 -4.45782e-007 0.939693
vt 0.0704 0.363279
vt 0.0704 0.326432
vt 0.820529 0.326432
f 340/340/340 341/341/341 342/342/342
v -0.312747 2.17586 -0.036972
v -0.312681 2.17586 -0.036792
v -0.312681 0.063457 -0.036793
vn 0.938857 1.63336e-007 -0.344307
vn 0.938857 1.63336e-007 -0.344307
vn 0.938857 1.63336e-007 -0.344307
vt 0.820728 0.940146
vt 0.820728 0.94021
vt 0.070201 0.94021
f 343/343/343 344/344/344 345/345/345
v -0.312681 0.063457 -0.036793
v -0.312747 0.063457 -0.036973
v -0.312747 2.17586 -0.036972
vn 0.938855 1.62732e-007 -0.344313
vn 0.938855 1.62732e-007 -0.344313
vn 0.938855 1.62732e-007 -0.344313
vt 0.070201 0.94021
vt 0.070201 0.940146
vt 0.820728 0.940146
f 346/346/346 347/347/347 348/348/348
v -0.416508 2.17586 0.000793
v -0.312747 2.17586 -0.036972
v -0.312747 0.063457 -0.036973
vn -0.342013 4.44126e-007 -0.939695
vn -0.342013 4.44126e-007 -0.939695
vn -0.342013 4.44126e-007 -0.939695
vt 0.820529 0.759007
vt 0.820529 0.795853
vt 0.0704 0.795853
f 349/349/349 350/350/350 351/351/351
v -0.312747 0.063457 -0.036973
v -0.416508 0.063457 0.000793
v -0.416508 2.17586 0.000793
vn -0.342021 -0 -0.939692
vn -0.342021 -0 -0.939692
vn -0.342021 -0 -0.939692
vt 0.0704 0.795853
vt 0.0704 0.759007
vt 0.820529 0.759007
f 352/352/352 353/353/353 354/354/354
v -0.416443 2.17586 0.000974
v -0.416508 2.17586 0.000793
v -0.416508 0.063457 0.000793
vn -0.941154 0 0.337978
vn -0.941154 0 0.337978
vn -0.941154 0 0.337978
vt 0.82041 0.939707
vt 0.82041 0.939771
vt 0.07052 0.939771
f 355/355/355 356/356/356 357/357/357
v -0.416508 0.063457 0.000793
v -0.416443 0.063457 0.000973
v -0.416443 2.17586 0.000974
vn -0.940556 -1.60785e-007 0.339639
vn -0.940556 -1.60785e-007 0.339639
vn -0.940556 -1.60785e-007 0.339639
vt 0.07052 0.939771
vt 0.07052 0.939707
vt 0.82041 0.939707
f 358/358/358 359/359/359 360/360/360
v -0.079451 0.063457 -0.036973
v -0.079386 0.063457 -0.036793
v -0.183148 0.063457 0.000973
vn 0 -1 -0
vn 0 -1 -0
vn 0 -1 -0
vt 0.002001 0.435177
vt 0.002001 0.435111
vt 0.040014 0.434977
f 361/361/361 362/362/362 363/363/363
v -0.183148 0.063457 0.000973
v -0.183213 0.063457 0.000793
v -0.079451 0.063457 -0.036973
vn 0 -1 0
vn 0 -1 0
vn 0 -1 0
vt 0.040014 0.434977
vt 0.040014 0.435043
vt 0.002001 0.435177
f 364/364/364 365/365/365 366/366/366
v -0.079451 2.17586 -0.036972
v -0.183213 2.17586 0.000793
v -0.183148 2.17586 0.000974
vn 0 1 0
vn 0 1 0
vn 0 1 0
vt 0.078355 0.074568
vt 0.040365 0.075853
vt 0.040363 0.075787
f 367/367/367 368/368/368 369/369/369
v -0.183148 2.17586 0.000974
v -0.079386 2.17586 -0.036792
v -0.079451 2.17586 -0.036972
vn 0 1 -0
vn 0 1 -0
vn 0 1 -0
vt 0.040363 0.075787
vt 0.078352 0.074502
vt 0.078355 0.074568
f 370/370/370 371/371/371 372/372/372
v -0.079386 2.17586 -0.036792
v -0.183148 2.17586 0.000974
v -0.183148 0.063457 0.000973
vn 0.342018 -4.4485e-007 0.939693
vn 0.342018 -4.4485e-007 0.939693
vn 0.342018 -4.4485e-007 0.939693
vt 0.820529 0.506673
vt 0.820529 0.543519
vt 0.0704 0.543519
f 373/373/373 374/374/374 375/375/375
v -0.183148 0.063457 0.000973
v -0.079386 0.063457 -0.036793
v -0.079386 2.17586 -0.036792
vn 0.342018 -4.45782e-007 0.939693
vn 0.342018 -4.45782e-007 0.939693
vn 0.342018 -4.45782e-007 0.939693
vt 0.0704 0.543519
vt 0.0704 0.506673
vt 0.820529 0.506673
f 376/376/376 377/377/377 378/378/378
v -0.079451 2.17586 -0.036972
v -0.079386 2.17586 -0.036792
v -0.079386 0.063457 -0.036793
vn 0.940557 1.6112e-007 -0.339635
vn 0.940557 1.6112e-007 -0.339635
vn 0.940557 1.6112e-007 -0.339635
vt 0.820404 0.940585
vt 0.820404 0.940649
vt 0.070526 0.940649
f 379/379/379 380/380/380 381/381/381
v -0.079386 0.063457 -0.036793
v -0.079451 0.063457 -0.036973
v -0.079451 2.17586 -0.036972
vn 0.940555 1.60524e-007 -0.339642
vn 0.940555 1.60524e-007 -0.339642
vn 0.940555 1.60524e-007 -0.339642
vt 0.070526 0.940649
vt 0.070526 0.940585
vt 0.820404 0.940585
f 382/382/382 383/383/383 384/384/384
v -0.183213 2.17586 0.000793
v -0.079451 2.17586 -0.036972
v -0.079451 0.063457 -0.036973
vn -0.34201 4.44126e-007 -0.939696
vn -0.34201 4.44126e-007 -0.939696
vn -0.34201 4.44126e-007 -0.939696
vt 0.820529 0.470625
vt 0.820529 0.507471
vt 0.0704 0.507471
f 385/385/385 386/386/386 387/387/387
v -0.079451 0.063457 -0.036973
v -0.183213 0.063457 0.000793
v -0.183213 2.17586 0.000793
vn -0.342018 -0 -0.939693
vn -0.342018 -0 -0.939693
vn -0.342018 -0 -0.939693
vt 0.0704 0.507471
vt 0.0704 0.470625
vt 0.820529 0.470625
f 388/388/388 389/389/389 390/390/390
v -0.183148 2.17586 0.000974
v -0.183213 2.17586 0.000793
v -0.183213 0.063457 0.000793
vn -0.941154 0 0.337978
vn -0.941154 0 0.337978
vn -0.941154 0 0.337978
vt 0.820404 0.941212
vt 0.820404 0.941276
vt 0.070526 0.941276
f 391/391/391 392/392/392 393/393/393
v -0.183213 0.063457 0.000793
v -0.183148 0.063457 0.000973
v -0.183148 2.17586 0.000974
vn -0.940556 -1.60785e-007 0.339639
vn -0.940556 -1.60785e-007 0.339639
vn -0.940556 -1.60785e-007 0.339639
vt 0.070526 0.941276
vt 0.070526 0.941212
vt 0.820404 0.941212
f 394/394/394 395/395/395 396/396/396
v 0.151327 0.063457 -0.036973
v 0.151393 0.063457 -0.036793
v 0.047631 0.063457 0.000973
vn 0 -1 -0
vn 0 -1 -0
vn 0 -1 -0
vt 0.002003 0.110745
vt 0.002003 0.110679
vt 0.040012 0.110544
f 397/397/397 398/398/398 399/399/399
v 0.047631 0.063457 0.000973
v 0.047566 0.063457 0.000793
v 0.151327 0.063457 -0.036973
vn 0 -1 0
vn 0 -1 0
vn 0 -1 0
vt 0.040012 0.110544
vt 0.040012 0.11061
vt 0.002003 0.110745
f 400/400/400 401/401/401 402/402/402
v 0.151327 2.17586 -0.036972
v 0.047566 2.17586 0.000793
v 0.047631 2.17586 0.000974
vn 0 1 0
vn 0 1 0
vn 0 1 0
vt 0.078353 0.362952
vt 0.040367 0.364238
vt 0.040364 0.364172
f 403/403/403 404/404/404 405/405/405
v 0.047631 2.17586 0.000974
v 0.151393 2.17586 -0.036792
v 0.151327 2.17586 -0.036972
vn 0 1 -0
vn 0 1 -0
vn 0 1 -0
vt 0.040364 0.364172
vt 0.078351 0.362886
vt 0.078353 0.362952
f 406/406/406 407/407/407 408/408/408
v 0.151393 2.17586 -0.036792
v 0.047631 2.17586 0.000974
v 0.047631 0.063457 0.000973
vn 0.342018 -4.4485e-007 0.939693
vn 0.342018 -4.4485e-007 0.939693
vn 0.342018 -4.4485e-007 0.939693
vt 0.820529 0.398529
vt 0.820529 0.435375
vt 0.0704 0.435375
f 409/409/409 410/410/410 411/411/411
v 0.047631 0.063457 0.000973
v 0.151393 0.063457 -0.036793
v 0.151393 2.17586 -0.036792
vn 0.342018 -4.45782e-007 0.939693
vn 0.342018 -4.45782e-007 0.939693
vn 0.342018 -4.45782e-007 0.939693
vt 0.0704 0.435375
vt 0.0704 0.398529
vt 0.820529 0.398529
f 412/412/412 413/413/413 414/414/414
v 0.151327 2.17586 -0.036972
v 0.151393 2.17586 -0.036792
v 0.151393 0.063457 -0.036793
vn 0.938882 1.63303e-007 -0.344238
vn 0.938882 1.63303e-007 -0.344238
vn 0.938882 1.63303e-007 -0.344238
vt 0.820725 0.93977
vt 0.820725 0.939834
vt 0.070204 0.939834
f 415/415/415 416/416/416 417/417/417
v 0.151393 0.063457 -0.036793
v 0.151327 0.063457 -0.036973
v 0.151327 2.17586 -0.036972
vn 0.93888 1.62699e-007 -0.344244
vn 0.93888 1.62699e-007 -0.344244
vn 0.93888 1.62699e-007 -0.344244
vt 0.070204 0.939834
vt 0.070204 0.93977
vt 0.820725 0.93977
f 418/418/418 419/419/419 420/420/420
v 0.047566 2.17586 0.000793
v 0.151327 2.17586 -0.036972
v 0.151327 0.063457 -0.036973
vn -0.342013 4.44126e-007 -0.939695
vn -0.342013 4.44126e-007 -0.939695
vn -0.342013 4.44126e-007 -0.939695
vt 0.820529 0.831103
vt 0.820529 0.867949
vt 0.0704 0.867949
f 421/421/421 422/422/422 423/423/423
v 0.151327 0.063457 -0.036973
v 0.047566 0.063457 0.000793
v 0.047566 2.17586 0.000793
vn -0.342021 -0 -0.939692
vn -0.342021 -0 -0.939692
vn -0.342021 -0 -0.939692
vt 0.0704 0.867949
vt 0.0704 0.831103
vt 0.820529 0.831103
f 424/424/424 425/425/425 426/426/426
v 0.047631 2.17586 0.000974
v 0.047566 2.17586 0.000793
v 0.047566 0.063457 0.000793
vn -0.941154 0 0.337978
vn -0.941154 0 0.337978
vn -0.941154 0 0.337978
vt 0.820405 0.940397
vt 0.820405 0.940461
vt 0.070524 0.940461
f 427/427/427 428/428/428 429/429/429
v 0.047566 0.063457 0.000793
v 0.047631 0.063457 0.000973
v 0.047631 2.17586 0.000974
vn -0.940556 -1.60785e-007 0.339639
vn -0.940556 -1.60785e-007 0.339639
vn -0.940556 -1.60785e-007 0.339639
vt 0.070524 0.940461
vt 0.070524 0.940397
vt 0.820405 0.940397
f 430/430/430 431/431/431 432/432/432
v -0.540666 0.063457 -0.036973
v -0.5406 0.063457 -0.036793
v -0.644362 0.063457 0.000973
vn 0 -1 -0
vn 0 -1 -0
vn 0 -1 -0
vt 0.002002 0.363081
vt 0.002002 0.363015
vt 0.040012 0.362881
f 433/433/433 434/434/434 435/435/435
v -0.644362 0.063457 0.000973
v -0.644428 0.063457 0.000793
v -0.540666 0.063457 -0.036973
vn 0 -1 0
vn 0 -1 0
vn 0 -1 0
vt 0.040012 0.362881
vt 0.040012 0.362947
vt 0.002002 0.363081
f 436/436/436 437/437/437 438/438/438
v -0.540666 2.17586 -0.036972
v -0.644428 2.17586 0.000793
v -0.644362 2.17586 0.000974
vn 0 1 0
vn 0 1 0
vn 0 1 0
vt 0.078354 0.03852
vt 0.040365 0.039805
vt 0.040363 0.039739
f 439/439/439 440/440/440 441/441/441
v -0.644362 2.17586 0.000974
v -0.5406 2.17586 -0.036792
v -0.540666 2.17586 -0.036972
vn 0 1 -0
vn 0 1 -0
vn 0 1 -0
vt 0.040363 0.039739
vt 0.078352 0.038454
vt 0.078354 0.03852
f 442/442/442 443/443/443 444/444/444
v -0.5406 2.17586 -0.036792
v -0.644362 2.17586 0.000974
v -0.644362 0.063457 0.000973
vn 0.342018 -4.4485e-007 0.939693
vn 0.342018 -4.4485e-007 0.939693
vn 0.342018 -4.4485e-007 0.939693
vt 0.820529 0.038048
vt 0.820529 0.074895
vt 0.0704 0.074895
f 445/445/445 446/446/446 447/447/447
v -0.644362 0.063457 0.000973
v -0.5406 0.063457 -0.036793
v -0.5406 2.17586 -0.036792
vn 0.342018 -4.45782e-007 0.939693
vn 0.342018 -4.45782e-007 0.939693
vn 0.342018 -4.45782e-007 0.939693
vt 0.0704 0.074895
vt 0.0704 0.038048
vt 0.820529 0.038048
f 448/448/448 449/449/449 450/450/450
v -0.540666 2.17586 -0.036972
v -0.5406 2.17586 -0.036792
v -0.5406 0.063457 -0.036793
vn 0.938908 1.63271e-007 -0.34417
vn 0.938908 1.63271e-007 -0.34417
vn 0.938908 1.63271e-007 -0.34417
vt 0.820422 0.940334
vt 0.820422 0.940398
vt 0.070507 0.940398
f 451/451/451 452/452/452 453/453/453
v -0.5406 0.063457 -0.036793
v -0.540666 0.063457 -0.036973
v -0.540666 2.17586 -0.036972
vn 0.938905 1.62667e-007 -0.344176
vn 0.938905 1.62667e-007 -0.344176
vn 0.938905 1.62667e-007 -0.344176
vt 0.070507 0.940398
vt 0.070507 0.940334
vt 0.820422 0.940334
f 454/454/454 455/455/455 456/456/456
v -0.644428 2.17586 0.000793
v -0.540666 2.17586 -0.036972
v -0.540666 0.063457 -0.036973
vn -0.34201 4.44126e-007 -0.939696
vn -0.34201 4.44126e-007 -0.939696
vn -0.34201 4.44126e-007 -0.939696
vt 0.820529 0.542721
vt 0.820529 0.579567
vt 0.070401 0.579567
f 457/457/457 458/458/458 459/459/459
v -0.540666 0.063457 -0.036973
v -0.644428 0.063457 0.000793
v -0.644428 2.17586 0.000793
vn -0.342018 -0 -0.939693
vn -0.342018 -0 -0.939693
vn -0.342018 -0 -0.939693
vt 0.070401 0.579567
vt 0.070401 0.542721
vt 0.820529 0.542721
f 460/460/460 461/461/461 462/462/462
v -0.644362 2.17586 0.000974
v -0.644428 2.17586 0.000793
v -0.644428 0.063457 0.000793
vn -0.93942 0 0.342769
vn -0.93942 0 0.342769
vn -0.93942 0 0.342769
vt 0.820398 0.940271
vt 0.820398 0.940336
vt 0.070532 0.940336
f 463/463/463 464/464/464 465/465/465
v -0.644428 0.063457 0.000793
v -0.644362 0.063457 0.000973
v -0.644362 2.17586 0.000974
vn -0.938806 -1.63061e-007 0.344447
vn -0.938806 -1.63061e-007 0.344447
vn -0.938806 -1.63061e-007 0.344447
vt 0.070532 0.940336
vt 0.070532 0.940271
vt 0.820398 0.940271
f 466/466/466 467/467/467 468/468/468
v 0.501876 0.063457 -0.036973
v 0.501942 0.063457 -0.036793
v 0.39818 0.063457 0.000973
vn 0 -1 -0
vn 0 -1 -0
vn 0 -1 -0
vt 0.002003 0.146793
vt 0.002003 0.146727
vt 0.040012 0.146592
f 469/469/469 470/470/470 471/471/471
v 0.39818 0.063457 0.000973
v 0.398115 0.063457 0.000793
v 0.501876 0.063457 -0.036973
vn 0 -1 0
vn 0 -1 0
vn 0 -1 0
vt 0.040012 0.146592
vt 0.040012 0.146659
vt 0.002003 0.146793
f 472/472/472 473/473/473 474/474/474
v 0.501876 2.17586 -0.036972
v 0.398115 2.17586 0.000793
v 0.39818 2.17586 0.000974
vn 0 1 0
vn 0 1 0
vn 0 1 0
vt 0.078353 0.21876
vt 0.040367 0.220046
vt 0.040364 0.21998
f 475/475/475 476/476/476 477/477/477
v 0.39818 2.17586 0.000974
v 0.501942 2.17586 -0.036792
v 0.501876 2.17586 -0.036972
vn 0 1 -0
vn 0 1 -0
vn 0 1 -0
vt 0.040364 0.21998
vt 0.078351 0.218694
vt 0.078353 0.21876
f 478/478/478 479/479/479 480/480/480
v 0.501942 2.17586 -0.036792
v 0.39818 2.17586 0.000974
v 0.39818 0.063457 0.000973
vn 0.342018 -4.4485e-007 0.939693
vn 0.342018 -4.4485e-007 0.939693
vn 0.342018 -4.4485e-007 0.939693
vt 0.820529 0.218288
vt 0.820529 0.255135
vt 0.0704 0.255135
f 481/481/481 482/482/482 483/483/483
v 0.39818 0.063457 0.000973
v 0.501942 0.063457 -0.036793
v 0.501942 2.17586 -0.036792
vn 0.342018 -4.45782e-007 0.939693
vn 0.342018 -4.45782e-007 0.939693
vn 0.342018 -4.45782e-007 0.939693
vt 0.0704 0.255135
vt 0.0704 0.218288
vt 0.820529 0.218288
f 484/484/484 485/485/485 486/486/486
v 0.501876 2.17586 -0.036972
v 0.501942 2.17586 -0.036792
v 0.501942 0.063457 -0.036793
vn 0.938908 1.63271e-007 -0.34417
vn 0.938908 1.63271e-007 -0.34417
vn 0.938908 1.63271e-007 -0.34417
vt 0.820728 0.940898
vt 0.820728 0.940963
vt 0.070201 0.940963
f 487/487/487 488/488/488 489/489/489
v 0.501942 0.063457 -0.036793
v 0.501876 0.063457 -0.036973
v 0.501876 2.17586 -0.036972
vn 0.938905 1.62667e-007 -0.344176
vn 0.938905 1.62667e-007 -0.344176
vn 0.938905 1.62667e-007 -0.344176
vt 0.070201 0.940963
vt 0.070201 0.940898
vt 0.820728 0.940898
f 490/490/490 491/491/491 492/492/492
v 0.398115 2.17586 0.000793
v 0.501876 2.17586 -0.036972
v 0.501876 0.063457 -0.036973
vn -0.342013 4.44126e-007 -0.939695
vn -0.342013 4.44126e-007 -0.939695
vn -0.342013 4.44126e-007 -0.939695
vt 0.820529 0.72296
vt 0.820529 0.759806
vt 0.0704 0.759806
f 493/493/493 494/494/494 495/495/495
v 0.501876 0.063457 -0.036973
v 0.398115 0.063457 0.000793
v 0.398115 2.17586 0.000793
vn -0.342021 -0 -0.939692
vn -0.342021 -0 -0.939692
vn -0.342021 -0 -0.939692
vt 0.0704 0.759806
vt 0.0704 0.72296
vt 0.820529 0.72296
f 496/496/496 497/497/497 498/498/498
v 0.39818 2.17586 0.000974
v 0.398115 2.17586 0.000793
v 0.398115 0.063457 0.000793
vn -0.941154 0 0.337978
vn -0.941154 0 0.337978
vn -0.941154 0 0.337978
vt 0.820404 0.939832
vt 0.820404 0.939897
vt 0.070526 0.939897
f 499/499/499 500/500/500 501/501/501
v 0.398115 0.063457 0.000793
v 0.39818 0.063457 0.000973
v 0.39818 2.17586 0.000974
vn -0.940556 -1.60785e-007 0.339639
vn -0.940556 -1.60785e-007 0.339639
vn -0.940556 -1.60785e-007 0.339639
vt 0.070526 0.939897
vt 0.070526 0.939832
vt 0.820404 0.939832
f 502/502/502 503/503/503 504/504/504
v 0.618896 0.063457 -0.036973
v 0.618962 0.063457 -0.036793
v 0.5152 0.063457 0.000973
vn 0 -1 -0
vn 0 -1 -0
vn 0 -1 -0
vt 0.002001 0.290985
vt 0.002 0.290919
vt 0.040014 0.290785
f 505/505/505 506/506/506 507/507/507
v 0.5152 0.063457 0.000973
v 0.515135 0.063457 0.000793
v 0.618896 0.063457 -0.036973
vn 0 -1 0
vn 0 -1 0
vn 0 -1 0
vt 0.040014 0.290785
vt 0.040014 0.290851
vt 0.002001 0.290985
f 508/508/508 509/509/509 510/510/510
v 0.618896 2.17586 -0.036972
v 0.515135 2.17586 0.000793
v 0.5152 2.17586 0.000974
vn 0 1 0
vn 0 1 0
vn 0 1 0
vt 0.078351 0.435048
vt 0.040369 0.436334
vt 0.040367 0.436268
f 511/511/511 512/512/512 513/513/513
v 0.5152 2.17586 0.000974
v 0.618962 2.17586 -0.036792
v 0.618896 2.17586 -0.036972
vn 0 1 -0
vn 0 1 -0
vn 0 1 -0
vt 0.040367 0.436268
vt 0.078349 0.434982
vt 0.078351 0.435048
f 514/514/514 515/515/515 516/516/516
v 0.618962 2.17586 -0.036792
v 0.5152 2.17586 0.000974
v 0.5152 0.063457 0.000973
vn 0.342018 -4.4485e-007 0.939693
vn 0.342018 -4.4485e-007 0.939693
vn 0.342018 -4.4485e-007 0.939693
vt 0.820529 0.290384
vt 0.820529 0.327231
vt 0.0704 0.327231
f 517/517/517 518/518/518 519/519/519
v 0.5152 0.063457 0.000973
v 0.618962 0.063457 -0.036793
v 0.618962 2.17586 -0.036792
vn 0.342018 -4.45782e-007 0.939693
vn 0.342018 -4.45782e-007 0.939693
vn 0.342018 -4.45782e-007 0.939693
vt 0.0704 0.327231
vt 0.0704 0.290384
vt 0.820529 0.290384
f 520/520/520 521/521/521 522/522/522
v 0.618896 2.17586 -0.036972
v 0.618962 2.17586 -0.036792
v 0.618962 0.063457 -0.036793
vn 0.938908 1.63271e-007 -0.34417
vn 0.938908 1.63271e-007 -0.34417
vn 0.938908 1.63271e-007 -0.34417
vt 0.820716 0.940021
vt 0.820716 0.940085
vt 0.070214 0.940085
f 523/523/523 524/524/524 525/525/525
v 0.618962 0.063457 -0.036793
v 0.618896 0.063457 -0.036973
v 0.618896 2.17586 -0.036972
vn 0.938905 1.62667e-007 -0.344176
vn 0.938905 1.62667e-007 -0.344176
vn 0.938905 1.62667e-007 -0.344176
vt 0.070214 0.940085
vt 0.070214 0.940021
vt 0.820716 0.940021
f 526/526/526 527/527/527 528/528/528
v 0.515135 2.17586 0.000793
v 0.618896 2.17586 -0.036972
v 0.618896 0.063457 -0.036973
vn -0.342013 4.44126e-007 -0.939695
vn -0.342013 4.44126e-007 -0.939695
vn -0.342013 4.44126e-007 -0.939695
vt 0.820529 0.795055
vt 0.820529 0.831901
vt 0.0704 0.831901
f 529/529/529 530/530/530 531/531/531
v 0.618896 0.063457 -0.036973
v 0.515135 0.063457 0.000793
v 0.515135 2.17586 0.000793
vn -0.342021 -0 -0.939692
vn -0.342021 -0 -0.939692
vn -0.342021 -0 -0.939692
vt 0.0704 0.831901
vt 0.0704 0.795055
vt 0.820529 0.795055
f 532/532/532 533/533/533 534/534/534
v 0.5152 2.17586 0.000974
v 0.515135 2.17586 0.000793
v 0.515135 0.063457 0.000793
vn -0.941105 0 0.338115
vn -0.941105 0 0.338115
vn -0.941105 0 0.338115
vt 0.820398 0.939895
vt 0.820398 0.939959
vt 0.070532 0.939959
f 535/535/535 536/536/536 537/537/537
v 0.515135 0.063457 0.000793
v 0.5152 0.063457 0.000973
v 0.5152 2.17586 0.000974
vn -0.940506 -1.6085e-007 0.339777
vn -0.940506 -1.6085e-007 0.339777
vn -0.940506 -1.6085e-007 0.339777
vt 0.070532 0.939959
vt 0.070532 0.939895
vt 0.820398 0.939895
f 538/538/538 539/539/539 540/540/540
v 0.796953 0.766216 0.00122
v 0.796953 0.766216 0.006021
v 0.820958 0.766216 0.006021
vn 0 1 0
vn 0 1 0
vn 0 1 0
vt 0.03114 0.463345
vt 0.029487 0.463345
vt 0.029487 0.455082
f 541/541/541 542/542/542 543/543/543
v 0.820958 0.766216 0.006021
v 0.820958 0.766216 0.00122
v 0.796953 0.766216 0.00122
vn 0 1 0
vn 0 1 0
vn 0 1 0
vt 0.029487 0.455082
vt 0.03114 0.455082
vt 0.03114 0.463345
f 544/544/544 545/545/545 546/546/546
v 0.820958 0.716462 0.00122
v 0.820958 0.716462 0.006021
v 0.817237 0.711334 0.006021
vn 0.809372 -0.587296 0
vn 0.809372 -0.587296 0
vn 0.809372 -0.587296 0
vt 0.034484 0.446085
vt 0.032814 0.446085
vt 0.032814 0.4443
f 547/547/547 548/548/548 549/549/549
v 0.817237 0.711334 0.006021
v 0.817239 0.711334 0.00122
v 0.820958 0.716462 0.00122
vn 0.809519 -0.587093 0.000331657
vn 0.809519 -0.587093 0.000331657
vn 0.809519 -0.587093 0.000331657
vt 0.032814 0.4443
vt 0.034484 0.4443
vt 0.034484 0.446085
f 550/550/550 551/551/551 552/552/552
v 0.796953 0.716462 0.006021
v 0.800248 0.711335 0.006021
v 0.820958 0.766216 0.006021
vn 0 0 1
vn 0 0 1
vn 0 0 1
vt 0.042861 0.446164
vt 0.043995 0.4444
vt 0.051124 0.463291
f 553/553/553 554/554/554 555/555/555
v 0.820958 0.766216 0.006021
v 0.796953 0.766216 0.006021
v 0.796953 0.716462 0.006021
vn 0 0 1
vn 0 0 1
vn 0 0 1
vt 0.051124 0.463291
vt 0.042861 0.463291
vt 0.042861 0.446164
f 556/556/556 557/557/557 558/558/558
v 0.800248 0.711335 0.006021
v 0.805008 0.70905 0.006021
v 0.809091 0.708605 0.006021
vn 0 0 1
vn 0 0 1
vn 0 0 1
vt 0.043995 0.4444
vt 0.045633 0.443613
vt 0.047039 0.44346
f 559/559/559 560/560/560 561/561/561
v 0.809091 0.708605 0.006021
v 0.820958 0.766216 0.006021
v 0.800248 0.711335 0.006021
vn -0 0 1
vn -0 0 1
vn -0 0 1
vt 0.047039 0.44346
vt 0.051124 0.463291
vt 0.043995 0.4444
f 562/562/562 563/563/563 564/564/564
v 0.809091 0.708605 0.006021
v 0.813671 0.709048 0.006021
v 0.817237 0.711334 0.006021
vn 0 0 1
vn 0 0 1
vn 0 0 1
vt 0.047039 0.44346
vt 0.048615 0.443612
vt 0.049843 0.444399
f 565/565/565 566/566/566 567/567/567
v 0.817237 0.711334 0.006021
v 0.820958 0.766216 0.006021
v 0.809091 0.708605 0.006021
vn -0 0 1
vn -0 0 1
vn -0 0 1
vt 0.049843 0.444399
vt 0.051124 0.463291
vt 0.047039 0.44346
f 568/568/568 569/569/569 570/570/570
v 0.820958 0.766216 0.006021
v 0.817237 0.711334 0.006021
v 0.820958 0.716462 0.006021
vn 0 -0 1
vn 0 -0 1
vn 0 -0 1
vt 0.051124 0.463291
vt 0.049843 0.444399
vt 0.051124 0.446164
f 571/571/571 572/572/572 573/573/573
v 0.796953 0.766216 0.00122
v 0.796953 0.716462 0.00122
v 0.796953 0.716462 0.006021
vn -1 0 0
vn -1 0 0
vn -1 0 0
vt 0.031148 0.463379
vt 0.031148 0.446101
vt 0.032815 0.446101
f 574/574/574 575/575/575 576/576/576
v 0.796953 0.716462 0.006021
v 0.796953 0.766216 0.006021
v 0.796953 0.766216 0.00122
vn -1 0 0
vn -1 0 0
vn -1 0 0
vt 0.032815 0.446101
vt 0.032815 0.463379
vt 0.031148 0.463379
f 577/577/577 578/578/578 579/579/579
v 0.820958 0.716462 0.00122
v 0.817239 0.711334 0.00122
v 0.796953 0.766216 0.00122
vn 0 0 -1
vn 0 0 -1
vn 0 0 -1
vt 0.034521 0.446164
vt 0.035801 0.444399
vt 0.042784 0.463291
f 580/580/580 581/581/581 582/582/582
v 0.796953 0.766216 0.00122
v 0.820958 0.766216 0.00122
v 0.820958 0.716462 0.00122
vn 0 0 -1
vn 0 0 -1
vn 0 0 -1
vt 0.042784 0.463291
vt 0.034521 0.463291
vt 0.034521 0.446164
f 583/583/583 584/584/584 585/585/585
v 0.809093 0.708605 0.00122
v 0.796953 0.766216 0.00122
v 0.817239 0.711334 0.00122
vn -0 -0 -1
vn -0 -0 -1
vn -0 -0 -1
vt 0.038605 0.44346
vt 0.042784 0.463291
vt 0.035801 0.444399
f 586/586/586 587/587/587 588/588/588
v 0.817239 0.711334 0.00122
v 0.813674 0.709048 0.00122
v 0.809093 0.708605 0.00122
vn 0 0 -1
vn 0 0 -1
vn 0 0 -1
vt 0.035801 0.444399
vt 0.037028 0.443612
vt 0.038605 0.44346
f 589/589/589 590/590/590 591/591/591
v 0.796953 0.766216 0.00122
v 0.809093 0.708605 0.00122
v 0.805012 0.70905 0.00122
vn 0 0 -1
vn 0 0 -1
vn 0 0 -1
vt 0.042784 0.463291
vt 0.038605 0.44346
vt 0.04001 0.443613
f 592/592/592 593/593/593 594/594/594
v 0.805012 0.70905 0.00122
v 0.800249 0.711335 0.00122
v 0.796953 0.766216 0.00122
vn 0 0 -1
vn 0 0 -1
vn 0 0 -1
vt 0.04001 0.443613
vt 0.04165 0.4444
vt 0.042784 0.463291
f 595/595/595 596/596/596 597/597/597
v 0.796953 0.766216 0.00122
v 0.800249 0.711335 0.00122
v 0.796953 0.716462 0.00122
vn 0 0 -1
vn 0 0 -1
vn 0 0 -1
vt 0.042784 0.463291
vt 0.04165 0.4444
vt 0.042784 0.446164
f 598/598/598 599/599/599 600/600/600
v 0.820958 0.716462 0.006021
v 0.820958 0.716462 0.00122
v 0.820958 0.766216 0.00122
vn 1 0 -0
vn 1 0 -0
vn 1 0 -0
vt 0.032814 0.446085
vt 0.034484 0.446085
vt 0.034484 0.463399
f 601/601/601 602/602/602 603/603/603
v 0.820958 0.766216 0.00122
v 0.820958 0.766216 0.006021
v 0.820958 0.716462 0.006021
vn 1 -0 0
vn 1 -0 0
vn 1 -0 0
vt 0.034484 0.463399
vt 0.032814 0.463399
vt 0.032814 0.446085
f 604/604/604 605/605/605 606/606/606
v 0.800248 0.711335 0.006021
v 0.796953 0.716462 0.006021
v 0.796953 0.716462 0.00122
vn -0.841248 -0.540649 0
vn -0.841248 -0.540649 0
vn -0.841248 -0.540649 0
vt 0.032815 0.444321
vt 0.032815 0.446101
vt 0.031148 0.446101
f 607/607/607 608/608/608 609/609/609
v 0.796953 0.716462 0.00122
v 0.800249 0.711335 0.00122
v 0.800248 0.711335 0.006021
vn -0.841177 -0.54076 -0.000167092
vn -0.841177 -0.54076 -0.000167092
vn -0.841177 -0.54076 -0.000167092
vt 0.031148 0.446101
vt 0.031148 0.444321
vt 0.032815 0.444321
f 610/610/610 611/611/611 612/612/612
v 0.805012 0.70905 0.00122
v 0.805008 0.70905 0.006021
v 0.800248 0.711335 0.006021
vn -0.432765 -0.901507 -0.000359977
vn -0.432765 -0.901507 -0.000359977
vn -0.432765 -0.901507 -0.000359977
vt 0.029457 0.453423
vt 0.031169 0.453424
vt 0.031169 0.455121
f 613/613/613 614/614/614 615/615/615
v 0.800248 0.711335 0.006021
v 0.800249 0.711335 0.00122
v 0.805012 0.70905 0.00122
vn -0.43254 -0.901615 -8.59201e-005
vn -0.43254 -0.901615 -8.59201e-005
vn -0.43254 -0.901615 -8.59201e-005
vt 0.031169 0.455121
vt 0.029457 0.455121
vt 0.029457 0.453423
f 616/616/616 617/617/617 618/618/618
v 0.809091 0.708605 0.006021
v 0.805008 0.70905 0.006021
v 0.805012 0.70905 0.00122
vn -0.108349 -0.994113 -9.0126e-005
vn -0.108349 -0.994113 -9.0126e-005
vn -0.108349 -0.994113 -9.0126e-005
vt 0.031169 0.451968
vt 0.031169 0.453424
vt 0.029457 0.453423
f 619/619/619 620/620/620 621/621/621
v 0.805012 0.70905 0.00122
v 0.809093 0.708605 0.00122
v 0.809091 0.708605 0.006021
vn -0.108401 -0.994107 -4.57574e-005
vn -0.108401 -0.994107 -4.57574e-005
vn -0.108401 -0.994107 -4.57574e-005
vt 0.029457 0.453423
vt 0.029457 0.451968
vt 0.031169 0.451968
f 622/622/622 623/623/623 624/624/624
v 0.809091 0.708605 0.006021
v 0.809093 0.708605 0.00122
v 0.813674 0.709048 0.00122
vn 0.0962514 -0.995357 4.06288e-005
vn 0.0962514 -0.995357 4.06288e-005
vn 0.0962514 -0.995357 4.06288e-005
vt 0.031169 0.451968
vt 0.029457 0.451968
vt 0.029457 0.450334
f 625/625/625 626/626/626 627/627/627
v 0.813674 0.709048 0.00122
v 0.813671 0.709048 0.006021
v 0.809091 0.708605 0.006021
vn 0.0962712 -0.995355 5.97606e-005
vn 0.0962712 -0.995355 5.97606e-005
vn 0.0962712 -0.995355 5.97606e-005
vt 0.029457 0.450334
vt 0.031169 0.450335
vt 0.031169 0.451968
f 628/628/628 629/629/629 630/630/630
v 0.817237 0.711334 0.006021
v 0.813671 0.709048 0.006021
v 0.813674 0.709048 0.00122
vn 0.539683 -0.841868 0.00033501
vn 0.539683 -0.841868 0.00033501
vn 0.539683 -0.841868 0.00033501
vt 0.031169 0.449064
vt 0.031169 0.450335
vt 0.029457 0.450334
f 631/631/631 632/632/632 633/633/633
v 0.813674 0.709048 0.00122
v 0.817239 0.711334 0.00122
v 0.817237 0.711334 0.006021
vn 0.539792 -0.841798 0.000221151
vn 0.539792 -0.841798 0.000221151
vn 0.539792 -0.841798 0.000221151
vt 0.029457 0.450334
vt 0.029457 0.449063
vt 0.031169 0.449064
f 634/634/634 635/635/635 636/636/636
v 0.804177 0.765109 0.002661
v 0.804177 0.765109 0.004581
v 0.802257 0.765109 0.004581
vn 0 -1 0
vn 0 -1 0
vn 0 -1 0
vt 0.854442 0.997339
vt 0.854442 0.998
vt 0.853781 0.998
f 637/637/637 638/638/638 639/639/639
v 0.802257 0.765109 0.004581
v 0.802257 0.765109 0.002661
v 0.804177 0.765109 0.002661
vn 0 -1 0
vn 0 -1 0
vn 0 -1 0
vt 0.853781 0.998
vt 0.853781 0.997339
vt 0.854442 0.997339
f 640/640/640 641/641/641 642/642/642
v 0.804177 2.20538 0.002661
v 0.802257 2.20538 0.002661
v 0.802257 2.20538 0.004581
vn -0 1 0
vn -0 1 0
vn -0 1 0
vt 0.854442 0.997333
vt 0.853781 0.997333
vt 0.853781 0.996672
f 643/643/643 644/644/644 645/645/645
v 0.802257 2.20538 0.004581
v 0.804177 2.20538 0.004581
v 0.804177 2.20538 0.002661
vn 0 1 -0
vn 0 1 -0
vn 0 1 -0
vt 0.853781 0.996672
vt 0.854442 0.996672
vt 0.854442 0.997333
f 646/646/646 647/647/647 648/648/648
v 0.804177 2.20538 0.004581
v 0.802257 2.20538 0.004581
v 0.802257 0.765109 0.004581
vn 0 0 1
vn 0 0 1
vn 0 0 1
vt 0.855776 0.995715
vt 0.855115 0.995715
vt 0.855115 0.499925
f 649/649/649 650/650/650 651/651/651
v 0.802257 0.765109 0.004581
v 0.804177 0.765109 0.004581
v 0.804177 2.20538 0.004581
vn 0 0 1
vn 0 0 1
vn 0 0 1
vt 0.855115 0.499925
vt 0.855776 0.499925
vt 0.855776 0.995715
f 652/652/652 653/653/653 654/654/654
v 0.804177 2.20538 0.002661
v 0.804177 2.20538 0.004581
v 0.804177 0.765109 0.004581
vn 1 -0 0
vn 1 -0 0
vn 1 -0 0
vt 0.856443 0.995715
vt 0.855782 0.995715
vt 0.855782 0.499925
f 655/655/655 656/656/656 657/657/657
v 0.804177 0.765109 0.004581
v 0.804177 0.765109 0.002661
v 0.804177 2.20538 0.002661
vn 1 0 -0
vn 1 0 -0
vn 1 0 -0
vt 0.855782 0.499925
vt 0.856443 0.499925
vt 0.856443 0.995715
f 658/658/658 659/659/659 660/660/660
v 0.802257 2.20538 0.002661
v 0.804177 2.20538 0.002661
v 0.804177 0.765109 0.002661
vn 0 0 -1
vn 0 0 -1
vn 0 0 -1
vt 0.855109 0.995715
vt 0.854448 0.995715
vt 0.854448 0.499925
f 661/661/661 662/662/662 663/663/663
v 0.804177 0.765109 0.002661
v 0.802257 0.765109 0.002661
v 0.802257 2.20538 0.002661
vn 0 0 -1
vn 0 0 -1
vn 0 0 -1
vt 0.854448 0.499925
vt 0.855109 0.499925
vt 0.855109 0.995715
f 664/664/664 665/665/665 666/666/666
v 0.802257 2.20538 0.004581
v 0.802257 2.20538 0.002661
v 0.802257 0.765109 0.002661
vn -1 0 0
vn -1 0 0
vn -1 0 0
vt 0.85711 0.995715
vt 0.856449 0.995715
vt 0.856449 0.499925
f 667/667/667 668/668/668 669/669/669
v 0.802257 0.765109 0.002661
v 0.802257 0.765109 0.004581
v 0.802257 2.20538 0.004581
vn -1 -0 -0
vn -1 -0 -0
vn -1 -0 -0
vt 0.856449 0.499925
vt 0.85711 0.499925
vt 0.85711 0.995715
f 670/670/670 671/671/671 672/672/672
v -0.59544 2.16562 -0.020213
v -0.590639 2.16562 -0.020213
v -0.590639 2.16562 -0.015412
vn -0 -1 -0
vn -0 -1 -0
vn -0 -1 -0
vt 0.078522 0.041487
vt 0.078522 0.04314
vt 0.076869 0.04314
f 673/673/673 674/674/674 675/675/675
v -0.590639 2.16562 -0.015412
v -0.59544 2.16562 -0.015412
v -0.59544 2.16562 -0.020213
vn 0 -1 0
vn 0 -1 0
vn 0 -1 0
vt 0.076869 0.04314
vt 0.076869 0.041487
vt 0.078522 0.041487
f 676/676/676 677/677/677 678/678/678
v -0.590639 2.19442 -0.015412
v -0.590639 2.19442 -0.020213
v -0.59544 2.19442 -0.020213
vn 0 1 0
vn 0 1 0
vn 0 1 0
vt 0.068515 0.07752
vt 0.066862 0.07752
vt 0.066862 0.075867
f 679/679/679 680/680/680 681/681/681
v -0.59544 2.19442 -0.020213
v -0.59544 2.19442 -0.015412
v -0.590639 2.19442 -0.015412
vn 0 1 0
vn 0 1 0
vn 0 1 0
vt 0.066862 0.075867
vt 0.068515 0.075867
vt 0.068515 0.07752
f 682/682/682 683/683/683 684/684/684
v -0.590639 2.19442 -0.015412
v -0.59544 2.19442 -0.015412
v -0.59544 2.16562 -0.015412
vn 0 0 1
vn 0 0 1
vn 0 0 1
vt 0.078484 0.79713
vt 0.078484 0.798782
vt 0.068568 0.798782
f 685/685/685 686/686/686 687/687/687
v -0.59544 2.16562 -0.015412
v -0.590639 2.16562 -0.015412
v -0.590639 2.19442 -0.015412
vn 0 0 1
vn 0 0 1
vn 0 0 1
vt 0.068568 0.798782
vt 0.068568 0.79713
vt 0.078484 0.79713
f 688/688/688 689/689/689 690/690/690
v -0.590639 2.19442 -0.015412
v -0.590639 2.16562 -0.015412
v -0.590639 2.16562 -0.020213
vn 1 0 0
vn 1 0 0
vn 1 0 0
vt 0.078484 0.005424
vt 0.068568 0.005424
vt 0.068568 0.003771
f 691/691/691 692/692/692 693/693/693
v -0.590639 2.16562 -0.020213
v -0.590639 2.19442 -0.020213
v -0.590639 2.19442 -0.015412
vn 1 0 0
vn 1 0 0
vn 1 0 0
vt 0.068568 0.003771
vt 0.078484 0.003771
vt 0.078484 0.005424
f 694/694/694 695/695/695 696/696/696
v -0.590639 2.19442 -0.020213
v -0.590639 2.16562 -0.020213
v -0.59544 2.16562 -0.020213
vn 0 0 -1
vn 0 0 -1
vn 0 0 -1
vt 0.068476 0.833162
vt 0.058561 0.833162
vt 0.058561 0.83151
f 697/697/697 698/698/698 699/699/699
v -0.59544 2.16562 -0.020213
v -0.59544 2.19442 -0.020213
v -0.590639 2.19442 -0.020213
vn -0 -0 -1
vn -0 -0 -1
vn -0 -0 -1
vt 0.058561 0.83151
vt 0.068476 0.83151
vt 0.068476 0.833162
f 700/700/700 701/701/701 702/702/702
v -0.59544 2.19442 -0.015412
v -0.59544 2.19442 -0.020213
v -0.59544 2.16562 -0.020213
vn -1 0 0
vn -1 0 0
vn -1 0 0
vt 0.068476 0.867557
vt 0.068476 0.86921
vt 0.058561 0.86921
f 703/703/703 704/704/704 705/705/705
v -0.59544 2.16562 -0.020213
v -0.59544 2.16562 -0.015412
v -0.59544 2.19442 -0.015412
vn -1 -0 -0
vn -1 -0 -0
vn -1 -0 -0
vt 0.058561 0.86921
vt 0.058561 0.867557
vt 0.068476 0.867557
f 706/706/706 707/707/707 708/708/708
v -0.48083 2.16562 -0.020213
v -0.476029 2.16562 -0.020213
v -0.476029 2.16562 -0.015412
vn -0 -1 -0
vn -0 -1 -0
vn -0 -1 -0
vt 0.078522 0.185679
vt 0.078522 0.187332
vt 0.076869 0.187332
f 709/709/709 710/710/710 711/711/711
v -0.476029 2.16562 -0.015412
v -0.48083 2.16562 -0.015412
v -0.48083 2.16562 -0.020213
vn 0 -1 0
vn 0 -1 0
vn 0 -1 0
vt 0.076869 0.187332
vt 0.076869 0.185679
vt 0.078522 0.185679
f 712/712/712 713/713/713 714/714/714
v -0.476029 2.19442 -0.015412
v -0.476029 2.19442 -0.020213
v -0.48083 2.19442 -0.020213
vn 0 1 0
vn 0 1 0
vn 0 1 0
vt 0.068515 0.041472
vt 0.066862 0.041472
vt 0.066862 0.039819
f 715/715/715 716/716/716 717/717/717
v -0.48083 2.19442 -0.020213
v -0.48083 2.19442 -0.015412
v -0.476029 2.19442 -0.015412
vn 0 1 0
vn 0 1 0
vn 0 1 0
vt 0.066862 0.039819
vt 0.068515 0.039819
vt 0.068515 0.041472
f 718/718/718 719/719/719 720/720/720
v -0.476029 2.19442 -0.015412
v -0.48083 2.19442 -0.015412
v -0.48083 2.16562 -0.015412
vn 0 0 1
vn 0 0 1
vn 0 0 1
vt 0.068476 0.651271
vt 0.068476 0.652924
vt 0.058561 0.652924
f 721/721/721 722/722/722 723/723/723
v -0.48083 2.16562 -0.015412
v -0.476029 2.16562 -0.015412
v -0.476029 2.19442 -0.015412
vn 0 0 1
vn 0 0 1
vn 0 0 1
vt 0.058561 0.652924
vt 0.058561 0.651271
vt 0.068476 0.651271
f 724/724/724 725/725/725 726/726/726
v -0.476029 2.19442 -0.015412
v -0.476029 2.16562 -0.015412
v -0.476029 2.16562 -0.020213
vn 1 0 0
vn 1 0 0
vn 1 0 0
vt 0.078484 0.726687
vt 0.068568 0.726687
vt 0.068568 0.725034
f 727/727/727 728/728/728 729/729/729
v -0.476029 2.16562 -0.020213
v -0.476029 2.19442 -0.020213
v -0.476029 2.19442 -0.015412
vn 1 0 0
vn 1 0 0
vn 1 0 0
vt 0.068568 0.725034
vt 0.078484 0.725034
vt 0.078484 0.726687
f 730/730/730 731/731/731 732/732/732
v -0.476029 2.19442 -0.020213
v -0.476029 2.16562 -0.020213
v -0.48083 2.16562 -0.020213
vn 0 0 -1
vn 0 0 -1
vn 0 0 -1
vt 0.078484 0.690639
vt 0.068568 0.690639
vt 0.068568 0.688987
f 733/733/733 734/734/734 735/735/735
v -0.48083 2.16562 -0.020213
v -0.48083 2.19442 -0.020213
v -0.476029 2.19442 -0.020213
vn -0 -0 -1
vn -0 -0 -1
vn -0 -0 -1
vt 0.068568 0.688987
vt 0.078484 0.688987
vt 0.078484 0.690639
f 736/736/736 737/737/737 738/738/738
v -0.48083 2.19442 -0.015412
v -0.48083 2.19442 -0.020213
v -0.48083 2.16562 -0.020213
vn -1 0 0
vn -1 0 0
vn -1 0 0
vt 0.068476 0.723366
vt 0.068476 0.725019
vt 0.058561 0.725019
f 739/739/739 740/740/740 741/741/741
v -0.48083 2.16562 -0.020213
v -0.48083 2.16562 -0.015412
v -0.48083 2.19442 -0.015412
vn -1 -0 -0
vn -1 -0 -0
vn -1 -0 -0
vt 0.058561 0.725019
vt 0.058561 0.723366
vt 0.068476 0.723366
f 742/742/742 743/743/743 744/744/744
v -0.368518 2.16562 -0.020213
v -0.363717 2.16562 -0.020213
v -0.363717 2.16562 -0.015412
vn -0 -1 -0
vn -0 -1 -0
vn -0 -1 -0
vt 0.068515 0.364252
vt 0.068515 0.365904
vt 0.066862 0.365904
f 745/745/745 746/746/746 747/747/747
v -0.363717 2.16562 -0.015412
v -0.368518 2.16562 -0.015412
v -0.368518 2.16562 -0.020213
vn 0 -1 0
vn 0 -1 0
vn 0 -1 0
vt 0.066862 0.365904
vt 0.066862 0.364252
vt 0.068515 0.364252
f 748/748/748 749/749/749 750/750/750
v -0.363717 2.19442 -0.015412
v -0.363717 2.19442 -0.020213
v -0.368518 2.19442 -0.020213
vn 0 1 0
vn 0 1 0
vn 0 1 0
vt 0.078522 0.151284
vt 0.076869 0.151284
vt 0.076869 0.149631
f 751/751/751 752/752/752 753/753/753
v -0.368518 2.19442 -0.020213
v -0.368518 2.19442 -0.015412
v -0.363717 2.19442 -0.015412
vn 0 1 0
vn 0 1 0
vn 0 1 0
vt 0.076869 0.149631
vt 0.078522 0.149631
vt 0.078522 0.151284
f 754/754/754 755/755/755 756/756/756
v -0.363717 2.19442 -0.015412
v -0.368518 2.19442 -0.015412
v -0.368518 2.16562 -0.015412
vn 0 0 1
vn 0 0 1
vn 0 0 1
vt 0.068476 0.50708
vt 0.068476 0.508732
vt 0.058561 0.508732
f 757/757/757 758/758/758 759/759/759
v -0.368518 2.16562 -0.015412
v -0.363717 2.16562 -0.015412
v -0.363717 2.19442 -0.015412
vn 0 0 1
vn 0 0 1
vn 0 0 1
vt 0.058561 0.508732
vt 0.058561 0.50708
vt 0.068476 0.50708
f 760/760/760 761/761/761 762/762/762
v -0.363717 2.19442 -0.015412
v -0.363717 2.16562 -0.015412
v -0.363717 2.16562 -0.020213
vn 1 0 0
vn 1 0 0
vn 1 0 0
vt 0.068476 0.616876
vt 0.058561 0.616876
vt 0.058561 0.615223
f 763/763/763 764/764/764 765/765/765
v -0.363717 2.16562 -0.020213
v -0.363717 2.19442 -0.020213
v -0.363717 2.19442 -0.015412
vn 1 0 0
vn 1 0 0
vn 1 0 0
vt 0.058561 0.615223
vt 0.068476 0.615223
vt 0.068476 0.616876
f 766/766/766 767/767/767 768/768/768
v -0.363717 2.19442 -0.020213
v -0.363717 2.16562 -0.020213
v -0.368518 2.16562 -0.020213
vn 0 0 -1
vn 0 0 -1
vn 0 0 -1
vt 0.078484 0.5104
vt 0.068568 0.5104
vt 0.068568 0.508747
f 769/769/769 770/770/770 771/771/771
v -0.368518 2.16562 -0.020213
v -0.368518 2.19442 -0.020213
v -0.363717 2.19442 -0.020213
vn -0 -0 -1
vn -0 -0 -1
vn -0 -0 -1
vt 0.068568 0.508747
vt 0.078484 0.508747
vt 0.078484 0.5104
f 772/772/772 773/773/773 774/774/774
v -0.368518 2.19442 -0.015412
v -0.368518 2.19442 -0.020213
v -0.368518 2.16562 -0.020213
vn -1 0 0
vn -1 0 0
vn -1 0 0
vt 0.078484 0.580844
vt 0.078484 0.582496
vt 0.068568 0.582496
f 775/775/775 776/776/776 777/777/777
v -0.368518 2.16562 -0.020213
v -0.368518 2.16562 -0.015412
v -0.368518 2.19442 -0.015412
vn -1 -0 -0
vn -1 -0 -0
vn -1 -0 -0
vt 0.068568 0.582496
vt 0.068568 0.580844
vt 0.078484 0.580844
f 778/778/778 779/779/779 780/780/780
v -0.252176 2.16562 -0.020213
v -0.247375 2.16562 -0.020213
v -0.247375 2.16562 -0.015412
vn -0 -1 -0
vn -0 -1 -0
vn -0 -1 -0
vt 0.068515 0.256108
vt 0.068515 0.25776
vt 0.066862 0.25776
f 781/781/781 782/782/782 783/783/783
v -0.247375 2.16562 -0.015412
v -0.252176 2.16562 -0.015412
v -0.252176 2.16562 -0.020213
vn 0 -1 0
vn 0 -1 0
vn 0 -1 0
vt 0.066862 0.25776
vt 0.066862 0.256108
vt 0.068515 0.256108
f 784/784/784 785/785/785 786/786/786
v -0.247375 2.19442 -0.015412
v -0.247375 2.19442 -0.020213
v -0.252176 2.19442 -0.020213
vn 0 1 0
vn 0 1 0
vn 0 1 0
vt 0.078522 0.079188
vt 0.076869 0.079188
vt 0.076869 0.077535
f 787/787/787 788/788/788 789/789/789
v -0.252176 2.19442 -0.020213
v -0.252176 2.19442 -0.015412
v -0.247375 2.19442 -0.015412
vn 0 1 0
vn 0 1 0
vn 0 1 0
vt 0.076869 0.077535
vt 0.078522 0.077535
vt 0.078522 0.079188
f 790/790/790 791/791/791 792/792/792
v -0.247375 2.19442 -0.015412
v -0.252176 2.19442 -0.015412
v -0.252176 2.16562 -0.015412
vn 0 0 1
vn 0 0 1
vn 0 0 1
vt 0.078484 0.147963
vt 0.078484 0.149616
vt 0.068568 0.149616
f 793/793/793 794/794/794 795/795/795
v -0.252176 2.16562 -0.015412
v -0.247375 2.16562 -0.015412
v -0.247375 2.19442 -0.015412
vn 0 0 1
vn 0 0 1
vn 0 0 1
vt 0.068568 0.149616
vt 0.068568 0.147963
vt 0.078484 0.147963
f 796/796/796 797/797/797 798/798/798
v -0.247375 2.19442 -0.015412
v -0.247375 2.16562 -0.015412
v -0.247375 2.16562 -0.020213
vn 1 0 0
vn 1 0 0
vn 1 0 0
vt 0.078484 0.401952
vt 0.068568 0.401952
vt 0.068568 0.4003
f 799/799/799 800/800/800 801/801/801
v -0.247375 2.16562 -0.020213
v -0.247375 2.19442 -0.020213
v -0.247375 2.19442 -0.015412
vn 1 0 0
vn 1 0 0
vn 1 0 0
vt 0.068568 0.4003
vt 0.078484 0.4003
vt 0.078484 0.401952
f 802/802/802 803/803/803 804/804/804
v -0.247375 2.19442 -0.020213
v -0.247375 2.16562 -0.020213
v -0.252176 2.16562 -0.020213
vn 0 0 -1
vn 0 0 -1
vn 0 0 -1
vt 0.078484 0.293808
vt 0.068568 0.293808
vt 0.068568 0.292156
f 805/805/805 806/806/806 807/807/807
v -0.252176 2.16562 -0.020213
v -0.252176 2.19442 -0.020213
v -0.247375 2.19442 -0.020213
vn -0 -0 -1
vn -0 -0 -1
vn -0 -0 -1
vt 0.068568 0.292156
vt 0.078484 0.292156
vt 0.078484 0.293808
f 808/808/808 809/809/809 810/810/810
v -0.252176 2.19442 -0.015412
v -0.252176 2.19442 -0.020213
v -0.252176 2.16562 -0.020213
vn -1 0 0
vn -1 0 0
vn -1 0 0
vt 0.078484 0.328204
vt 0.078484 0.329856
vt 0.068568 0.329856
f 811/811/811 812/812/812 813/813/813
v -0.252176 2.16562 -0.020213
v -0.252176 2.16562 -0.015412
v -0.252176 2.19442 -0.015412
vn -1 -0 -0
vn -1 -0 -0
vn -1 -0 -0
vt 0.068568 0.329856
vt 0.068568 0.328204
vt 0.078484 0.328204
f 814/814/814 815/815/815 816/816/816
v -0.134581 2.16562 -0.020213
v -0.12978 2.16562 -0.020213
v -0.12978 2.16562 -0.015412
vn -0 -1 -0
vn -0 -1 -0
vn -0 -1 -0
vt 0.068515 0.292156
vt 0.068515 0.293808
vt 0.066862 0.293808
f 817/817/817 818/818/818 819/819/819
v -0.12978 2.16562 -0.015412
v -0.134581 2.16562 -0.015412
v -0.134581 2.16562 -0.020213
vn 0 -1 0
vn 0 -1 0
vn 0 -1 0
vt 0.066862 0.293808
vt 0.066862 0.292156
vt 0.068515 0.292156
f 820/820/820 821/821/821 822/822/822
v -0.12978 2.19442 -0.015412
v -0.12978 2.19442 -0.020213
v -0.134581 2.19442 -0.020213
vn 0 1 0
vn 0 1 0
vn 0 1 0
vt 0.078522 0.259428
vt 0.076869 0.259428
vt 0.076869 0.257775
f 823/823/823 824/824/824 825/825/825
v -0.134581 2.19442 -0.020213
v -0.134581 2.19442 -0.015412
v -0.12978 2.19442 -0.015412
vn 0 1 0
vn 0 1 0
vn 0 1 0
vt 0.076869 0.257775
vt 0.078522 0.257775
vt 0.078522 0.259428
f 826/826/826 827/827/827 828/828/828
v -0.12978 2.19442 -0.015412
v -0.134581 2.19442 -0.015412
v -0.134581 2.16562 -0.015412
vn 0 0 1
vn 0 0 1
vn 0 0 1
vt 0.068476 0.903605
vt 0.068476 0.905258
vt 0.058561 0.905258
f 829/829/829 830/830/830 831/831/831
v -0.134581 2.16562 -0.015412
v -0.12978 2.16562 -0.015412
v -0.12978 2.19442 -0.015412
vn 0 0 1
vn 0 0 1
vn 0 0 1
vt 0.058561 0.905258
vt 0.058561 0.903605
vt 0.068476 0.903605
f 832/832/832 833/833/833 834/834/834
v -0.12978 2.19442 -0.015412
v -0.12978 2.16562 -0.015412
v -0.12978 2.16562 -0.020213
vn 1 0 0
vn 1 0 0
vn 1 0 0
vt 0.078484 0.07752
vt 0.068568 0.07752
vt 0.068568 0.075867
f 835/835/835 836/836/836 837/837/837
v -0.12978 2.16562 -0.020213
v -0.12978 2.19442 -0.020213
v -0.12978 2.19442 -0.015412
vn 1 0 0
vn 1 0 0
vn 1 0 0
vt 0.068568 0.075867
vt 0.078484 0.075867
vt 0.078484 0.07752
f 838/838/838 839/839/839 840/840/840
v -0.12978 2.19442 -0.020213
v -0.12978 2.16562 -0.020213
v -0.134581 2.16562 -0.020213
vn 0 0 -1
vn 0 0 -1
vn 0 0 -1
vt 0.078484 0.652924
vt 0.068568 0.652924
vt 0.068568 0.651271
f 841/841/841 842/842/842 843/843/843
v -0.134581 2.16562 -0.020213
v -0.134581 2.19442 -0.020213
v -0.12978 2.19442 -0.020213
vn -0 -0 -1
vn -0 -0 -1
vn -0 -0 -1
vt 0.068568 0.651271
vt 0.078484 0.651271
vt 0.078484 0.652924
f 844/844/844 845/845/845 846/846/846
v -0.134581 2.19442 -0.015412
v -0.134581 2.19442 -0.020213
v -0.134581 2.16562 -0.020213
vn -1 0 0
vn -1 0 0
vn -1 0 0
vt 0.078484 0.903605
vt 0.078484 0.905258
vt 0.068568 0.905258
f 847/847/847 848/848/848 849/849/849
v -0.134581 2.16562 -0.020213
v -0.134581 2.16562 -0.015412
v -0.134581 2.19442 -0.015412
vn -1 -0 -0
vn -1 -0 -0
vn -1 -0 -0
vt 0.068568 0.905258
vt 0.068568 0.903605
vt 0.078484 0.903605
f 850/850/850 851/851/851 852/852/852
v -0.018157 2.16562 -0.020213
v -0.013356 2.16562 -0.020213
v -0.013356 2.16562 -0.015412
vn -0 -1 -0
vn -0 -1 -0
vn -0 -1 -0
vt 0.078522 0.401968
vt 0.078522 0.40362
vt 0.076869 0.40362
f 853/853/853 854/854/854 855/855/855
v -0.013356 2.16562 -0.015412
v -0.018157 2.16562 -0.015412
v -0.018157 2.16562 -0.020213
vn 0 -1 0
vn 0 -1 0
vn 0 -1 0
vt 0.076869 0.40362
vt 0.076869 0.401968
vt 0.078522 0.401968
f 856/856/856 857/857/857 858/858/858
v -0.013356 2.19442 -0.015412
v -0.013356 2.19442 -0.020213
v -0.018157 2.19442 -0.020213
vn 0 1 0
vn 0 1 0
vn 0 1 0
vt 0.078522 0.295476
vt 0.076869 0.295476
vt 0.076869 0.293824
f 859/859/859 860/860/860 861/861/861
v -0.018157 2.19442 -0.020213
v -0.018157 2.19442 -0.015412
v -0.013356 2.19442 -0.015412
vn 0 1 0
vn 0 1 0
vn 0 1 0
vt 0.076869 0.293824
vt 0.078522 0.293824
vt 0.078522 0.295476
f 862/862/862 863/863/863 864/864/864
v -0.013356 2.19442 -0.015412
v -0.018157 2.19442 -0.015412
v -0.018157 2.16562 -0.015412
vn 0 0 1
vn 0 0 1
vn 0 0 1
vt 0.078484 0.472699
vt 0.078484 0.474352
vt 0.068568 0.474352
f 865/865/865 866/866/866 867/867/867
v -0.018157 2.16562 -0.015412
v -0.013356 2.16562 -0.015412
v -0.013356 2.19442 -0.015412
vn 0 0 1
vn 0 0 1
vn 0 0 1
vt 0.068568 0.474352
vt 0.068568 0.472699
vt 0.078484 0.472699
f 868/868/868 869/869/869 870/870/870
v -0.013356 2.19442 -0.015412
v -0.013356 2.16562 -0.015412
v -0.013356 2.16562 -0.020213
vn 1 0 0
vn 1 0 0
vn 1 0 0
vt 0.078484 0.113568
vt 0.068568 0.113568
vt 0.068568 0.111915
f 871/871/871 872/872/872 873/873/873
v -0.013356 2.16562 -0.020213
v -0.013356 2.19442 -0.020213
v -0.013356 2.19442 -0.015412
vn 1 0 0
vn 1 0 0
vn 1 0 0
vt 0.068568 0.111915
vt 0.078484 0.111915
vt 0.078484 0.113568
f 874/874/874 875/875/875 876/876/876
v -0.013356 2.19442 -0.020213
v -0.013356 2.16562 -0.020213
v -0.018157 2.16562 -0.020213
vn 0 0 -1
vn 0 0 -1
vn 0 0 -1
vt 0.068476 0.472684
vt 0.058561 0.472684
vt 0.058561 0.471032
f 877/877/877 878/878/878 879/879/879
v -0.018157 2.16562 -0.020213
v -0.018157 2.19442 -0.020213
v -0.013356 2.19442 -0.020213
vn -0 -0 -1
vn -0 -0 -1
vn -0 -0 -1
vt 0.058561 0.471032
vt 0.068476 0.471032
vt 0.068476 0.472684
f 880/880/880 881/881/881 882/882/882
v -0.018157 2.19442 -0.015412
v -0.018157 2.19442 -0.020213
v -0.018157 2.16562 -0.020213
vn -1 0 0
vn -1 0 0
vn -1 0 0
vt 0.078484 0.184011
vt 0.078484 0.185664
vt 0.068568 0.185664
f 883/883/883 884/884/884 885/885/885
v -0.018157 2.16562 -0.020213
v -0.018157 2.16562 -0.015412
v -0.018157 2.19442 -0.015412
vn -1 -0 -0
vn -1 -0 -0
vn -1 -0 -0
vt 0.068568 0.185664
vt 0.068568 0.184011
vt 0.078484 0.184011
f 886/886/886 887/887/887 888/888/888
v 0.094781 2.16562 -0.020213
v 0.099582 2.16562 -0.020213
v 0.099582 2.16562 -0.015412
vn -0 -1 -0
vn -0 -1 -0
vn -0 -1 -0
vt 0.078522 0.36592
vt 0.078522 0.367572
vt 0.076869 0.367572
f 889/889/889 890/890/890 891/891/891
v 0.099582 2.16562 -0.015412
v 0.094781 2.16562 -0.015412
v 0.094781 2.16562 -0.020213
vn 0 -1 0
vn 0 -1 0
vn 0 -1 0
vt 0.076869 0.367572
vt 0.076869 0.36592
vt 0.078522 0.36592
f 892/892/892 893/893/893 894/894/894
v 0.099582 2.19442 -0.015412
v 0.099582 2.19442 -0.020213
v 0.094781 2.19442 -0.020213
vn 0 1 0
vn 0 1 0
vn 0 1 0
vt 0.068515 0.401952
vt 0.066862 0.401952
vt 0.066862 0.4003
f 895/895/895 896/896/896 897/897/897
v 0.094781 2.19442 -0.020213
v 0.094781 2.19442 -0.015412
v 0.099582 2.19442 -0.015412
vn 0 1 0
vn 0 1 0
vn 0 1 0
vt 0.066862 0.4003
vt 0.068515 0.4003
vt 0.068515 0.401952
f 898/898/898 899/899/899 900/900/900
v 0.099582 2.19442 -0.015412
v 0.094781 2.19442 -0.015412
v 0.094781 2.16562 -0.015412
vn 0 0 1
vn 0 0 1
vn 0 0 1
vt 0.078484 0.833177
vt 0.078484 0.83483
vt 0.068568 0.83483
f 901/901/901 902/902/902 903/903/903
v 0.094781 2.16562 -0.015412
v 0.099582 2.16562 -0.015412
v 0.099582 2.19442 -0.015412
vn 0 0 1
vn 0 0 1
vn 0 0 1
vt 0.068568 0.83483
vt 0.068568 0.833177
vt 0.078484 0.833177
f 904/904/904 905/905/905 906/906/906
v 0.099582 2.19442 -0.015412
v 0.099582 2.16562 -0.015412
v 0.099582 2.16562 -0.020213
vn 1 0 0
vn 1 0 0
vn 1 0 0
vt 0.068476 0.797114
vt 0.058561 0.797114
vt 0.058561 0.795462
f 907/907/907 908/908/908 909/909/909
v 0.099582 2.16562 -0.020213
v 0.099582 2.19442 -0.020213
v 0.099582 2.19442 -0.015412
vn 1 0 0
vn 1 0 0
vn 1 0 0
vt 0.058561 0.795462
vt 0.068476 0.795462
vt 0.068476 0.797114
f 910/910/910 911/911/911 912/912/912
v 0.099582 2.19442 -0.020213
v 0.099582 2.16562 -0.020213
v 0.094781 2.16562 -0.020213
vn 0 0 -1
vn 0 0 -1
vn 0 0 -1
vt 0.078484 0.870878
vt 0.068568 0.870878
vt 0.068568 0.869225
f 913/913/913 914/914/914 915/915/915
v 0.094781 2.16562 -0.020213
v 0.094781 2.19442 -0.020213
v 0.099582 2.19442 -0.020213
vn -0 -0 -1
vn -0 -0 -1
vn -0 -0 -1
vt 0.068568 0.869225
vt 0.078484 0.869225
vt 0.078484 0.870878
f 916/916/916 917/917/917 918/918/918
v 0.094781 2.19442 -0.015412
v 0.094781 2.19442 -0.020213
v 0.094781 2.16562 -0.020213
vn -1 0 0
vn -1 0 0
vn -1 0 0
vt 0.078484 0.905273
vt 0.078484 0.906925
vt 0.068568 0.906925
f 919/919/919 920/920/920 921/921/921
v 0.094781 2.16562 -0.020213
v 0.094781 2.16562 -0.015412
v 0.094781 2.19442 -0.015412
vn -1 -0 -0
vn -1 -0 -0
vn -1 -0 -0
vt 0.068568 0.906925
vt 0.068568 0.905273
vt 0.078484 0.905273
f 922/922/922 923/923/923 924/924/924
v 0.210549 2.16562 -0.020213
v 0.21535 2.16562 -0.020213
v 0.21535 2.16562 -0.015412
vn -0 -1 -0
vn -0 -1 -0
vn -0 -1 -0
vt 0.068515 0.147963
vt 0.068515 0.149616
vt 0.066862 0.149616
f 925/925/925 926/926/926 927/927/927
v 0.21535 2.16562 -0.015412
v 0.210549 2.16562 -0.015412
v 0.210549 2.16562 -0.020213
vn 0 -1 0
vn 0 -1 0
vn 0 -1 0
vt 0.066862 0.149616
vt 0.066862 0.147963
vt 0.068515 0.147963
f 928/928/928 929/929/929 930/930/930
v 0.21535 2.19442 -0.015412
v 0.21535 2.19442 -0.020213
v 0.210549 2.19442 -0.020213
vn 0 1 0
vn 0 1 0
vn 0 1 0
vt 0.068515 0.185664
vt 0.066862 0.185664
vt 0.066862 0.184011
f 931/931/931 932/932/932 933/933/933
v 0.210549 2.19442 -0.020213
v 0.210549 2.19442 -0.015412
v 0.21535 2.19442 -0.015412
vn 0 1 0
vn 0 1 0
vn 0 1 0
vt 0.066862 0.184011
vt 0.068515 0.184011
vt 0.068515 0.185664
f 934/934/934 935/935/935 936/936/936
v 0.21535 2.19442 -0.015412
v 0.210549 2.19442 -0.015412
v 0.210549 2.16562 -0.015412
vn 0 0 1
vn 0 0 1
vn 0 0 1
vt 0.078484 0.652939
vt 0.078484 0.654592
vt 0.068568 0.654592
f 937/937/937 938/938/938 939/939/939
v 0.210549 2.16562 -0.015412
v 0.21535 2.16562 -0.015412
v 0.21535 2.19442 -0.015412
vn 0 0 1
vn 0 0 1
vn 0 0 1
vt 0.068568 0.654592
vt 0.068568 0.652939
vt 0.078484 0.652939
f 940/940/940 941/941/941 942/942/942
v 0.21535 2.19442 -0.015412
v 0.21535 2.16562 -0.015412
v 0.21535 2.16562 -0.020213
vn 1 0 0
vn 1 0 0
vn 1 0 0
vt 0.078484 0.762735
vt 0.068568 0.762735
vt 0.068568 0.761082
f 943/943/943 944/944/944 945/945/945
v 0.21535 2.16562 -0.020213
v 0.21535 2.19442 -0.020213
v 0.21535 2.19442 -0.015412
vn 1 0 0
vn 1 0 0
vn 1 0 0
vt 0.068568 0.761082
vt 0.078484 0.761082
vt 0.078484 0.762735
f 946/946/946 947/947/947 948/948/948
v 0.21535 2.19442 -0.020213
v 0.21535 2.16562 -0.020213
v 0.210549 2.16562 -0.020213
vn 0 0 -1
vn 0 0 -1
vn 0 0 -1
vt 0.068476 0.688971
vt 0.058561 0.688971
vt 0.058561 0.687319
f 949/949/949 950/950/950 951/951/951
v 0.210549 2.16562 -0.020213
v 0.210549 2.19442 -0.020213
v 0.21535 2.19442 -0.020213
vn -0 -0 -1
vn -0 -0 -1
vn -0 -0 -1
vt 0.058561 0.687319
vt 0.068476 0.687319
vt 0.068476 0.688971
f 952/952/952 953/953/953 954/954/954
v 0.210549 2.19442 -0.015412
v 0.210549 2.19442 -0.020213
v 0.210549 2.16562 -0.020213
vn -1 0 0
vn -1 0 0
vn -1 0 0
vt 0.068476 0.759414
vt 0.068476 0.761067
vt 0.058561 0.761067
f 955/955/955 956/956/956 957/957/957
v 0.210549 2.16562 -0.020213
v 0.210549 2.16562 -0.015412
v 0.210549 2.19442 -0.015412
vn -1 -0 -0
vn -1 -0 -0
vn -1 -0 -0
vt 0.058561 0.761067
vt 0.058561 0.759414
vt 0.068476 0.759414
f 958/958/958 959/959/959 960/960/960
v 0.563779 2.16562 -0.020125
v 0.56858 2.16562 -0.020125
v 0.56858 2.16562 -0.015324
vn -0 -1 -0
vn -0 -1 -0
vn -0 -1 -0
vt 0.078522 0.005439
vt 0.078522 0.007092
vt 0.076869 0.007092
f 961/961/961 962/962/962 963/963/963
v 0.56858 2.16562 -0.015324
v 0.563779 2.16562 -0.015324
v 0.563779 2.16562 -0.020125
vn 0 -1 0
vn 0 -1 0
vn 0 -1 0
vt 0.076869 0.007092
vt 0.076869 0.005439
vt 0.078522 0.005439
f 964/964/964 965/965/965 966/966/966
v 0.56858 2.19442 -0.015324
v 0.56858 2.19442 -0.020125
v 0.563779 2.19442 -0.020125
vn 0 1 0
vn 0 1 0
vn 0 1 0
vt 0.068515 0.005424
vt 0.066862 0.005424
vt 0.066862 0.003771
f 967/967/967 968/968/968 969/969/969
v 0.563779 2.19442 -0.020125
v 0.563779 2.19442 -0.015324
v 0.56858 2.19442 -0.015324
vn 0 1 0
vn 0 1 0
vn 0 1 0
vt 0.066862 0.003771
vt 0.068515 0.003771
vt 0.068515 0.005424
f 970/970/970 971/971/971 972/972/972
v 0.56858 2.19442 -0.015324
v 0.563779 2.19442 -0.015324
v 0.563779 2.16562 -0.015324
vn 0 0 1
vn 0 0 1
vn 0 0 1
vt 0.068476 0.543128
vt 0.068476 0.54478
vt 0.058561 0.54478
f 973/973/973 974/974/974 975/975/975
v 0.563779 2.16562 -0.015324
v 0.56858 2.16562 -0.015324
v 0.56858 2.19442 -0.015324
vn 0 0 1
vn 0 0 1
vn 0 0 1
vt 0.058561 0.54478
vt 0.058561 0.543128
vt 0.068476 0.543128
f 976/976/976 977/977/977 978/978/978
v 0.56858 2.19442 -0.015324
v 0.56858 2.16562 -0.015324
v 0.56858 2.16562 -0.020125
vn 1 0 0
vn 1 0 0
vn 1 0 0
vt 0.078484 0.618544
vt 0.068568 0.618544
vt 0.068568 0.616891
f 979/979/979 980/980/980 981/981/981
v 0.56858 2.16562 -0.020125
v 0.56858 2.19442 -0.020125
v 0.56858 2.19442 -0.015324
vn 1 0 0
vn 1 0 0
vn 1 0 0
vt 0.068568 0.616891
vt 0.078484 0.616891
vt 0.078484 0.618544
f 982/982/982 983/983/983 984/984/984
v 0.56858 2.19442 -0.020125
v 0.56858 2.16562 -0.020125
v 0.563779 2.16562 -0.020125
vn 0 0 -1
vn 0 0 -1
vn 0 0 -1
vt 0.078484 0.546448
vt 0.068568 0.546448
vt 0.068568 0.544796
f 985/985/985 986/986/986 987/987/987
v 0.563779 2.16562 -0.020125
v 0.563779 2.19442 -0.020125
v 0.56858 2.19442 -0.020125
vn -0 -0 -1
vn -0 -0 -1
vn -0 -0 -1
vt 0.068568 0.544796
vt 0.078484 0.544796
vt 0.078484 0.546448
f 988/988/988 989/989/989 990/990/990
v 0.563779 2.19442 -0.015324
v 0.563779 2.19442 -0.020125
v 0.563779 2.16562 -0.020125
vn -1 0 0
vn -1 0 0
vn -1 0 0
vt 0.068476 0.579176
vt 0.068476 0.580828
vt 0.058561 0.580828
f 991/991/991 992/992/992 993/993/993
v 0.563779 2.16562 -0.020125
v 0.563779 2.16562 -0.015324
v 0.563779 2.19442 -0.015324
vn -1 -0 -0
vn -1 -0 -0
vn -1 -0 -0
vt 0.058561 0.580828
vt 0.058561 0.579176
vt 0.068476 0.579176
f 994/994/994 995/995/995 996/996/996
v 0.445035 2.16562 -0.020213
v 0.449836 2.16562 -0.020213
v 0.449836 2.16562 -0.015412
vn -0 -1 -0
vn -0 -1 -0
vn -0 -1 -0
vt 0.078522 0.113583
vt 0.078522 0.115236
vt 0.076869 0.115236
f 997/997/997 998/998/998 999/999/999
v 0.449836 2.16562 -0.015412
v 0.445035 2.16562 -0.015412
v 0.445035 2.16562 -0.020213
vn 0 -1 0
vn 0 -1 0
vn 0 -1 0
vt 0.076869 0.115236
vt 0.076869 0.113583
vt 0.078522 0.113583
f 1000/1000/1000 1001/1001/1001 1002/1002/1002
v 0.449836 2.19442 -0.015412
v 0.449836 2.19442 -0.020213
v 0.445035 2.19442 -0.020213
vn 0 1 0
vn 0 1 0
vn 0 1 0
vt 0.068515 0.113568
vt 0.066862 0.113568
vt 0.066862 0.111915
f 1003/1003/1003 1004/1004/1004 1005/1005/1005
v 0.445035 2.19442 -0.020213
v 0.445035 2.19442 -0.015412
v 0.449836 2.19442 -0.015412
vn 0 1 0
vn 0 1 0
vn 0 1 0
vt 0.066862 0.111915
vt 0.068515 0.111915
vt 0.068515 0.113568
f 1006/1006/1006 1007/1007/1007 1008/1008/1008
v 0.449836 2.19442 -0.015412
v 0.445035 2.19442 -0.015412
v 0.445035 2.16562 -0.015412
vn 0 0 1
vn 0 0 1
vn 0 0 1
vt 0.078484 0.22006
vt 0.078484 0.221712
vt 0.068568 0.221712
f 1009/1009/1009 1010/1010/1010 1011/1011/1011
v 0.445035 2.16562 -0.015412
v 0.449836 2.16562 -0.015412
v 0.449836 2.19442 -0.015412
vn 0 0 1
vn 0 0 1
vn 0 0 1
vt 0.068568 0.221712
vt 0.068568 0.22006
vt 0.078484 0.22006
f 1012/1012/1012 1013/1013/1013 1014/1014/1014
v 0.449836 2.19442 -0.015412
v 0.449836 2.16562 -0.015412
v 0.449836 2.16562 -0.020213
vn 1 0 0
vn 1 0 0
vn 1 0 0
vt 0.078484 0.438
vt 0.068568 0.438
vt 0.068568 0.436348
f 1015/1015/1015 1016/1016/1016 1017/1017/1017
v 0.449836 2.16562 -0.020213
v 0.449836 2.19442 -0.020213
v 0.449836 2.19442 -0.015412
vn 1 0 0
vn 1 0 0
vn 1 0 0
vt 0.068568 0.436348
vt 0.078484 0.436348
vt 0.078484 0.438
f 1018/1018/1018 1019/1019/1019 1020/1020/1020
v 0.449836 2.19442 -0.020213
v 0.449836 2.16562 -0.020213
v 0.445035 2.16562 -0.020213
vn 0 0 -1
vn 0 0 -1
vn 0 0 -1
vt 0.078484 0.25776
vt 0.068568 0.25776
vt 0.068568 0.256108
f 1021/1021/1021 1022/1022/1022 1023/1023/1023
v 0.445035 2.16562 -0.020213
v 0.445035 2.19442 -0.020213
v 0.449836 2.19442 -0.020213
vn -0 -0 -1
vn -0 -0 -1
vn -0 -0 -1
vt 0.068568 0.256108
vt 0.078484 0.256108
vt 0.078484 0.25776
f 1024/1024/1024 1025/1025/1025 1026/1026/1026
v 0.445035 2.19442 -0.015412
v 0.445035 2.19442 -0.020213
v 0.445035 2.16562 -0.020213
vn -1 0 0
vn -1 0 0
vn -1 0 0
vt 0.078484 0.364252
vt 0.078484 0.365904
vt 0.068568 0.365904
f 1027/1027/1027 1028/1028/1028 1029/1029/1029
v 0.445035 2.16562 -0.020213
v 0.445035 2.16562 -0.015412
v 0.445035 2.19442 -0.015412
vn -1 -0 -0
vn -1 -0 -0
vn -1 -0 -0
vt 0.068568 0.365904
vt 0.068568 0.364252
vt 0.078484 0.364252
f 1030/1030/1030 1031/1031/1031 1032/1032/1032
v 0.329747 2.16562 -0.020213
v 0.334548 2.16562 -0.020213
v 0.334548 2.16562 -0.015412
vn -0 -1 -0
vn -0 -1 -0
vn -0 -1 -0
vt 0.078522 0.221727
vt 0.078522 0.22338
vt 0.076869 0.22338
f 1033/1033/1033 1034/1034/1034 1035/1035/1035
v 0.334548 2.16562 -0.015412
v 0.329747 2.16562 -0.015412
v 0.329747 2.16562 -0.020213
vn 0 -1 0
vn 0 -1 0
vn 0 -1 0
vt 0.076869 0.22338
vt 0.076869 0.221727
vt 0.078522 0.221727
f 1036/1036/1036 1037/1037/1037 1038/1038/1038
v 0.334548 2.19442 -0.015412
v 0.334548 2.19442 -0.020213
v 0.329747 2.19442 -0.020213
vn 0 1 0
vn 0 1 0
vn 0 1 0
vt 0.068515 0.221712
vt 0.066862 0.221712
vt 0.066862 0.22006
f 1039/1039/1039 1040/1040/1040 1041/1041/1041
v 0.329747 2.19442 -0.020213
v 0.329747 2.19442 -0.015412
v 0.334548 2.19442 -0.015412
vn 0 1 0
vn 0 1 0
vn 0 1 0
vt 0.066862 0.22006
vt 0.068515 0.22006
vt 0.068515 0.221712
f 1042/1042/1042 1043/1043/1043 1044/1044/1044
v 0.334548 2.19442 -0.015412
v 0.329747 2.19442 -0.015412
v 0.329747 2.16562 -0.015412
vn 0 0 1
vn 0 0 1
vn 0 0 1
vt 0.078484 0.471032
vt 0.078484 0.472684
vt 0.068568 0.472684
f 1045/1045/1045 1046/1046/1046 1047/1047/1047
v 0.329747 2.16562 -0.015412
v 0.334548 2.16562 -0.015412
v 0.334548 2.19442 -0.015412
vn 0 0 1
vn 0 0 1
vn 0 0 1
vt 0.068568 0.472684
vt 0.068568 0.471032
vt 0.078484 0.471032
f 1048/1048/1048 1049/1049/1049 1050/1050/1050
v 0.334548 2.19442 -0.015412
v 0.334548 2.16562 -0.015412
v 0.334548 2.16562 -0.020213
vn 1 0 0
vn 1 0 0
vn 1 0 0
vt 0.078484 0.041472
vt 0.068568 0.041472
vt 0.068568 0.039819
f 1051/1051/1051 1052/1052/1052 1053/1053/1053
v 0.334548 2.16562 -0.020213
v 0.334548 2.19442 -0.020213
v 0.334548 2.19442 -0.015412
vn 1 0 0
vn 1 0 0
vn 1 0 0
vt 0.068568 0.039819
vt 0.078484 0.039819
vt 0.078484 0.041472
f 1054/1054/1054 1055/1055/1055 1056/1056/1056
v 0.334548 2.19442 -0.020213
v 0.334548 2.16562 -0.020213
v 0.329747 2.16562 -0.020213
vn 0 0 -1
vn 0 0 -1
vn 0 0 -1
vt 0.078484 0.688971
vt 0.068568 0.688971
vt 0.068568 0.687319
f 1057/1057/1057 1058/1058/1058 1059/1059/1059
v 0.329747 2.16562 -0.020213
v 0.329747 2.19442 -0.020213
v 0.334548 2.19442 -0.020213
vn -0 -0 -1
vn -0 -0 -1
vn -0 -0 -1
vt 0.068568 0.687319
vt 0.078484 0.687319
vt 0.078484 0.688971
f 1060/1060/1060 1061/1061/1061 1062/1062/1062
v 0.329747 2.19442 -0.015412
v 0.329747 2.19442 -0.020213
v 0.329747 2.16562 -0.020213
vn -1 0 0
vn -1 0 0
vn -1 0 0
vt 0.078484 0.867557
vt 0.078484 0.86921
vt 0.068568 0.86921
f 1063/1063/1063 1064/1064/1064 1065/1065/1065
v 0.329747 2.16562 -0.020213
v 0.329747 2.16562 -0.015412
v 0.329747 2.19442 -0.015412
vn -1 -0 -0
vn -1 -0 -0
vn -1 -0 -0
vt 0.068568 0.86921
vt 0.068568 0.867557
vt 0.078484 0.867557
f 1066/1066/1066 1067/1067/1067 1068/1068/1068
v 0.677029 2.16562 -0.020125
v 0.68183 2.16562 -0.020125
v 0.68183 2.16562 -0.015324
vn -0 -1 -0
vn -0 -1 -0
vn -0 -1 -0
vt 0.078522 0.329872
vt 0.078522 0.331524
vt 0.076869 0.331524
f 1069/1069/1069 1070/1070/1070 1071/1071/1071
v 0.68183 2.16562 -0.015324
v 0.677029 2.16562 -0.015324
v 0.677029 2.16562 -0.020125
vn 0 -1 0
vn 0 -1 0
vn 0 -1 0
vt 0.076869 0.331524
vt 0.076869 0.329872
vt 0.078522 0.329872
f 1072/1072/1072 1073/1073/1073 1074/1074/1074
v 0.68183 2.19442 -0.015324
v 0.68183 2.19442 -0.020125
v 0.677029 2.19442 -0.020125
vn 0 1 0
vn 0 1 0
vn 0 1 0
vt 0.068515 0.329856
vt 0.066862 0.329856
vt 0.066862 0.328204
f 1075/1075/1075 1076/1076/1076 1077/1077/1077
v 0.677029 2.19442 -0.020125
v 0.677029 2.19442 -0.015324
v 0.68183 2.19442 -0.015324
vn 0 1 0
vn 0 1 0
vn 0 1 0
vt 0.066862 0.328204
vt 0.068515 0.328204
vt 0.068515 0.329856
f 1078/1078/1078 1079/1079/1079 1080/1080/1080
v 0.68183 2.19442 -0.015324
v 0.677029 2.19442 -0.015324
v 0.677029 2.16562 -0.015324
vn 0 0 1
vn 0 0 1
vn 0 0 1
vt 0.078484 0.615223
vt 0.078484 0.616876
vt 0.068568 0.616876
f 1081/1081/1081 1082/1082/1082 1083/1083/1083
v 0.677029 2.16562 -0.015324
v 0.68183 2.16562 -0.015324
v 0.68183 2.19442 -0.015324
vn 0 0 1
vn 0 0 1
vn 0 0 1
vt 0.068568 0.616876
vt 0.068568 0.615223
vt 0.078484 0.615223
f 1084/1084/1084 1085/1085/1085 1086/1086/1086
v 0.68183 2.19442 -0.015324
v 0.68183 2.16562 -0.015324
v 0.68183 2.16562 -0.020125
vn 1 0 0
vn 1 0 0
vn 1 0 0
vt 0.078484 0.508732
vt 0.068568 0.508732
vt 0.068568 0.50708
f 1087/1087/1087 1088/1088/1088 1089/1089/1089
v 0.68183 2.16562 -0.020125
v 0.68183 2.19442 -0.020125
v 0.68183 2.19442 -0.015324
vn 1 0 0
vn 1 0 0
vn 1 0 0
vt 0.068568 0.50708
vt 0.078484 0.50708
vt 0.078484 0.508732
f 1090/1090/1090 1091/1091/1091 1092/1092/1092
v 0.68183 2.19442 -0.020125
v 0.68183 2.16562 -0.020125
v 0.677029 2.16562 -0.020125
vn 0 0 -1
vn 0 0 -1
vn 0 0 -1
vt 0.078484 0.580828
vt 0.068568 0.580828
vt 0.068568 0.579176
f 1093/1093/1093 1094/1094/1094 1095/1095/1095
v 0.677029 2.16562 -0.020125
v 0.677029 2.19442 -0.020125
v 0.68183 2.19442 -0.020125
vn -0 -0 -1
vn -0 -0 -1
vn -0 -0 -1
vt 0.068568 0.579176
vt 0.078484 0.579176
vt 0.078484 0.580828
f 1096/1096/1096 1097/1097/1097 1098/1098/1098
v 0.677029 2.19442 -0.015324
v 0.677029 2.19442 -0.020125
v 0.677029 2.16562 -0.020125
vn -1 0 0
vn -1 0 0
vn -1 0 0
vt 0.078484 0.543128
vt 0.078484 0.54478
vt 0.068568 0.54478
f 1099/1099/1099 1100/1100/1100 1101/1101/1101
v 0.677029 2.16562 -0.020125
v 0.677029 2.16562 -0.015324
v 0.677029 2.19442 -0.015324
vn -1 -0 -0
vn -1 -0 -0
vn -1 -0 -0
vt 0.068568 0.54478
vt 0.068568 0.543128
vt 0.078484 0.543128
f 1102/1102/1102 1103/1103/1103 1104/1104/1104
v 0.796467 2.16562 -0.020125
v 0.801268 2.16562 -0.020125
v 0.801268 2.16562 -0.015324
vn -0 -1 -0
vn -0 -1 -0
vn -0 -1 -0
vt 0.078522 0.438016
vt 0.078522 0.439668
vt 0.076869 0.439668
f 1105/1105/1105 1106/1106/1106 1107/1107/1107
v 0.801268 2.16562 -0.015324
v 0.796467 2.16562 -0.015324
v 0.796467 2.16562 -0.020125
vn 0 -1 0
vn 0 -1 0
vn 0 -1 0
vt 0.076869 0.439668
vt 0.076869 0.438016
vt 0.078522 0.438016
f 1108/1108/1108 1109/1109/1109 1110/1110/1110
v 0.801268 2.19442 -0.015324
v 0.801268 2.19442 -0.020125
v 0.796467 2.19442 -0.020125
vn 0 1 0
vn 0 1 0
vn 0 1 0
vt 0.068515 0.438
vt 0.066862 0.438
vt 0.066862 0.436348
f 1111/1111/1111 1112/1112/1112 1113/1113/1113
v 0.796467 2.19442 -0.020125
v 0.796467 2.19442 -0.015324
v 0.801268 2.19442 -0.015324
vn 0 1 0
vn 0 1 0
vn 0 1 0
vt 0.066862 0.436348
vt 0.068515 0.436348
vt 0.068515 0.438
f 1114/1114/1114 1115/1115/1115 1116/1116/1116
v 0.801268 2.19442 -0.015324
v 0.796467 2.19442 -0.015324
v 0.796467 2.16562 -0.015324
vn 0 0 1
vn 0 0 1
vn 0 0 1
vt 0.078484 0.83151
vt 0.078484 0.833162
vt 0.068568 0.833162
f 1117/1117/1117 1118/1118/1118 1119/1119/1119
v 0.796467 2.16562 -0.015324
v 0.801268 2.16562 -0.015324
v 0.801268 2.19442 -0.015324
vn 0 0 1
vn 0 0 1
vn 0 0 1
vt 0.068568 0.833162
vt 0.068568 0.83151
vt 0.078484 0.83151
f 1120/1120/1120 1121/1121/1121 1122/1122/1122
v 0.801268 2.19442 -0.015324
v 0.801268 2.16562 -0.015324
v 0.801268 2.16562 -0.020125
vn 1 0 0
vn 1 0 0
vn 1 0 0
vt 0.078484 0.725019
vt 0.068568 0.725019
vt 0.068568 0.723366
f 1123/1123/1123 1124/1124/1124 1125/1125/1125
v 0.801268 2.16562 -0.020125
v 0.801268 2.19442 -0.020125
v 0.801268 2.19442 -0.015324
vn 1 0 0
vn 1 0 0
vn 1 0 0
vt 0.068568 0.723366
vt 0.078484 0.723366
vt 0.078484 0.725019
f 1126/1126/1126 1127/1127/1127 1128/1128/1128
v 0.801268 2.19442 -0.020125
v 0.801268 2.16562 -0.020125
v 0.796467 2.16562 -0.020125
vn 0 0 -1
vn 0 0 -1
vn 0 0 -1
vt 0.078484 0.797114
vt 0.068568 0.797114
vt 0.068568 0.795462
f 1129/1129/1129 1130/1130/1130 1131/1131/1131
v 0.796467 2.16562 -0.020125
v 0.796467 2.19442 -0.020125
v 0.801268 2.19442 -0.020125
vn -0 -0 -1
vn -0 -0 -1
vn -0 -0 -1
vt 0.068568 0.795462
vt 0.078484 0.795462
vt 0.078484 0.797114
f 1132/1132/1132 1133/1133/1133 1134/1134/1134
v 0.796467 2.19442 -0.015324
v 0.796467 2.19442 -0.020125
v 0.796467 2.16562 -0.020125
vn -1 0 0
vn -1 0 0
vn -1 0 0
vt 0.078484 0.759414
vt 0.078484 0.761067
vt 0.068568 0.761067
f 1135/1135/1135 1136/1136/1136 1137/1137/1137
v 0.796467 2.16562 -0.020125
v 0.796467 2.16562 -0.015324
v 0.796467 2.19442 -0.015324
vn -1 -0 -0
vn -1 -0 -0
vn -1 -0 -0
vt 0.068568 0.761067
vt 0.068568 0.759414
vt 0.078484 0.759414
f 1138/1138/1138 1139/1139/1139 1140/1140/1140
