o data/uid/01015058/s/000004.obj
//1
usemtl mat0
v -0.608154 0.04447 4.59795
v -0.673121 0 4.18552
v -0.608154 0.04447 4.59795
vn 0 0 0
vn 0 0 0
vn 0 0 0
vt 1.43385e-024 5.73541e-024
vt 0.397692 -0.187364
vt 0.389244 -0.14475
f 1/1/1 2/2/2 3/3/3
v -0.510934 0.04447 4.89622
v -0.608154 0 4.59795
v -0.510934 0.04447 4.89622
vn 0 0 0
vn 0 0 0
vn 0 0 0
vt 3.85931e-034 6.32309e-030
vt 0.410335 -0.218183
vt 0.397692 -0.187364
f 4/4/4 5/5/5 6/6/6
v -0.380123 0.04447 5.09145
v -0.510934 0 4.89622
v -0.380123 0.04447 5.09145
vn 0 0 0
vn 0 0 0
vn 0 0 0
vt -0.14475 1.54573e-038
vt 0.427347 -0.238355
vt 0.410335 -0.218183
f 7/7/7 8/8/8 9/9/9
v -0.214381 0.04447 5.19477
v -0.380123 0 5.09145
v -0.214381 0.04447 5.19477
vn 0 0 0
vn 0 0 0
vn 0 0 0
vt -0.187364 1.54286e-038
vt 0.448901 -0.249031
vt 0.427347 -0.238355
f 10/10/10 11/11/11 12/12/12
v -0.013869 0.04447 5.21714
v -0.214381 0 5.19477
v -0.013869 0.04447 5.21714
vn 0 0 0
vn 0 0 0
vn 0 0 0
vt -0.218183 5.73541e-024
vt 0.474977 -0.251343
vt 0.448901 -0.249031
f 13/13/13 14/14/14 15/15/15
v 0.173227 0.04447 5.16026
v -0.013869 0 5.21714
v 0.173227 0.04447 5.16026
vn 0 0 0
vn 0 0 0
vn 0 0 0
vt -0.238355 6.32308e-030
vt 0.499308 -0.245465
vt 0.474977 -0.251343
f 16/16/16 17/17/17 18/18/18
v 0.324467 0.04447 5.01651
v 0.173227 0 5.16026
v 0.324467 0.04447 5.01651
vn 0 0 0
vn 0 0 0
vn 0 0 0
vt -0.249031 1.54573e-038
vt 0.518976 -0.230612
vt 0.499308 -0.245465
f 19/19/19 20/20/20 21/21/21
v 0.441491 0.04447 4.77883
v 0.324467 0 5.01651
v 0.441491 0.04447 4.77883
vn 0 0 0
vn 0 0 0
vn 0 0 0
vt -0.251343 1.54286e-038
vt 0.534194 -0.206054
vt 0.518976 -0.230612
f 22/22/22 23/23/23 24/24/24
v 0.525938 0.04447 4.44015
v 0.441491 0 4.77883
v 0.525938 0.04447 4.44015
vn 0 0 0
vn 0 0 0
vn 0 0 0
vt -0.245465 5.73541e-024
vt 0.545176 -0.171059
vt 0.534194 -0.206054
f 25/25/25 26/26/26 27/27/27
v 0.613172 0.04447 3.70158
v 0.525938 0 4.44015
v 0.613172 0.04447 3.70158
vn 0 0 0
vn 0 0 0
vn 0 0 0
vt -0.230612 6.32308e-030
vt 0.556521 -0.094746
vt 0.545176 -0.171059
f 28/28/28 29/29/29 30/30/30
v 0.753543 0.04447 2.2578
v 0.613172 0 3.70158
v 0.753543 0.04447 2.2578
vn 0 0 0
vn 0 0 0
vn 0 0 0
vt -0.206054 1.54573e-038
vt 0.574775 0.054434
vt 0.556521 -0.094746
f 31/31/31 32/32/32 33/33/33
v 0.898323 0.04447 0.625954
v 0.753543 0 2.2578
v 0.898323 0.04447 0.625954
vn 0 0 0
vn 0 0 0
vn 0 0 0
vt -0.171059 1.54286e-038
vt 0.593604 0.223046
vt 0.574775 0.054434
f 34/34/34 35/35/35 36/36/36
v 1.03237 0.04447 -1.0113
v 0.898323 0 0.625954
v 1.03237 0.04447 -1.0113
vn 0 0 0
vn 0 0 0
vn 0 0 0
vt -0.094746 6.15832e-015
vt 0.611035 0.392216
vt 0.593604 0.223046
f 37/37/37 38/38/38 39/39/39
v 1.14053 0.04447 -2.4713
v 1.03237 0 -1.0113
v 1.14053 0.04447 -2.4713
vn 0 0 0
vn 0 0 0
vn 0 0 0
vt 0.054434 3.8593e-034
vt 0.625101 0.543072
vt 0.611035 0.392216
f 40/40/40 41/41/41 42/42/42
v 1.18288 0.04447 -3.54805
v 1.14053 0 -2.4713
v 1.18288 0.04447 -3.54805
vn 0 0 0
vn 0 0 0
vn 0 0 0
vt 0.223046 0
vt 0.630609 0.654329
vt 0.625101 0.543072
f 43/43/43 44/44/44 45/45/45
v 1.07479 0.04447 -4.30215
v 1.18288 0 -3.54805
v 1.07479 0.04447 -4.30215
vn 0 0 0
vn 0 0 0
vn 0 0 0
vt 0.392216 0
vt 0.616553 0.732245
vt 0.630609 0.654329
f 46/46/46 47/47/47 48/48/48
v 0.832249 0.04447 -4.81066
v 1.07479 0 -4.30215
v 0.832249 0.04447 -4.81066
vn 0 0 0
vn 0 0 0
vn 0 0 0
vt 0.543072 0
vt 0.585011 0.784788
vt 0.616553 0.732245
f 49/49/49 50/50/50 51/51/51
v 0.479376 0.04447 -5.1048
v 0.832249 0 -4.81066
v 0.479376 0.04447 -5.1048
vn 0 0 0
vn 0 0 0
vn 0 0 0
vt 0.654329 0
vt 0.539121 0.815181
vt 0.585011 0.784788
f 52/52/52 53/53/53 54/54/54
v 0.040308 0.04447 -5.21576
v 0.479376 0 -5.1048
v 0.040308 0.04447 -5.21576
vn 0 0 0
vn 0 0 0
vn 0 0 0
vt 0.732245 0
vt 0.482022 0.826646
vt 0.539121 0.815181
f 55/55/55 56/56/56 57/57/57
v -0.415774 0.04447 -5.17358
v 0.040308 0 -5.21576
v -0.415774 0.04447 -5.17358
vn 0 0 0
vn 0 0 0
vn 0 0 0
vt 0.784788 0
vt 0.42271 0.822287
vt 0.482022 0.826646
f 58/58/58 59/59/59 60/60/60
v -0.778462 0.04447 -4.97005
v -0.415774 0 -5.17358
v -0.778462 0.04447 -4.97005
vn 0 0 0
vn 0 0 0
vn 0 0 0
vt 0.815181 0
vt 0.375544 0.801257
vt 0.42271 0.822287
f 61/61/61 62/62/62 63/63/63
v -1.03306 0.04447 -4.56828
v -0.778462 0 -4.97005
v -1.03306 0.04447 -4.56828
vn 0 0 0
vn 0 0 0
vn 0 0 0
vt 0.826646 0
vt 0.342434 0.759744
vt 0.375544 0.801257
f 64/64/64 65/65/65 66/66/66
v -1.16779 0.04447 -3.93098
v -1.03306 0 -4.56828
v -1.16779 0.04447 -3.93098
vn 0 0 0
vn 0 0 0
vn 0 0 0
vt 0.822287 0
vt 0.324914 0.693895
vt 0.342434 0.759744
f 67/67/67 68/68/68 69/69/69
v -0.673121 0.04447 4.18552
v -1.16779 0 -3.93098
v -0.673121 0.04447 4.18552
vn 0 0 0
vn 0 0 0
vn 0 0 0
vt 0.801257 0
vt 0.389244 -0.14475
vt 0.324914 0.693895
f 70/70/70 71/71/71 72/72/72
v -0.608154 0.088941 4.59795
v -0.673121 0.04447 4.18552
v -0.608154 0.088941 4.59795
vn 0 0 0
vn 0 0 0
vn 0 0 0
vt 0.759744 0
vt 3.85931e-034 6.32309e-030
vt 1.43385e-024 5.73541e-024
f 73/73/73 74/74/74 75/75/75
v -0.510934 0.088941 4.89622
v -0.608154 0.04447 4.59795
v -0.510934 0.088941 4.89622
vn 0 0 0
vn 0 0 0
vn 0 0 0
vt 0.693895 0
vt -0.14475 1.54573e-038
vt 3.85931e-034 6.32309e-030
f 76/76/76 77/77/77 78/78/78
v -0.380123 0.088941 5.09145
v -0.510934 0.04447 4.89622
v -0.380123 0.088941 5.09145
vn 0 0 0
vn 0 0 0
vn 0 0 0
vt 5.73541e-024 0
vt -0.187364 1.54286e-038
vt -0.14475 1.54573e-038
f 79/79/79 80/80/80 81/81/81
v -0.214381 0.088941 5.19477
v -0.380123 0.04447 5.09145
v -0.214381 0.088941 5.19477
vn 0 0 0
vn 0 0 0
vn 0 0 0
vt 6.32309e-030 0
vt -0.218183 5.73541e-024
vt -0.187364 1.54286e-038
f 82/82/82 83/83/83 84/84/84
v -0.013869 0.088941 5.21714
v -0.214381 0.04447 5.19477
v -0.013869 0.088941 5.21714
vn 0 0 0
vn 0 0 0
vn 0 0 0
vt 1.54573e-038 0
vt -0.238355 6.32308e-030
vt -0.218183 5.73541e-024
f 85/85/85 86/86/86 87/87/87
v 0.173227 0.08894 5.16026
v -0.013869 0.04447 5.21714
v 0.173227 0.08894 5.16026
vn 0 0 0
vn 0 0 0
vn 0 0 0
vt 1.54286e-038 0
vt -0.249031 1.54573e-038
vt -0.238355 6.32308e-030
f 88/88/88 89/89/89 90/90/90
v 0.324467 0.08894 5.01651
v 0.173227 0.04447 5.16026
v 0.324467 0.08894 5.01651
vn 0 0 0
vn 0 0 0
vn 0 0 0
vt 5.73541e-024 0
vt -0.251343 1.54286e-038
vt -0.249031 1.54573e-038
f 91/91/91 92/92/92 93/93/93
v 0.441491 0.08894 4.77883
v 0.324467 0.04447 5.01651
v 0.441491 0.08894 4.77883
vn 0 0 0
vn 0 0 0
vn 0 0 0
vt 6.32308e-030 0
vt -0.245465 5.73541e-024
vt -0.251343 1.54286e-038
f 94/94/94 95/95/95 96/96/96
v 0.525938 0.08894 4.44015
v 0.441491 0.04447 4.77883
v 0.525938 0.08894 4.44015
vn 0 0 0
vn 0 0 0
vn 0 0 0
vt 1.54573e-038 0
vt -0.230612 6.32308e-030
vt -0.245465 5.73541e-024
f 97/97/97 98/98/98 99/99/99
v 0.613172 0.08894 3.70158
v 0.525938 0.04447 4.44015
v 0.613172 0.08894 3.70158
vn 0 0 0
vn 0 0 0
vn 0 0 0
vt 1.54286e-038 0
vt -0.206054 1.54573e-038
vt -0.230612 6.32308e-030
f 100/100/100 101/101/101 102/102/102
v 0.753543 0.08894 2.2578
v 0.613172 0.04447 3.70158
v 0.753543 0.08894 2.2578
vn 0 0 0
vn 0 0 0
vn 0 0 0
vt 5.73541e-024 0
vt -0.171059 1.54286e-038
vt -0.206054 1.54573e-038
f 103/103/103 104/104/104 105/105/105
v 0.898323 0.08894 0.625954
v 0.753543 0.04447 2.2578
v 0.898323 0.08894 0.625954
vn 0 0 0
vn 0 0 0
vn 0 0 0
vt 6.32308e-030 0
vt -0.094746 6.15832e-015
vt -0.171059 1.54286e-038
f 106/106/106 107/107/107 108/108/108
v 1.03237 0.08894 -1.0113
v 0.898323 0.04447 0.625954
v 1.03237 0.08894 -1.0113
vn 0 0 0
vn 0 0 0
vn 0 0 0
vt 1.54573e-038 0
vt 0.054434 3.8593e-034
vt -0.094746 6.15832e-015
f 109/109/109 110/110/110 111/111/111
v 1.14053 0.08894 -2.4713
v 1.03237 0.04447 -1.0113
v 1.14053 0.08894 -2.4713
vn 0 0 0
vn 0 0 0
vn 0 0 0
vt 1.54286e-038 0
vt 0.223046 0
vt 0.054434 3.8593e-034
f 112/112/112 113/113/113 114/114/114
v 1.18288 0.08894 -3.54805
v 1.14053 0.04447 -2.4713
v 1.18288 0.08894 -3.54805
vn 0 0 0
vn 0 0 0
vn 0 0 0
vt 6.15832e-015 0.04447
vt 0.392216 0
vt 0.223046 0
f 115/115/115 116/116/116 117/117/117
v 1.07479 0.08894 -4.30215
v 1.18288 0.04447 -3.54805
v 1.07479 0.08894 -4.30215
vn 0 0 0
vn 0 0 0
vn 0 0 0
vt 3.8593e-034 0.04447
vt 0.543072 0
vt 0.392216 0
f 118/118/118 119/119/119 120/120/120
v 0.832249 0.08894 -4.81066
v 1.07479 0.04447 -4.30215
v 0.832249 0.08894 -4.81066
vn 0 0 0
vn 0 0 0
vn 0 0 0
vt 0 0.04447
vt 0.654329 0
vt 0.543072 0
f 121/121/121 122/122/122 123/123/123
v 0.479376 0.08894 -5.1048
v 0.832249 0.04447 -4.81066
v 0.479376 0.08894 -5.1048
vn 0 0 0
vn 0 0 0
vn 0 0 0
vt 0 0.04447
vt 0.732245 0
vt 0.654329 0
f 124/124/124 125/125/125 126/126/126
v 0.040308 0.08894 -5.21576
v 0.479376 0.04447 -5.1048
v 0.040308 0.08894 -5.21576
vn 0 0 0
vn 0 0 0
vn 0 0 0
vt 0 0.04447
vt 0.784788 0
vt 0.732245 0
f 127/127/127 128/128/128 129/129/129
v -0.415774 0.088941 -5.17358
v 0.040308 0.04447 -5.21576
v -0.415774 0.088941 -5.17358
vn 0 0 0
vn 0 0 0
vn 0 0 0
vt 0 0.04447
vt 0.815181 0
vt 0.784788 0
f 130/130/130 131/131/131 132/132/132
v -0.778462 0.088941 -4.97005
v -0.415774 0.04447 -5.17358
v -0.778462 0.088941 -4.97005
vn 0 0 0
vn 0 0 0
vn 0 0 0
vt 0 0.04447
vt 0.826646 0
vt 0.815181 0
f 133/133/133 134/134/134 135/135/135
v -1.03306 0.088941 -4.56828
v -0.778462 0.04447 -4.97005
v -1.03306 0.088941 -4.56828
vn 0 0 0
vn 0 0 0
vn 0 0 0
vt 0 0.04447
vt 0.822287 0
vt 0.826646 0
f 136/136/136 137/137/137 138/138/138
v -1.16779 0.088941 -3.93098
v -1.03306 0.04447 -4.56828
v -1.16779 0.088941 -3.93098
vn 0 0 0
vn 0 0 0
vn 0 0 0
vt 0 0.04447
vt 0.801257 0
vt 0.822287 0
f 139/139/139 140/140/140 141/141/141
v -0.673121 0.088941 4.18552
v -1.16779 0.04447 -3.93098
v -0.673121 0.088941 4.18552
vn 0 0 0
vn 0 0 0
vn 0 0 0
vt 0 0.04447
vt 1.43385e-024 5.73541e-024
vt 0.801257 0
f 142/142/142 143/143/143 144/144/144
v 0.040308 0.08894 -5.21576
v -1.16779 0.088941 -3.93098
v 0.040308 0.08894 -5.21576
vn 0 0 0
vn 0 0 0
vn 0 0 0
vt 0.04447 0.08894
vt 0.04447 0.088941
vt 0.04447 0.08894
f 145/145/145 146/146/146 147/147/147
v 1.18288 0.08894 -3.54805
v -1.16779 0.088941 -3.93098
v 1.18288 0.08894 -3.54805
vn 0 0 0
vn 0 0 0
vn 0 0 0
vt 0.04447 0.088941
vt 0 0.088941
vt 0.04447 0.08894
f 148/148/148 149/149/149 150/150/150
v 1.03237 0.08894 -1.0113
v -1.16779 0.088941 -3.93098
v 1.03237 0.08894 -1.0113
vn 0 0 0
vn 0 0 0
vn 0 0 0
vt 0 0.088941
vt 0 0.04447
vt 0.04447 0.08894
f 151/151/151 152/152/152 153/153/153
v -0.673121 0.088941 4.18552
v -1.16779 0.088941 -3.93098
v -0.778462 0.088941 -4.97005
vn 0 -1 0
vn 0 -1 0
vn 0 -1 0
vt 0 0.04447
vt 0.04447 0.08894
vt 0.04447 0.08894
f 154/154/154 155/155/155 156/156/156
v 0.040308 0.08894 -5.21576
v -1.03306 0.088941 -4.56828
v 0.040308 0.08894 -5.21576
vn 0 0 0
vn 0 0 0
vn 0 0 0
vt 0.04447 0.08894
vt 0.04447 0.088941
vt 0.04447 0.088941
f 157/157/157 158/158/158 159/159/159
v 0.832249 0.08894 -4.81066
v 1.07479 0.08894 -4.30215
v 0.753543 0.08894 2.2578
vn 0 -1 -0
vn 0 -1 -0
vn 0 -1 -0
vt 0.04447 0.088941
vt 0 0.04447
vt 0 0.04447
f 160/160/160 161/161/161 162/162/162
v -0.673121 0.088941 4.18552
v 0.753543 0.08894 2.2578
v 0.613172 0.08894 3.70158
vn -8.05636e-007 -1 -7.83275e-008
vn -8.05636e-007 -1 -7.83275e-008
vn -8.05636e-007 -1 -7.83275e-008
vt 0 0.04447
vt 0 0.04447
vt 0 0.04447
f 163/163/163 164/164/164 165/165/165
v -0.608154 0.088941 4.59795
v -0.673121 0.088941 4.18552
v 0.525938 0.08894 4.44015
vn -8.61451e-007 -1 1.35699e-007
vn -8.61451e-007 -1 1.35699e-007
vn -8.61451e-007 -1 1.35699e-007
vt 0 0.04447
vt 0 0.04447
vt 0 0.04447
f 166/166/166 167/167/167 168/168/168
v -0.510934 0.088941 4.89622
v -0.608154 0.088941 4.59795
v 0.441491 0.08894 4.77883
vn -1.00776e-006 -1 3.2848e-007
vn -1.00776e-006 -1 3.2848e-007
vn -1.00776e-006 -1 3.2848e-007
vt 0 0.04447
vt 0 0.04447
vt 0 0.04447
f 169/169/169 170/170/170 171/171/171
v -0.013869 0.088941 5.21714
v -0.510934 0.088941 4.89622
v 0.173227 0.08894 5.16026
vn -3.62772e-006 -1 5.61875e-006
vn -3.62772e-006 -1 5.61875e-006
vn -3.62772e-006 -1 5.61875e-006
vt 0 0.04447
vt 0 0.04447
vt 0 0.04447
f 172/172/172 173/173/173 174/174/174
v -0.214381 0.088941 5.19477
v -0.510934 0.088941 4.89622
v -0.214381 0.088941 5.19477
vn -0 0 0
vn -0 0 0
vn -0 0 0
vt 0 0.04447
vt 0 0.04447
vt 0 0.04447
f 175/175/175 176/176/176 177/177/177
v -0.526464 0 4.44459
v 0.608762 0 4.60255
v 0.673794 0 4.18971
vn 0 1 0
vn 0 1 0
vn 0 1 0
vt 0.545176 -0.171059
vt 0.397692 -0.187364
vt 0.389244 -0.14475
f 178/178/178 179/179/179 180/180/180
v -0.613785 0 3.70529
v -0.526464 0 4.44459
v 0.673794 0 4.18971
vn 0 1 0
vn 0 1 0
vn 0 1 0
vt 0.556521 -0.094746
vt 0.545176 -0.171059
vt 0.389244 -0.14475
f 181/181/181 182/182/182 183/183/183
v -0.754296 0 2.26006
v -0.613785 0 3.70529
v 0.673794 0 4.18971
vn 0 1 0
vn 0 1 0
vn 0 1 0
vt 0.574775 0.054434
vt 0.556521 -0.094746
vt 0.389244 -0.14475
f 184/184/184 185/185/185 186/186/186
v -0.899222 0 0.62658
v -0.754296 0 2.26006
v 0.673794 0 4.18971
vn 0 1 0
vn 0 1 0
vn 0 1 0
vt 0.593604 0.223046
vt 0.574775 0.054434
vt 0.389244 -0.14475
f 187/187/187 188/188/188 189/189/189
v -0.899222 0 0.62658
v 0.673794 0 4.18971
v 1.16896 0 -3.93491
vn 0 1 0
vn 0 1 0
vn 0 1 0
vt 0.593604 0.223046
vt 0.389244 -0.14475
vt 0.324914 0.693895
f 190/190/190 191/191/191 192/192/192
v -1.0334 0 -1.01231
v -0.899222 0 0.62658
v 1.16896 0 -3.93491
vn 0 1 0
vn 0 1 0
vn 0 1 0
vt 0.611035 0.392216
vt 0.593604 0.223046
vt 0.324914 0.693895
f 193/193/193 194/194/194 195/195/195
v -0.441932 0 4.78361
v 0.511445 0 4.90111
v 0.608762 0 4.60255
vn 0 1 0
vn 0 1 0
vn 0 1 0
vt 0.534194 -0.206054
vt 0.410335 -0.218183
vt 0.397692 -0.187364
f 196/196/196 197/197/197 198/198/198
v -0.526464 0 4.44459
v -0.441932 0 4.78361
v 0.608762 0 4.60255
vn 0 1 0
vn 0 1 0
vn 0 1 0
vt 0.545176 -0.171059
vt 0.534194 -0.206054
vt 0.397692 -0.187364
f 199/199/199 200/200/200 201/201/201
v 0.214595 0 5.19996
v 0.380503 0 5.09654
v 0.511445 0 4.90111
vn 0 1 0
vn 0 1 0
vn 0 1 0
vt 0.448901 -0.249031
vt 0.427347 -0.238355
vt 0.410335 -0.218183
f 202/202/202 203/203/203 204/204/204
v 0.013883 0 5.22236
v 0.214595 0 5.19996
v 0.511445 0 4.90111
vn 0 1 0
vn 0 1 0
vn 0 1 0
vt 0.474977 -0.251343
vt 0.448901 -0.249031
vt 0.410335 -0.218183
f 205/205/205 206/206/206 207/207/207
v -0.324791 0 5.02153
v 0.013883 0 5.22236
v 0.511445 0 4.90111
vn 0 1 0
vn 0 1 0
vn 0 1 0
vt 0.518976 -0.230612
vt 0.474977 -0.251343
vt 0.410335 -0.218183
f 208/208/208 209/209/209 210/210/210
v -0.441932 0 4.78361
v -0.324791 0 5.02153
v 0.511445 0 4.90111
vn 0 1 0
vn 0 1 0
vn 0 1 0
vt 0.534194 -0.206054
vt 0.518976 -0.230612
vt 0.410335 -0.218183
f 211/211/211 212/212/212 213/213/213
v -0.324791 0 5.02153
v -0.1734 0 5.16542
v 0.013883 0 5.22236
vn 0 1 0
vn 0 1 0
vn 0 1 0
vt 0.518976 -0.230612
vt 0.499308 -0.245465
vt 0.474977 -0.251343
f 214/214/214 215/215/215 216/216/216
v 1.16896 0 -3.93491
v -1.14167 0 -2.47377
v -1.0334 0 -1.01231
vn 0 1 0
vn 0 1 0
vn 0 1 0
vt 0.324914 0.693895
vt 0.625101 0.543072
vt 0.611035 0.392216
f 217/217/217 218/218/218 219/219/219
v -1.18406 0 -3.5516
v -1.14167 0 -2.47377
v 1.16896 0 -3.93491
vn 0 1 0
vn 0 1 0
vn 0 1 0
vt 0.630609 0.654329
vt 0.625101 0.543072
vt 0.324914 0.693895
f 220/220/220 221/221/221 222/222/222
v -1.07587 0 -4.30645
v -1.18406 0 -3.5516
v 1.16896 0 -3.93491
vn 0 1 0
vn 0 1 0
vn 0 1 0
vt 0.616553 0.732245
vt 0.630609 0.654329
vt 0.324914 0.693895
f 223/223/223 224/224/224 225/225/225
v -0.479855 0 -5.10991
v -0.833081 0 -4.81547
v -1.07587 0 -4.30645
vn 0 1 0
vn 0 1 0
vn 0 1 0
vt 0.539121 0.815181
vt 0.585011 0.784788
vt 0.616553 0.732245
f 226/226/226 227/227/227 228/228/228
v -0.040348 0 -5.22098
v -0.479855 0 -5.10991
v -1.07587 0 -4.30645
vn 0 1 0
vn 0 1 0
vn 0 1 0
vt 0.482022 0.826646
vt 0.539121 0.815181
vt 0.616553 0.732245
f 229/229/229 230/230/230 231/231/231
v -0.040348 0 -5.22098
v -1.07587 0 -4.30645
v 1.16896 0 -3.93491
vn 0 1 0
vn 0 1 0
vn 0 1 0
vt 0.482022 0.826646
vt 0.616553 0.732245
vt 0.324914 0.693895
f 232/232/232 233/233/233 234/234/234
v 1.0341 0 -4.57285
v -0.040348 0 -5.22098
v 1.16896 0 -3.93491
vn -0 1 0
vn -0 1 0
vn -0 1 0
vt 0.342434 0.759744
vt 0.482022 0.826646
vt 0.324914 0.693895
f 235/235/235 236/236/236 237/237/237
v 0.41619 0 -5.17875
v -0.040348 0 -5.22098
v 1.0341 0 -4.57285
vn -0 1 0
vn -0 1 0
vn -0 1 0
vt 0.42271 0.822287
vt 0.482022 0.826646
vt 0.342434 0.759744
f 238/238/238 239/239/239 240/240/240
v 0.77924 0 -4.97502
v 0.41619 0 -5.17875
v 1.0341 0 -4.57285
vn -0 1 0
vn -0 1 0
vn -0 1 0
vt 0.375544 0.801257
vt 0.42271 0.822287
vt 0.342434 0.759744
f 241/241/241 242/242/242 243/243/243
v 0 0 0
v 0 0 0
v 0 0 0
vn 0 0 0
vn 0 0 0
vn 0 0 0
vt 1.10376e-005 8.7239e-033
vt 2.51933e-009 4.17205e-008
vt 1.52645e-019 4.20047e-005
f 244/244/244 245/245/245 246/246/246
v 0 0 0
v 0 0 0
v 0 0 0
vn 0 0 0
vn 0 0 0
vn 0 0 0
vt 2.6226e-009 4.09673e-011
vt 1.07225e-008 7.00876e+032
vt 4.02852e-011 1.09203e-005
f 247/247/247 248/248/248 249/249/249
v 0 0 0
v 0 0 0
v 0 0 0
vn 0 0 0
vn 0 0 0
vn 0 0 0
vt 5.82776e-010 4.39139e-005
vt 1.50098e-019 0.00016613
vt 4.41523e-005 1.62969e+023
f 250/250/250 251/251/251 252/252/252
v 0 0 0
v 0 0 0
v 0 0 0
vn 0 0 0
vn 0 0 0
vn 0 0 0
vt 1.54326e-019 2.33133e-009
vt 1.94851e-019 2.65428e-006
vt 7.71296e-033 1.06172e-005
f 253/253/253 254/254/254 255/255/255
v 0 0 0
v 0 0 0
v 0 0 0
vn 0 0 0
vn 0 0 0
vn 0 0 0
vt 1.54326e-019 1.6307e+023
vt 9.32485e-009 1.50878e-019
vt 9.33643e-009 1.06171e-005
f 256/256/256 257/257/257 258/258/258
v 0 0 0
v 0 0 0
v 0 0 0
vn 0 0 0
vn 0 0 0
vn 0 0 0
vt 7.71334e-033 1.52573e-019
vt 3.7304e-008 1.94851e-019
vt 9.32623e-009 1.52573e-019
f 259/259/259 260/260/260 261/261/261
v 0 0 0
v 0 0 0
v 0 0 0
vn 0 0 0
vn 0 0 0
vn 0 0 0
vt 5.97531e-007 1.56867e-019
vt 1.6307e+023 1.49247e-019
vt 5.96879e-007 1.94851e-019
f 262/262/262 263/263/263 264/264/264
v 0 0 0
v 0 0 0
v 0 0 0
vn 0 0 0
vn 0 0 0
vn 0 0 0
vt 6.51656e-010 7.71371e-033
vt 2.60663e-009 1.49247e-019
vt 1.6307e+023 3.7303e-008
f 265/265/265 266/266/266 267/267/267
v 0 0 0
v 0 0 0
v 0 0 0
vn 0 0 0
vn 0 0 0
vn 0 0 0
vt 1.54267e-019 3.73457e-008
vt 2.60662e-009 7.71409e-033
vt 1.55961e-019 9.54843e-006
f 268/268/268 269/269/269 270/270/270
v 0 0 0
v 0 0 0
v 0 0 0
vn 0 0 0
vn 0 0 0
vn 0 0 0
vt 1.94851e-019 3.72995e-008
vt 1.55961e-019 0.000152968
vt 1.51788e-019 1.6307e+023
f 271/271/271 272/272/272 273/273/273
v 0 0 0
v 0 0 0
v 0 0 0
vn 0 0 0
vn 0 0 0
vn 0 0 0
vt 1.52635e-019 0.000152779
vt 1.94851e-019 3.72967e-008
vt 1.56808e-019 3.73457e-008
f 274/274/274 275/275/275 276/276/276
v 0 0 0
v 0 0 0
v 0 0 0
vn 0 0 0
vn 0 0 0
vn 0 0 0
vt 1.66824e-007 1.4924e-019
vt 2.33411e-009 6.67295e-007
vt 1.4924e-019 3.73457e-008
f 277/277/277 278/278/278 279/279/279
v 0 0 0
v 0 0 0
v 0 0 0
vn 0 0 0
vn 0 0 0
vn 0 0 0
vt 6.67296e-007 1.50087e-019
vt 2.33411e-009 2.66918e-006
vt 1.50087e-019 3.73457e-008
f 280/280/280 281/281/281 282/282/282
v 0 0 0
v 0 0 0
v 0 0 0
vn 0 0 0
vn 0 0 0
vn 0 0 0
vt 2.66918e-006 1.50934e-019
vt 2.33411e-009 1.06767e-005
vt 1.50934e-019 3.73457e-008
f 283/283/283 284/284/284 285/285/285
v 0 0 0
v 0 0 0
v 0 0 0
vn 0 0 0
vn 0 0 0
vn 0 0 0
vt 1.06767e-005 1.51781e-019
vt 2.33411e-009 4.27069e-005
vt 1.51781e-019 3.73457e-008
f 286/286/286 287/287/287 288/288/288
v 0 0 0
v 0 0 0
v 0 0 0
vn 0 0 0
vn 0 0 0
vn 0 0 0
vt 4.27069e-005 1.52628e-019
vt 2.33411e-009 0.000170828
vt 1.52628e-019 1.49383e-007
f 289/289/289 290/290/290 291/291/291
v 0 0 0
v 0 0 0
v 0 0 0
vn 0 0 0
vn 0 0 0
vn 0 0 0
vt 0.000170828 1.53476e-019
vt 2.33411e-009 6.55294e-010
vt 1.53476e-019 1.49383e-007
f 292/292/292 293/293/293 294/294/294
v 0 0 0
v 0 0 0
v 0 0 0
vn 0 0 0
vn 0 0 0
vn 0 0 0
vt 6.55294e-010 1.54323e-019
vt 2.33411e-009 2.62118e-009
vt 1.54323e-019 1.49383e-007
f 295/295/295 296/296/296 297/297/297
v 0 0 0
v 0 0 0
v 0 0 0
vn 0 0 0
vn 0 0 0
vn 0 0 0
vt 2.62117e-009 1.5517e-019
vt 2.33411e-009 1.04847e-008
vt 1.5517e-019 1.49383e-007
f 298/298/298 299/299/299 300/300/300
v 0 0 0
v 0 0 0
v 0 0 0
vn 0 0 0
vn 0 0 0
vn 0 0 0
vt 1.04847e-008 1.56017e-019
vt 2.33411e-009 4.19388e-008
vt 1.56017e-019 1.49383e-007
f 301/301/301 302/302/302 303/303/303
v 0 0 0
v 0 0 0
v 0 0 0
vn 0 0 0
vn 0 0 0
vn 0 0 0
vt 4.19388e-008 1.56864e-019
vt 9.33643e-009 1.67755e-007
vt 1.56864e-019 1.49383e-007
f 304/304/304 305/305/305 306/306/306
v 0 0 0
v 0 0 0
v 0 0 0
vn 0 0 0
vn 0 0 0
vn 0 0 0
vt 1.67755e-007 1.49244e-019
vt 9.33643e-009 6.71021e-007
vt 1.49244e-019 1.49383e-007
f 307/307/307 308/308/308 309/309/309
v 0 0 0
v 0 0 0
v 0 0 0
vn 0 0 0
vn 0 0 0
vn 0 0 0
vt 6.71021e-007 1.50091e-019
vt 9.33643e-009 2.68408e-006
vt 1.50091e-019 1.49383e-007
f 310/310/310 311/311/311 312/312/312
v 0 0 0
v 0 0 0
v 0 0 0
vn 0 0 0
vn 0 0 0
vn 0 0 0
vt 2.68408e-006 1.50938e-019
vt 9.33643e-009 1.07363e-005
vt 1.50938e-019 1.49383e-007
f 313/313/313 314/314/314 315/315/315
v 0 0 0
v 0 0 0
v 0 0 0
vn 0 0 0
vn 0 0 0
vn 0 0 0
vt 1.07363e-005 1.51785e-019
vt 9.33643e-009 4.29453e-005
vt 1.51785e-019 9.33643e-009
f 316/316/316 317/317/317 318/318/318
v 0 0 0
v 0 0 0
v 0 0 0
vn 0 0 0
vn 0 0 0
vn 0 0 0
vt 4.29453e-005 1.52632e-019
vt 2.33411e-009 1.53479e-019
vt 7.71354e-033 6.58935e-010
f 319/319/319 320/320/320 321/321/321
v 0 0 0
v 0 0 0
v 0 0 0
vn 0 0 0
vn 0 0 0
vn 0 0 0
vt 1.56874e-019 7.71372e-033
vt 2.65429e-006 1.49254e-019
vt 7.71372e-033 2.63574e-009
f 322/322/322 323/323/323 324/324/324
v 0 0 0
v 0 0 0
v 5.60519e-045 2.25049e-041 1.54286e-038
vn 0 0 0
vn 0 0 0
vn 0 0 0
vt 1.49254e-019 7.71391e-033
vt 1.06172e-005 1.50101e-019
vt 7.71391e-033 1.0543e-008
f 325/325/325 326/326/326 327/327/327
v 1.54286e-038 1.54284e-038 1.54284e-038
v 1.54628e-038 5.73972e-041 0
v 0 0 0
vn -0 0 -0
vn -0 0 -0
vn -0 0 -0
vt 1.50101e-019 7.7141e-033
vt 4.24687e-005 1.50948e-019
vt 7.7141e-033 4.21718e-008
f 328/328/328 329/329/329 330/330/330
v 0 0 0
v 0 0 0
v 0 0 0
vn 0 0 0
vn 0 0 0
vn 0 0 0
vt 1.50948e-019 7.71429e-033
vt 0.000169875 1.51795e-019
vt 7.71429e-033 1.68687e-007
f 331/331/331 332/332/332 333/333/333
v 0 0 0
v 0 0 0
v 0 0 0
vn 0 0 0
vn 0 0 0
vn 0 0 0
vt 1.51795e-019 7.71448e-033
vt 6.51659e-010 1.52642e-019
vt 7.71448e-033 6.74749e-007
f 334/334/334 335/335/335 336/336/336
v 0 0 0
v 0 0 0
v 0 0 0
vn 0 0 0
vn 0 0 0
vn 0 0 0
vt 1.52642e-019 7.71279e-033
vt 2.60663e-009 1.53489e-019
vt 7.71279e-033 2.699e-006
f 337/337/337 338/338/338 339/339/339
v 0 0 0
v 0 0 0
v 0 0 0
vn 0 0 0
vn 0 0 0
vn 0 0 0
vt 1.53489e-019 7.71297e-033
vt 1.04265e-008 1.54336e-019
vt 7.71297e-033 1.0796e-005
f 340/340/340 341/341/341 342/342/342
v 0 0 0
v 0 0 0
v 0 0 0
vn 0 0 0
vn 0 0 0
vn 0 0 0
vt 1.54336e-019 7.71316e-033
vt 4.17062e-008 1.55183e-019
vt 7.71316e-033 4.31839e-005
f 343/343/343 344/344/344 345/345/345
v 0 0 0
v 0 0 0
v 0 0 0
vn 0 0 0
vn 0 0 0
vn 0 0 0
vt 1.55183e-019 7.71335e-033
vt 1.66825e-007 1.5603e-019
vt 7.71335e-033 0.000172736
f 346/346/346 347/347/347 348/348/348
v 0 0 0
v 0 0 0
v 0 0 0
vn 0 0 0
vn 0 0 0
vn 0 0 0
vt 1.5603e-019 7.71354e-033
vt 6.67298e-007 1.56877e-019
vt 7.71354e-033 6.62573e-010
f 349/349/349 350/350/350 351/351/351
v 0 0 0
v 0 0 0
v 0 0 0
vn 0 0 0
vn 0 0 0
vn 0 0 0
vt 1.56877e-019 7.71373e-033
vt 2.66919e-006 1.49257e-019
vt 7.71373e-033 2.65029e-009
f 352/352/352 353/353/353 354/354/354
v 0 0 0
v 0 0 0
v 0 0 0
vn 0 0 0
vn 0 0 0
vn 0 0 0
vt 1.49257e-019 7.71391e-033
vt 1.06768e-005 1.50104e-019
vt 7.71391e-033 1.06012e-008
f 355/355/355 356/356/356 357/357/357
v 0 0 0
v 0 0 0
v 0 0 0
vn 0 0 0
vn 0 0 0
vn 0 0 0
vt 1.50104e-019 7.7141e-033
vt 4.27071e-005 1.50951e-019
vt 7.7141e-033 4.24046e-008
f 358/358/358 359/359/359 360/360/360
v 0 0 0
v 0 0 0
v 0 0 0
vn 0 0 0
vn 0 0 0
vn 0 0 0
vt 1.50951e-019 7.71429e-033
vt 0.000170828 1.51798e-019
vt 7.71429e-033 1.69619e-007
f 361/361/361 362/362/362 363/363/363
v 0 0 0
v 0 0 0
v 0 0 0
vn 0 0 0
vn 0 0 0
vn 0 0 0
vt 1.51798e-019 7.71448e-033
vt 6.55297e-010 1.52645e-019
vt 7.71448e-033 6.78474e-007
f 364/364/364 365/365/365 366/366/366
v 0 0 0
v 0 0 0
v 0 0 0
vn 0 0 0
vn 0 0 0
vn 0 0 0
vt 1.52645e-019 7.71279e-033
vt 2.62119e-009 1.53492e-019
vt 7.71279e-033 2.7139e-006
f 367/367/367 368/368/368 369/369/369
v 0 0 0
v 0 0 0
v 0 0 0
vn 0 0 0
vn 0 0 0
vn 0 0 0
vt 1.53492e-019 7.71297e-033
vt 1.04847e-008 1.54339e-019
vt 7.71297e-033 1.08556e-005
f 370/370/370 371/371/371 372/372/372
v 0 0 0
v 0 0 0
v 0 0 0
vn 0 0 0
vn 0 0 0
vn 0 0 0
vt 1.54339e-019 7.71316e-033
vt 4.1939e-008 1.55186e-019
vt 7.71316e-033 4.34224e-005
f 373/373/373 374/374/374 375/375/375
v 0 0 0
v 0 0 0
v 0 0 0
vn 0 0 0
vn 0 0 0
vn 0 0 0
vt 1.55186e-019 7.71335e-033
vt 1.67756e-007 1.56033e-019
vt 7.71335e-033 0.000173689
f 376/376/376 377/377/377 378/378/378
v 0 0 0
v 0 0 0
v 0 0 0
vn 0 0 0
vn 0 0 0
vn 0 0 0
vt 1.56033e-019 7.71354e-033
vt 6.71024e-007 1.5688e-019
vt 7.71354e-033 6.66211e-010
f 379/379/379 380/380/380 381/381/381
v 0 0 0
v 0 0 0
v 0 0 0
vn 0 0 0
vn 0 0 0
vn 0 0 0
vt 1.5688e-019 7.71373e-033
vt 2.68409e-006 1.4926e-019
vt 7.71373e-033 2.66484e-009
f 382/382/382 383/383/383 384/384/384
v 0 0 0
v 0 0 0
v 0 0 0
vn 0 0 0
vn 0 0 0
vn 0 0 0
vt 1.4926e-019 7.71391e-033
vt 1.07364e-005 1.50107e-019
vt 7.71391e-033 1.06594e-008
f 385/385/385 386/386/386 387/387/387
v 0 0 0
v 0 0 0
v 0 0 0
vn 0 0 0
vn 0 0 0
vn 0 0 0
vt 1.50107e-019 7.7141e-033
vt 4.29455e-005 1.50954e-019
vt 7.7141e-033 0.000171782
f 388/388/388 389/389/389 390/390/390
v 0 0 0
v 0 0 0
v 0 0 0
vn 0 0 0
vn 0 0 0
vn 0 0 0
vt 1.50954e-019 7.71429e-033
vt 6.63573e-007 1.56874e-019
vt 7.71429e-033 2566.44
f 391/391/391 392/392/392 393/393/393
v 0 0 0
v 0 0 0
v 0 0 0
vn 0 0 0
vn 0 0 0
vn 0 0 0
vt 3.07348e+032 9.36991e+008
vt 2.61362e+029 7.03667e+022
vt 1.16214e+027 160.431
f 394/394/394 395/395/395 396/396/396
v 0 0 0
v 0 0 0
v 0 0 0
vn 0 0 0
vn 0 0 0
vn 0 0 0
vt 1.30059e-008 9.12116e-012
vt 1.08588e-005 2.59304e-009
vt 6.33692e-010 1.72499e-007
f 397/397/397 398/398/398 399/399/399
v 0 0 0
v 0 0 0
v 0 0 0
vn 0 0 0
vn 0 0 0
vn 0 0 0
vt 4.09559e-011 6.75095e-007
vt 7.00757e+032 4.00578e-011
vt 2.68029e-009 5.82819e-010
f 400/400/400 401/401/401 402/402/402
v 0 0 0
v 0 0 0
v 0 0 0
vn 0 0 0
vn 0 0 0
vn 0 0 0
vt 4.39139e-005 1.50098e-019
vt 0.000172787 8.72559e-033
vt 6.29832e-010 6.44678e-010
f 403/403/403 404/404/404 405/405/405
v 0 0 0
v 0 0 0
v 0 0 0
vn 0 0 0
vn 0 0 0
vn 0 0 0
vt 1.52635e-019 4.20047e-005
vt 2.6226e-009 4.15334e-005
vt 2.59332e-009 2.08404e-019
f 406/406/406 407/407/407 408/408/408
v 0 0 0
v 0 0 0
v 0 0 0
vn 0 0 0
vn 0 0 0
vn 0 0 0
vt 4.05563e-008 1.03137e-008
vt 4.00464e-011 0.000175685
vt 5.96762e-007 2.69484e-009
f 409/409/409 410/410/410 411/411/411
v 0 0 0
v 0 0 0
v 0 0 0
vn 0 0 0
vn 0 0 0
vn 0 0 0
vt 8.8691e-033 6.29832e-010
vt 1.65027e-007 1.50111e-019
vt 4.20047e-005 2.6226e-009
f 412/412/412 413/413/413 414/414/414
v 0 0 0
v 0 0 0
v 0 0 0
vn 0 0 0
vn 0 0 0
vn 0 0 0
vt 2.53505e-009 2.72995e-006
vt 2.08404e-019 6.33693e-010
vt 2.74479e-006 4.00464e-011
f 415/415/415 416/416/416 417/417/417
v 0 0 0
v 0 0 0
v 0 0 0
vn 0 0 0
vn 0 0 0
vn 0 0 0
vt 0.000175685 5.96762e-007
vt 1.05617e-005 8.72465e-033
vt 4.00466e-011 1.04317e-008
f 418/418/418 419/419/419 420/420/420
