o data/uid/01011857/s/000006.obj
//1
usemtl mat0
v -0.145 -0.045 -0.15
v -0.145 -0.045 0.15
v -0.145 0.045 0.15
vn -0.5774 -0.5774 -0.5774
vn -0.5774 -0.5774 0.5774
vn -0.5774 0.5774 0.5774
vt 0.1585 0.0085
vt 0.1585 0.4915
vt 0.0088 0.4915
f 1/1/1 2/2/2 3/3/3
v -0.145 0.045 0.15
v -0.145 0.045 -0.15
v -0.145 -0.045 -0.15
vn -0.5774 0.5774 0.5774
vn -0.5774 0.5774 -0.5774
vn -0.5774 -0.5774 -0.5774
vt 0.0088 0.4915
vt 0.0088 0.0085
vt 0.1585 0.0085
f 4/4/4 5/5/5 6/6/6
v -0.145 -0.045 0.15
v 0.145 -0.045 0.15
v 0.145 0.045 0.15
vn -0.5774 -0.5774 0.5774
vn 0.5774 -0.5774 0.5774
vn 0.5774 0.5774 0.5774
vt 0.3434 0.3466
vt 0.8258 0.3466
vt 0.8258 0.4915
f 7/7/7 8/8/8 9/9/9
v 0.145 0.045 0.15
v -0.145 0.045 0.15
v -0.145 -0.045 0.15
vn 0.5774 0.5774 0.5774
vn -0.5774 0.5774 0.5774
vn -0.5774 -0.5774 0.5774
vt 0.8258 0.4915
vt 0.3434 0.4915
vt 0.3434 0.3466
f 10/10/10 11/11/11 12/12/12
v 0.145 -0.045 0.15
v 0.145 -0.045 -0.15
v 0.145 0.045 -0.15
vn 0.5774 -0.5774 0.5774
vn 0.5774 -0.5774 -0.5774
vn 0.5774 0.5774 -0.5774
vt 0.1761 0.4915
vt 0.1761 0.0085
vt 0.3258 0.0085
f 13/13/13 14/14/14 15/15/15
v 0.145 0.045 -0.15
v 0.145 0.045 0.15
v 0.145 -0.045 0.15
vn 0.5774 0.5774 -0.5774
vn 0.5774 0.5774 0.5774
vn 0.5774 -0.5774 0.5774
vt 0.3258 0.0085
vt 0.3258 0.4915
vt 0.1761 0.4915
f 16/16/16 17/17/17 18/18/18
v 0.145 -0.045 -0.15
v -0.145 -0.045 -0.15
v -0.145 0.045 -0.15
vn 0.5774 -0.5774 -0.5774
vn -0.5774 -0.5774 -0.5774
vn -0.5774 0.5774 -0.5774
vt 0.3434 0.1847
vt 0.8258 0.1847
vt 0.8258 0.3295
f 19/19/19 20/20/20 21/21/21
v -0.145 0.045 -0.15
v 0.145 0.045 -0.15
v 0.145 -0.045 -0.15
vn -0.5774 0.5774 -0.5774
vn 0.5774 0.5774 -0.5774
vn 0.5774 -0.5774 -0.5774
vt 0.8258 0.3295
vt 0.3434 0.3295
vt 0.3434 0.1847
f 22/22/22 23/23/23 24/24/24
v -0.145 0.045 -0.15
v -0.145 0.045 0.15
v 0.145 0.045 0.15
vn -0.5774 0.5774 -0.5774
vn -0.5774 0.5774 0.5774
vn 0.5774 0.5774 0.5774
vt 0.4912 0.5085
vt 0.4912 0.9915
vt 0.0088 0.9915
f 25/25/25 26/26/26 27/27/27
v 0.145 0.045 0.15
v 0.145 0.045 -0.15
v -0.145 0.045 -0.15
vn 0.5774 0.5774 0.5774
vn 0.5774 0.5774 -0.5774
vn -0.5774 0.5774 -0.5774
vt 0.0088 0.9915
vt 0.0088 0.5085
vt 0.4912 0.5085
f 28/28/28 29/29/29 30/30/30
v 0.145 -0.045 -0.15
v 0.145 -0.045 0.15
v -0.145 -0.045 0.15
vn 0.5774 -0.5774 -0.5774
vn 0.5774 -0.5774 0.5774
vn -0.5774 -0.5774 0.5774
vt 0.9912 0.5085
vt 0.9912 0.9915
vt 0.5088 0.9915
f 31/31/31 32/32/32 33/33/33
v -0.145 -0.045 0.15
v -0.145 -0.045 -0.15
v 0.145 -0.045 -0.15
vn -0.5774 -0.5774 0.5774
vn -0.5774 -0.5774 -0.5774
vn 0.5774 -0.5774 -0.5774
vt 0.5088 0.9915
vt 0.5088 0.5085
vt 0.9912 0.5085
f 34/34/34 35/35/35 36/36/36
